# This file uses centimeters as units for non-parametric coordinates.

mtllib BlueFlowerYellow.mtl
g default
v -0.235901 0.544684 0.150539
v -0.137375 0.584570 0.077769
v -0.129582 0.584570 0.094989
v -0.121789 0.584570 0.112210
v -0.066144 0.556298 0.040552
v -0.059630 0.556805 0.058440
v -0.050557 0.556298 0.074993
v 0.012628 0.446040 0.020687
v 0.012628 0.782426 -0.239142
v 0.042893 0.823178 -0.127989
v 0.012628 0.823178 -0.127989
v -0.017637 0.823178 -0.127989
v 0.042893 0.794292 -0.053520
v 0.012628 0.794810 -0.054856
v -0.017637 0.794292 -0.053520
v 0.012628 0.681641 0.020687
v 0.007012 0.000000 0.015231
v 0.007012 0.000000 0.036135
v 0.023861 0.000000 0.025683
v 0.007012 1.017191 0.015231
v 0.007012 1.017191 0.036135
v 0.023861 1.017191 0.025683
v 0.007012 0.508595 0.015231
v 0.007012 0.508595 0.036135
v 0.023861 0.508595 0.025683
v -0.055106 0.301050 0.178556
v -0.034411 0.326549 0.097174
v -0.015712 0.327956 0.110060
v 0.002986 0.329363 0.122945
v -0.006795 0.305395 0.052875
v 0.011408 0.307182 0.066556
v 0.030602 0.308210 0.078646
v 0.041247 0.227244 0.023994
v 0.011785 0.975421 0.010762
v -0.024981 0.975421 0.047528
v 0.011785 0.975421 0.084294
v 0.048551 0.975421 0.047528
v 0.011785 0.993395 -0.011961
v -0.047704 0.993395 0.047528
v 0.011785 0.993395 0.107017
v 0.071274 0.993395 0.047528
v 0.011785 1.015611 -0.011961
v -0.047704 1.015611 0.047528
v 0.011785 1.015611 0.107017
v 0.071274 1.015611 0.047528
v 0.011785 1.033585 0.010762
v -0.024981 1.033585 0.047528
v 0.011785 1.033585 0.084294
v 0.048551 1.033585 0.047528
v 0.011785 1.040450 0.047528
v 0.000972 0.980474 0.013726
v 0.011785 0.980474 0.047528
v 0.022599 0.980474 0.081330
v 0.058259 1.016007 -0.040286
v 0.073134 1.029215 0.027902
v 0.100598 1.016007 0.092064
v 0.122287 1.046560 -0.040555
v 0.132436 1.054637 0.008931
v 0.152894 1.046560 0.055120
v 0.235901 1.042616 -0.024167
v 0.040210 0.980474 0.068778
v 0.011785 0.980474 0.047528
v -0.016640 0.980474 0.026278
v 0.024909 1.016007 0.146011
v -0.026782 1.029215 0.099117
v -0.086386 1.016007 0.062809
v -0.027075 1.046560 0.183393
v -0.064062 1.054637 0.148985
v -0.107530 1.046560 0.123246
v -0.129105 1.042616 0.235990
v -0.023705 0.980474 0.047528
v 0.011785 0.980474 0.047528
v 0.047275 0.980474 0.047528
v -0.057693 1.016007 -0.023492
v 0.011785 1.029215 -0.016883
v 0.081264 1.016007 -0.023492
v -0.038441 1.046560 -0.084558
v 0.011785 1.054637 -0.079146
v 0.062011 1.046560 -0.084558
v 0.011785 1.042616 -0.187776
v 0.040685 0.980474 0.026930
v 0.011785 0.980474 0.047528
v -0.017115 0.980474 0.068127
v 0.109584 1.016007 0.065035
v 0.049170 1.029215 0.099980
v -0.003572 1.016007 0.145688
v 0.129349 1.046560 0.125937
v 0.085308 1.054637 0.150682
v 0.047549 1.046560 0.184240
v 0.148358 1.042616 0.239142
v 0.000206 0.980474 0.081076
v 0.011785 0.980474 0.047528
v 0.023364 0.980474 0.013980
v -0.078016 1.016007 0.090035
v -0.049102 1.029215 0.026514
v -0.032681 1.016007 -0.041319
v -0.129460 1.046560 0.051913
v -0.107958 1.054637 0.006201
v -0.096687 1.046560 -0.043043
v -0.210644 1.042616 -0.029240
vt 0.059549 0.819688
vt 0.034081 0.869459
vt 0.060217 0.866078
vt 0.092301 0.866746
vt 0.030254 0.922812
vt 0.063451 0.923567
vt 0.092778 0.923761
vt 0.063542 0.974819
vt 0.059549 0.819688
vt 0.060217 0.866078
vt 0.034081 0.869459
vt 0.092301 0.866746
vt 0.063451 0.923567
vt 0.030254 0.922812
vt 0.092778 0.923761
vt 0.063542 0.974819
vt 0.598908 0.566359
vt 0.630705 0.566359
vt 0.630705 0.713760
vt 0.598908 0.713760
vt 0.662501 0.566359
vt 0.662501 0.713760
vt 0.694298 0.566359
vt 0.694298 0.713760
vt 0.598908 0.418957
vt 0.630705 0.418957
vt 0.662501 0.418957
vt 0.694298 0.418957
vt 0.059549 0.819688
vt 0.060217 0.866078
vt 0.034081 0.869459
vt 0.092301 0.866746
vt 0.063451 0.923567
vt 0.030254 0.922812
vt 0.092778 0.923761
vt 0.063542 0.974819
vt 0.313751 0.307162
vt 0.389103 0.317341
vt 0.383926 0.317635
vt 0.314374 0.312320
vt 0.378936 0.393168
vt 0.378614 0.388290
vt 0.303109 0.382628
vt 0.307927 0.382028
vt 0.372616 0.328514
vt 0.325344 0.324116
vt 0.368094 0.377014
vt 0.319552 0.371459
vt 0.360527 0.342188
vt 0.338628 0.338180
vt 0.355369 0.364620
vt 0.332913 0.359067
vt 0.347208 0.351291
vt 0.553161 0.707669
vt 0.511817 0.715627
vt 0.511817 0.633865
vt 0.552044 0.633865
vt 0.466522 0.714047
vt 0.471589 0.633865
vt 0.511817 0.552102
vt 0.540521 0.552102
vt 0.482694 0.548942
vt 0.517209 0.456172
vt 0.553161 0.707669
vt 0.511817 0.715627
vt 0.511817 0.633865
vt 0.552044 0.633865
vt 0.466522 0.714047
vt 0.471589 0.633865
vt 0.511817 0.552102
vt 0.540521 0.552102
vt 0.482694 0.548942
vt 0.517209 0.456172
vt 0.553161 0.707669
vt 0.511817 0.715627
vt 0.511817 0.633865
vt 0.552044 0.633865
vt 0.466522 0.714047
vt 0.471589 0.633865
vt 0.511817 0.552102
vt 0.540521 0.552102
vt 0.482694 0.548942
vt 0.517209 0.456172
vt 0.553161 0.707669
vt 0.511817 0.715627
vt 0.511817 0.633865
vt 0.552044 0.633865
vt 0.466522 0.714047
vt 0.471589 0.633865
vt 0.511817 0.552102
vt 0.540521 0.552102
vt 0.482694 0.548942
vt 0.517209 0.456172
vt 0.553161 0.707669
vt 0.511817 0.715627
vt 0.511817 0.633865
vt 0.552044 0.633865
vt 0.466522 0.714047
vt 0.471589 0.633865
vt 0.511817 0.552102
vt 0.540521 0.552102
vt 0.482694 0.548942
vt 0.517209 0.456172
vn -0.287867 0.948767 0.130282
vn 0.052690 0.998326 -0.023846
vn 0.078135 0.996316 -0.035359
vn 0.057006 0.998040 -0.025801
vn 0.508463 0.829630 -0.230606
vn 0.536321 0.815255 -0.218447
vn 0.504144 0.826344 -0.250985
vn 0.734266 0.592152 -0.331978
vn 0.000000 0.938888 -0.344224
vn 0.000000 0.997973 0.063646
vn 0.000001 0.995480 0.094967
vn -0.000001 0.995480 0.094967
vn 0.000000 0.799898 0.600135
vn -0.012530 0.803367 0.595352
vn 0.012530 0.803367 0.595352
vn 0.000000 0.555194 0.831721
vn -1.000000 0.000000 0.000000
vn -1.000000 0.000000 0.000000
vn -1.000000 0.000000 0.000000
vn -1.000000 0.000000 0.000000
vn 0.527151 0.000000 0.849772
vn 0.527151 0.000000 0.849772
vn 0.527151 0.000000 0.849772
vn 0.527151 0.000000 0.849772
vn 0.527151 0.000000 -0.849772
vn 0.527151 0.000000 -0.849772
vn 0.527151 0.000000 -0.849772
vn 0.527151 0.000000 -0.849772
vn -1.000000 0.000000 0.000000
vn -1.000000 0.000000 0.000000
vn 0.527151 0.000000 0.849772
vn 0.527151 0.000000 0.849772
vn 0.527151 0.000000 -0.849772
vn 0.527151 0.000000 -0.849772
vn -0.233680 0.943212 0.236106
vn -0.006343 0.995022 -0.099451
vn 0.020722 0.990188 -0.138197
vn 0.004238 0.993399 -0.114629
vn 0.305069 0.791377 -0.529769
vn 0.317116 0.789760 -0.525087
vn 0.286103 0.803223 -0.522473
vn 0.447952 0.544692 -0.708978
vn -0.527174 -0.666467 -0.527171
vn -0.527174 -0.666467 -0.527171
vn -0.527174 -0.666467 -0.527171
vn -0.527174 -0.666467 -0.527171
vn -0.527174 -0.666467 0.527172
vn -0.527174 -0.666467 0.527172
vn -0.527174 -0.666467 0.527172
vn -0.527174 -0.666467 0.527172
vn 0.527172 -0.666467 0.527173
vn 0.527172 -0.666467 0.527173
vn 0.527172 -0.666467 0.527173
vn 0.527172 -0.666467 0.527173
vn 0.527172 -0.666467 -0.527173
vn 0.527172 -0.666467 -0.527173
vn 0.527172 -0.666467 -0.527173
vn 0.527172 -0.666467 -0.527173
vn -0.707107 0.000000 -0.707106
vn -0.707107 0.000000 -0.707106
vn -0.707107 0.000000 -0.707106
vn -0.707107 0.000000 -0.707106
vn -0.707107 0.000000 0.707106
vn -0.707107 0.000000 0.707106
vn -0.707107 0.000000 0.707106
vn -0.707107 0.000000 0.707106
vn 0.707106 0.000000 0.707107
vn 0.707106 0.000000 0.707107
vn 0.707106 0.000000 0.707107
vn 0.707106 0.000000 0.707107
vn 0.707106 0.000000 -0.707107
vn 0.707106 0.000000 -0.707107
vn 0.707106 0.000000 -0.707107
vn 0.707106 0.000000 -0.707107
vn -0.527174 0.666465 -0.527174
vn -0.527174 0.666465 -0.527174
vn -0.527174 0.666465 -0.527174
vn -0.527174 0.666465 -0.527174
vn -0.527174 0.666465 0.527174
vn -0.527174 0.666465 0.527174
vn -0.527174 0.666465 0.527174
vn -0.527174 0.666465 0.527174
vn 0.527172 0.666466 0.527174
vn 0.527172 0.666466 0.527174
vn 0.527172 0.666466 0.527174
vn 0.527172 0.666466 0.527174
vn 0.527172 0.666466 -0.527174
vn 0.527172 0.666466 -0.527174
vn 0.527172 0.666466 -0.527174
vn 0.527172 0.666466 -0.527174
vn -0.180540 0.966857 -0.180535
vn -0.180540 0.966857 -0.180535
vn -0.180540 0.966857 -0.180535
vn -0.180540 0.966857 0.180535
vn -0.180540 0.966857 0.180535
vn -0.180540 0.966857 0.180535
vn 0.180539 0.966857 0.180535
vn 0.180539 0.966857 0.180535
vn 0.180539 0.966857 0.180535
vn 0.180539 0.966857 -0.180535
vn 0.180539 0.966857 -0.180535
vn 0.180539 0.966857 -0.180535
vn -0.564125 0.824937 0.035255
vn -0.527049 0.832941 0.168605
vn -0.450493 0.881072 0.144114
vn -0.492417 0.870092 -0.021556
vn -0.479844 0.824936 0.298714
vn -0.388477 0.870092 0.303357
vn -0.195495 0.978709 0.062540
vn -0.278863 0.954286 -0.107583
vn -0.164643 0.954286 0.249462
vn 0.104758 0.993933 -0.033513
vn 0.438918 0.824936 -0.356134
vn 0.331330 0.832941 -0.443203
vn 0.283203 0.881072 -0.378826
vn 0.413498 0.870092 -0.268251
vn 0.217374 0.824937 -0.521754
vn 0.140276 0.870092 -0.472506
vn 0.122898 0.978709 -0.164395
vn 0.289526 0.954286 -0.074249
vn -0.010716 0.954286 -0.298704
vn -0.065856 0.993933 0.088093
vn -0.138305 0.824937 0.548043
vn 0.000000 0.832941 0.553361
vn 0.000000 0.881072 0.472983
vn -0.170566 0.870092 0.462436
vn 0.138304 0.824936 0.548044
vn 0.170566 0.870092 0.462436
vn -0.000000 0.978709 0.205255
vn -0.187434 0.954286 0.232824
vn 0.187434 0.954286 0.232823
vn 0.000000 0.993933 -0.109989
vn -0.205465 0.824937 -0.526558
vn -0.321176 0.832941 -0.450616
vn -0.274524 0.881072 -0.385162
vn -0.129506 0.870092 -0.475571
vn -0.430715 0.824936 -0.366013
vn -0.407298 0.870092 -0.277575
vn -0.119132 0.978709 -0.167144
vn 0.017499 0.954286 -0.298382
vn -0.287765 0.954286 -0.080807
vn 0.063838 0.993933 0.089567
vn 0.472935 0.824936 0.309536
vn 0.523084 0.832941 0.180534
vn 0.447103 0.881072 0.154311
vn 0.381486 0.870092 0.312103
vn 0.563179 0.824936 0.048062
vn 0.492780 0.870092 -0.010363
vn 0.194024 0.978709 0.066965
vn 0.158934 0.954286 0.253137
vn 0.281235 0.954286 -0.101217
vn -0.103970 0.993933 -0.035884
s 1
g BlueFlowerYellow
usemtl initialShadingGroup
f 1/1/1 3/3/2 2/2/3
f 1/1/1 4/4/4 3/3/2
f 2/2/3 3/3/2 6/6/5 5/5/6
f 3/3/2 4/4/4 7/7/7 6/6/5
f 5/5/6 6/6/5 8/8/8
f 6/6/5 7/7/7 8/8/8
s 2
f 9/9/9 11/10/10 10/11/11
f 9/9/9 12/12/12 11/10/10
f 10/11/11 11/10/10 14/13/13 13/14/14
f 11/10/10 12/12/12 15/15/15 14/13/13
f 13/14/14 14/13/13 16/16/16
f 14/13/13 15/15/15 16/16/16
s 3
f 23/17/17 24/18/18 21/19/19 20/20/20
s 4
f 24/18/21 25/21/22 22/22/23 21/19/24
s 5
f 25/21/25 23/23/26 20/24/27 22/22/28
s 3
f 17/25/29 18/26/30 24/18/18 23/17/17
s 4
f 18/26/31 19/27/32 25/21/22 24/18/21
s 5
f 19/27/33 17/28/34 23/23/26 25/21/25
s 6
f 26/29/35 28/30/36 27/31/37
f 26/29/35 29/32/38 28/30/36
f 27/31/37 28/30/36 31/33/39 30/34/40
f 28/30/36 29/32/38 32/35/41 31/33/39
f 30/34/40 31/33/39 33/36/42
f 31/33/39 32/35/41 33/36/42
s off
f 34/37/43 35/38/44 39/39/45 38/40/46
f 35/38/47 36/41/48 40/42/49 39/39/50
f 36/41/51 37/43/52 41/44/53 40/42/54
f 37/43/55 34/37/56 38/40/57 41/44/58
f 38/40/59 39/39/60 43/45/61 42/46/62
f 39/39/63 40/42/64 44/47/65 43/45/66
f 40/42/67 41/44/68 45/48/69 44/47/70
f 41/44/71 38/40/72 42/46/73 45/48/74
f 42/46/75 43/45/76 47/49/77 46/50/78
f 43/45/79 44/47/80 48/51/81 47/49/82
f 44/47/83 45/48/84 49/52/85 48/51/86
f 45/48/87 42/46/88 46/50/89 49/52/90
f 46/50/91 47/49/92 50/53/93
f 47/49/94 48/51/95 50/53/96
f 48/51/97 49/52/98 50/53/99
f 49/52/100 46/50/101 50/53/102
s 7
f 51/54/103 52/55/104 55/56/105 54/57/106
f 52/55/104 53/58/107 56/59/108 55/56/105
f 54/57/106 55/56/105 58/60/109 57/61/110
f 55/56/105 56/59/108 59/62/111 58/60/109
f 57/61/110 58/60/109 60/63/112
f 58/60/109 59/62/111 60/63/112
s 8
f 61/64/113 62/65/114 65/66/115 64/67/116
f 62/65/114 63/68/117 66/69/118 65/66/115
f 64/67/116 65/66/115 68/70/119 67/71/120
f 65/66/115 66/69/118 69/72/121 68/70/119
f 67/71/120 68/70/119 70/73/122
f 68/70/119 69/72/121 70/73/122
s 9
f 71/74/123 72/75/124 75/76/125 74/77/126
f 72/75/124 73/78/127 76/79/128 75/76/125
f 74/77/126 75/76/125 78/80/129 77/81/130
f 75/76/125 76/79/128 79/82/131 78/80/129
f 77/81/130 78/80/129 80/83/132
f 78/80/129 79/82/131 80/83/132
s 10
f 81/84/133 82/85/134 85/86/135 84/87/136
f 82/85/134 83/88/137 86/89/138 85/86/135
f 84/87/136 85/86/135 88/90/139 87/91/140
f 85/86/135 86/89/138 89/92/141 88/90/139
f 87/91/140 88/90/139 90/93/142
f 88/90/139 89/92/141 90/93/142
s 11
f 91/94/143 92/95/144 95/96/145 94/97/146
f 92/95/144 93/98/147 96/99/148 95/96/145
f 94/97/146 95/96/145 98/100/149 97/101/150
f 95/96/145 96/99/148 99/102/151 98/100/149
f 97/101/150 98/100/149 100/103/152
f 98/100/149 99/102/151 100/103/152
