# This file uses centimeters as units for non-parametric coordinates.

mtllib GreenPlant.mtl
g default
v 0.225044 0.368537 0.283336
v 0.023719 0.349802 0.216159
v 0.114450 0.349802 0.144095
v 0.205180 0.349802 0.072031
v -0.057293 0.185262 0.114163
v 0.034595 0.187204 0.043556
v 0.124168 0.185262 -0.029965
v 0.000000 -0.009087 0.000000
v -0.365330 0.208417 0.584771
v -0.329408 0.251991 0.308589
v -0.231142 0.251991 0.369980
v -0.132875 0.251991 0.431372
v -0.221784 0.212287 0.136318
v -0.125412 0.213368 0.200742
v -0.025250 0.212287 0.259100
v 0.002984 -0.001702 -0.004776
v 0.589135 0.208417 0.358249
v 0.312541 0.251991 0.325662
v 0.372742 0.251991 0.226662
v 0.432943 0.251991 0.127662
v 0.138983 0.212287 0.220123
v 0.202241 0.213368 0.122981
v 0.259386 0.212287 0.022123
v -0.004812 -0.001702 -0.002926
v 0.159217 0.208417 0.670875
v -0.012000 0.251991 0.451213
v 0.100736 0.251991 0.424458
v 0.213471 0.251991 0.397702
v -0.058905 0.212287 0.253576
v 0.054657 0.213368 0.230301
v 0.166567 0.212287 0.200065
v -0.001300 -0.001702 -0.005479
v -0.331950 0.368537 0.143992
v -0.214927 0.349802 -0.033068
v -0.168818 0.349802 0.073229
v -0.122709 0.349802 0.179526
v -0.095431 0.185262 -0.084903
v -0.051030 0.187204 0.022135
v -0.003213 0.185262 0.127692
v -0.000000 -0.009087 0.000000
v -0.672747 0.208417 0.151113
v -0.451035 0.251991 -0.017442
v -0.425642 0.251991 0.095608
v -0.400249 0.251991 0.208658
v -0.252847 0.212287 -0.061960
v -0.230943 0.213368 0.051874
v -0.202060 0.212287 0.164141
v 0.005495 -0.001702 -0.001234
v -0.359627 0.208417 -0.588295
v -0.128675 0.251991 -0.432643
v -0.227534 0.251991 -0.372210
v -0.326392 0.251991 -0.311778
v -0.022730 0.212287 -0.259333
v -0.123454 0.213368 -0.201952
v -0.220448 0.212287 -0.138468
v 0.002937 -0.001702 0.004805
v 0.271398 0.368537 -0.239306
v 0.214654 0.349802 -0.034795
v 0.138023 0.349802 -0.121703
v 0.061392 0.349802 -0.208610
v 0.116956 0.185262 0.051351
v 0.041721 0.187204 -0.036788
v -0.036306 0.185262 -0.122464
v 0.000000 -0.009087 0.000000
v 0.318552 0.208417 -0.611513
v 0.304306 0.251991 -0.333369
v 0.201546 0.251991 -0.386900
v 0.098785 0.251991 -0.440430
v 0.210462 0.212287 -0.153220
v 0.109354 0.213368 -0.209922
v 0.004941 0.212287 -0.260281
v -0.002602 -0.001702 0.004994
v 0.668905 0.208417 -0.167299
v 0.451325 0.251991 0.006556
v 0.423212 0.251991 -0.105849
v 0.395098 0.251991 -0.218254
v 0.254268 0.212287 0.055842
v 0.229624 0.213368 -0.057431
v 0.198041 0.212287 -0.168968
v -0.005463 -0.001702 0.001366
v -0.671933 0.279449 -0.304192
v -0.356314 0.306330 -0.288495
v -0.404100 0.306330 -0.182941
v -0.451886 0.306330 -0.077387
v -0.151036 0.259252 -0.195564
v -0.202279 0.260737 -0.091574
v -0.246608 0.259252 0.015545
v 0.000000 -0.009087 0.000000
v 0.414724 0.279449 0.609944
v 0.153598 0.306330 0.431969
v 0.249415 0.306330 0.366820
v 0.345231 0.306330 0.301670
v 0.026899 0.259252 0.245629
v 0.124849 0.260737 0.183618
v 0.218531 0.259252 0.115330
v 0.000000 -0.009087 0.000000
v 0.731780 0.279449 0.092330
v 0.425588 0.306330 0.170483
v 0.440092 0.306330 0.055527
v 0.454596 0.306330 -0.059428
v 0.202026 0.259252 0.142276
v 0.220296 0.260737 0.027795
v 0.231035 0.259252 -0.087636
v 0.000000 -0.009087 0.000000
v 0.553231 0.279449 -0.487814
v 0.409344 0.306330 -0.206464
v 0.332713 0.306330 -0.293371
v 0.256082 0.306330 -0.380279
v 0.240330 0.259252 -0.057435
v 0.166545 0.260737 -0.146852
v 0.087068 0.259252 -0.231249
v 0.000000 -0.009087 0.000000
v -0.657061 0.279449 0.335109
v -0.447798 0.306330 0.098316
v -0.395156 0.306330 0.201535
v -0.342513 0.306330 0.304753
v -0.247064 0.259252 -0.004061
v -0.197802 0.260737 0.100882
v -0.141779 0.259252 0.202375
v 0.000000 -0.009087 0.000000
v -0.183208 0.279449 0.714466
v -0.222417 0.306330 0.400899
v -0.110181 0.306330 0.429680
v 0.002055 0.306330 0.458460
v -0.166446 0.259252 0.182627
v -0.055153 0.260737 0.215083
v 0.058025 0.259252 0.240188
v 0.000000 -0.009087 0.000000
v 0.000000 0.279449 -0.737582
v 0.115867 0.306330 -0.443581
v 0.000000 0.306330 -0.443581
v -0.115867 0.306330 -0.443581
v 0.115867 0.259252 -0.218247
v 0.000000 0.260737 -0.222042
v -0.115867 0.259252 -0.218247
v 0.000000 -0.009087 0.000000
vt 0.058001 0.560884
vt 0.038648 0.634390
vt 0.059069 0.637716
vt 0.075867 0.632192
vt 0.036155 0.711993
vt 0.058703 0.712747
vt 0.078622 0.712942
vt 0.057867 0.775867
vt 0.166768 0.745906
vt 0.167836 0.827714
vt 0.146226 0.824388
vt 0.185426 0.822191
vt 0.167470 0.902746
vt 0.144922 0.901991
vt 0.187389 0.902940
vt 0.166634 0.969598
vt 0.166768 0.745906
vt 0.167836 0.827714
vt 0.146226 0.824388
vt 0.185426 0.822191
vt 0.167470 0.902746
vt 0.144922 0.901991
vt 0.187389 0.902940
vt 0.166634 0.969598
vt 0.166768 0.745906
vt 0.167836 0.827714
vt 0.146226 0.824388
vt 0.185426 0.822191
vt 0.167470 0.902746
vt 0.144922 0.901991
vt 0.187389 0.902940
vt 0.166634 0.969598
vt 0.058001 0.560884
vt 0.059069 0.637716
vt 0.038648 0.634390
vt 0.075867 0.632192
vt 0.058703 0.712747
vt 0.036155 0.711993
vt 0.078622 0.712942
vt 0.057867 0.775867
vt 0.166768 0.745906
vt 0.167836 0.827714
vt 0.146226 0.824388
vt 0.185426 0.822191
vt 0.167470 0.902746
vt 0.144922 0.901991
vt 0.187389 0.902940
vt 0.166634 0.969598
vt 0.166768 0.745906
vt 0.167836 0.827714
vt 0.146226 0.824388
vt 0.185426 0.822191
vt 0.167470 0.902746
vt 0.144922 0.901991
vt 0.187389 0.902940
vt 0.166634 0.969598
vt 0.058001 0.560884
vt 0.059069 0.637716
vt 0.038648 0.634390
vt 0.075867 0.632192
vt 0.058703 0.712747
vt 0.036155 0.711993
vt 0.078622 0.712942
vt 0.057867 0.775867
vt 0.166768 0.745906
vt 0.167836 0.827714
vt 0.146226 0.824388
vt 0.185426 0.822191
vt 0.167470 0.902746
vt 0.144922 0.901991
vt 0.187389 0.902940
vt 0.166634 0.969598
vt 0.166768 0.745906
vt 0.167836 0.827714
vt 0.146226 0.824388
vt 0.185426 0.822191
vt 0.167470 0.902746
vt 0.144922 0.901991
vt 0.187389 0.902940
vt 0.166634 0.969598
vt 0.058001 0.560884
vt 0.059069 0.637716
vt 0.038648 0.634390
vt 0.075867 0.632192
vt 0.058703 0.712747
vt 0.036155 0.711993
vt 0.078622 0.712942
vt 0.057867 0.775867
vt 0.058001 0.560884
vt 0.059069 0.637716
vt 0.038648 0.634390
vt 0.075867 0.632192
vt 0.058703 0.712747
vt 0.036155 0.711993
vt 0.078622 0.712942
vt 0.057867 0.775867
vt 0.058001 0.560884
vt 0.059069 0.637716
vt 0.038648 0.634390
vt 0.075867 0.632192
vt 0.058703 0.712747
vt 0.036155 0.711993
vt 0.078622 0.712942
vt 0.057867 0.775867
vt 0.058001 0.560884
vt 0.059069 0.637716
vt 0.038648 0.634390
vt 0.075867 0.632192
vt 0.058703 0.712747
vt 0.036155 0.711993
vt 0.078622 0.712942
vt 0.057867 0.775867
vt 0.058001 0.560884
vt 0.059069 0.637716
vt 0.038648 0.634390
vt 0.075867 0.632192
vt 0.058703 0.712747
vt 0.036155 0.711993
vt 0.078622 0.712942
vt 0.057867 0.775867
vt 0.058001 0.560884
vt 0.059069 0.637716
vt 0.038648 0.634390
vt 0.075867 0.632192
vt 0.058703 0.712747
vt 0.036155 0.711993
vt 0.078622 0.712942
vt 0.057867 0.775867
vt 0.058001 0.560884
vt 0.059069 0.637716
vt 0.038648 0.634390
vt 0.075867 0.632192
vt 0.058703 0.712747
vt 0.036155 0.711993
vt 0.078622 0.712942
vt 0.057867 0.775867
vn -0.065170 0.994495 -0.082050
vn -0.386280 0.783750 -0.486336
vn -0.418603 0.738552 -0.528501
vn -0.420035 0.738552 -0.527363
vn -0.532451 0.516819 -0.670368
vn -0.520550 0.540202 -0.661218
vn -0.526232 0.540202 -0.656705
vn -0.598392 0.272638 -0.753389
vn -0.089840 0.985520 0.143804
vn 0.028033 0.998599 -0.044872
vn 0.040836 0.996883 -0.067508
vn 0.042762 0.996883 -0.066304
vn 0.216851 0.912411 -0.347106
vn 0.209961 0.921162 -0.327685
vn 0.202420 0.921162 -0.332397
vn 0.351703 0.747920 -0.562957
vn 0.144877 0.985520 0.088099
vn -0.045207 0.998599 -0.027490
vn -0.067995 0.996883 -0.040018
vn -0.066815 0.996883 -0.041959
vn -0.349696 0.912411 -0.212648
vn -0.330194 0.921162 -0.205992
vn -0.334814 0.921162 -0.198395
vn -0.567159 0.747920 -0.344886
vn 0.039154 0.985520 0.164978
vn -0.012217 0.998599 -0.051479
vn -0.019322 0.996883 -0.076495
vn -0.017112 0.996883 -0.077020
vn -0.094508 0.912411 -0.398215
vn -0.085535 0.921162 -0.379664
vn -0.094187 0.921162 -0.377611
vn -0.153278 0.747920 -0.645849
vn 0.096128 0.994495 -0.041698
vn 0.569780 0.783750 -0.247156
vn 0.618877 0.738552 -0.267457
vn 0.618149 0.738552 -0.269134
vn 0.785388 0.516819 -0.340682
vn 0.773467 0.540202 -0.331557
vn 0.770580 0.540202 -0.338213
vn 0.882653 0.272638 -0.382873
vn -0.165439 0.985520 0.037161
vn 0.051623 0.998599 -0.011596
vn 0.076723 0.996883 -0.018398
vn 0.077221 0.996883 -0.016181
vn 0.399326 0.912411 -0.089697
vn 0.380668 0.921162 -0.080949
vn 0.378720 0.921162 -0.089625
vn 0.647652 0.747920 -0.145476
vn -0.088438 0.985520 -0.144671
vn 0.027596 0.998599 0.045142
vn 0.042116 0.996883 0.066717
vn 0.040177 0.996883 0.067902
vn 0.213466 0.912411 0.349198
vn 0.199178 0.921162 0.334349
vn 0.206764 0.921162 0.329711
vn 0.346212 0.747920 0.566351
vn -0.078593 0.994495 0.069300
vn -0.465844 0.783750 0.410761
vn -0.506292 0.738552 0.445207
vn -0.505083 0.738552 0.446579
vn -0.642122 0.516819 0.566195
vn -0.633595 0.540202 0.553840
vn -0.628797 0.540202 0.559282
vn -0.721645 0.272638 0.636315
vn 0.078337 0.985520 -0.150380
vn -0.024444 0.998599 0.046924
vn -0.035440 0.996883 0.070490
vn -0.037454 0.996883 0.069441
vn -0.189085 0.912411 0.362979
vn -0.183732 0.921162 0.343080
vn -0.175846 0.921162 0.347188
vn -0.306669 0.747920 0.588702
vn 0.164494 0.985520 -0.041141
vn -0.051328 0.998599 0.012838
vn -0.076257 0.996883 0.020243
vn -0.076808 0.996883 0.018040
vn -0.397046 0.912411 0.099305
vn -0.378605 0.921162 0.090109
vn -0.376447 0.921162 0.098736
vn -0.643954 0.747920 0.161058
vn -0.082948 0.995846 -0.037552
vn 0.080579 0.996081 0.036479
vn 0.098287 0.994258 0.042308
vn 0.096643 0.994258 0.045939
vn 0.428303 0.882587 0.193898
vn 0.406693 0.893637 0.189771
vn 0.410943 0.893637 0.180383
vn 0.703437 0.635424 0.318454
vn 0.051197 0.995846 0.075296
vn -0.049734 0.996080 -0.073145
vn -0.061804 0.994258 -0.087353
vn -0.058508 0.994258 -0.089594
vn -0.264353 0.882587 -0.388790
vn -0.248066 0.893637 -0.373999
vn -0.256587 0.893637 -0.368205
vn -0.434168 0.635424 -0.638541
vn 0.090336 0.995846 0.011398
vn -0.087756 0.996081 -0.011072
vn -0.106395 0.994258 -0.011415
vn -0.105896 0.994258 -0.015370
vn -0.466451 0.882587 -0.058853
vn -0.444585 0.893637 -0.061288
vn -0.445875 0.893637 -0.051064
vn -0.766090 0.635424 -0.096659
vn 0.068295 0.995846 -0.060219
vn -0.066344 0.996081 0.058499
vn -0.078929 0.994258 0.072253
vn -0.081565 0.994258 0.069263
vn -0.352640 0.882587 0.310942
vn -0.340005 0.893637 0.292932
vn -0.333190 0.893637 0.300661
vn -0.579169 0.635424 0.510686
vn -0.081112 0.995846 0.041368
vn 0.078795 0.996080 -0.040187
vn 0.094402 0.994258 -0.050383
vn 0.096213 0.994258 -0.046833
vn 0.418823 0.882587 -0.213605
vn 0.402110 0.893637 -0.199298
vn 0.397429 0.893637 -0.208477
vn 0.687867 0.635424 -0.350821
vn -0.022617 0.995846 0.088199
vn 0.021971 0.996081 -0.085679
vn 0.024644 0.994258 -0.104129
vn 0.028505 0.994258 -0.103139
vn 0.116780 0.882587 -0.455414
vn 0.116458 0.893637 -0.433416
vn 0.106477 0.893637 -0.435976
vn 0.191798 0.635424 -0.747964
vn 0.000000 0.995846 -0.091052
vn 0.000000 0.996081 0.088451
vn 0.001993 0.994258 0.106987
vn -0.001993 0.994258 0.106987
vn 0.000000 0.882587 0.470149
vn -0.005152 0.893637 0.448760
vn 0.005152 0.893637 0.448760
vn 0.000000 0.635424 0.772163
s 1
g GreenPlant
usemtl initialShadingGroup
f 1/1/1 3/3/2 2/2/3
f 1/1/1 4/4/4 3/3/2
f 2/2/3 3/3/2 6/6/5 5/5/6
f 3/3/2 4/4/4 7/7/7 6/6/5
f 5/5/6 6/6/5 8/8/8
f 6/6/5 7/7/7 8/8/8
s 2
f 9/9/9 11/10/10 10/11/11
f 9/9/9 12/12/12 11/10/10
f 10/11/11 11/10/10 14/13/13 13/14/14
f 11/10/10 12/12/12 15/15/15 14/13/13
f 13/14/14 14/13/13 16/16/16
f 14/13/13 15/15/15 16/16/16
s 3
f 17/17/17 19/18/18 18/19/19
f 17/17/17 20/20/20 19/18/18
f 18/19/19 19/18/18 22/21/21 21/22/22
f 19/18/18 20/20/20 23/23/23 22/21/21
f 21/22/22 22/21/21 24/24/24
f 22/21/21 23/23/23 24/24/24
s 4
f 25/25/25 27/26/26 26/27/27
f 25/25/25 28/28/28 27/26/26
f 26/27/27 27/26/26 30/29/29 29/30/30
f 27/26/26 28/28/28 31/31/31 30/29/29
f 29/30/30 30/29/29 32/32/32
f 30/29/29 31/31/31 32/32/32
s 5
f 33/33/33 35/34/34 34/35/35
f 33/33/33 36/36/36 35/34/34
f 34/35/35 35/34/34 38/37/37 37/38/38
f 35/34/34 36/36/36 39/39/39 38/37/37
f 37/38/38 38/37/37 40/40/40
f 38/37/37 39/39/39 40/40/40
s 6
f 41/41/41 43/42/42 42/43/43
f 41/41/41 44/44/44 43/42/42
f 42/43/43 43/42/42 46/45/45 45/46/46
f 43/42/42 44/44/44 47/47/47 46/45/45
f 45/46/46 46/45/45 48/48/48
f 46/45/45 47/47/47 48/48/48
s 7
f 49/49/49 51/50/50 50/51/51
f 49/49/49 52/52/52 51/50/50
f 50/51/51 51/50/50 54/53/53 53/54/54
f 51/50/50 52/52/52 55/55/55 54/53/53
f 53/54/54 54/53/53 56/56/56
f 54/53/53 55/55/55 56/56/56
s 8
f 57/57/57 59/58/58 58/59/59
f 57/57/57 60/60/60 59/58/58
f 58/59/59 59/58/58 62/61/61 61/62/62
f 59/58/58 60/60/60 63/63/63 62/61/61
f 61/62/62 62/61/61 64/64/64
f 62/61/61 63/63/63 64/64/64
s 9
f 65/65/65 67/66/66 66/67/67
f 65/65/65 68/68/68 67/66/66
f 66/67/67 67/66/66 70/69/69 69/70/70
f 67/66/66 68/68/68 71/71/71 70/69/69
f 69/70/70 70/69/69 72/72/72
f 70/69/69 71/71/71 72/72/72
s 10
f 73/73/73 75/74/74 74/75/75
f 73/73/73 76/76/76 75/74/74
f 74/75/75 75/74/74 78/77/77 77/78/78
f 75/74/74 76/76/76 79/79/79 78/77/77
f 77/78/78 78/77/77 80/80/80
f 78/77/77 79/79/79 80/80/80
s 11
f 81/81/81 83/82/82 82/83/83
f 81/81/81 84/84/84 83/82/82
f 82/83/83 83/82/82 86/85/85 85/86/86
f 83/82/82 84/84/84 87/87/87 86/85/85
f 85/86/86 86/85/85 88/88/88
f 86/85/85 87/87/87 88/88/88
s 12
f 89/89/89 91/90/90 90/91/91
f 89/89/89 92/92/92 91/90/90
f 90/91/91 91/90/90 94/93/93 93/94/94
f 91/90/90 92/92/92 95/95/95 94/93/93
f 93/94/94 94/93/93 96/96/96
f 94/93/93 95/95/95 96/96/96
s 13
f 97/97/97 99/98/98 98/99/99
f 97/97/97 100/100/100 99/98/98
f 98/99/99 99/98/98 102/101/101 101/102/102
f 99/98/98 100/100/100 103/103/103 102/101/101
f 101/102/102 102/101/101 104/104/104
f 102/101/101 103/103/103 104/104/104
s 14
f 105/105/105 107/106/106 106/107/107
f 105/105/105 108/108/108 107/106/106
f 106/107/107 107/106/106 110/109/109 109/110/110
f 107/106/106 108/108/108 111/111/111 110/109/109
f 109/110/110 110/109/109 112/112/112
f 110/109/109 111/111/111 112/112/112
s 15
f 113/113/113 115/114/114 114/115/115
f 113/113/113 116/116/116 115/114/114
f 114/115/115 115/114/114 118/117/117 117/118/118
f 115/114/114 116/116/116 119/119/119 118/117/117
f 117/118/118 118/117/117 120/120/120
f 118/117/117 119/119/119 120/120/120
s 16
f 121/121/121 123/122/122 122/123/123
f 121/121/121 124/124/124 123/122/122
f 122/123/123 123/122/122 126/125/125 125/126/126
f 123/122/122 124/124/124 127/127/127 126/125/125
f 125/126/126 126/125/125 128/128/128
f 126/125/125 127/127/127 128/128/128
s 17
f 129/129/129 131/130/130 130/131/131
f 129/129/129 132/132/132 131/130/130
f 130/131/131 131/130/130 134/133/133 133/134/134
f 131/130/130 132/132/132 135/135/135 134/133/133
f 133/134/134 134/133/133 136/136/136
f 134/133/133 135/135/135 136/136/136
