# This file uses centimeters as units for non-parametric coordinates.

mtllib Reed1.mtl
g default
v 0.058652 -0.000000 0.005458
v 0.000000 -0.000000 0.000000
v -0.058652 -0.000000 -0.005457
v 0.051297 0.703480 0.254407
v -0.007355 0.703480 0.248949
v -0.066008 0.703479 0.243492
v 0.058359 1.323352 0.631249
v -0.000293 1.323352 0.625792
v -0.058945 1.323352 0.620334
v 0.016271 1.888125 1.086920
v 0.001461 -0.000000 0.058887
v -0.000000 -0.000000 0.000000
v -0.001461 -0.000000 -0.058887
v -0.246632 0.703480 0.080789
v -0.248093 0.703480 0.021901
v -0.249554 0.703479 -0.036987
v -0.620044 1.323352 0.132012
v -0.621505 1.323352 0.073124
v -0.622966 1.323352 0.014237
v -1.077506 1.888125 0.143671
v -0.070558 -0.000000 0.000000
v 0.000000 -0.000000 0.000000
v 0.070558 -0.000000 0.000000
v -0.070559 0.782765 -0.100068
v 0.000000 0.782765 -0.100068
v 0.070559 0.782764 -0.100069
v -0.070558 1.509220 -0.366722
v 0.000000 1.509220 -0.366722
v 0.070558 1.509220 -0.366722
v 0.000000 2.198566 -0.743160
v 0.244531 1.894457 -0.036063
v 0.244531 1.894457 0.036062
v 0.290251 1.878215 0.000000
v 0.314673 2.153871 0.000000
v 0.191252 1.437443 -0.098316
v 0.106652 1.467496 -0.060762
v 0.106652 1.467496 0.060762
v 0.191252 1.437443 0.098315
v 0.243537 1.418869 0.000000
v 0.279628 1.863731 -0.098316
v 0.195028 1.893785 -0.060762
v 0.195028 1.893785 0.060762
v 0.279628 1.863731 0.098315
v 0.331913 1.845158 0.000000
v 0.150613 1.362514 0.000000
v 0.273501 1.955274 0.000000
v -0.020069 0.000000 -0.028732
v -0.020069 0.000000 0.028732
v 0.017676 0.000000 0.000000
v 0.172338 1.530194 -0.028732
v 0.172338 1.530194 0.028732
v 0.208766 1.517253 0.000000
v 0.050806 0.975812 -0.028732
v 0.050806 0.975812 0.028732
v 0.087232 0.962872 0.000000
v -0.070558 -0.000000 0.000000
v 0.000000 -0.000000 0.000000
v 0.070558 -0.000000 0.000000
v -0.070559 0.782765 -0.100068
v 0.000000 0.782765 -0.100068
v 0.070559 0.782764 -0.100069
v -0.070558 1.509220 -0.366722
v 0.000000 1.509220 -0.366722
v 0.070558 1.509220 -0.366722
v 0.000000 2.198566 -0.743160
v -0.029143 -0.000000 -0.049232
v 0.000000 -0.000000 -0.000000
v 0.029143 -0.000000 0.049232
v 0.056968 0.650428 -0.100207
v 0.086112 0.650428 -0.050975
v 0.115255 0.650428 -0.001742
v 0.286432 1.254067 -0.236039
v 0.315576 1.254067 -0.186807
v 0.344719 1.254067 -0.137575
v 0.639512 1.826870 -0.378563
v 0.032714 -0.000000 -0.048986
v 0.000000 -0.000000 0.000000
v -0.032714 -0.000000 0.048986
v 0.248160 0.703480 0.075966
v 0.215446 0.703480 0.124952
v 0.182731 0.703479 0.173938
v 0.582947 1.323352 0.249107
v 0.550233 1.323352 0.298093
v 0.517519 1.323352 0.347079
v 0.963670 1.888125 0.502992
v 0.054560 -0.000000 -0.044739
v 0.000000 -0.000000 0.000000
v -0.054560 -0.000000 0.044740
v 0.137606 0.420855 0.056534
v 0.083046 0.420855 0.101274
v 0.028486 0.420855 0.146015
v 0.358899 0.811436 0.326401
v 0.304339 0.811436 0.371141
v 0.249780 0.811436 0.415881
v 0.616742 1.182064 0.752115
v 0.011877 -0.000000 0.069551
v 0.000000 -0.000000 0.000000
v -0.011877 -0.000000 -0.069551
v -0.117223 0.420855 0.091598
v -0.129101 0.420855 0.022046
v -0.140978 0.420855 -0.047506
v -0.461241 0.811436 0.150344
v -0.473118 0.811436 0.080793
v -0.484995 0.811436 0.011241
v -0.958771 1.182064 0.163726
v -0.030505 -0.000000 0.063623
v 0.000000 -0.000000 0.000000
v 0.030505 -0.000000 -0.063623
v -0.148602 0.643519 0.007000
v -0.118097 0.643519 -0.056624
v -0.087592 0.643518 -0.120247
v -0.463296 1.240745 -0.143887
v -0.432791 1.240745 -0.207510
v -0.402286 1.240745 -0.271133
v -0.877048 1.807463 -0.420517
vt 0.294662 0.030077
vt 0.323367 0.030077
vt 0.352071 0.030077
vt 0.294662 0.111840
vt 0.323367 0.111840
vt 0.352071 0.111840
vt 0.294662 0.193602
vt 0.323367 0.193602
vt 0.352071 0.193602
vt 0.323365 0.275312
vt 0.294662 0.030077
vt 0.323367 0.030077
vt 0.323367 0.111840
vt 0.294662 0.111840
vt 0.352071 0.030077
vt 0.352071 0.111840
vt 0.323367 0.193602
vt 0.294662 0.193602
vt 0.352071 0.193602
vt 0.323365 0.275312
vt 0.294662 0.030077
vt 0.323367 0.030077
vt 0.323367 0.111840
vt 0.294662 0.111840
vt 0.352071 0.030077
vt 0.352071 0.111840
vt 0.323367 0.193602
vt 0.294662 0.193602
vt 0.352071 0.193602
vt 0.323365 0.275312
vt 0.758992 0.408518
vt 0.807279 0.408518
vt 0.831422 0.687955
vt 0.855565 0.408518
vt 0.903851 0.408518
vt 0.589729 0.201255
vt 0.615697 0.214443
vt 0.619828 0.338193
vt 0.590231 0.354094
vt 0.642366 0.219027
vt 0.647564 0.332773
vt 0.668896 0.218671
vt 0.674094 0.332417
vt 0.696633 0.213251
vt 0.700764 0.337000
vt 0.726229 0.197350
vt 0.726732 0.350189
vt 0.655865 0.183580
vt 0.660595 0.367864
vt 0.598908 0.566359
vt 0.630705 0.566359
vt 0.630705 0.713760
vt 0.598908 0.713760
vt 0.662501 0.566359
vt 0.662501 0.713760
vt 0.694298 0.566359
vt 0.694298 0.713760
vt 0.598908 0.418957
vt 0.630705 0.418957
vt 0.662501 0.418957
vt 0.694298 0.418957
vt 0.294662 0.030077
vt 0.323367 0.030077
vt 0.323367 0.111840
vt 0.294662 0.111840
vt 0.352071 0.030077
vt 0.352071 0.111840
vt 0.323367 0.193602
vt 0.294662 0.193602
vt 0.352071 0.193602
vt 0.323365 0.275312
vt 0.294662 0.030077
vt 0.323367 0.030077
vt 0.323367 0.111840
vt 0.294662 0.111840
vt 0.352071 0.030077
vt 0.352071 0.111840
vt 0.323367 0.193602
vt 0.294662 0.193602
vt 0.352071 0.193602
vt 0.323365 0.275312
vt 0.294662 0.030077
vt 0.323367 0.030077
vt 0.323367 0.111840
vt 0.294662 0.111840
vt 0.352071 0.030077
vt 0.352071 0.111840
vt 0.323367 0.193602
vt 0.294662 0.193602
vt 0.352071 0.193602
vt 0.323365 0.275312
vt 0.294662 0.030077
vt 0.323367 0.030077
vt 0.323367 0.111840
vt 0.294662 0.111840
vt 0.352071 0.030077
vt 0.352071 0.111840
vt 0.323367 0.193602
vt 0.294662 0.193602
vt 0.352071 0.193602
vt 0.323365 0.275312
vt 0.294662 0.030077
vt 0.323367 0.030077
vt 0.323367 0.111840
vt 0.294662 0.111840
vt 0.352071 0.030077
vt 0.352071 0.111840
vt 0.323367 0.193602
vt 0.294662 0.193602
vt 0.352071 0.193602
vt 0.323365 0.275312
vt 0.294662 0.030077
vt 0.323367 0.030077
vt 0.323367 0.111840
vt 0.294662 0.111840
vt 0.352071 0.030077
vt 0.352071 0.111840
vt 0.323367 0.193602
vt 0.294662 0.193602
vt 0.352071 0.193602
vt 0.323365 0.275312
vn 0.087361 0.333145 -0.938820
vn 0.087357 0.333145 -0.938820
vn 0.083822 0.426006 -0.900829
vn 0.083723 0.428304 -0.899748
vn 0.087353 0.333145 -0.938820
vn 0.083922 0.423652 -0.901929
vn 0.077016 0.555890 -0.827680
vn 0.076955 0.556858 -0.827035
vn 0.077238 0.552304 -0.830057
vn 0.071987 0.629542 -0.773625
vn 0.942586 0.333145 -0.023387
vn 0.942586 0.333145 -0.023385
vn 0.904442 0.426006 -0.022440
vn 0.903356 0.428304 -0.022414
vn 0.942586 0.333145 -0.023383
vn 0.905546 0.423652 -0.022466
vn 0.831000 0.555891 -0.020618
vn 0.830352 0.556858 -0.020601
vn 0.833386 0.552305 -0.020678
vn 0.776728 0.629542 -0.019270
vn 0.000003 0.126807 0.991927
vn 0.000003 0.126808 0.991927
vn 0.000003 0.236117 0.971725
vn 0.000003 0.236117 0.971725
vn 0.000003 0.126808 0.991927
vn 0.000003 0.236117 0.971725
vn 0.000002 0.390881 0.920441
vn 0.000002 0.389108 0.921192
vn 0.000002 0.389108 0.921192
vn 0.000000 0.479275 0.877665
vn -0.965334 0.261016 0.000000
vn -0.965334 0.261016 0.000000
vn -0.965334 0.261016 0.000000
vn 0.606563 -0.053739 0.793217
vn 0.606563 -0.053739 0.793217
vn 0.606563 -0.053739 0.793217
vn 0.606568 -0.053740 -0.793214
vn 0.606568 -0.053740 -0.793213
vn 0.606568 -0.053740 -0.793214
vn -0.380883 0.078963 -0.921245
vn -0.380883 0.078963 -0.921245
vn -0.380883 0.078963 -0.921245
vn -0.380883 0.078963 -0.921245
vn -0.979179 0.202999 0.000000
vn -0.979179 0.202999 0.000000
vn -0.979179 0.202999 0.000000
vn -0.979179 0.202999 0.000000
vn -0.380883 0.078963 0.921245
vn -0.380883 0.078963 0.921245
vn -0.380883 0.078963 0.921245
vn -0.380883 0.078963 0.921245
vn 0.854671 -0.177186 0.487999
vn 0.854671 -0.177186 0.487999
vn 0.854671 -0.177186 0.487999
vn 0.854671 -0.177186 0.487999
vn 0.854671 -0.177187 -0.487998
vn 0.854671 -0.177187 -0.487998
vn 0.854672 -0.177187 -0.487998
vn 0.854671 -0.177187 -0.487998
vn -0.780261 -0.524204 -0.341178
vn -0.080601 -0.776418 -0.625043
vn -0.303700 -0.952768 0.000000
vn -0.780262 -0.524203 0.341178
vn -0.080601 -0.776416 0.625045
vn 0.518551 -0.855047 0.000000
vn 0.496448 0.650523 -0.574769
vn -0.338876 0.843763 -0.416206
vn 0.300112 0.953904 0.000000
vn -0.338878 0.843762 0.416206
vn 0.496447 0.650522 0.574771
vn 0.883405 0.468610 -0.000000
vn -0.992187 0.124758 0.000000
vn -0.992187 0.124758 0.000000
vn -0.976804 0.214137 0.000000
vn -0.976804 0.214137 0.000000
vn 0.598570 -0.079687 0.797097
vn 0.600535 -0.071717 0.796376
vn 0.585652 -0.128389 0.800330
vn 0.585652 -0.128389 0.800330
vn 0.600541 -0.071718 -0.796371
vn 0.598577 -0.079688 -0.797092
vn 0.585658 -0.128390 -0.800325
vn 0.585658 -0.128390 -0.800325
vn -0.997373 0.072440 0.000000
vn -0.997373 0.072440 0.000000
vn 0.607046 -0.043972 0.793450
vn 0.607046 -0.043972 0.793450
vn 0.607052 -0.043972 -0.793445
vn 0.607052 -0.043972 -0.793445
vn 0.000003 0.126807 0.991927
vn 0.000003 0.126808 0.991927
vn 0.000003 0.236117 0.971725
vn 0.000003 0.236117 0.971725
vn 0.000003 0.126808 0.991927
vn 0.000003 0.236117 0.971725
vn 0.000002 0.390881 0.920441
vn 0.000002 0.389108 0.921192
vn 0.000002 0.389108 0.921192
vn 0.000000 0.479275 0.877665
vn -0.850521 0.152060 0.503480
vn -0.850523 0.152061 0.503476
vn -0.825940 0.280672 0.488924
vn -0.825938 0.280672 0.488927
vn -0.850525 0.152061 0.503473
vn -0.825942 0.280671 0.488921
vn -0.766259 0.455082 0.453594
vn -0.767044 0.453289 0.454062
vn -0.767047 0.453288 0.454058
vn -0.719137 0.549203 0.425697
vn -0.784100 0.333145 -0.523643
vn -0.784100 0.333145 -0.523643
vn -0.752370 0.426006 -0.502452
vn -0.751467 0.428305 -0.501849
vn -0.784100 0.333146 -0.523643
vn -0.753288 0.423652 -0.503066
vn -0.691276 0.555890 -0.461653
vn -0.690737 0.556858 -0.461293
vn -0.693260 0.552304 -0.462979
vn -0.646128 0.629542 -0.431505
vn -0.605450 0.297142 -0.738334
vn -0.605448 0.297143 -0.738335
vn -0.545762 0.509108 -0.665547
vn -0.545763 0.509108 -0.665547
vn -0.605447 0.297144 -0.738336
vn -0.545761 0.509108 -0.665548
vn -0.440864 0.718746 -0.537627
vn -0.442423 0.716360 -0.539528
vn -0.442424 0.716359 -0.539528
vn -0.381186 0.799130 -0.464852
vn 0.941208 0.297142 -0.160733
vn 0.941208 0.297143 -0.160731
vn 0.848420 0.509108 -0.144886
vn 0.848420 0.509108 -0.144887
vn 0.941208 0.297143 -0.160730
vn 0.848420 0.509108 -0.144885
vn 0.685351 0.718747 -0.117037
vn 0.687774 0.716360 -0.117452
vn 0.687775 0.716359 -0.117451
vn 0.592580 0.799130 -0.101192
vn 0.883599 0.199433 0.423651
vn 0.883598 0.199433 0.423651
vn 0.840982 0.360784 0.403218
vn 0.840982 0.360784 0.403217
vn 0.883598 0.199434 0.423652
vn 0.840981 0.360784 0.403218
vn 0.747011 0.560082 0.358165
vn 0.748322 0.557926 0.358793
vn 0.748322 0.557926 0.358793
vn 0.680504 0.656091 0.326281
s 1
g Reed1
usemtl initialShadingGroup
f 1/1/1 2/2/2 5/5/3 4/4/4
f 2/2/2 3/3/5 6/6/6 5/5/3
f 4/4/4 5/5/3 8/8/7 7/7/8
f 5/5/3 6/6/6 9/9/9 8/8/7
f 7/7/8 8/8/7 10/10/10
f 8/8/7 9/9/9 10/10/10
s 2
f 11/11/11 12/12/12 15/13/13 14/14/14
f 12/12/12 13/15/15 16/16/16 15/13/13
f 14/14/14 15/13/13 18/17/17 17/18/18
f 15/13/13 16/16/16 19/19/19 18/17/17
f 17/18/18 18/17/17 20/20/20
f 18/17/17 19/19/19 20/20/20
s 3
f 21/21/21 22/22/22 25/23/23 24/24/24
f 22/22/22 23/25/25 26/26/26 25/23/23
f 24/24/24 25/23/23 28/27/27 27/28/28
f 25/23/23 26/26/26 29/29/29 28/27/27
f 27/28/28 28/27/27 30/30/30
f 28/27/27 29/29/29 30/30/30
s off
f 31/31/31 32/32/32 34/33/33
f 32/32/34 33/34/35 34/33/36
f 33/34/37 31/35/38 34/33/39
f 35/36/40 36/37/41 41/38/42 40/39/43
f 36/37/44 37/40/45 42/41/46 41/38/47
f 37/40/48 38/42/49 43/43/50 42/41/51
f 38/42/52 39/44/53 44/45/54 43/43/55
f 39/44/56 35/46/57 40/47/58 44/45/59
s 4
f 36/37/60 35/36/61 45/48/62
f 37/40/63 36/37/60 45/48/62
f 38/42/64 37/40/63 45/48/62
f 39/44/65 38/42/64 45/48/62
f 35/46/61 39/44/65 45/48/62
s 5
f 40/39/66 41/38/67 46/49/68
f 41/38/67 42/41/69 46/49/68
f 42/41/69 43/43/70 46/49/68
f 43/43/70 44/45/71 46/49/68
f 44/45/71 40/47/66 46/49/68
s 6
f 53/50/72 54/51/73 51/52/74 50/53/75
s 7
f 54/51/76 55/54/77 52/55/78 51/52/79
s 8
f 55/54/80 53/56/81 50/57/82 52/55/83
s 6
f 47/58/84 48/59/85 54/51/73 53/50/72
s 7
f 48/59/86 49/60/87 55/54/77 54/51/76
s 8
f 49/60/88 47/61/89 53/56/81 55/54/80
s 9
f 56/62/90 57/63/91 60/64/92 59/65/93
f 57/63/91 58/66/94 61/67/95 60/64/92
f 59/65/93 60/64/92 63/68/96 62/69/97
f 60/64/92 61/67/95 64/70/98 63/68/96
f 62/69/97 63/68/96 65/71/99
f 63/68/96 64/70/98 65/71/99
s 10
f 66/72/100 67/73/101 70/74/102 69/75/103
f 67/73/101 68/76/104 71/77/105 70/74/102
f 69/75/103 70/74/102 73/78/106 72/79/107
f 70/74/102 71/77/105 74/80/108 73/78/106
f 72/79/107 73/78/106 75/81/109
f 73/78/106 74/80/108 75/81/109
s 11
f 76/82/110 77/83/111 80/84/112 79/85/113
f 77/83/111 78/86/114 81/87/115 80/84/112
f 79/85/113 80/84/112 83/88/116 82/89/117
f 80/84/112 81/87/115 84/90/118 83/88/116
f 82/89/117 83/88/116 85/91/119
f 83/88/116 84/90/118 85/91/119
s 12
f 86/92/120 87/93/121 90/94/122 89/95/123
f 87/93/121 88/96/124 91/97/125 90/94/122
f 89/95/123 90/94/122 93/98/126 92/99/127
f 90/94/122 91/97/125 94/100/128 93/98/126
f 92/99/127 93/98/126 95/101/129
f 93/98/126 94/100/128 95/101/129
s 13
f 96/102/130 97/103/131 100/104/132 99/105/133
f 97/103/131 98/106/134 101/107/135 100/104/132
f 99/105/133 100/104/132 103/108/136 102/109/137
f 100/104/132 101/107/135 104/110/138 103/108/136
f 102/109/137 103/108/136 105/111/139
f 103/108/136 104/110/138 105/111/139
s 14
f 106/112/140 107/113/141 110/114/142 109/115/143
f 107/113/141 108/116/144 111/117/145 110/114/142
f 109/115/143 110/114/142 113/118/146 112/119/147
f 110/114/142 111/117/145 114/120/148 113/118/146
f 112/119/147 113/118/146 115/121/149
f 113/118/146 114/120/148 115/121/149
