# This file uses centimeters as units for non-parametric coordinates.

mtllib Chain.mtl
g default
v 1.060660 3.280330 0.000000
v 0.000000 3.719670 0.000000
v -1.060660 3.280330 0.000000
v -1.500000 0.000000 0.000000
v -1.060660 -3.280330 0.000000
v 0.000000 -3.719670 0.000000
v 1.060660 -3.280330 0.000000
v 1.500000 0.000000 0.000000
v 1.164213 3.383883 0.353553
v 0.000000 3.866117 0.353553
v -1.164213 3.383883 0.353553
v -1.646446 -0.000000 0.353553
v -1.164213 -3.383883 0.353553
v 0.000000 -3.866117 0.353553
v 1.164214 -3.383883 0.353553
v 1.646447 -0.000000 0.353553
v 1.414213 3.633883 0.500000
v 0.000000 4.219670 0.500000
v -1.414213 3.633883 0.500000
v -2.000000 -0.000000 0.500000
v -1.414213 -3.633883 0.500000
v 0.000000 -4.219670 0.500000
v 1.414214 -3.633883 0.500000
v 2.000000 -0.000000 0.500000
v 1.664213 3.883883 0.353553
v 0.000000 4.573223 0.353553
v -1.664213 3.883883 0.353553
v -2.353553 -0.000000 0.353553
v -1.664213 -3.883883 0.353553
v 0.000000 -4.573223 0.353553
v 1.664213 -3.883883 0.353553
v 2.353553 -0.000000 0.353553
v 1.767767 3.987437 0.000000
v 0.000000 4.719670 0.000000
v -1.767767 3.987437 0.000000
v -2.500000 0.000000 0.000000
v -1.767767 -3.987437 0.000000
v 0.000000 -4.719670 0.000000
v 1.767767 -3.987437 0.000000
v 2.500000 0.000000 0.000000
v 1.664213 3.883883 -0.353553
v 0.000000 4.573223 -0.353553
v -1.664213 3.883883 -0.353553
v -2.353553 0.000000 -0.353553
v -1.664213 -3.883883 -0.353553
v 0.000000 -4.573223 -0.353553
v 1.664213 -3.883883 -0.353553
v 2.353553 0.000000 -0.353553
v 1.414213 3.633883 -0.500000
v 0.000000 4.219670 -0.500000
v -1.414213 3.633883 -0.500000
v -2.000000 0.000000 -0.500000
v -1.414213 -3.633883 -0.500000
v 0.000000 -4.219670 -0.500000
v 1.414214 -3.633883 -0.500000
v 2.000000 0.000000 -0.500000
v 1.164214 3.383883 -0.353553
v 0.000000 3.866117 -0.353553
v -1.164214 3.383883 -0.353553
v -1.646446 0.000000 -0.353553
v -1.164214 -3.383883 -0.353553
v 0.000000 -3.866117 -0.353553
v 1.164214 -3.383884 -0.353553
v 1.646447 0.000000 -0.353553
vt 0.000000 1.000000
vt 0.125000 1.000000
vt 0.250000 1.000000
vt 0.375000 1.000000
vt 0.500000 1.000000
vt 0.625000 1.000000
vt 0.750000 1.000000
vt 0.875000 1.000000
vt 1.000000 1.000000
vt 0.000000 0.875000
vt 0.125000 0.875000
vt 0.250000 0.875000
vt 0.375000 0.875000
vt 0.500000 0.875000
vt 0.625000 0.875000
vt 0.750000 0.875000
vt 0.875000 0.875000
vt 1.000000 0.875000
vt 0.000000 0.750000
vt 0.125000 0.750000
vt 0.250000 0.750000
vt 0.375000 0.750000
vt 0.500000 0.750000
vt 0.625000 0.750000
vt 0.750000 0.750000
vt 0.875000 0.750000
vt 1.000000 0.750000
vt 0.000000 0.625000
vt 0.125000 0.625000
vt 0.250000 0.625000
vt 0.375000 0.625000
vt 0.500000 0.625000
vt 0.625000 0.625000
vt 0.750000 0.625000
vt 0.875000 0.625000
vt 1.000000 0.625000
vt 0.000000 0.500000
vt 0.125000 0.500000
vt 0.250000 0.500000
vt 0.375000 0.500000
vt 0.500000 0.500000
vt 0.625000 0.500000
vt 0.750000 0.500000
vt 0.875000 0.500000
vt 1.000000 0.500000
vt 0.000000 0.375000
vt 0.125000 0.375000
vt 0.250000 0.375000
vt 0.375000 0.375000
vt 0.500000 0.375000
vt 0.625000 0.375000
vt 0.750000 0.375000
vt 0.875000 0.375000
vt 1.000000 0.375000
vt 0.000000 0.250000
vt 0.125000 0.250000
vt 0.250000 0.250000
vt 0.375000 0.250000
vt 0.500000 0.250000
vt 0.625000 0.250000
vt 0.750000 0.250000
vt 0.875000 0.250000
vt 1.000000 0.250000
vt 0.000000 0.125000
vt 0.125000 0.125000
vt 0.250000 0.125000
vt 0.375000 0.125000
vt 0.500000 0.125000
vt 0.625000 0.125000
vt 0.750000 0.125000
vt 0.875000 0.125000
vt 1.000000 0.125000
vt 0.000000 0.000000
vt 0.125000 0.000000
vt 0.250000 0.000000
vt 0.375000 0.000000
vt 0.500000 0.000000
vt 0.625000 0.000000
vt 0.750000 0.000000
vt 0.875000 0.000000
vt 1.000000 0.000000
vn 0.000000 -1.000000 -0.000000
vn -0.927532 -0.373745 -0.000000
vn -0.577874 -0.246932 0.777873
vn 0.000000 -0.639198 0.769042
vn 0.927532 -0.373745 -0.000000
vn 0.577875 -0.246932 0.777873
vn 1.000000 -0.000000 -0.000000
vn 0.717541 0.000000 0.696516
vn 0.927532 0.373745 -0.000000
vn 0.577874 0.246932 0.777873
vn -0.000000 1.000000 -0.000000
vn 0.000000 0.639198 0.769042
vn -0.927532 0.373745 -0.000000
vn -0.577874 0.246932 0.777873
vn -1.000000 -0.000000 -0.000000
vn -0.717541 -0.000000 0.696516
vn 0.139433 0.061041 0.988348
vn 0.000000 0.128207 0.991747
vn -0.139433 0.061041 0.988348
vn -0.058079 0.000000 0.998312
vn -0.139433 -0.061041 0.988348
vn 0.000000 -0.128207 0.991747
vn 0.139433 -0.061041 0.988348
vn 0.058079 0.000000 0.998312
vn 0.691165 0.357479 0.628092
vn 0.000000 0.769892 0.638174
vn -0.691165 0.357479 0.628092
vn -0.764406 0.000000 0.644735
vn -0.691165 -0.357479 0.628092
vn -0.000000 -0.769892 0.638174
vn 0.691165 -0.357479 0.628092
vn 0.764406 0.000000 0.644735
vn 0.880793 0.473502 0.000000
vn 0.000000 1.000000 0.000000
vn -0.880793 0.473502 0.000000
vn -1.000000 -0.000000 -0.000000
vn -0.880793 -0.473502 -0.000000
vn -0.000000 -1.000000 -0.000000
vn 0.880793 -0.473502 0.000000
vn 1.000000 0.000000 0.000000
vn 0.691165 0.357479 -0.628092
vn 0.000000 0.769892 -0.638174
vn -0.691165 0.357479 -0.628092
vn -0.764406 -0.000000 -0.644735
vn -0.691165 -0.357479 -0.628092
vn -0.000000 -0.769892 -0.638174
vn 0.691165 -0.357479 -0.628092
vn 0.764406 0.000000 -0.644735
vn 0.139433 0.061041 -0.988348
vn 0.000000 0.128207 -0.991747
vn -0.139433 0.061041 -0.988348
vn -0.058079 -0.000000 -0.998312
vn -0.139433 -0.061041 -0.988348
vn -0.000000 -0.128207 -0.991747
vn 0.139433 -0.061041 -0.988348
vn 0.058079 -0.000000 -0.998312
vn -0.577874 -0.246932 -0.777873
vn 0.000000 -0.639198 -0.769042
vn 0.577875 -0.246932 -0.777873
vn 0.717541 -0.000000 -0.696516
vn 0.577875 0.246932 -0.777873
vn 0.000000 0.639198 -0.769042
vn -0.577874 0.246932 -0.777873
vn -0.717541 -0.000000 -0.696516
s 1
g Chain
usemtl initialShadingGroup
f 2/2/1 1/1/2 9/10/3 10/11/4
f 3/3/5 2/2/1 10/11/4 11/12/6
f 4/4/7 3/3/5 11/12/6 12/13/8
f 5/5/9 4/4/7 12/13/8 13/14/10
f 6/6/11 5/5/9 13/14/10 14/15/12
f 7/7/13 6/6/11 14/15/12 15/16/14
f 8/8/15 7/7/13 15/16/14 16/17/16
f 1/9/2 8/8/15 16/17/16 9/18/3
f 10/11/4 9/10/3 17/19/17 18/20/18
f 11/12/6 10/11/4 18/20/18 19/21/19
f 12/13/8 11/12/6 19/21/19 20/22/20
f 13/14/10 12/13/8 20/22/20 21/23/21
f 14/15/12 13/14/10 21/23/21 22/24/22
f 15/16/14 14/15/12 22/24/22 23/25/23
f 16/17/16 15/16/14 23/25/23 24/26/24
f 9/18/3 16/17/16 24/26/24 17/27/17
f 18/20/18 17/19/17 25/28/25 26/29/26
f 19/21/19 18/20/18 26/29/26 27/30/27
f 20/22/20 19/21/19 27/30/27 28/31/28
f 21/23/21 20/22/20 28/31/28 29/32/29
f 22/24/22 21/23/21 29/32/29 30/33/30
f 23/25/23 22/24/22 30/33/30 31/34/31
f 24/26/24 23/25/23 31/34/31 32/35/32
f 17/27/17 24/26/24 32/35/32 25/36/25
f 26/29/26 25/28/25 33/37/33 34/38/34
f 27/30/27 26/29/26 34/38/34 35/39/35
f 28/31/28 27/30/27 35/39/35 36/40/36
f 29/32/29 28/31/28 36/40/36 37/41/37
f 30/33/30 29/32/29 37/41/37 38/42/38
f 31/34/31 30/33/30 38/42/38 39/43/39
f 32/35/32 31/34/31 39/43/39 40/44/40
f 25/36/25 32/35/32 40/44/40 33/45/33
f 34/38/34 33/37/33 41/46/41 42/47/42
f 35/39/35 34/38/34 42/47/42 43/48/43
f 36/40/36 35/39/35 43/48/43 44/49/44
f 37/41/37 36/40/36 44/49/44 45/50/45
f 38/42/38 37/41/37 45/50/45 46/51/46
f 39/43/39 38/42/38 46/51/46 47/52/47
f 40/44/40 39/43/39 47/52/47 48/53/48
f 33/45/33 40/44/40 48/53/48 41/54/41
f 42/47/42 41/46/41 49/55/49 50/56/50
f 43/48/43 42/47/42 50/56/50 51/57/51
f 44/49/44 43/48/43 51/57/51 52/58/52
f 45/50/45 44/49/44 52/58/52 53/59/53
f 46/51/46 45/50/45 53/59/53 54/60/54
f 47/52/47 46/51/46 54/60/54 55/61/55
f 48/53/48 47/52/47 55/61/55 56/62/56
f 41/54/41 48/53/48 56/62/56 49/63/49
f 50/56/50 49/55/49 57/64/57 58/65/58
f 51/57/51 50/56/50 58/65/58 59/66/59
f 52/58/52 51/57/51 59/66/59 60/67/60
f 53/59/53 52/58/52 60/67/60 61/68/61
f 54/60/54 53/59/53 61/68/61 62/69/62
f 55/61/55 54/60/54 62/69/62 63/70/63
f 56/62/56 55/61/55 63/70/63 64/71/64
f 49/63/49 56/62/56 64/71/64 57/72/57
f 58/65/58 57/64/57 1/73/2 2/74/1
f 59/66/59 58/65/58 2/74/1 3/75/5
f 60/67/60 59/66/59 3/75/5 4/76/7
f 61/68/61 60/67/60 4/76/7 5/77/9
f 62/69/62 61/68/61 5/77/9 6/78/11
f 63/70/63 62/69/62 6/78/11 7/79/13
f 64/71/64 63/70/63 7/79/13 8/80/15
f 57/72/57 64/71/64 8/80/15 1/81/2
