# This file uses centimeters as units for non-parametric coordinates.

mtllib Cliff.mtl
g default
v -12.000000 -0.500000 -0.000000
v 12.000000 -0.500000 -0.000000
v -12.000000 9.000000 0.000000
v 12.000000 9.000000 0.000000
v -12.000000 11.889241 -16.000000
v 12.000000 11.889241 -16.000000
v -8.644703 11.889241 -16.000000
v -3.117332 11.889241 -16.000000
v -0.258992 11.889241 -16.000000
v 3.569982 11.889241 -16.000000
v 7.700033 11.889241 -16.000000
v -12.000000 10.865712 2.798568
v -12.000000 11.219024 3.000000
v -12.000000 11.611062 3.000000
v -12.000000 11.889241 2.676152
v 12.000000 11.218744 3.000000
v 12.000000 10.864980 2.797469
v 12.000000 11.889241 2.672632
v 12.000000 11.611062 3.000000
v -7.874395 -0.500000 -1.629677
v -9.378862 -0.500000 -1.562361
v -9.379371 9.000000 -1.562058
v -7.873861 9.000000 -1.629421
v -2.402818 -0.500000 0.156175
v -3.903773 -0.500000 0.279008
v -3.904682 9.000000 0.278572
v -2.401993 9.000000 0.155596
v 0.499751 -0.500000 -0.839874
v -1.006127 -0.500000 -0.822912
v -1.006160 9.000000 -0.822889
v 0.499784 9.000000 -0.839851
v 4.271058 -0.500000 0.552428
v 2.770215 -0.500000 0.676629
v 2.769270 9.000000 0.675998
v 4.271886 9.000000 0.551650
v 8.506636 -0.500000 -2.167320
v 7.008090 -0.500000 -2.017938
v 7.006906 9.000000 -2.016826
v 8.508017 9.000000 -2.166464
v -7.877505 10.868303 1.171282
v -9.382959 10.867795 1.241773
v -9.378862 11.220820 1.437639
v -7.874395 11.221458 1.370323
v -2.395365 10.866677 2.950966
v -3.898266 10.867890 3.083491
v -3.903773 11.222151 3.279008
v -2.402818 11.221341 3.156175
v -7.874395 11.611062 1.370323
v -9.378862 11.611062 1.437639
v -8.658179 11.889241 -0.068387
v -9.392976 11.889241 1.122204
v -7.888509 11.889241 1.054887
v -2.402818 11.611062 3.156175
v -3.903773 11.611062 3.279008
v -3.142601 11.889241 2.582777
v -3.930066 11.889241 2.957718
v -2.429111 11.889241 2.834885
v 0.498964 10.863064 1.954196
v -1.006976 10.864501 1.974434
v -1.006127 11.219490 2.177088
v 0.499751 11.218923 2.160126
v 0.499751 11.611062 2.160126
v -1.006127 11.611062 2.177088
v -0.262623 11.889241 0.563296
v -1.009923 11.889241 1.840027
v 0.495954 11.889241 1.823066
v 4.280191 10.862202 3.337152
v 2.777551 10.862269 3.474932
v 2.770215 11.220188 3.676628
v 4.271058 11.220800 3.552428
v 4.271058 11.611062 3.552428
v 2.770215 11.611062 3.676628
v 3.541790 11.889241 3.103731
v 2.740912 11.889241 3.322531
v 4.241755 11.889241 3.198331
v 8.498286 10.863535 0.622802
v 6.997085 10.863000 0.786896
v 7.007666 11.221453 0.982460
v 8.507131 11.221078 0.832986
v 8.506636 11.611062 0.832679
v 7.008090 11.611062 0.982062
v 7.666887 11.889241 -0.769679
v 6.973305 11.889241 0.633113
v 8.471851 11.889241 0.483730
vt 0.124035 0.437577
vt 0.206215 0.468851
vt 0.138983 0.978624
vt 0.230420 0.504101
vt 0.235203 0.978620
vt 0.403361 0.981438
vt 0.398663 0.457386
vt 0.374691 0.447271
vt 0.256789 0.473048
vt 0.488500 0.980915
vt 0.487363 0.502164
vt 0.420152 0.449966
vt 0.463910 0.467343
vt 0.605833 0.978804
vt 0.601779 0.446292
vt 0.577750 0.440949
vt 0.512478 0.467287
vt 0.723675 0.979170
vt 0.735328 0.522355
vt 0.622774 0.443087
vt 0.709565 0.485474
vt 0.878923 0.445403
vt 0.845320 0.980710
vt 0.763284 0.484655
vt 0.211949 0.051138
vt 0.255921 0.051581
vt 0.220220 0.327511
vt 0.259398 0.328236
vt 0.257289 0.430427
vt 0.208602 0.426778
vt 0.378620 0.052925
vt 0.420689 0.053190
vt 0.378842 0.337813
vt 0.422977 0.337273
vt 0.420042 0.423103
vt 0.378056 0.421065
vt 0.469325 0.053287
vt 0.512290 0.053921
vt 0.468455 0.328803
vt 0.509349 0.329083
vt 0.510737 0.423479
vt 0.464616 0.422601
vt 0.587687 0.056437
vt 0.629236 0.057382
vt 0.584308 0.342749
vt 0.629527 0.346847
vt 0.621655 0.418529
vt 0.580845 0.417458
vt 0.736197 0.058685
vt 0.779619 0.059298
vt 0.724293 0.337323
vt 0.762228 0.336856
vt 0.763572 0.439730
vt 0.713222 0.438282
vt 0.258289 0.444326
vt 0.206494 0.440082
vt 0.205513 0.453706
vt 0.258540 0.458114
vt 0.418350 0.431913
vt 0.378243 0.429786
vt 0.377617 0.438271
vt 0.418173 0.440705
vt 0.512363 0.437475
vt 0.463531 0.436879
vt 0.463164 0.451198
vt 0.513358 0.451391
vt 0.619952 0.426142
vt 0.581330 0.425057
vt 0.580908 0.432493
vt 0.619951 0.434118
vt 0.765490 0.453937
vt 0.710620 0.452966
vt 0.709242 0.468114
vt 0.765911 0.468158
vt 0.122785 0.052797
vt 0.138597 0.332841
vt 0.868089 0.347509
vt 0.898540 0.066886
vt 0.119516 0.417912
vt 0.122285 0.409247
vt 0.119507 0.427219
vt 0.882539 0.418055
vt 0.884847 0.426421
vt 0.884268 0.435402
vn 0.000000 1.000000 0.000000
vn -0.000000 1.000000 0.000000
vn -0.000000 1.000000 0.000000
vn -0.000000 1.000000 0.000000
vn 0.000000 1.000000 0.000000
vn -0.000000 1.000000 0.000000
vn 0.000000 1.000000 0.000000
vn 0.000000 1.000000 0.000000
vn 0.000000 1.000000 0.000000
vn 0.000000 1.000000 0.000000
vn 0.000000 1.000000 0.000000
vn 0.000000 1.000000 0.000000
vn -0.000001 1.000000 0.000000
vn -0.000000 1.000000 0.000000
vn 0.000000 1.000000 0.000000
vn -0.000000 1.000000 0.000000
vn 0.000003 1.000000 0.000000
vn 0.000000 1.000000 0.000000
vn -0.000000 1.000000 0.000000
vn -0.000000 1.000000 0.000000
vn -0.000002 1.000000 0.000000
vn 0.000000 1.000000 0.000000
vn 0.000000 1.000000 0.000000
vn 0.000000 1.000000 0.000000
vn 0.367379 -0.000010 0.930071
vn -0.318751 -0.000008 0.947839
vn 0.367314 -0.000010 0.930097
vn -0.318685 -0.000008 0.947861
vn -0.169248 -0.819991 0.546782
vn -0.201081 -0.793585 0.574273
vn 0.189673 -0.816911 0.544685
vn 0.240147 -0.786092 0.569551
vn 0.081564 0.000054 0.996668
vn 0.081564 0.000054 0.996668
vn 0.081564 0.000054 0.996668
vn 0.081564 0.000054 0.996668
vn 0.231383 -0.809310 0.539888
vn 0.198528 -0.782035 0.590768
vn -0.187710 -0.817216 0.544907
vn -0.182748 -0.781239 0.596882
vn 0.011263 -0.000002 0.999937
vn 0.011263 -0.000002 0.999937
vn 0.011263 -0.000002 0.999937
vn 0.011263 -0.000002 0.999937
vn -0.183799 -0.817851 0.545287
vn -0.243478 -0.786241 0.567929
vn 0.152316 -0.822327 0.548249
vn 0.218153 -0.789898 0.573124
vn 0.082472 0.000074 0.996593
vn 0.082472 0.000074 0.996593
vn 0.082472 0.000074 0.996593
vn 0.082472 0.000074 0.996593
vn 0.363283 -0.775036 0.517054
vn 0.325155 -0.748772 0.577593
vn -0.220868 -0.811392 0.541166
vn -0.193313 -0.778813 0.596725
vn 0.099193 -0.000104 0.995068
vn 0.099193 -0.000104 0.995068
vn 0.099193 -0.000104 0.995068
vn 0.099193 -0.000104 0.995068
vn -0.195376 -0.815787 0.544353
vn -0.240139 -0.788016 0.566889
vn 0.283324 -0.797828 0.532164
vn 0.378284 -0.751163 0.540977
vn -0.313065 -0.256528 0.914431
vn 0.362801 -0.250023 0.897700
vn 0.367418 -0.000000 0.930056
vn -0.318773 -0.000000 0.947831
vn 0.331995 -0.237408 0.912917
vn -0.297462 -0.232124 0.926086
vn 0.081564 -0.000000 0.996668
vn 0.081564 -0.000000 0.996668
vn 0.265137 0.729022 0.631054
vn -0.231627 0.724449 0.649248
vn 0.229482 0.735065 0.637979
vn -0.200418 0.730327 0.653035
vn -0.190354 0.734420 0.651454
vn 0.211818 0.747363 0.629747
vn -0.226855 0.727032 0.648044
vn 0.257498 0.740841 0.620362
vn 0.011463 -0.265214 0.964122
vn 0.010772 -0.261623 0.965110
vn 0.011263 -0.000000 0.999937
vn 0.011263 -0.000000 0.999937
vn 0.239742 0.750088 0.616354
vn -0.267769 0.741609 0.615073
vn 0.180273 0.759617 0.624888
vn -0.211215 0.752687 0.623579
vn 0.077414 -0.507916 0.857921
vn 0.072158 -0.488537 0.869554
vn 0.082472 -0.000000 0.996593
vn 0.082472 -0.000000 0.996593
vn 0.082472 -0.000000 0.996593
vn 0.082472 -0.000000 0.996593
vn -0.182697 0.765725 0.616674
vn 0.316201 0.758551 0.569753
vn -0.255127 0.749970 0.610291
vn 0.379936 0.742408 0.551797
vn 0.099261 -0.269879 0.957764
vn 0.095957 -0.250937 0.963236
vn 0.099193 0.000910 0.995068
vn 0.099193 0.000909 0.995068
vn 0.382370 0.740722 0.552380
vn -0.273962 0.738526 0.616056
vn 0.322361 0.755599 0.570222
vn -0.214176 0.753276 0.621855
vn 0.512007 -0.000000 0.858982
vn 0.512006 -0.000000 0.858982
vn -0.433245 0.000000 0.901276
vn -0.433245 -0.000000 0.901276
vn 0.574014 0.000000 0.818845
vn 0.574014 0.000000 0.818845
vn 0.574014 0.000000 0.818845
vn 0.574014 0.000000 0.818845
vn -0.555425 -0.000000 0.831567
vn -0.555425 -0.000000 0.831567
vn -0.555425 -0.000000 0.831567
vn -0.555425 0.000000 0.831567
vn 0.684564 -0.000000 0.728952
vn 0.684564 -0.000000 0.728953
vn 0.684564 -0.000000 0.728953
vn 0.684564 -0.000000 0.728953
vn -0.527192 0.000000 0.849746
vn -0.527192 0.000000 0.849746
vn -0.527192 0.000000 0.849746
vn -0.527192 -0.000000 0.849746
vn 0.501119 -0.206097 0.840479
vn 0.344242 -0.740299 0.577456
vn 0.362042 0.707108 0.607391
vn 0.362042 0.707108 0.607391
vn 0.558289 -0.234795 0.795729
vn -0.538897 -0.241460 0.807024
vn -0.543731 -0.203437 0.814230
vn 0.674591 -0.170258 0.718289
vn 0.668735 -0.213490 0.712191
vn -0.356903 -0.736060 0.575184
vn -0.511185 -0.245432 0.823683
vn -0.516191 -0.204112 0.831797
vn -0.372780 0.707107 0.600861
vn -0.372780 0.707107 0.600861
vn 0.313922 -0.789989 0.526660
vn 0.512005 -0.000000 0.858982
vn -0.433245 -0.000000 0.901276
vn 0.574014 -0.000000 0.818845
vn 0.574016 -0.000000 0.818844
vn -0.555425 -0.000000 0.831567
vn -0.555425 -0.000000 0.831566
vn 0.684563 -0.000000 0.728953
vn 0.684567 -0.000000 0.728950
vn -0.325411 -0.786764 0.524509
vn -0.527193 -0.000000 0.849746
vn -0.527190 -0.000000 0.849747
s 1
g pPlane1
usemtl initialShadingGroup
f 15/1/1 51/2/2 5/3/3
f 51/2/2 50/4/4 5/3/3
f 50/4/4 7/5/5 5/3/3
f 8/6/6 7/5/5 55/7/7
f 55/7/7 7/5/5 56/8/8
f 7/5/5 50/4/4 56/8/8
f 50/4/4 52/9/9 56/8/8
f 9/10/10 8/6/6 64/11/11
f 55/7/7 57/12/12 8/6/6
f 57/12/12 65/13/13 8/6/6
f 8/6/6 65/13/13 64/11/11
f 10/14/14 9/10/10 73/15/15
f 73/15/15 9/10/10 74/16/16
f 9/10/10 64/11/11 74/16/16
f 64/11/11 66/17/17 74/16/16
f 11/18/18 10/14/14 82/19/19
f 73/15/15 75/20/20 10/14/14
f 10/14/14 75/20/20 82/19/19
f 75/20/20 83/21/21 82/19/19
f 18/22/22 6/23/23 84/24/24
f 84/24/24 6/23/23 82/19/19
f 11/18/18 82/19/19 6/23/23
s 7
f 21/25/25 20/26/26 22/27/27
f 22/27/27 20/26/26 23/28/28
s 8
f 23/28/29 40/29/30 22/27/31
f 22/27/31 40/29/30 41/30/32
s 9
f 25/31/33 24/32/34 26/33/35
f 26/33/35 24/32/34 27/34/36
s 8
f 27/34/37 44/35/38 26/33/39
f 26/33/39 44/35/38 45/36/40
s 11
f 29/37/41 28/38/42 30/39/43
f 30/39/43 28/38/42 31/40/44
s 8
f 31/40/45 58/41/46 30/39/47
f 30/39/47 58/41/46 59/42/48
s 13
f 33/43/49 32/44/50 34/45/51
f 34/45/51 32/44/50 35/46/52
s 8
f 35/46/53 67/47/54 34/45/55
f 34/45/55 67/47/54 68/48/56
s 15
f 37/49/57 36/50/58 38/51/59
f 38/51/59 36/50/58 39/52/60
s 8
f 39/52/61 76/53/62 38/51/63
f 38/51/63 76/53/62 77/54/64
f 40/29/30 43/55/65 41/30/32
f 41/30/32 43/55/65 42/56/66
f 42/56/66 43/55/65 49/57/67
f 49/57/67 43/55/65 48/58/68
f 44/35/38 47/59/69 45/36/40
f 45/36/40 47/59/69 46/60/70
f 46/60/70 47/59/69 54/61/71
f 54/61/71 47/59/69 53/62/72
s 17
f 49/57/73 48/58/74 51/2/75
f 51/2/75 48/58/74 52/9/76
f 54/61/77 53/62/78 56/8/79
f 56/8/79 53/62/78 57/12/80
s 8
f 58/41/46 61/63/81 59/42/48
f 59/42/48 61/63/81 60/64/82
f 60/64/82 61/63/81 63/65/83
f 63/65/83 61/63/81 62/66/84
s 17
f 63/65/85 62/66/86 65/13/87
f 65/13/87 62/66/86 66/17/88
s 8
f 67/47/54 70/67/89 68/48/56
f 68/48/56 70/67/89 69/68/90
s 20
f 69/68/91 70/67/92 72/69/93
f 72/69/93 70/67/92 71/70/94
s 17
f 72/69/95 71/70/96 74/16/97
f 74/16/97 71/70/96 75/20/98
s 8
f 76/53/62 79/71/99 77/54/64
f 77/54/64 79/71/99 78/72/100
f 78/72/100 79/71/99 81/73/101
f 81/73/101 79/71/99 80/74/102
s 17
f 81/73/103 80/74/104 83/21/105
f 83/21/105 80/74/104 84/24/106
s 7
f 1/75/107 21/25/25 3/76/108
f 3/76/108 21/25/25 22/27/27
f 23/28/28 20/26/26 26/33/109
f 26/33/109 20/26/26 25/31/110
s 23
f 27/34/111 24/32/112 30/39/113
f 30/39/113 24/32/112 29/37/114
s 24
f 31/40/115 28/38/116 34/45/117
f 34/45/117 28/38/116 33/43/118
s 25
f 35/46/119 32/44/120 38/51/121
f 38/51/121 32/44/120 37/49/122
s 26
f 39/52/123 36/50/124 4/77/125
f 4/77/125 36/50/124 2/78/126
s 8
f 13/79/127 12/80/128 42/56/66
f 42/56/66 12/80/128 41/30/32
f 40/29/30 45/36/40 43/55/65
f 43/55/65 45/36/40 46/60/70
s 17
f 14/81/129 49/57/73 15/1/130
f 15/1/130 49/57/73 51/2/75
f 52/9/76 48/58/74 56/8/79
f 56/8/79 48/58/74 54/61/77
s 8
f 47/59/69 44/35/38 60/64/131
f 60/64/131 44/35/38 59/42/48
s 17
f 53/62/78 63/65/85 57/12/80
f 57/12/80 63/65/85 65/13/87
s 8
f 58/41/46 68/48/56 61/63/132
f 61/63/132 68/48/56 69/68/133
s 17
f 66/17/88 62/66/86 74/16/97
f 74/16/97 62/66/86 72/69/95
s 8
f 70/67/134 67/47/54 78/72/135
f 78/72/135 67/47/54 77/54/64
s 17
f 71/70/96 81/73/103 75/20/98
f 75/20/98 81/73/103 83/21/105
s 8
f 76/53/62 17/82/136 79/71/137
f 79/71/137 17/82/136 16/83/138
s 17
f 84/24/106 80/74/104 18/22/139
f 18/22/139 80/74/104 19/84/140
s 8
f 22/27/31 41/30/32 3/76/141
f 3/76/141 41/30/32 12/80/128
f 13/79/127 42/56/66 14/81/142
f 14/81/142 42/56/66 49/57/67
f 23/28/29 26/33/39 40/29/30
f 40/29/30 26/33/39 45/36/40
f 48/58/68 43/55/65 54/61/143
f 54/61/143 43/55/65 46/60/70
f 44/35/38 27/34/37 59/42/48
f 59/42/48 27/34/37 30/39/47
f 53/62/144 47/59/69 63/65/145
f 63/65/145 47/59/69 60/64/131
f 31/40/45 34/45/55 58/41/46
f 58/41/46 34/45/55 68/48/56
f 62/66/146 61/63/132 72/69/147
f 72/69/147 61/63/132 69/68/133
f 67/47/54 35/46/53 77/54/64
f 77/54/64 35/46/53 38/51/63
f 71/70/148 70/67/134 81/73/149
f 81/73/149 70/67/134 78/72/135
f 39/52/61 4/77/150 76/53/62
f 76/53/62 4/77/150 17/82/136
f 80/74/151 79/71/137 19/84/152
f 19/84/152 79/71/137 16/83/138
s 1
f 50/4/4 51/2/2 52/9/9
f 55/7/7 56/8/8 57/12/12
f 64/11/11 65/13/13 66/17/17
f 73/15/15 74/16/16 75/20/20
f 82/19/19 83/21/21 84/24/24
