# This file uses centimeters as units for non-parametric coordinates.

mtllib Crate Pieces.mtl
g default
v -5.291671 0.056354 -5.739672
v 5.168439 0.056354 -5.739672
v -5.291671 0.056354 4.720438
v 5.168439 0.056354 4.720438
v -5.291671 0.516463 4.720438
v 5.168439 0.516463 4.720438
v -5.291671 0.516463 -5.739672
v 5.168439 0.516463 -5.739672
vt 0.020606 0.504803
vt 0.499114 0.504803
vt 0.499114 0.983311
vt 0.020606 0.983311
vt 0.056969 0.102153
vt 0.056969 0.451303
vt 0.027370 0.451303
vt 0.027370 0.102153
vt 0.020606 0.504804
vt 0.499114 0.504804
vt 0.499114 0.983311
vt 0.020606 0.983311
vt 0.056969 0.102153
vt 0.056969 0.451303
vt 0.027370 0.451303
vt 0.027370 0.102153
vt 0.056969 0.102153
vt 0.056969 0.451303
vt 0.027370 0.451303
vt 0.027370 0.102153
vt 0.056969 0.102153
vt 0.056969 0.451303
vt 0.027370 0.451303
vt 0.027370 0.102153
vn 0.000000 -1.000000 0.000000
vn 0.000000 -1.000000 0.000000
vn 0.000000 -1.000000 0.000000
vn 0.000000 -1.000000 0.000000
vn 0.000000 -0.000000 1.000000
vn 0.000000 -0.000000 1.000000
vn 0.000000 -0.000000 1.000000
vn 0.000000 -0.000000 1.000000
vn 0.000000 1.000000 0.000000
vn 0.000000 1.000000 0.000000
vn 0.000000 1.000000 0.000000
vn 0.000000 1.000000 0.000000
vn 0.000000 0.000000 -1.000000
vn 0.000000 0.000000 -1.000000
vn 0.000000 0.000000 -1.000000
vn 0.000000 0.000000 -1.000000
vn 1.000000 0.000000 0.000000
vn 1.000000 0.000000 0.000000
vn 1.000000 0.000000 0.000000
vn 1.000000 0.000000 0.000000
vn -1.000000 0.000000 0.000000
vn -1.000000 0.000000 0.000000
vn -1.000000 0.000000 0.000000
vn -1.000000 0.000000 0.000000
s off
g Side
usemtl initialShadingGroup
f 1/1/1 2/2/2 4/3/3 3/4/4
f 3/5/5 4/6/6 6/7/7 5/8/8
f 5/9/9 6/10/10 8/11/11 7/12/12
f 7/13/13 8/14/14 2/15/15 1/16/16
f 2/17/17 8/18/18 6/19/19 4/20/20
f 7/21/21 1/22/22 3/23/23 5/24/24
g default
v -4.831561 -9.443646 -5.739672
v -4.831561 0.056354 -5.739672
v -4.831561 -9.443646 4.260328
v -4.831561 0.056354 4.260328
v -5.291671 -9.443646 4.260328
v -5.291671 0.056354 4.260328
v -5.291671 -9.443646 -5.739672
v -5.291671 0.056354 -5.739672
vt 0.020606 0.504803
vt 0.499114 0.504803
vt 0.499114 0.983311
vt 0.020606 0.983311
vt 0.056969 0.102153
vt 0.056969 0.451303
vt 0.027370 0.451303
vt 0.027370 0.102153
vt 0.020606 0.504804
vt 0.499114 0.504804
vt 0.499114 0.983311
vt 0.020606 0.983311
vt 0.056969 0.102153
vt 0.056969 0.451303
vt 0.027370 0.451303
vt 0.027370 0.102153
vt 0.056969 0.102153
vt 0.056969 0.451303
vt 0.027370 0.451303
vt 0.027370 0.102153
vt 0.056969 0.102153
vt 0.056969 0.451303
vt 0.027370 0.451303
vt 0.027370 0.102153
vn 1.000000 0.000000 0.000000
vn 1.000000 0.000000 0.000000
vn 1.000000 0.000000 0.000000
vn 1.000000 0.000000 0.000000
vn 0.000000 0.000000 1.000000
vn 0.000000 0.000000 1.000000
vn 0.000000 0.000000 1.000000
vn 0.000000 0.000000 1.000000
vn -1.000000 0.000000 0.000000
vn -1.000000 0.000000 0.000000
vn -1.000000 0.000000 0.000000
vn -1.000000 0.000000 0.000000
vn 0.000000 0.000000 -1.000000
vn 0.000000 0.000000 -1.000000
vn 0.000000 0.000000 -1.000000
vn 0.000000 0.000000 -1.000000
vn 0.000000 1.000000 0.000000
vn 0.000000 1.000000 0.000000
vn 0.000000 1.000000 0.000000
vn 0.000000 1.000000 0.000000
vn 0.000000 -1.000000 0.000000
vn 0.000000 -1.000000 0.000000
vn 0.000000 -1.000000 0.000000
vn 0.000000 -1.000000 0.000000
s off
g Side9
usemtl initialShadingGroup
f 9/25/25 10/26/26 12/27/27 11/28/28
f 11/29/29 12/30/30 14/31/31 13/32/32
f 13/33/33 14/34/34 16/35/35 15/36/36
f 15/37/37 16/38/38 10/39/39 9/40/40
f 10/41/41 16/42/42 14/43/43 12/44/44
f 15/45/45 9/46/46 11/47/47 13/48/48
g default
v -4.831561 -9.443646 -5.739672
v -4.831561 0.056354 -5.739672
v 5.168439 -9.443646 -5.739672
v 5.168439 0.056354 -5.739672
v 5.168439 -9.443646 -5.279562
v 5.168439 0.056354 -5.279562
v -4.831561 -9.443646 -5.279562
v -4.831561 0.056354 -5.279562
vt 0.020606 0.504803
vt 0.499114 0.504803
vt 0.499114 0.983311
vt 0.020606 0.983311
vt 0.056969 0.102153
vt 0.056969 0.451303
vt 0.027370 0.451303
vt 0.027370 0.102153
vt 0.020606 0.504804
vt 0.499114 0.504804
vt 0.499114 0.983311
vt 0.020606 0.983311
vt 0.056969 0.102153
vt 0.056969 0.451303
vt 0.027370 0.451303
vt 0.027370 0.102153
vt 0.056969 0.102153
vt 0.056969 0.451303
vt 0.027370 0.451303
vt 0.027370 0.102153
vt 0.056969 0.102153
vt 0.056969 0.451303
vt 0.027370 0.451303
vt 0.027370 0.102153
vn 0.000000 0.000000 -1.000000
vn 0.000000 0.000000 -1.000000
vn 0.000000 0.000000 -1.000000
vn 0.000000 0.000000 -1.000000
vn 1.000000 0.000000 0.000000
vn 1.000000 0.000000 0.000000
vn 1.000000 0.000000 0.000000
vn 1.000000 0.000000 0.000000
vn 0.000000 0.000000 1.000000
vn 0.000000 0.000000 1.000000
vn 0.000000 0.000000 1.000000
vn 0.000000 0.000000 1.000000
vn -1.000000 0.000000 -0.000000
vn -1.000000 0.000000 -0.000000
vn -1.000000 0.000000 -0.000000
vn -1.000000 0.000000 -0.000000
vn 0.000000 1.000000 0.000000
vn 0.000000 1.000000 0.000000
vn 0.000000 1.000000 0.000000
vn 0.000000 1.000000 0.000000
vn 0.000000 -1.000000 0.000000
vn 0.000000 -1.000000 0.000000
vn 0.000000 -1.000000 0.000000
vn 0.000000 -1.000000 0.000000
s off
g Side10
usemtl initialShadingGroup
f 17/49/49 18/50/50 20/51/51 19/52/52
f 19/53/53 20/54/54 22/55/55 21/56/56
f 21/57/57 22/58/58 24/59/59 23/60/60
f 23/61/61 24/62/62 18/63/63 17/64/64
f 18/65/65 24/66/66 22/67/67 20/68/68
f 23/69/69 17/70/70 19/71/71 21/72/72
g default
v 4.708329 -9.443646 4.720438
v 4.708329 0.056354 4.720438
v 4.708329 -9.443646 -5.279562
v 4.708329 0.056354 -5.279562
v 5.168439 -9.443646 -5.279562
v 5.168439 0.056354 -5.279562
v 5.168439 -9.443646 4.720438
v 5.168439 0.056354 4.720438
vt 0.020606 0.504803
vt 0.499114 0.504803
vt 0.499114 0.983311
vt 0.020606 0.983311
vt 0.056969 0.102153
vt 0.056969 0.451303
vt 0.027370 0.451303
vt 0.027370 0.102153
vt 0.020606 0.504804
vt 0.499114 0.504804
vt 0.499114 0.983311
vt 0.020606 0.983311
vt 0.056969 0.102153
vt 0.056969 0.451303
vt 0.027370 0.451303
vt 0.027370 0.102153
vt 0.056969 0.102153
vt 0.056969 0.451303
vt 0.027370 0.451303
vt 0.027370 0.102153
vt 0.056969 0.102153
vt 0.056969 0.451303
vt 0.027370 0.451303
vt 0.027370 0.102153
vn -1.000000 0.000000 0.000000
vn -1.000000 0.000000 0.000000
vn -1.000000 0.000000 0.000000
vn -1.000000 0.000000 0.000000
vn 0.000000 0.000000 -1.000000
vn 0.000000 0.000000 -1.000000
vn 0.000000 0.000000 -1.000000
vn 0.000000 0.000000 -1.000000
vn 1.000000 0.000000 0.000000
vn 1.000000 0.000000 0.000000
vn 1.000000 0.000000 0.000000
vn 1.000000 0.000000 0.000000
vn 0.000000 0.000000 1.000000
vn 0.000000 0.000000 1.000000
vn 0.000000 0.000000 1.000000
vn 0.000000 0.000000 1.000000
vn 0.000000 1.000000 0.000000
vn 0.000000 1.000000 0.000000
vn 0.000000 1.000000 0.000000
vn 0.000000 1.000000 0.000000
vn 0.000000 -1.000000 0.000000
vn 0.000000 -1.000000 0.000000
vn 0.000000 -1.000000 0.000000
vn 0.000000 -1.000000 0.000000
s off
g Side11
usemtl initialShadingGroup
f 25/73/73 26/74/74 28/75/75 27/76/76
f 27/77/77 28/78/78 30/79/79 29/80/80
f 29/81/81 30/82/82 32/83/83 31/84/84
f 31/85/85 32/86/86 26/87/87 25/88/88
f 26/89/89 32/90/90 30/91/91 28/92/92
f 31/93/93 25/94/94 27/95/95 29/96/96
g default
v 4.708329 -9.443646 4.720438
v -5.291671 -9.443646 4.720438
v -5.291671 -9.443646 4.260328
v 4.708329 -9.443646 4.260328
v 4.708329 -4.693646 4.720438
v 4.708329 -4.693646 4.260328
v -5.291671 -4.693646 4.260328
v -5.291671 -4.693646 4.720438
vt 0.056969 0.102153
vt 0.056969 0.451303
vt 0.027370 0.451303
vt 0.027370 0.102153
vt 0.056969 0.102153
vt 0.056969 0.276728
vt 0.028416 0.450887
vt 0.027370 0.102153
vt 0.020606 0.504804
vt 0.259860 0.504804
vt 0.259860 0.983311
vt 0.020606 0.983311
vt 0.056969 0.102153
vt 0.056969 0.276728
vt 0.027370 0.276728
vt 0.027370 0.102153
vt 0.020606 0.504803
vt 0.259860 0.504803
vt 0.259860 0.983311
vt 0.020606 0.983311
vt 0.028416 0.102192
vt 0.027370 0.276728
vt 0.056070 0.102192
vt 0.056070 0.450888
vn 0.000000 -1.000000 0.000000
vn 0.000000 -1.000000 0.000000
vn 0.000000 -1.000000 0.000000
vn 0.000000 -1.000000 0.000000
vn 1.000000 0.000000 0.000000
vn 1.000000 0.000000 0.000000
vn 1.000000 0.000000 0.000000
vn 1.000000 0.000000 0.000000
vn 0.000000 0.000000 -1.000000
vn 0.000000 0.000000 -1.000000
vn 0.000000 0.000000 -1.000000
vn 0.000000 0.000000 -1.000000
vn -1.000000 0.000000 -0.000000
vn -1.000000 0.000000 0.000000
vn -1.000000 0.000000 0.000000
vn -1.000000 0.000000 -0.000000
vn 0.000000 -0.000000 0.000000
vn 0.000000 0.000000 1.000000
vn 0.000000 0.000000 1.000000
vn 0.000000 0.000000 1.000000
vn 0.000000 1.000000 0.000000
vn 0.000000 1.000000 0.000000
vn 0.000000 1.000000 0.000000
vn 0.000000 1.000000 0.000000
s off
g Side12
usemtl initialShadingGroup
f 36/97/97 33/98/98 34/99/99 35/100/100
f 36/101/101 38/102/102 37/118/103 33/104/104
f 35/105/105 39/106/106 38/107/107 36/108/108
f 34/109/109 40/110/110 39/111/111 35/112/112
f 33/113/113 37/114/114 40/115/115 34/116/116
f 38/103/117 39/117/118 40/119/119 37/120/120
g default
v 4.708329 0.056354 4.720438
v -5.291671 0.056354 4.720438
v -5.291671 0.056354 4.260328
v 4.708329 0.056354 4.260328
v -5.291671 -4.693646 4.720438
v 4.708329 -4.693646 4.720438
v 4.708329 -4.693646 4.260328
v -5.291671 -4.693646 4.260328
vt 0.259860 0.983311
vt 0.054440 0.115852
vt 0.499114 0.504803
vt 0.499114 0.983311
vt 0.027370 0.276728
vt 0.056969 0.276728
vt 0.056969 0.451303
vt 0.027370 0.451303
vt 0.259860 0.983311
vt 0.054440 0.444879
vt 0.499114 0.504804
vt 0.499114 0.983311
vt 0.027370 0.276728
vt 0.028176 0.444879
vt 0.056969 0.451303
vt 0.027370 0.451303
vt 0.056969 0.102153
vt 0.056969 0.451303
vt 0.027370 0.451303
vt 0.027370 0.102153
vt 0.259860 0.504804
vt 0.028176 0.115852
vt 0.056969 0.276728
vt 0.259860 0.504803
vn 0.000000 0.000000 1.000000
vn 0.000000 0.000000 1.000000
vn 0.000000 0.000000 1.000000
vn 0.000000 0.000000 1.000000
vn -1.000000 0.000000 0.000000
vn -1.000000 0.000000 0.000000
vn -1.000000 0.000000 -0.000000
vn -1.000000 0.000000 -0.000000
vn 0.000000 0.000000 -1.000000
vn 0.000000 0.000000 -1.000000
vn 0.000000 0.000000 -1.000000
vn 0.000000 0.000000 -1.000000
vn 1.000000 0.000000 0.000000
vn 1.000000 0.000000 0.000000
vn 1.000000 0.000000 0.000000
vn 1.000000 0.000000 0.000000
vn 0.000000 1.000000 0.000000
vn 0.000000 1.000000 0.000000
vn 0.000000 1.000000 0.000000
vn 0.000000 1.000000 0.000000
vn 0.000000 -1.000000 0.000000
vn 0.000000 -1.000000 0.000000
vn 0.000000 -1.000000 0.000000
vn 0.000000 -1.000000 0.000000
s off
g Side13
usemtl initialShadingGroup
f 45/121/121 46/144/122 41/123/123 42/124/124
f 48/125/125 45/126/126 42/127/127 43/128/128
f 47/129/129 48/141/130 43/131/131 44/132/132
f 46/133/133 47/143/134 44/135/135 41/136/136
f 41/137/137 44/138/138 43/139/139 42/140/140
f 46/122/141 45/130/142 48/134/143 47/142/144
g default
v -5.291671 -9.903756 -5.739672
v 5.168439 -9.903756 -5.739672
v -5.291671 -9.903756 4.720438
v 5.168439 -9.903756 4.720438
v -5.291671 -9.443647 4.720438
v 5.168439 -9.443647 4.720438
v -5.291671 -9.443647 -5.739672
v 5.168439 -9.443647 -5.739672
vt 0.020606 0.504803
vt 0.499114 0.504803
vt 0.499114 0.983311
vt 0.020606 0.983311
vt 0.056969 0.102153
vt 0.056969 0.451303
vt 0.027370 0.451303
vt 0.027370 0.102153
vt 0.020606 0.504804
vt 0.499114 0.504804
vt 0.499114 0.983311
vt 0.020606 0.983311
vt 0.056969 0.102153
vt 0.056969 0.451303
vt 0.027370 0.451303
vt 0.027370 0.102153
vt 0.056969 0.102153
vt 0.056969 0.451303
vt 0.027370 0.451303
vt 0.027370 0.102153
vt 0.056969 0.102153
vt 0.056969 0.451303
vt 0.027370 0.451303
vt 0.027370 0.102153
vn 0.000000 -1.000000 0.000000
vn 0.000000 -1.000000 0.000000
vn 0.000000 -1.000000 0.000000
vn 0.000000 -1.000000 0.000000
vn 0.000000 -0.000000 1.000000
vn 0.000000 -0.000000 1.000000
vn 0.000000 -0.000000 1.000000
vn 0.000000 -0.000000 1.000000
vn 0.000000 1.000000 0.000000
vn 0.000000 1.000000 0.000000
vn 0.000000 1.000000 0.000000
vn 0.000000 1.000000 0.000000
vn 0.000000 0.000000 -1.000000
vn 0.000000 0.000000 -1.000000
vn 0.000000 0.000000 -1.000000
vn 0.000000 0.000000 -1.000000
vn 1.000000 0.000000 0.000000
vn 1.000000 0.000000 0.000000
vn 1.000000 0.000000 0.000000
vn 1.000000 0.000000 0.000000
vn -1.000000 0.000000 0.000000
vn -1.000000 0.000000 0.000000
vn -1.000000 0.000000 0.000000
vn -1.000000 0.000000 0.000000
s off
g Side14
usemtl initialShadingGroup
f 49/145/145 50/146/146 52/147/147 51/148/148
f 51/149/149 52/150/150 54/151/151 53/152/152
f 53/153/153 54/154/154 56/155/155 55/156/156
f 55/157/157 56/158/158 50/159/159 49/160/160
f 50/161/161 56/162/162 54/163/163 52/164/164
f 55/165/165 49/166/166 51/167/167 53/168/168
