# This file uses centimeters as units for non-parametric coordinates.

mtllib Crate.mtl
g default
v -5.291671 0.056354 -5.739672
v 5.168439 0.056354 -5.739672
v -5.291671 0.056354 4.720438
v 5.168439 0.056354 4.720438
v -5.291671 0.516463 4.720438
v 5.168439 0.516463 4.720438
v -5.291671 0.516463 -5.739672
v 5.168439 0.516463 -5.739672
vt 0.056969 0.451303
vt 0.499114 0.504803
vt 0.056969 0.102153
vt 0.027370 0.102153
vt 0.020606 0.504804
vt 0.027370 0.451303
vt 0.056969 0.102153
vt 0.499114 0.983311
vt 0.027370 0.102153
vt 0.027370 0.451303
vt 0.056969 0.451303
vt 0.027370 0.451303
vt 0.056969 0.102153
vt 0.027370 0.102153
vt 0.499114 0.504804
vt 0.056969 0.451303
vt 0.027370 0.102153
vt 0.020606 0.983311
vt 0.056969 0.102153
vt 0.499114 0.983311
vt 0.056969 0.451303
vt 0.020606 0.504803
vt 0.020606 0.983311
vt 0.027370 0.451303
vn 0.000000 -1.000000 -0.000000
vn 0.000000 -1.000000 -0.000000
vn 0.000000 -1.000000 -0.000000
vn 0.000000 -1.000000 -0.000000
vn 0.000000 -0.000000 1.000000
vn 0.000000 -0.000000 1.000000
vn 0.000000 -0.000000 1.000000
vn 0.000000 -0.000000 1.000000
vn 0.000000 1.000000 0.000000
vn 0.000000 1.000000 0.000000
vn 0.000000 1.000000 0.000000
vn 0.000000 1.000000 0.000000
vn 0.000000 0.000000 -1.000000
vn 0.000000 0.000000 -1.000000
vn 0.000000 0.000000 -1.000000
vn 0.000000 0.000000 -1.000000
vn 1.000000 0.000000 0.000000
vn 1.000000 0.000000 0.000000
vn 1.000000 0.000000 0.000000
vn 1.000000 0.000000 0.000000
vn -1.000000 -0.000000 0.000000
vn -1.000000 -0.000000 0.000000
vn -1.000000 -0.000000 0.000000
vn -1.000000 -0.000000 0.000000
s off
g Side1
usemtl blinn1SG
f 1/22/1 2/2/2 4/20/3 3/23/4
f 3/3/5 4/21/6 6/6/7 5/17/8
f 5/5/9 6/15/10 8/8/11 7/18/12
f 7/7/13 8/16/14 2/10/15 1/9/16
f 2/19/17 8/11/18 6/12/19 4/4/20
f 7/13/21 1/1/22 3/24/23 5/14/24
g default
v -4.831561 -9.443646 -5.739672
v -4.831561 0.056354 -5.739672
v -4.831561 -9.443646 4.260328
v -4.831561 0.056354 4.260328
v -5.291671 -9.443646 4.260328
v -5.291671 0.056354 4.260328
v -5.291671 -9.443646 -5.739672
v -5.291671 0.056354 -5.739672
vt 0.056969 0.451303
vt 0.499114 0.504803
vt 0.056969 0.102153
vt 0.027370 0.102153
vt 0.020606 0.504804
vt 0.027370 0.451303
vt 0.056969 0.102153
vt 0.499114 0.983311
vt 0.027370 0.102153
vt 0.027370 0.451303
vt 0.056969 0.451303
vt 0.027370 0.451303
vt 0.056969 0.102153
vt 0.027370 0.102153
vt 0.499114 0.504804
vt 0.056969 0.451303
vt 0.027370 0.102153
vt 0.020606 0.983311
vt 0.056969 0.102153
vt 0.499114 0.983311
vt 0.056969 0.451303
vt 0.020606 0.504803
vt 0.020606 0.983311
vt 0.027370 0.451303
vn 1.000000 0.000000 -0.000000
vn 1.000000 0.000000 -0.000000
vn 1.000000 0.000000 -0.000000
vn 1.000000 0.000000 -0.000000
vn 0.000000 0.000000 1.000000
vn 0.000000 0.000000 1.000000
vn 0.000000 0.000000 1.000000
vn 0.000000 0.000000 1.000000
vn -1.000000 -0.000000 0.000000
vn -1.000000 -0.000000 0.000000
vn -1.000000 -0.000000 0.000000
vn -1.000000 -0.000000 0.000000
vn -0.000000 -0.000000 -1.000000
vn -0.000000 -0.000000 -1.000000
vn -0.000000 -0.000000 -1.000000
vn -0.000000 -0.000000 -1.000000
vn -0.000000 1.000000 0.000000
vn -0.000000 1.000000 0.000000
vn -0.000000 1.000000 0.000000
vn -0.000000 1.000000 0.000000
vn 0.000000 -1.000000 -0.000000
vn 0.000000 -1.000000 -0.000000
vn 0.000000 -1.000000 -0.000000
vn 0.000000 -1.000000 -0.000000
s off
g Side4
usemtl blinn1SG
f 9/46/25 10/26/26 12/44/27 11/47/28
f 11/27/29 12/45/30 14/30/31 13/41/32
f 13/29/33 14/39/34 16/32/35 15/42/36
f 15/31/37 16/40/38 10/34/39 9/33/40
f 10/43/41 16/35/42 14/36/43 12/28/44
f 15/37/45 9/25/46 11/48/47 13/38/48
g default
v -4.831561 -9.443646 -5.739672
v -4.831561 0.056354 -5.739672
v 5.168439 -9.443646 -5.739672
v 5.168439 0.056354 -5.739672
v 5.168439 -9.443646 -5.279562
v 5.168439 0.056354 -5.279562
v -4.831561 -9.443646 -5.279562
v -4.831561 0.056354 -5.279562
vt 0.056969 0.451303
vt 0.499114 0.504803
vt 0.056969 0.102153
vt 0.027370 0.102153
vt 0.020606 0.504804
vt 0.027370 0.451303
vt 0.056969 0.102153
vt 0.499114 0.983311
vt 0.027370 0.102153
vt 0.027370 0.451303
vt 0.056969 0.451303
vt 0.027370 0.451303
vt 0.056969 0.102153
vt 0.027370 0.102153
vt 0.499114 0.504804
vt 0.056969 0.451303
vt 0.027370 0.102153
vt 0.020606 0.983311
vt 0.056969 0.102153
vt 0.499114 0.983311
vt 0.056969 0.451303
vt 0.020606 0.504803
vt 0.020606 0.983311
vt 0.027370 0.451303
vn 0.000000 0.000000 -1.000000
vn 0.000000 0.000000 -1.000000
vn 0.000000 0.000000 -1.000000
vn 0.000000 0.000000 -1.000000
vn 1.000000 0.000000 0.000000
vn 1.000000 0.000000 0.000000
vn 1.000000 0.000000 0.000000
vn 1.000000 0.000000 0.000000
vn -0.000000 0.000000 1.000000
vn -0.000000 0.000000 1.000000
vn -0.000000 0.000000 1.000000
vn -0.000000 0.000000 1.000000
vn -1.000000 0.000000 -0.000000
vn -1.000000 0.000000 -0.000000
vn -1.000000 0.000000 -0.000000
vn -1.000000 0.000000 -0.000000
vn 0.000000 1.000000 0.000000
vn 0.000000 1.000000 0.000000
vn 0.000000 1.000000 0.000000
vn 0.000000 1.000000 0.000000
vn 0.000000 -1.000000 0.000000
vn 0.000000 -1.000000 0.000000
vn 0.000000 -1.000000 0.000000
vn 0.000000 -1.000000 0.000000
s off
g Side5
usemtl blinn1SG
f 17/70/49 18/50/50 20/68/51 19/71/52
f 19/51/53 20/69/54 22/54/55 21/65/56
f 21/53/57 22/63/58 24/56/59 23/66/60
f 23/55/61 24/64/62 18/58/63 17/57/64
f 18/67/65 24/59/66 22/60/67 20/52/68
f 23/61/69 17/49/70 19/72/71 21/62/72
g default
v 4.708329 -9.443646 4.720438
v 4.708329 0.056354 4.720438
v 4.708329 -9.443646 -5.279562
v 4.708329 0.056354 -5.279562
v 5.168439 -9.443646 -5.279562
v 5.168439 0.056354 -5.279562
v 5.168439 -9.443646 4.720438
v 5.168439 0.056354 4.720438
vt 0.056969 0.451303
vt 0.499114 0.504803
vt 0.056969 0.102153
vt 0.027370 0.102153
vt 0.020606 0.504804
vt 0.027370 0.451303
vt 0.056969 0.102153
vt 0.499114 0.983311
vt 0.027370 0.102153
vt 0.027370 0.451303
vt 0.056969 0.451303
vt 0.027370 0.451303
vt 0.056969 0.102153
vt 0.027370 0.102153
vt 0.499114 0.504804
vt 0.056969 0.451303
vt 0.027370 0.102153
vt 0.020606 0.983311
vt 0.056969 0.102153
vt 0.499114 0.983311
vt 0.056969 0.451303
vt 0.020606 0.504803
vt 0.020606 0.983311
vt 0.027370 0.451303
vn -1.000000 0.000000 -0.000000
vn -1.000000 0.000000 -0.000000
vn -1.000000 0.000000 -0.000000
vn -1.000000 0.000000 -0.000000
vn 0.000000 0.000000 -1.000000
vn 0.000000 0.000000 -1.000000
vn 0.000000 0.000000 -1.000000
vn 0.000000 0.000000 -1.000000
vn 1.000000 0.000000 0.000000
vn 1.000000 0.000000 0.000000
vn 1.000000 0.000000 0.000000
vn 1.000000 0.000000 0.000000
vn -0.000000 0.000000 1.000000
vn -0.000000 0.000000 1.000000
vn -0.000000 0.000000 1.000000
vn -0.000000 0.000000 1.000000
vn 0.000000 1.000000 0.000000
vn 0.000000 1.000000 0.000000
vn 0.000000 1.000000 0.000000
vn 0.000000 1.000000 0.000000
vn 0.000000 -1.000000 -0.000000
vn 0.000000 -1.000000 -0.000000
vn 0.000000 -1.000000 -0.000000
vn 0.000000 -1.000000 -0.000000
s off
g Side6
usemtl blinn1SG
f 25/94/73 26/74/74 28/92/75 27/95/76
f 27/75/77 28/93/78 30/78/79 29/89/80
f 29/77/81 30/87/82 32/80/83 31/90/84
f 31/79/85 32/88/86 26/82/87 25/81/88
f 26/91/89 32/83/90 30/84/91 28/76/92
f 31/85/93 25/73/94 27/96/95 29/86/96
g default
v 4.708329 -9.443646 4.720438
v 4.708329 0.056354 4.720438
v -5.291671 -9.443646 4.720438
v -5.291671 0.056354 4.720438
v -5.291671 -9.443646 4.260328
v -5.291671 0.056354 4.260328
v 4.708329 -9.443646 4.260328
v 4.708329 0.056354 4.260328
vt 0.056969 0.451303
vt 0.499114 0.504803
vt 0.056969 0.102153
vt 0.027370 0.102153
vt 0.020606 0.504804
vt 0.027370 0.451303
vt 0.056969 0.102153
vt 0.499114 0.983311
vt 0.027370 0.102153
vt 0.027370 0.451303
vt 0.056969 0.451303
vt 0.027370 0.451303
vt 0.056969 0.102153
vt 0.027370 0.102153
vt 0.499114 0.504804
vt 0.056969 0.451303
vt 0.027370 0.102153
vt 0.020606 0.983311
vt 0.056969 0.102153
vt 0.499114 0.983311
vt 0.056969 0.451303
vt 0.020606 0.504803
vt 0.020606 0.983311
vt 0.027370 0.451303
vn -0.000000 0.000000 1.000000
vn -0.000000 0.000000 1.000000
vn -0.000000 0.000000 1.000000
vn -0.000000 0.000000 1.000000
vn -1.000000 0.000000 -0.000000
vn -1.000000 0.000000 -0.000000
vn -1.000000 0.000000 -0.000000
vn -1.000000 0.000000 -0.000000
vn 0.000000 0.000000 -1.000000
vn 0.000000 0.000000 -1.000000
vn 0.000000 0.000000 -1.000000
vn 0.000000 0.000000 -1.000000
vn 1.000000 0.000000 0.000000
vn 1.000000 0.000000 0.000000
vn 1.000000 0.000000 0.000000
vn 1.000000 0.000000 0.000000
vn 0.000000 1.000000 0.000000
vn 0.000000 1.000000 0.000000
vn 0.000000 1.000000 0.000000
vn 0.000000 1.000000 0.000000
vn -0.000000 -1.000000 0.000000
vn -0.000000 -1.000000 0.000000
vn -0.000000 -1.000000 0.000000
vn -0.000000 -1.000000 0.000000
s off
g Side7
usemtl blinn1SG
f 33/118/97 34/98/98 36/116/99 35/119/100
f 35/99/101 36/117/102 38/102/103 37/113/104
f 37/101/105 38/111/106 40/104/107 39/114/108
f 39/103/109 40/112/110 34/106/111 33/105/112
f 34/115/113 40/107/114 38/108/115 36/100/116
f 39/109/117 33/97/118 35/120/119 37/110/120
g default
v -5.291671 -9.903756 -5.739672
v 5.168439 -9.903756 -5.739672
v -5.291671 -9.903756 4.720438
v 5.168439 -9.903756 4.720438
v -5.291671 -9.443647 4.720438
v 5.168439 -9.443647 4.720438
v -5.291671 -9.443647 -5.739672
v 5.168439 -9.443647 -5.739672
vt 0.056969 0.451303
vt 0.499114 0.504803
vt 0.056969 0.102153
vt 0.027370 0.102153
vt 0.020606 0.504804
vt 0.027370 0.451303
vt 0.056969 0.102153
vt 0.499114 0.983311
vt 0.027370 0.102153
vt 0.027370 0.451303
vt 0.056969 0.451303
vt 0.027370 0.451303
vt 0.056969 0.102153
vt 0.027370 0.102153
vt 0.499114 0.504804
vt 0.056969 0.451303
vt 0.027370 0.102153
vt 0.020606 0.983311
vt 0.056969 0.102153
vt 0.499114 0.983311
vt 0.056969 0.451303
vt 0.020606 0.504803
vt 0.020606 0.983311
vt 0.027370 0.451303
vn 0.000000 -1.000000 -0.000000
vn 0.000000 -1.000000 -0.000000
vn 0.000000 -1.000000 -0.000000
vn 0.000000 -1.000000 -0.000000
vn 0.000000 -0.000000 1.000000
vn 0.000000 -0.000000 1.000000
vn 0.000000 -0.000000 1.000000
vn 0.000000 -0.000000 1.000000
vn 0.000000 1.000000 0.000000
vn 0.000000 1.000000 0.000000
vn 0.000000 1.000000 0.000000
vn 0.000000 1.000000 0.000000
vn 0.000000 0.000000 -1.000000
vn 0.000000 0.000000 -1.000000
vn 0.000000 0.000000 -1.000000
vn 0.000000 0.000000 -1.000000
vn 1.000000 0.000000 0.000000
vn 1.000000 0.000000 0.000000
vn 1.000000 0.000000 0.000000
vn 1.000000 0.000000 0.000000
vn -1.000000 -0.000000 0.000000
vn -1.000000 -0.000000 0.000000
vn -1.000000 -0.000000 0.000000
vn -1.000000 -0.000000 0.000000
s off
g Side8
usemtl blinn1SG
f 41/142/121 42/122/122 44/140/123 43/143/124
f 43/123/125 44/141/126 46/126/127 45/137/128
f 45/125/129 46/135/130 48/128/131 47/138/132
f 47/127/133 48/136/134 42/130/135 41/129/136
f 42/139/137 48/131/138 46/132/139 44/124/140
f 47/133/141 41/121/142 43/144/143 45/134/144
