# This file uses centimeters as units for non-parametric coordinates.

mtllib WaterFromPipe.mtl
g default
v 119.805708 -27.746262 -125.971071
v 101.912806 -27.745804 -125.971071
v 74.044004 -27.745563 -125.971071
v 38.927221 -27.745377 -125.971071
v 0.000000 -27.745330 -125.971071
v -38.927221 -27.745370 -125.971071
v -74.043989 -27.745556 -125.971071
v -101.912768 -27.745796 -125.971071
v -119.805663 -27.746262 -125.971071
v -125.971101 -27.746650 -125.971071
v -119.805663 -27.747072 -125.971071
v -101.912761 -74.043974 -125.971071
v -74.043974 -101.912753 -125.971071
v -38.927210 -119.805648 -125.971071
v -0.000004 -125.971086 -125.971071
v 38.927206 -119.805641 -125.971071
v 74.043959 -101.912746 -125.971071
v 101.912738 -74.043967 -125.971071
v 119.805633 -27.747072 -125.971071
v 125.971071 -27.746650 -125.971071
v 96.185427 -27.746262 125.971071
v 81.820209 -27.745804 125.971071
v 59.445870 -27.745563 125.971071
v 31.252533 -27.745377 125.971071
v -0.000003 -27.745330 125.971071
v -31.252540 -27.745370 125.971071
v -59.445859 -27.745556 125.971071
v -81.820179 -27.745796 125.971071
v -96.185404 -27.746262 125.971071
v -101.135304 -27.746650 125.971071
v -96.185404 -38.927210 125.971071
v -81.820179 -74.043974 125.971071
v -59.445852 -101.912753 125.971071
v -31.252529 -119.805648 125.971071
v -0.000006 -125.971086 125.971071
v 31.252521 -119.805641 125.971071
v 59.445825 -101.912746 125.971071
v 81.820149 -74.043967 125.971071
v 96.185374 -38.927206 125.971071
v 101.135282 -27.746650 125.971071
v 0.000000 -27.746650 -125.971071
v 96.185427 -68.650023 171.216170
v 81.820209 -68.649573 171.216290
v 59.445870 -68.649348 171.216350
v 31.252533 -68.649182 171.216395
v -0.000003 -68.649137 171.216410
v -31.252540 -68.649182 171.216395
v -59.445859 -68.649340 171.216350
v -81.820179 -68.649558 171.216290
v -96.185404 -68.650023 171.216170
v -101.135304 -68.650391 171.216050
v -96.185404 -79.367188 168.029369
v -81.820179 -113.027385 158.020426
v -59.445852 -139.740221 150.077270
v -31.252529 -156.890943 144.977433
v -0.000006 -162.800657 143.220183
v 31.252521 -156.890943 144.977433
v 59.445825 -139.740221 150.077270
v 81.820149 -113.027385 158.020426
v 96.185374 -79.367188 168.029369
v 101.135282 -68.650391 171.216050
v 61.421895 -1021.699463 218.573730
v 52.248575 -1021.699343 218.573940
v -0.000007 -1021.699343 218.573715
v 37.960819 -1021.699343 218.573940
v 19.957176 -1021.699343 218.574060
v -0.000007 -1021.699343 218.574075
v -19.957194 -1021.699343 218.574060
v -37.960826 -1021.699343 218.573940
v -52.248579 -1021.699463 218.573940
v -61.421895 -1021.699463 218.573730
v -64.582773 -1021.699343 218.573715
v -61.421895 -1021.699343 215.190703
v -52.248575 -1021.699583 204.565104
v -37.960781 -1021.699583 196.132682
v -19.957187 -1021.699583 190.718692
v -0.000009 -1021.699583 188.853154
v 19.957170 -1021.699583 190.718692
v 37.960796 -1021.699583 196.132682
v 52.248549 -1021.699583 204.565104
v 61.421865 -1021.699343 215.190703
v 64.582743 -1021.699343 218.573715
vt 0.904384 0.415046
vt 0.904384 0.428989
vt 0.620279 0.376508
vt 0.620279 0.360368
vt 0.904384 0.450358
vt 0.620279 0.401811
vt 0.904384 0.477283
vt 0.620279 0.432745
vt 0.904384 0.507114
vt 0.620279 0.462954
vt 0.904384 0.509467
vt 0.620279 0.494292
vt 0.904384 0.511583
vt 0.620279 0.525229
vt 0.904384 0.513262
vt 0.620279 0.551594
vt 0.904384 0.514341
vt 0.620279 0.569451
vt 0.904384 0.514714
vt 0.620279 0.575809
vt 0.904384 0.515007
vt 0.620279 0.611383
vt 0.904384 0.563937
vt 0.620279 0.699209
vt 0.904384 0.601456
vt 0.620279 0.775148
vt 0.904384 0.637555
vt 0.620279 0.849312
vt 0.904384 0.672781
vt 0.620279 0.018333
vt 0.904384 0.285688
vt 0.620279 0.093268
vt 0.904384 0.321354
vt 0.620279 0.164802
vt 0.904384 0.358991
vt 0.620279 0.237136
vt 0.904384 0.409601
vt 0.620279 0.320323
vt 0.904384 0.410568
vt 0.620279 0.354850
vt 0.904384 0.507123
vt 0.089001 0.456495
vt 0.089001 0.461956
vt 0.089001 0.493011
vt 0.089001 0.470471
vt 0.089001 0.481203
vt 0.089001 0.493011
vt 0.089001 0.502873
vt 0.089001 0.511853
vt 0.089001 0.518974
vt 0.089001 0.523543
vt 0.089001 0.525127
vt 0.089001 0.532235
vt 0.089001 0.553664
vt 0.089001 0.578761
vt 0.089001 0.607010
vt 0.089001 0.345453
vt 0.089001 0.374752
vt 0.089001 0.402230
vt 0.089001 0.426688
vt 0.089001 0.447646
vt 0.089001 0.454609
vt 0.570806 0.358017
vt 0.570806 0.338462
vt 0.570806 0.387839
vt 0.570807 0.424421
vt 0.570806 0.464109
vt 0.570807 0.504120
vt 0.570806 0.541343
vt 0.570806 0.571764
vt 0.570806 0.591704
vt 0.570806 0.598639
vt 0.570806 0.609405
vt 0.570806 0.636335
vt 0.570806 0.673308
vt 0.570807 0.718870
vt 0.570807 0.178674
vt 0.570806 0.226927
vt 0.570807 0.269371
vt 0.570806 0.302210
vt 0.570806 0.324177
vt 0.570806 0.331659
vt 0.570806 0.769395
vt 0.089001 0.637126
vt 0.620279 0.925850
vt 0.904384 0.251075
vn 0.000040 1.000000 -0.000006
vn 0.000017 1.000000 -0.000005
vn 0.000017 0.992462 0.122554
vn 0.000039 0.992685 0.120732
vn 0.000008 1.000000 -0.000003
vn 0.000008 0.992374 0.123259
vn 0.000004 1.000000 -0.000003
vn 0.000004 0.992332 0.123598
vn 0.000000 1.000000 -0.000003
vn 0.000000 0.992319 0.123703
vn -0.000003 1.000000 -0.000003
vn -0.000003 0.992332 0.123598
vn -0.000008 1.000000 -0.000003
vn -0.000008 0.992374 0.123259
vn -0.000018 1.000000 -0.000005
vn -0.000017 0.992462 0.122554
vn -0.000040 1.000000 -0.000006
vn -0.000040 0.992685 0.120732
vn -0.997265 0.000000 0.073906
vn -0.990452 0.084961 0.108562
vn -0.900913 -0.428354 0.069771
vn -0.910781 -0.412303 0.021998
vn -0.857662 -0.510242 0.063789
vn -0.864081 -0.503341 -0.003552
vn -0.630825 -0.775015 0.037569
vn -0.640444 -0.765342 -0.063906
vn -0.342014 -0.939610 0.012647
vn -0.346962 -0.931084 -0.112699
vn 0.000000 -0.999996 0.002676
vn 0.000000 -0.991253 -0.131973
vn 0.342014 -0.939610 0.012647
vn 0.346962 -0.931083 -0.112699
vn 0.630825 -0.775015 0.037569
vn 0.640444 -0.765342 -0.063906
vn 0.857662 -0.510242 0.063789
vn 0.864081 -0.503341 -0.003552
vn 0.900913 -0.428355 0.069771
vn 0.910781 -0.412303 0.021998
vn 0.997265 -0.000011 0.073906
vn 0.990453 0.084950 0.108561
vn 0.000000 0.000000 -1.000000
vn 0.000016 0.049629 0.998768
vn 0.000007 0.049629 0.998768
vn 0.000000 -1.000000 -0.000000
vn 0.000003 0.049629 0.998768
vn 0.000002 0.049629 0.998768
vn -0.000000 0.049629 0.998768
vn -0.000002 0.049629 0.998768
vn -0.000003 0.049629 0.998768
vn -0.000007 0.049629 0.998768
vn -0.000016 0.049629 0.998768
vn -0.994617 -0.032730 0.098310
vn 0.994618 -0.032730 0.098301
vn 0.000008 0.101960 0.994789
vn 0.000018 0.102309 0.994753
vn 0.000003 0.101829 0.994802
vn 0.000002 0.101767 0.994808
vn 0.000000 0.101748 0.994810
vn -0.000002 0.101767 0.994808
vn -0.000003 0.101829 0.994802
vn -0.000008 0.101960 0.994789
vn -0.000018 0.102309 0.994753
vn -0.566074 0.013248 0.824248
vn -0.732621 -0.107359 -0.672116
vn -0.659629 -0.088878 -0.746318
vn -0.386497 -0.081953 -0.918642
vn -0.176771 -0.074095 -0.981459
vn 0.000000 -0.071177 -0.997464
vn 0.176771 -0.074095 -0.981459
vn 0.386497 -0.081953 -0.918642
vn 0.659629 -0.088878 -0.746318
vn 0.732621 -0.107359 -0.672116
vn 0.566079 0.013247 0.824244
vn -0.698036 -0.060737 -0.713482
vn -0.568700 -0.060301 -0.820332
vn -0.336608 -0.057375 -0.939895
vn -0.156418 -0.054513 -0.986185
vn 0.000000 -0.053438 -0.998571
vn 0.156418 -0.054513 -0.986186
vn 0.336608 -0.057375 -0.939895
vn 0.568700 -0.060301 -0.820332
vn 0.698036 -0.060737 -0.713482
s 1
g WaterFromPipe
usemtl initialShadingGroup
f 1/1/1 2/2/2 22/3/3 21/4/4
f 2/2/2 3/5/5 23/6/6 22/3/3
f 3/5/5 4/7/7 24/8/8 23/6/6
f 4/7/7 5/9/9 25/10/10 24/8/8
f 5/9/9 6/11/11 26/12/12 25/10/10
f 6/11/11 7/13/13 27/14/14 26/12/12
f 7/13/13 8/15/15 28/16/16 27/14/14
f 8/15/15 9/17/17 29/18/18 28/16/16
f 9/17/17 10/19/19 30/20/20 29/18/18
f 10/19/19 11/21/21 31/22/22 30/20/20
f 11/21/21 12/23/23 32/24/24 31/22/22
f 12/23/23 13/25/25 33/26/26 32/24/24
f 13/25/25 14/27/27 34/28/28 33/26/26
f 14/27/27 15/29/29 35/85/30 34/28/28
f 15/86/29 16/31/31 36/32/32 35/30/30
f 16/31/31 17/33/33 37/34/34 36/32/32
f 17/33/33 18/35/35 38/36/36 37/34/34
f 18/35/35 19/37/37 39/38/38 38/36/36
f 19/37/37 20/39/39 40/40/40 39/38/38
f 20/39/39 1/1/1 21/4/4 40/40/40
f 2/2/2 1/1/1 41/41/41
f 3/5/5 2/2/2 41/41/41
f 4/7/7 3/5/5 41/41/41
f 5/9/9 4/7/7 41/41/41
f 6/11/11 5/9/9 41/41/41
f 7/13/13 6/11/11 41/41/41
f 8/15/15 7/13/13 41/41/41
f 9/17/17 8/15/15 41/41/41
f 10/19/19 9/17/17 41/41/41
f 11/21/21 10/19/19 41/41/41
f 20/39/39 19/37/37 41/41/41
f 1/1/1 20/39/39 41/41/41
f 62/42/42 63/43/43 64/44/44
f 63/43/43 65/45/45 64/44/44
f 65/45/45 66/46/46 64/44/44
f 66/46/46 67/47/47 64/44/44
f 67/47/47 68/48/48 64/44/44
f 68/48/48 69/49/49 64/44/44
f 69/49/49 70/50/50 64/44/44
f 70/50/50 71/51/51 64/44/44
f 71/51/51 72/52/52 64/44/44
f 82/62/53 62/42/42 64/44/44
f 21/4/4 22/3/3 43/63/54 42/64/55
f 22/3/3 23/6/6 44/65/56 43/63/54
f 23/6/6 24/8/8 45/66/57 44/65/56
f 24/8/8 25/10/10 46/67/58 45/66/57
f 25/10/10 26/12/12 47/68/59 46/67/58
f 26/12/12 27/14/14 48/69/60 47/68/59
f 27/14/14 28/16/16 49/70/61 48/69/60
f 28/16/16 29/18/18 50/71/62 49/70/61
f 29/18/18 30/20/20 51/72/63 50/71/62
f 30/20/20 31/22/22 52/73/64 51/72/63
f 31/22/22 32/24/24 53/74/65 52/73/64
f 32/24/24 33/26/26 54/75/66 53/74/65
f 33/26/26 34/28/28 55/76/67 54/75/66
f 34/28/28 35/85/30 56/83/68 55/76/67
f 35/30/30 36/32/32 57/78/69 56/77/68
f 36/32/32 37/34/34 58/79/70 57/78/69
f 37/34/34 38/36/36 59/80/71 58/79/70
f 38/36/36 39/38/38 60/81/72 59/80/71
f 39/38/38 40/40/40 61/82/73 60/81/72
f 40/40/40 21/4/4 42/64/55 61/82/73
f 42/64/55 43/63/54 63/43/43 62/42/42
f 43/63/54 44/65/56 65/45/45 63/43/43
f 44/65/56 45/66/57 66/46/46 65/45/45
f 45/66/57 46/67/58 67/47/47 66/46/46
f 46/67/58 47/68/59 68/48/48 67/47/47
f 47/68/59 48/69/60 69/49/49 68/48/48
f 48/69/60 49/70/61 70/50/50 69/49/49
f 49/70/61 50/71/62 71/51/51 70/50/50
f 50/71/62 51/72/63 72/52/52 71/51/51
f 51/72/63 52/73/64 73/53/74 72/52/52
f 52/73/64 53/74/65 74/54/75 73/53/74
f 53/74/65 54/75/66 75/55/76 74/54/75
f 54/75/66 55/76/67 76/56/77 75/55/76
f 55/76/67 56/83/68 77/84/78 76/56/77
f 56/77/68 57/78/69 78/58/79 77/57/78
f 57/78/69 58/79/70 79/59/80 78/58/79
f 58/79/70 59/80/71 80/60/81 79/59/80
f 59/80/71 60/81/72 81/61/82 80/60/81
f 60/81/72 61/82/73 82/62/53 81/61/82
f 61/82/73 42/64/55 62/42/42 82/62/53
