# This file uses centimeters as units for non-parametric coordinates.

mtllib BossPerch.mtl
g default
v -3.946941 0.051457 1.369724
v 3.946942 0.051457 1.369724
v -3.946941 1.051457 1.369724
v 3.946942 1.051457 1.369724
v -3.946941 1.051457 -1.369724
v 3.946942 1.051457 -1.369724
v -3.946941 0.051457 -0.926847
v 3.946942 0.051457 -0.926847
v 2.762859 0.051457 -0.926846
v -2.762859 0.051457 -0.926846
v 3.946942 0.051457 0.383523
v -3.946941 0.051457 0.383523
v 3.946942 -0.552078 0.031538
v 2.762859 -0.552078 0.031538
v 3.946942 -0.552078 1.369724
v -2.762859 -0.552078 0.031538
v -3.946941 -0.552078 0.031538
v -3.946941 -0.552078 1.369724
v 2.762859 -1.051457 0.383523
v 3.946942 -1.051457 0.383523
v 3.946942 -1.051457 1.369724
v -2.762859 -1.051457 0.383523
v -3.946941 -1.051457 0.383523
v -3.946941 -1.051457 1.369724
vt 0.203672 0.009787
vt 0.731051 0.009771
vt 0.379485 0.009782
vt 0.555238 0.009776
vt 0.379499 0.491412
vt 0.555252 0.491407
vt 0.379505 0.683696
vt 0.731063 0.413538
vt 0.203677 0.183174
vt 0.528895 0.683691
vt 0.731056 0.183158
vt 0.405868 0.683695
vt 0.405874 0.882819
vt 0.528900 0.882815
vt 0.837167 0.245039
vt 0.837161 0.009768
vt 0.379511 0.882820
vt 0.097563 0.009790
vt 0.528903 0.990230
vt 0.924963 0.183153
vt 0.924958 0.009766
vt 0.379515 0.990234
vt 0.405878 0.990233
vt 0.009766 0.009793
vt 0.097570 0.245060
vt 0.009771 0.183179
vt 0.555263 0.882814
vt 0.555266 0.990229
vt 0.203684 0.413554
vt 0.555258 0.683691
vn 0.000000 1.000000 0.000000
vn 0.000000 1.000000 0.000000
vn 0.000000 1.000000 0.000000
vn 0.000000 1.000000 0.000000
vn 0.000000 -0.404942 -0.914342
vn 0.000000 -0.404942 -0.914342
vn 0.000001 -0.404941 -0.914343
vn 1.000000 0.000000 0.000000
vn 1.000000 0.000000 0.000000
vn 1.000000 0.000001 0.000000
vn -1.000000 0.000000 0.000000
vn -1.000000 -0.000000 0.000000
vn -1.000000 0.000000 0.000000
vn 1.000000 -0.000001 0.000000
vn -1.000000 -0.000000 0.000000
vn 1.000000 0.000000 0.000000
vn -1.000000 0.000000 0.000000
vn -0.000000 -0.846190 -0.532881
vn -0.000000 -0.846190 -0.532881
vn -0.000000 -0.846190 -0.532881
vn -0.000000 -0.846190 -0.532881
vn 1.000000 0.000000 0.000000
vn 1.000000 0.000000 0.000000
vn 0.000000 -0.846190 -0.532881
vn 0.000000 -0.846190 -0.532881
vn 0.000000 -0.846190 -0.532881
vn 0.000000 -0.846190 -0.532881
vn -1.000000 0.000000 0.000000
vn -1.000000 0.000000 0.000000
vn 0.000000 -0.576119 -0.817366
vn 0.000000 -0.576119 -0.817366
vn 0.000000 -0.576119 -0.817366
vn 0.000000 -0.576119 -0.817366
vn 1.000000 0.000000 0.000000
vn 1.000000 0.000000 0.000000
vn 1.000000 0.000000 0.000000
vn 1.000000 0.000000 0.000000
vn 0.000000 -0.576118 -0.817366
vn 0.000000 -0.576118 -0.817366
vn 0.000000 -0.576118 -0.817366
vn 0.000000 -0.576118 -0.817366
vn -1.000000 0.000000 0.000000
vn -1.000000 0.000000 0.000000
vn -1.000000 0.000000 0.000000
vn -1.000000 0.000000 0.000000
vn -0.000000 -0.404942 -0.914342
vn -0.000001 -0.404941 -0.914343
vn -0.000000 -0.404942 -0.914342
s off
g BossPlatform
usemtl initialShadingGroup
f 3/3/1 4/4/2 6/6/3 5/5/4
s 1
f 5/5/5 10/12/6 7/7/7
s 2
f 4/4/8 8/8/9 6/6/10
s 3
f 7/29/11 3/3/12 5/5/13
s 2
f 4/4/8 11/11/14 8/8/9
s 3
f 3/3/12 7/29/11 12/9/15
s 2
f 2/2/16 11/11/14 4/4/8
s 3
f 3/3/12 12/9/15 1/1/17
s off
f 9/10/18 8/30/19 13/27/20 14/14/21
s 2
f 8/8/9 11/11/14 13/15/22
f 11/11/14 2/2/16 15/16/23 13/15/22
s off
f 7/7/24 10/12/25 16/13/26 17/17/27
s 3
f 12/9/15 7/29/11 17/25/28
f 1/1/17 12/9/15 17/25/28 18/18/29
s off
f 14/14/30 13/27/31 20/28/32 19/19/33
f 13/15/34 15/16/35 21/21/36 20/20/37
f 17/17/38 16/13/39 22/23/40 23/22/41
f 18/18/42 17/25/43 23/26/44 24/24/45
s 1
f 6/6/46 8/30/47 9/10/48
f 6/6/46 9/10/48 10/12/6 5/5/5
