# This file uses centimeters as units for non-parametric coordinates.

mtllib OuterFloor.mtl
g default
v 38.384476 0.323869 18.000000
v -17.999014 0.323869 18.000000
v -17.999014 0.000000 18.000002
v 18.000000 0.323869 18.000000
v 18.000000 0.000000 18.000002
v 38.384476 0.323869 -18.000000
v -17.999014 0.323869 -18.000000
v -17.999014 0.000000 -18.000002
v 18.000000 0.323869 -18.000000
v 18.000000 0.000000 -18.000002
v -17.999014 0.323869 38.384472
v 18.000000 0.323869 38.384472
v 18.000000 0.323869 -38.384232
v -17.999014 0.323869 -38.384232
v -38.384232 0.323869 18.000000
v -38.384232 0.323869 -18.000000
v -38.384232 0.323869 -38.384232
v -38.384232 0.323869 38.384472
v 38.384476 0.323869 38.384472
v 38.384476 0.323869 -38.384232
vt 0.462478 0.986162
vt 0.462477 0.990234
vt 0.009766 0.990171
vt 0.009766 0.986098
vt 0.266129 0.718853
vt 0.718853 0.718885
vt 0.718835 0.975233
vt 0.266111 0.975201
vt 0.266161 0.266141
vt 0.009784 0.718835
vt 0.009815 0.266123
vt 0.462478 0.990232
vt 0.009766 0.990174
vt 0.009766 0.986101
vt 0.462478 0.986159
vt 0.462477 0.990230
vt 0.009766 0.990175
vt 0.009766 0.986102
vt 0.462478 0.986158
vt 0.718885 0.266173
vt 0.266179 0.009784
vt 0.718902 0.009815
vt 0.009766 0.986100
vt 0.462478 0.986160
vt 0.462477 0.990233
vt 0.009766 0.990172
vt 0.975233 0.266191
vt 0.975201 0.718902
vt 0.009833 0.009766
vt 0.975251 0.009833
vt 0.975183 0.975251
vt 0.009766 0.975183
vn 0.000000 -0.000006 -1.000000
vn 0.000000 -0.000006 -1.000000
vn 0.000000 -0.000006 -1.000000
vn 0.000000 -0.000006 -1.000000
vn 0.000000 1.000000 0.000000
vn 0.000000 1.000000 0.000000
vn 0.000000 1.000000 0.000000
vn 0.000000 1.000000 0.000000
vn 0.000000 1.000000 0.000000
vn 0.000000 1.000000 0.000000
vn 0.000000 1.000000 0.000000
vn 0.000000 1.000000 0.000000
vn 0.000000 -0.000006 1.000000
vn 0.000000 -0.000006 1.000000
vn 0.000000 -0.000006 1.000000
vn 0.000000 -0.000006 1.000000
vn 1.000000 0.000003 0.000000
vn 1.000000 0.000003 0.000000
vn 1.000000 0.000003 0.000000
vn 1.000000 0.000003 0.000000
vn 0.000000 1.000000 0.000000
vn 0.000000 1.000000 0.000000
vn 0.000000 1.000000 0.000000
vn 0.000000 1.000000 0.000000
vn -1.000000 0.000003 0.000000
vn -1.000000 0.000003 0.000000
vn -1.000000 0.000003 0.000000
vn -1.000000 0.000003 0.000000
vn 0.000000 1.000000 0.000000
vn 0.000000 1.000000 0.000000
vn 0.000000 1.000000 0.000000
vn 0.000000 1.000000 0.000000
vn 0.000000 1.000000 0.000000
vn 0.000000 1.000000 0.000000
vn 0.000000 1.000000 0.000000
vn 0.000000 1.000000 0.000000
vn 0.000000 1.000000 0.000000
vn 0.000000 1.000000 0.000000
vn 0.000000 1.000000 0.000000
vn 0.000000 1.000000 0.000000
vn 0.000000 1.000000 0.000000
vn 0.000000 1.000000 0.000000
vn 0.000000 1.000000 0.000000
vn 0.000000 1.000000 0.000000
vn 0.000000 1.000000 0.000000
vn 0.000000 1.000000 0.000000
vn 0.000000 1.000000 0.000000
vn 0.000000 1.000000 0.000000
s off
g OuterRing Assets_To_Be_Used
usemtl OuterRing_initialShadingGroup
f 4/1/1 5/2/2 3/3/3 2/4/4
f 9/5/5 4/6/6 1/7/7 6/8/8
f 7/9/9 9/5/10 13/10/11 14/11/12
f 9/12/13 7/13/14 8/14/15 10/15/16
f 3/16/17 8/17/18 7/18/19 2/19/20
f 2/20/21 7/9/22 16/21/23 15/22/24
f 4/23/25 9/24/26 10/25/27 5/26/28
f 2/20/29 11/27/30 12/28/31 4/6/32
f 16/21/33 7/9/34 14/11/35 17/29/36
f 2/20/37 15/22/38 18/30/39 11/27/40
f 4/6/41 12/28/42 19/31/43 1/7/44
f 9/5/45 6/8/46 20/32/47 13/10/48
