# This file uses centimeters as units for non-parametric coordinates.

mtllib UpperWallNewUVs.mtl
g default
v 0.260042 -5.250001 17.892523
v -0.260040 -5.250001 17.892523
v 0.260042 5.250000 17.892523
v -0.260040 5.250000 17.892523
v 0.260042 5.250000 -18.107475
v -0.260040 5.250000 -18.107475
v 0.260042 -5.250001 -18.107475
v -0.260040 -5.250001 -18.107475
v 0.260042 5.250000 8.892524
v -0.260040 5.250000 8.892524
v 0.260042 -5.095268 -9.187064
v -0.260040 -5.095268 -9.187064
v -0.260040 5.250000 -9.107476
v 0.260042 5.250000 -9.107476
v 0.260042 1.608130 17.309990
v -0.260040 1.608130 17.309990
v -0.260040 1.608128 9.554159
v -0.260040 1.608130 -9.769354
v -0.260040 1.608128 -17.525187
v 0.260042 1.608128 -17.525187
v 0.260042 1.608130 -9.769354
v 0.260042 1.608128 9.554159
v -0.260040 1.608130 3.770194
v -0.260040 5.250000 4.392524
v 0.260042 5.250000 4.392524
v 0.260042 1.608130 3.770194
v 0.260042 5.250000 -4.607476
v -0.260040 5.250000 -4.607476
v -0.260040 1.608128 -3.985640
v -0.260040 -5.095268 -4.567928
v 0.260042 -5.095268 -4.567928
v 0.260042 1.608128 -3.985640
v 0.260042 2.099998 19.607468
v -0.260040 2.099998 19.607468
v -0.260040 5.250000 19.607468
v 0.260042 5.250000 19.607468
v 0.260042 -5.250001 19.607468
v -0.260040 -5.250001 19.607468
v 0.260042 5.250000 -19.607466
v -0.260040 5.250000 -19.607466
v -0.260040 2.099998 -19.607468
v 0.260042 2.099998 -19.607468
v -0.260040 -5.250001 -19.607466
v 0.260042 -5.250001 -19.607466
v 0.260042 3.313025 13.392523
v 0.260042 5.250000 13.392523
v -0.260040 5.250000 13.392523
v -0.260040 3.313025 13.392523
v -0.260040 3.313025 -0.107476
v -0.260040 5.250000 -0.107476
v 0.260042 5.250000 -0.107476
v 0.260042 3.313025 -0.107476
v 0.260042 3.313025 -13.607476
v 0.260042 5.250000 -13.607476
v -0.260040 5.250000 -13.607476
v -0.260040 3.313025 -13.607476
v 0.260042 2.869070 15.806904
v 0.260042 5.250000 15.642524
v -0.260040 5.250000 15.642524
v -0.260040 2.869070 15.806904
v 0.260042 2.869070 11.057244
v 0.260042 5.250000 11.142525
v -0.260040 5.250000 11.142525
v -0.260040 2.869070 11.057244
v -0.260040 2.869070 2.267106
v -0.260040 5.250000 2.142524
v 0.260042 5.250000 2.142524
v 0.260042 2.869070 2.267106
v 0.260042 2.869070 -2.482552
v 0.260042 5.250000 -2.357476
v -0.260040 5.250000 -2.357476
v -0.260040 2.869070 -2.482552
v 0.260042 2.869070 -11.272441
v 0.260042 5.250000 -11.357476
v -0.260040 5.250000 -11.357476
v -0.260040 2.869070 -11.272441
v 0.260042 2.869070 -16.022099
v 0.260042 5.250000 -15.857477
v -0.260040 5.250000 -15.857477
v -0.260040 2.869070 -16.022099
v -0.260040 -0.042561 -9.636978
v 0.260042 -0.042561 -9.636978
v 0.260042 -0.042562 -4.110007
v -0.260040 -0.042562 -4.110007
v -0.260040 -0.042562 -17.641644
v -0.260040 -0.042559 -19.607468
v 0.260042 -0.042559 -19.607468
v 0.260042 -0.042562 -17.641644
v 0.260042 -0.042562 9.421833
v -0.260040 -0.042562 9.421833
v -0.260040 -0.042561 3.894660
v 0.260042 -0.042561 3.894660
v 0.260042 -0.042562 17.426498
v 0.260042 -0.042559 19.607468
v -0.260040 -0.042559 19.607468
v -0.260040 -0.042562 17.426498
v 0.260042 -3.722271 17.606310
v 0.260042 -3.722271 19.607468
v -0.260040 -3.722271 19.607468
v -0.260040 -3.722271 17.606308
v 0.260042 -4.565210 9.257840
v -0.260040 -4.565210 9.257840
v -0.260040 -4.565210 4.066512
v 0.260042 -4.565210 4.066512
v -0.260040 -4.583634 -9.437935
v 0.260042 -4.565210 -9.437935
v 0.260042 -4.565210 -4.281957
v -0.260040 -4.565210 -4.317055
v -0.260040 -4.565210 -17.821501
v -0.260040 -3.722271 -19.607466
v 0.260042 -3.722271 -19.607466
v 0.260042 -4.565210 -17.821501
v 0.260042 -4.565209 17.641411
v 0.260042 -4.638908 19.607468
v -0.260040 -4.638908 19.607468
v -0.260040 -4.565210 17.641411
v 0.260042 -4.565210 8.971868
v -0.260040 -4.565210 8.971868
v -0.260040 -4.565210 4.352483
v 0.260042 -4.565210 4.352483
v -0.260040 -4.583634 -9.187064
v 0.260042 -4.565210 -9.187064
v 0.260042 -4.565210 -4.567928
v -0.260040 -4.565210 -4.567928
v -0.260040 -4.565210 -18.110193
v -0.260040 -4.565210 -19.607468
v 0.260042 -4.565210 -19.607468
v 0.260042 -4.565210 -18.110193
v -0.260040 -5.095268 8.971868
v -0.260040 -5.095268 4.352483
v 0.260042 -5.095268 4.352483
v 0.260042 -5.095268 8.971868
vt 0.847006 0.255414
vt 0.847029 0.074031
vt 0.876976 0.074035
vt 0.876953 0.255418
vt 0.796635 0.187300
vt 0.796630 0.348568
vt 0.815268 0.348569
vt 0.815274 0.187300
vt 0.876976 0.074062
vt 0.876953 0.255418
vt 0.847006 0.255414
vt 0.847029 0.074066
vt 0.384724 0.969405
vt 0.272705 0.969433
vt 0.256205 0.878780
vt 0.400180 0.878743
vt 0.036481 0.345688
vt 0.036512 0.467910
vt 0.135432 0.484774
vt 0.135392 0.327685
vt 0.796630 0.348568
vt 0.796635 0.187300
vt 0.815274 0.187300
vt 0.815268 0.348569
vt 0.720677 0.969307
vt 0.608710 0.969336
vt 0.593202 0.878724
vt 0.737116 0.878687
vt 0.655667 0.466668
vt 0.655676 0.344445
vt 0.556762 0.326468
vt 0.556750 0.483563
vt 0.796627 0.429203
vt 0.815266 0.429203
vt 0.776661 0.969292
vt 0.774523 0.910051
vt 0.655680 0.283334
vt 0.591013 0.285646
vt 0.104676 0.969476
vt 0.048666 0.969490
vt 0.063138 0.878829
vt 0.100563 0.910208
vt 0.796622 0.590471
vt 0.796620 0.671106
vt 0.815258 0.671106
vt 0.815261 0.590472
vt 0.135338 0.117033
vt 0.036419 0.101243
vt 0.036435 0.162353
vt 0.101101 0.157866
vt 0.846991 0.378786
vt 0.876938 0.378790
vt 0.733813 0.837616
vt 0.596288 0.837652
vt 0.259490 0.837688
vt 0.397074 0.837653
vt 0.876938 0.378790
vt 0.846991 0.378786
vt 0.180226 0.331269
vt 0.180264 0.481385
vt 0.511928 0.330058
vt 0.511917 0.480179
vt 0.815276 0.106666
vt 0.796638 0.106665
vt 0.555811 0.910108
vt 0.552727 0.969351
vt 0.655662 0.527779
vt 0.590995 0.524390
vt 0.930093 0.878637
vt 0.987261 0.890860
vt 0.987282 0.969237
vt 0.944611 0.969248
vt 0.815258 0.671106
vt 0.815256 0.732566
vt 0.796618 0.732565
vt 0.796620 0.671106
vt 0.655694 0.100000
vt 0.655698 0.053421
vt 0.570141 0.053414
vt 0.556777 0.115814
vt 0.987247 0.837550
vt 0.932982 0.837564
vt 0.511948 0.053410
vt 0.511944 0.112646
vt 0.796618 0.732565
vt 0.815256 0.732566
vt 0.011327 0.969500
vt 0.011307 0.891086
vt 0.121964 0.060480
vt 0.036408 0.060502
vt 0.011293 0.837751
vt 0.060229 0.837739
vt 0.180157 0.060465
vt 0.180171 0.113858
vt 0.655685 0.222222
vt 0.655689 0.161111
vt 0.591022 0.156641
vt 0.603075 0.222218
vt 0.796622 0.590471
vt 0.796625 0.509837
vt 0.815263 0.509838
vt 0.815261 0.590472
vt 0.888628 0.969262
vt 0.832644 0.969277
vt 0.832631 0.921082
vt 0.892702 0.910020
vt 0.437604 0.910122
vt 0.440733 0.969391
vt 0.815276 0.106666
vt 0.796638 0.106665
vt 0.036527 0.529022
vt 0.101194 0.525608
vt 0.036450 0.223465
vt 0.036465 0.284576
vt 0.101133 0.286869
vt 0.089059 0.223452
vt 0.796627 0.429203
vt 0.796625 0.509837
vt 0.815263 0.509838
vt 0.815266 0.429203
vt 0.216695 0.969447
vt 0.160685 0.969462
vt 0.160673 0.921245
vt 0.218797 0.910178
vt 0.496730 0.921164
vt 0.496743 0.969371
vt 0.815279 0.026032
vt 0.796640 0.026031
vt 0.655658 0.588890
vt 0.603048 0.588886
vt 0.036543 0.590133
vt 0.089153 0.590119
vt 0.815279 0.026032
vt 0.796640 0.026031
vt 0.303067 0.343458
vt 0.303066 0.336644
vt 0.385646 0.725073
vt 0.391891 0.725071
vt 0.011270 0.746151
vt 0.055723 0.725157
vt 0.876912 0.590675
vt 0.846964 0.590671
vt 0.280100 0.060440
vt 0.303008 0.108942
vt 0.722587 0.725088
vt 0.729703 0.725086
vt 0.389090 0.334503
vt 0.389089 0.342270
vt 0.412005 0.053403
vt 0.412001 0.107756
vt 0.846964 0.590671
vt 0.876912 0.590675
vt 0.987223 0.745993
vt 0.937431 0.746006
vt 0.387108 0.053401
vt 0.389106 0.106800
vt 0.846958 0.643453
vt 0.876905 0.643456
vt 0.987218 0.723185
vt 0.938299 0.725032
vt 0.011264 0.725168
vt 0.048536 0.725159
vt 0.876905 0.643456
vt 0.846958 0.643453
vt 0.302995 0.060434
vt 0.303006 0.101100
vt 0.370511 0.053399
vt 0.370507 0.099979
vt 0.846954 0.678641
vt 0.876901 0.678644
vt 0.944543 0.707992
vt 0.987213 0.707980
vt 0.317496 0.468913
vt 0.317464 0.343455
vt 0.303099 0.468917
vt 0.011261 0.708122
vt 0.048600 0.708112
vt 0.876901 0.678644
vt 0.846954 0.678641
vt 0.321605 0.101170
vt 0.321595 0.060430
vt 0.607650 0.725118
vt 0.607647 0.711930
vt 0.722584 0.711899
vt 0.600535 0.725120
vt 0.374692 0.342269
vt 0.374683 0.467734
vt 0.389079 0.467735
vt 0.389079 0.475503
vt 0.270661 0.724644
vt 0.270658 0.711907
vt 0.385643 0.711879
vt 0.264416 0.724645
vt 0.303101 0.476684
vn 0.000000 0.000000 1.000000
vn 0.000000 0.000000 1.000000
vn 0.000000 0.000000 1.000000
vn 0.000000 0.000000 1.000000
vn 0.000000 1.000000 0.000000
vn 0.000000 1.000000 0.000000
vn 0.000000 1.000000 0.000000
vn 0.000000 1.000000 0.000000
vn 0.000000 0.000001 -1.000000
vn 0.000000 0.000000 -1.000000
vn 0.000000 0.000000 -1.000000
vn 0.000000 0.000001 -1.000000
vn -1.000000 0.000000 0.000000
vn -1.000000 0.000000 0.000000
vn -1.000000 0.000000 0.000000
vn -1.000000 0.000000 0.000000
vn 1.000000 -0.000000 0.000000
vn 1.000000 -0.000000 0.000000
vn 1.000000 -0.000000 0.000000
vn 1.000000 -0.000000 0.000000
vn 0.000000 1.000000 0.000000
vn 0.000000 1.000000 0.000000
vn 0.000000 1.000000 0.000000
vn 0.000000 1.000000 0.000000
vn -1.000000 0.000000 0.000000
vn -1.000000 0.000000 0.000000
vn -1.000000 0.000000 0.000000
vn -1.000000 0.000000 0.000000
vn 1.000000 -0.000000 0.000000
vn 1.000000 -0.000000 0.000000
vn 1.000000 -0.000000 0.000000
vn 1.000000 -0.000000 0.000000
vn 0.000000 1.000000 0.000000
vn 0.000000 1.000000 0.000000
vn 0.000000 1.000000 0.000000
vn 0.000000 1.000000 0.000000
vn -1.000000 0.000000 0.000000
vn -1.000000 0.000000 0.000000
vn -1.000000 0.000000 0.000000
vn -1.000000 0.000000 0.000000
vn 1.000000 -0.000000 0.000000
vn 1.000000 0.000000 0.000000
vn 1.000000 0.000000 0.000000
vn 1.000000 -0.000000 0.000000
vn -1.000000 0.000000 0.000000
vn -1.000000 0.000000 0.000000
vn -1.000000 0.000000 0.000000
vn -1.000000 0.000000 0.000000
vn 0.000000 1.000000 0.000000
vn 0.000000 1.000000 0.000000
vn 0.000000 1.000000 0.000000
vn 0.000000 1.000000 0.000000
vn 1.000000 0.000000 0.000000
vn 1.000000 0.000000 0.000000
vn 1.000000 0.000000 0.000000
vn 1.000000 0.000000 0.000000
vn 0.000000 0.000000 1.000000
vn 0.000000 0.000000 1.000000
vn 0.000000 0.000000 1.000000
vn 0.000000 0.000000 1.000000
vn -1.000000 0.000000 0.000000
vn -1.000000 0.000000 0.000000
vn -1.000000 0.000000 0.000000
vn -1.000000 0.000000 0.000000
vn -1.000000 0.000000 0.000000
vn -1.000000 0.000000 0.000000
vn -1.000000 0.000000 0.000000
vn -1.000000 0.000000 0.000000
vn 0.000000 0.000000 -1.000000
vn 0.000000 0.000000 -1.000000
vn 0.000000 0.000000 -1.000000
vn 0.000000 0.000000 -1.000000
vn 1.000000 0.000000 0.000000
vn 1.000000 -0.000000 0.000000
vn 1.000000 -0.000000 0.000000
vn 1.000000 0.000000 0.000000
vn 1.000000 -0.000000 0.000000
vn 1.000000 0.000000 0.000000
vn 1.000000 0.000000 0.000000
vn 1.000000 -0.000000 0.000000
vn 0.000000 1.000000 0.000000
vn 0.000000 1.000000 0.000000
vn 0.000000 1.000000 0.000000
vn 0.000000 1.000000 0.000000
vn -1.000000 0.000000 0.000000
vn -1.000000 0.000000 0.000000
vn -1.000000 0.000000 0.000000
vn -1.000000 0.000000 0.000000
vn 1.000000 -0.000000 0.000000
vn 1.000000 -0.000000 0.000000
vn 1.000000 -0.000000 0.000000
vn 1.000000 -0.000000 0.000000
vn -1.000000 0.000000 0.000000
vn -1.000000 0.000000 0.000000
vn -1.000000 0.000000 0.000000
vn -1.000000 0.000000 0.000000
vn 0.000000 1.000000 0.000000
vn 0.000000 1.000000 0.000000
vn 0.000000 1.000000 0.000000
vn 0.000000 1.000000 0.000000
vn 1.000000 -0.000000 0.000000
vn 1.000000 -0.000000 0.000000
vn 1.000000 -0.000000 0.000000
vn 1.000000 -0.000000 0.000000
vn -1.000000 0.000000 0.000000
vn -1.000000 0.000000 0.000000
vn -1.000000 0.000000 0.000000
vn -1.000000 0.000000 0.000000
vn 1.000000 0.000000 0.000000
vn 1.000000 0.000000 0.000000
vn 1.000000 0.000000 0.000000
vn 1.000000 0.000000 0.000000
vn 0.000000 1.000000 0.000000
vn 0.000000 1.000000 0.000000
vn 0.000000 1.000000 0.000000
vn 0.000000 1.000000 0.000000
vn -1.000000 0.000000 0.000000
vn -1.000000 0.000000 0.000000
vn -1.000000 0.000000 0.000000
vn -1.000000 0.000000 0.000000
vn 1.000000 0.000000 0.000000
vn 1.000000 0.000000 0.000000
vn 1.000000 0.000000 0.000000
vn 1.000000 0.000000 0.000000
vn -1.000000 0.000000 0.000000
vn -1.000000 0.000000 0.000000
vn -1.000000 0.000000 0.000000
vn -1.000000 0.000000 0.000000
vn 1.000000 0.000000 0.000000
vn 1.000000 0.000000 0.000000
vn 1.000000 0.000000 0.000000
vn 1.000000 0.000000 0.000000
vn 1.000000 -0.000000 0.000000
vn 1.000000 -0.000000 0.000000
vn 1.000000 -0.000000 0.000000
vn 1.000000 -0.000000 0.000000
vn 0.000000 1.000000 0.000000
vn 0.000000 1.000000 0.000000
vn 0.000000 1.000000 0.000000
vn 0.000000 1.000000 0.000000
vn -1.000000 0.000000 0.000000
vn -1.000000 0.000000 0.000000
vn -1.000000 0.000000 0.000000
vn -1.000000 0.000000 0.000000
vn -1.000000 0.000000 0.000000
vn -1.000000 0.000000 0.000000
vn -1.000000 0.000000 0.000000
vn -1.000000 0.000000 0.000000
vn 0.000000 1.000000 0.000000
vn 0.000000 1.000000 0.000000
vn 0.000000 1.000000 0.000000
vn 0.000000 1.000000 0.000000
vn 1.000000 -0.000000 0.000000
vn 1.000000 0.000000 0.000000
vn 1.000000 0.000000 0.000000
vn 1.000000 -0.000000 0.000000
vn 1.000000 0.000000 0.000000
vn 1.000000 -0.000000 0.000000
vn 1.000000 -0.000000 0.000000
vn 1.000000 0.000000 0.000000
vn 0.000000 1.000000 0.000000
vn 0.000000 1.000000 0.000000
vn 0.000000 1.000000 0.000000
vn 0.000000 1.000000 0.000000
vn -1.000000 0.000000 0.000000
vn -1.000000 0.000000 0.000000
vn -1.000000 0.000000 0.000000
vn -1.000000 0.000000 0.000000
vn 1.000000 -0.000000 0.000000
vn 1.000000 -0.000000 0.000000
vn 1.000000 -0.000000 0.000000
vn 1.000000 -0.000000 0.000000
vn 0.000000 1.000000 0.000000
vn 0.000000 1.000000 0.000000
vn 0.000000 1.000000 0.000000
vn 0.000000 1.000000 0.000000
vn -1.000000 0.000000 0.000000
vn -1.000000 0.000000 0.000000
vn -1.000000 0.000000 0.000000
vn -1.000000 0.000000 0.000000
vn 1.000000 0.000000 0.000000
vn 1.000000 -0.000000 0.000000
vn 1.000000 -0.000000 0.000000
vn 1.000000 0.000000 0.000000
vn 0.000000 1.000000 0.000000
vn 0.000000 1.000000 0.000000
vn 0.000000 1.000000 0.000000
vn 0.000000 1.000000 0.000000
vn -1.000000 0.000000 0.000000
vn -1.000000 0.000000 0.000000
vn -1.000000 0.000000 0.000000
vn -1.000000 0.000000 0.000000
vn -1.000000 0.000000 0.000000
vn -1.000000 0.000000 0.000000
vn -1.000000 0.000000 0.000000
vn -1.000000 0.000000 0.000000
vn 0.000000 1.000000 0.000000
vn 0.000000 1.000000 0.000000
vn 0.000000 1.000000 0.000000
vn 0.000000 1.000000 0.000000
vn 1.000000 0.000000 0.000000
vn 1.000000 -0.000000 0.000000
vn 1.000000 -0.000000 0.000000
vn 1.000000 0.000000 0.000000
vn 1.000000 0.000000 0.000000
vn 1.000000 0.000000 0.000000
vn 1.000000 0.000000 0.000000
vn 1.000000 0.000000 0.000000
vn 0.000000 1.000000 0.000000
vn 0.000000 1.000000 0.000000
vn 0.000000 1.000000 0.000000
vn 0.000000 1.000000 0.000000
vn -1.000000 0.000000 0.000000
vn -1.000000 0.000000 0.000000
vn -1.000000 0.000000 0.000000
vn -1.000000 0.000000 0.000000
vn 1.000000 -0.000000 0.000000
vn 1.000000 -0.000000 0.000000
vn 1.000000 -0.000000 0.000000
vn 1.000000 -0.000000 0.000000
vn 0.000000 1.000000 0.000000
vn 0.000000 1.000000 0.000000
vn 0.000000 1.000000 0.000000
vn 0.000000 1.000000 0.000000
vn -1.000000 0.000000 0.000000
vn -1.000000 0.000000 0.000000
vn -1.000000 0.000000 0.000000
vn -1.000000 0.000000 0.000000
vn 1.000000 0.000000 0.000000
vn 1.000000 0.000000 0.000000
vn 1.000000 0.000000 0.000000
vn 1.000000 0.000000 0.000000
vn 0.000000 1.000000 0.000000
vn 0.000000 1.000000 0.000000
vn 0.000000 1.000000 0.000000
vn 0.000000 1.000000 0.000000
vn -1.000000 0.000000 0.000000
vn -1.000000 0.000000 0.000000
vn -1.000000 0.000000 0.000000
vn -1.000000 0.000000 0.000000
vn 1.000000 0.000000 0.000000
vn 1.000000 0.000000 0.000000
vn 1.000000 0.000000 0.000000
vn -1.000000 0.000000 0.000000
vn -1.000000 0.000000 0.000000
vn -1.000000 0.000000 0.000000
vn -1.000000 0.000000 0.000000
vn -1.000000 0.000000 0.000000
vn -1.000000 0.000000 0.000000
vn -1.000000 0.000000 0.000000
vn 0.000000 0.000000 -1.000000
vn 0.000000 0.000000 -1.000000
vn 0.000000 0.000000 -1.000000
vn 0.000000 0.000000 -1.000000
vn 1.000000 0.000000 0.000000
vn 1.000000 0.000000 0.000000
vn 1.000000 0.000000 0.000000
vn 1.000000 0.000000 0.000000
vn -1.000000 0.000000 0.000000
vn -1.000000 0.000000 0.000000
vn -1.000000 0.000000 0.000000
vn 1.000000 0.000000 0.000000
vn 1.000000 0.000000 0.000000
vn 1.000000 0.000000 0.000000
vn 1.000000 0.000000 0.000000
vn 1.000000 0.000000 0.000000
vn 1.000000 0.000000 0.000000
vn 1.000000 0.000000 0.000000
vn 0.000000 0.000000 1.000000
vn 0.000000 0.000000 1.000000
vn 0.000000 0.000000 1.000000
vn 0.000000 0.000000 1.000000
vn -1.000000 0.000000 0.000000
vn -1.000000 0.000000 0.000000
vn -1.000000 0.000000 0.000000
vn -1.000000 0.000000 0.000000
vn 1.000000 0.000000 0.000000
vn 1.000000 0.000000 0.000000
vn 1.000000 0.000000 0.000000
vn 1.000000 0.000000 0.000000
vn 0.000000 0.000000 1.000000
vn 0.000000 0.000000 1.000000
vn 0.000000 0.000000 1.000000
vn 0.000000 0.000000 1.000000
vn -1.000000 0.000000 0.000000
vn -1.000000 0.000000 0.000000
vn -1.000000 0.000000 0.000000
vn -1.000000 0.000000 0.000000
vn -1.000000 0.000000 0.000000
vn -1.000000 0.000000 0.000000
vn -1.000000 0.000000 0.000000
vn -1.000000 0.000000 0.000000
vn 0.000000 0.000000 -1.000000
vn 0.000000 0.000000 -1.000000
vn 0.000000 0.000000 -1.000000
vn 0.000000 0.000000 -1.000000
vn 1.000000 0.000000 0.000000
vn 1.000000 0.000000 0.000000
vn 1.000000 0.000000 0.000000
vn 1.000000 0.000000 0.000000
vn 1.000000 0.000000 0.000000
vn 1.000000 0.000000 0.000000
vn 1.000000 0.000000 0.000000
vn 1.000000 0.000000 0.000000
vn 0.000000 0.000000 1.000000
vn 0.000000 0.000000 1.000000
vn 0.000000 0.000000 1.000000
vn 0.000000 0.000000 1.000000
vn -1.000000 0.000000 0.000000
vn -1.000000 0.000000 0.000000
vn -1.000000 0.000000 0.000000
vn -1.000000 0.000000 0.000000
vn 1.000000 0.000000 0.000000
vn 1.000000 0.000000 0.000000
vn 1.000000 0.000000 0.000000
vn 1.000000 0.000000 0.000000
vn -1.000000 0.000000 0.000000
vn -1.000000 0.000000 0.000000
vn -1.000000 0.000000 0.000000
vn -1.000000 0.000000 0.000000
vn 0.000000 0.000000 -1.000000
vn 0.000000 -0.000003 -1.000000
vn 0.000000 -0.000003 -1.000000
vn 0.000000 0.000000 -1.000000
vn 1.000000 0.000000 0.000000
vn 1.000000 0.000000 0.000000
vn 1.000000 0.000000 0.000000
vn 1.000000 0.000000 0.000000
vn -1.000000 0.000000 0.000000
vn -1.000000 0.000000 0.000000
vn -1.000000 0.000000 0.000000
vn -1.000000 0.000000 0.000000
vn -1.000000 0.000000 0.000000
vn -1.000000 0.000000 0.000000
vn -1.000000 0.000000 0.000000
vn -1.000000 0.000000 0.000000
vn -1.000000 0.000000 0.000000
vn -1.000000 0.000000 0.000000
vn -1.000000 0.000000 0.000000
vn 1.000000 0.000000 0.000000
vn 1.000000 0.000000 0.000000
vn 1.000000 0.000000 0.000000
vn 1.000000 0.000000 0.000000
vn 1.000000 0.000000 0.000000
vn 1.000000 0.000000 0.000000
vn 1.000000 0.000000 0.000000
vn 1.000000 0.000000 0.000000
vn 1.000000 0.000000 0.000000
vn 1.000000 0.000000 0.000000
vn 1.000000 0.000000 0.000000
vn -1.000000 0.000000 0.000000
vn -1.000000 0.000000 0.000000
vn -1.000000 0.000000 0.000000
vn -1.000000 0.000000 0.000000
vn -1.000000 0.000000 0.000000
vn -1.000000 0.000000 0.000000
vn -1.000000 0.000000 0.000000
vn -1.000000 0.000000 0.000000
vn -1.000000 0.000000 0.000000
vn -1.000000 0.000000 0.000000
vn -1.000000 0.000000 0.000000
vn 1.000000 0.000000 0.000000
vn 1.000000 0.000000 0.000000
vn 1.000000 0.000000 0.000000
vn 1.000000 0.000000 0.000000
vn 1.000000 0.000000 0.000000
vn 1.000000 0.000000 0.000000
vn 1.000000 0.000000 0.000000
s off
g UpperWall:UpperWall
usemtl initialShadingGroup
f 33/1/1 36/2/2 35/3/3 34/4/4
f 27/5/5 14/6/6 13/7/7 28/8/8
f 39/9/9 42/10/10 41/11/11 40/12/12
f 28/13/13 13/14/14 18/15/15 29/16/16
f 14/17/17 27/18/18 32/19/19 21/20/20
f 9/21/21 25/22/22 24/23/23 10/24/24
f 10/25/25 24/26/26 23/27/27 17/28/28
f 25/29/29 9/30/30 22/31/31 26/32/32
f 62/33/33 9/21/34 10/24/35 63/34/36
f 63/35/37 10/25/38 17/28/39 64/36/40
f 9/30/41 62/37/42 61/38/43 22/31/44
f 79/39/45 6/40/46 19/41/47 80/42/48
f 78/43/49 5/44/50 6/45/51 79/46/52
f 20/47/53 5/48/54 78/49/55 77/50/56
f 94/51/57 33/1/58 34/4/59 95/52/60
f 90/53/61 17/28/62 23/27/63 91/54/64
f 18/15/65 81/55/66 84/56/67 29/16/68
f 42/10/69 87/57/70 86/58/71 41/11/72
f 82/59/73 21/20/74 32/19/75 83/60/76
f 22/31/77 89/61/78 92/62/79 26/32/80
f 66/63/81 24/23/82 25/22/83 67/64/84
f 65/65/85 23/27/86 24/26/87 66/66/88
f 67/67/89 25/29/90 26/32/91 68/68/92
f 16/69/93 34/70/94 35/71/95 4/72/96
f 4/73/97 35/74/98 36/75/99 3/76/100
f 3/77/101 36/78/102 33/79/103 15/80/104
f 95/81/105 34/70/106 16/69/107 96/82/108
f 15/80/109 33/79/110 94/83/111 93/84/112
f 5/44/113 39/85/114 40/86/115 6/45/116
f 6/40/117 40/87/118 41/88/119 19/41/120
f 20/47/121 42/89/122 39/90/123 5/48/124
f 19/41/125 41/88/126 86/91/127 85/92/128
f 87/93/129 42/89/130 20/47/131 88/94/132
f 46/95/133 58/96/134 57/97/135 45/98/136
f 58/99/137 46/100/138 47/101/139 59/102/140
f 59/103/141 47/104/142 48/105/143 60/106/144
f 29/16/145 72/107/146 71/108/147 28/13/148
f 28/8/149 71/109/150 70/110/151 27/5/152
f 27/18/153 70/111/154 69/112/155 32/19/156
f 54/113/157 74/114/158 73/115/159 53/116/160
f 74/117/161 54/118/162 55/119/163 75/120/164
f 75/121/165 55/122/166 56/123/167 76/124/168
f 58/96/169 3/77/170 15/80/171 57/97/172
f 3/76/173 58/99/174 59/102/175 4/73/176
f 16/69/177 4/72/178 59/103/179 60/106/180
f 62/37/181 46/95/182 45/98/183 61/38/184
f 46/100/185 62/33/186 63/34/187 47/101/188
f 47/104/189 63/35/190 64/36/191 48/105/192
f 49/125/193 65/65/194 66/66/195 50/126/196
f 50/127/197 66/63/198 67/64/199 51/128/200
f 51/129/201 67/67/202 68/68/203 52/130/204
f 70/111/205 51/131/206 52/132/207 69/112/208
f 71/109/209 50/133/210 51/134/211 70/110/212
f 72/107/213 49/125/214 50/126/215 71/108/216
f 74/114/217 14/17/218 21/20/219 73/115/220
f 14/6/221 74/117/222 75/120/223 13/7/224
f 13/14/225 75/121/226 76/124/227 18/15/228
f 78/49/229 54/113/230 53/116/231 77/50/232
f 54/118/233 78/43/234 79/46/235 55/119/236
f 55/122/237 79/39/238 80/42/239 56/123/240
f 122/135/241 106/136/242 82/59/243
f 124/137/244 108/138/245 84/56/246
f 86/91/247 110/139/248 109/140/249 85/92/250
f 87/57/251 111/141/252 110/142/253 86/58/254
f 111/143/255 87/93/256 88/94/257 112/144/258
f 118/145/259 102/146/260 90/53/261
f 101/147/262 117/148/263 89/61/264
f 94/83/265 98/149/266 97/150/267 93/84/268
f 98/151/269 94/51/270 95/52/271 99/152/272
f 99/153/273 95/81/274 96/82/275 100/154/276
f 98/149/277 114/155/278 113/156/279 97/150/280
f 114/157/281 98/151/282 99/152/283 115/158/284
f 115/159/285 99/153/286 100/154/287 116/160/288
f 110/139/289 126/161/290 125/162/291 109/140/292
f 111/141/293 127/163/294 126/164/295 110/142/296
f 127/165/297 111/143/298 112/144/299 128/166/300
f 114/155/301 37/167/302 1/168/303 113/156/304
f 37/169/305 114/157/306 115/158/307 38/170/308
f 2/171/309 38/172/310 115/159/311 116/160/312
f 31/173/313 11/174/314 122/135/315 123/175/316
f 126/161/317 43/176/318 8/177/319 125/162/320
f 127/163/321 44/178/322 43/179/323 126/164/324
f 7/180/325 44/181/326 127/165/327 128/166/328
f 119/182/329 130/183/330 129/184/331 118/145/332
f 119/182/333 118/145/334 90/53/335 91/54/336
f 103/185/337 119/182/338 91/54/339
f 117/148/340 132/186/341 131/187/342 120/188/343
f 117/148/344 120/188/345 92/62/346 89/61/347
f 120/188/348 104/189/349 92/62/350
f 121/190/351 12/191/352 30/192/353 124/137/354
f 121/190/355 81/55/356 105/193/357
f 121/190/358 124/137/359 84/56/360 81/55/361
f 107/194/362 123/175/363 83/60/364
f 123/175/365 122/135/366 82/59/367 83/60/368
