# This file uses centimeters as units for non-parametric coordinates.

mtllib UpperSeamCoverNEWUVs.mtl
g default
v 18.499872 0.000000 -19.644072
v 19.499872 0.000000 -19.645435
v 18.499872 0.154728 -19.644072
v 19.499872 0.154728 -19.645435
v 18.499872 0.154728 -38.491951
v 19.499872 0.154728 -38.491951
v 18.499872 0.000000 -38.491951
v 19.499872 0.000000 -38.491951
v 18.499872 0.000000 -18.500008
v 19.499872 0.000000 -18.500008
v 19.499872 0.154728 -18.500008
v 18.499872 0.154728 -18.500008
v 38.380661 0.000000 -19.645435
v 38.380661 0.154728 -19.645435
v 38.380661 0.154728 -18.534973
v 38.380661 0.000000 -18.534973
v 18.499872 0.000000 18.607479
v 19.499872 0.000000 18.607479
v 19.499872 0.154728 18.607479
v 18.499872 0.154728 18.607479
v 18.499872 0.000000 19.714943
v 19.499872 0.000000 19.714943
v 19.499872 0.154728 19.714943
v 18.499872 0.154728 19.714943
v 38.384354 0.000000 18.607479
v 38.384354 0.154728 18.607479
v 38.384354 0.154728 19.714943
v 38.384354 0.000000 19.714943
v 18.499872 0.000000 38.491943
v 19.499872 0.000000 38.491943
v 19.499872 0.154728 38.491943
v 18.499872 0.154728 38.491943
v -18.501745 0.000000 18.607479
v -18.501745 0.154728 18.607479
v -18.501745 0.000000 19.714943
v -18.501745 0.154728 19.714943
v -19.492476 0.000000 18.607479
v -19.492476 0.154728 18.607479
v -19.492476 0.000000 19.714943
v -19.492476 0.154728 19.714943
v -18.501745 0.000000 38.491951
v -18.501745 0.154728 38.491951
v -19.492476 0.154728 38.491951
v -19.492476 0.000000 38.491951
v -38.384354 0.000000 18.642433
v -38.384354 0.154728 18.642433
v -38.384354 0.000000 19.714943
v -38.384354 0.154728 19.714943
v -18.501745 0.000000 -18.500008
v -18.501745 0.154728 -18.500008
v -19.492476 0.000000 -18.500008
v -19.492476 0.154728 -18.500008
v -18.501745 0.000000 -19.607483
v -18.501745 0.154728 -19.607483
v -19.492476 0.000000 -19.607483
v -19.492476 0.154728 -19.607483
v -38.384354 0.000000 -18.500008
v -38.384354 0.154728 -18.500008
v -38.384354 0.154728 -19.607468
v -38.384354 0.000000 -19.607468
v -18.501745 0.000000 -38.491951
v -18.501745 0.154728 -38.491951
v -19.492476 0.000000 -38.491951
v -19.492476 0.154728 -38.491951
vt 0.744262 0.013406
vt 0.773595 0.013406
vt 0.764973 0.022525
vt 0.752353 0.022525
vt 0.763756 0.981177
vt 0.751488 0.981177
vt 0.772512 0.990298
vt 0.743040 0.990298
vt 0.743216 0.773776
vt 0.989571 0.772297
vt 0.980426 0.763583
vt 0.980426 0.750899
vt 0.989571 0.742914
vt 0.740134 0.257240
vt 0.991033 0.256283
vt 0.982616 0.247516
vt 0.981595 0.235915
vt 0.991444 0.228391
vt 0.765665 0.234796
vt 0.018266 0.244078
vt 0.009151 0.252369
vt 0.009151 0.222284
vt 0.018266 0.231236
vt 0.258078 0.254998
vt 0.248742 0.980679
vt 0.256723 0.989838
vt 0.227479 0.989838
vt 0.236303 0.980679
vt 0.257229 0.009573
vt 0.250047 0.018740
vt 0.237047 0.018740
vt 0.228745 0.009573
vt 0.257756 0.742085
vt 0.011059 0.743814
vt 0.020193 0.751761
vt 0.020193 0.764354
vt 0.011059 0.772775
vt 0.236291 0.764435
vt 0.248889 0.764114
vt 0.256729 0.774165
vt 0.227348 0.773529
vt 0.236039 0.751429
vt 0.248707 0.750717
vt 0.225506 0.743625
vt 0.236098 0.244704
vt 0.226096 0.252995
vt 0.236316 0.231394
vt 0.227460 0.222490
vt 0.249619 0.245593
vt 0.250215 0.231937
vt 0.258158 0.221910
vt 0.748895 0.234038
vt 0.741782 0.224673
vt 0.774261 0.227863
vt 0.765065 0.248516
vt 0.749105 0.248304
vt 0.751349 0.750581
vt 0.742947 0.741856
vt 0.775468 0.258569
vt 0.764490 0.750729
vt 0.774378 0.742463
vt 0.764280 0.763712
vt 0.751237 0.763904
vt 0.773025 0.772842
vn 0.000000 0.000000 1.000000
vn 0.000000 0.000000 1.000000
vn 0.000000 0.000000 1.000000
vn 0.000000 0.000000 1.000000
vn 0.000000 1.000000 0.000000
vn 0.000000 1.000000 0.000000
vn 0.000000 1.000000 0.000000
vn 0.000000 1.000000 0.000000
vn 0.000000 0.000000 -1.000000
vn 0.000000 0.000000 -1.000000
vn 0.000000 0.000000 -1.000000
vn 0.000000 0.000000 -1.000000
vn 1.000000 0.000000 0.000000
vn 1.000000 0.000000 0.000000
vn 1.000000 0.000000 0.000000
vn 1.000000 0.000000 0.000000
vn -1.000000 0.000000 0.000000
vn -1.000000 0.000000 0.000000
vn -1.000000 0.000000 0.000000
vn -1.000000 0.000000 0.000000
vn 1.000000 0.000000 0.000000
vn 1.000000 0.000000 0.000000
vn 1.000000 0.000000 0.000000
vn 1.000000 0.000000 0.000000
vn -0.000000 1.000000 -0.000000
vn -0.000000 1.000000 -0.000000
vn -0.000000 1.000000 -0.000000
vn -0.000000 1.000000 -0.000000
vn 0.000000 0.000000 -1.000000
vn 0.000000 0.000000 -1.000000
vn 0.000000 0.000000 -1.000000
vn 0.000000 0.000000 -1.000000
vn 0.000000 1.000000 0.000000
vn 0.000000 1.000000 0.000000
vn 0.000000 1.000000 0.000000
vn 0.000000 1.000000 0.000000
vn 0.001852 0.000000 0.999998
vn 0.001852 0.000000 0.999998
vn 0.001852 0.000000 0.999998
vn 0.001852 0.000000 0.999998
vn 1.000000 0.000000 0.000000
vn 1.000000 0.000000 0.000000
vn 1.000000 0.000000 0.000000
vn 1.000000 0.000000 0.000000
vn 0.000000 1.000000 0.000000
vn 0.000000 1.000000 0.000000
vn 0.000000 1.000000 0.000000
vn 0.000000 1.000000 0.000000
vn -1.000000 0.000000 0.000000
vn -1.000000 0.000000 0.000000
vn -1.000000 0.000000 0.000000
vn -1.000000 0.000000 0.000000
vn 1.000000 0.000000 0.000000
vn 1.000000 0.000000 0.000000
vn 1.000000 0.000000 0.000000
vn 1.000000 0.000000 0.000000
vn 0.000000 1.000000 0.000000
vn 0.000000 1.000000 0.000000
vn 0.000000 1.000000 0.000000
vn 0.000000 1.000000 0.000000
vn -1.000000 0.000000 0.000000
vn -1.000000 0.000000 0.000000
vn -1.000000 0.000000 0.000000
vn -1.000000 0.000000 0.000000
vn 0.000000 0.000000 -1.000000
vn 0.000000 0.000000 -1.000000
vn 0.000000 0.000000 -1.000000
vn 0.000000 0.000000 -1.000000
vn 0.000000 1.000000 0.000000
vn 0.000000 1.000000 0.000000
vn 0.000000 1.000000 0.000000
vn 0.000000 1.000000 0.000000
vn 0.000000 0.000000 1.000000
vn 0.000000 0.000000 1.000000
vn 0.000000 0.000000 1.000000
vn 0.000000 0.000000 1.000000
vn 1.000000 0.000000 0.000000
vn 1.000000 0.000000 0.000000
vn 1.000000 0.000000 0.000000
vn 1.000000 0.000000 0.000000
vn 0.000000 1.000000 0.000000
vn 0.000000 1.000000 0.000000
vn 0.000000 1.000000 0.000000
vn 0.000000 1.000000 0.000000
vn -1.000000 0.000000 0.000000
vn -1.000000 0.000000 0.000000
vn -1.000000 0.000000 0.000000
vn -1.000000 0.000000 0.000000
vn 0.000000 0.000000 -1.000000
vn 0.000000 0.000000 -1.000000
vn 0.000000 0.000000 -1.000000
vn 0.000000 0.000000 -1.000000
vn 0.000000 0.000000 1.000000
vn 0.000000 0.000000 1.000000
vn 0.000000 0.000000 1.000000
vn 0.000000 0.000000 1.000000
vn 0.000000 1.000000 0.000000
vn 0.000000 1.000000 0.000000
vn 0.000000 1.000000 0.000000
vn 0.000000 1.000000 0.000000
vn 0.000000 0.000000 -1.000000
vn 0.000000 0.000000 -1.000000
vn 0.000000 0.000000 -1.000000
vn 0.000000 0.000000 -1.000000
vn 0.000000 0.000000 1.000000
vn 0.000000 0.000000 1.000000
vn 0.000000 0.000000 1.000000
vn 0.000000 0.000000 1.000000
vn 0.000000 1.000000 0.000000
vn 0.000000 1.000000 0.000000
vn 0.000000 1.000000 0.000000
vn 0.000000 1.000000 0.000000
vn 1.000000 0.000000 0.000000
vn 1.000000 0.000000 0.000000
vn 1.000000 0.000000 0.000000
vn 1.000000 0.000000 0.000000
vn 0.000000 1.000000 0.000000
vn 0.000000 1.000000 0.000000
vn 0.000000 1.000000 0.000000
vn 0.000000 1.000000 0.000000
vn -1.000000 0.000000 0.000000
vn -1.000000 0.000000 0.000000
vn -1.000000 0.000000 0.000000
vn -1.000000 0.000000 0.000000
vn -0.001850 0.000000 -0.999998
vn -0.001850 0.000000 -0.999998
vn -0.001850 0.000000 -0.999998
vn -0.001850 0.000000 -0.999998
vn 0.000000 0.000000 1.000000
vn 0.000000 0.000000 1.000000
vn 0.000000 0.000000 1.000000
vn 0.000000 0.000000 1.000000
vn 0.000000 1.000000 0.000000
vn 0.000000 1.000000 0.000000
vn 0.000000 1.000000 0.000000
vn 0.000000 1.000000 0.000000
vn 1.000000 0.000000 0.000000
vn 1.000000 0.000000 0.000000
vn 1.000000 0.000000 0.000000
vn 1.000000 0.000000 0.000000
vn -1.000000 0.000000 0.000000
vn -1.000000 0.000000 0.000000
vn -1.000000 0.000000 0.000000
vn -1.000000 0.000000 0.000000
vn 0.000000 1.000000 0.000000
vn 0.000000 1.000000 0.000000
vn 0.000000 1.000000 0.000000
vn 0.000000 1.000000 0.000000
vn -1.000000 0.000000 0.000000
vn -1.000000 0.000000 0.000000
vn -1.000000 0.000000 0.000000
vn -1.000000 0.000000 0.000000
vn 0.000000 1.000000 0.000000
vn 0.000000 1.000000 0.000000
vn 0.000000 1.000000 0.000000
vn 0.000000 1.000000 0.000000
vn 0.000000 0.000000 1.000000
vn 0.000000 0.000000 1.000000
vn 0.000000 0.000000 1.000000
vn 0.000000 0.000000 1.000000
vn 0.000000 1.000000 0.000000
vn 0.000000 1.000000 0.000000
vn 0.000000 1.000000 0.000000
vn 0.000000 1.000000 0.000000
vn -0.000001 0.000000 -1.000000
vn -0.000001 0.000000 -1.000000
vn -0.000001 0.000000 -1.000000
vn -0.000001 0.000000 -1.000000
vn 1.000000 0.000000 0.000000
vn 1.000000 0.000000 0.000000
vn 1.000000 0.000000 0.000000
vn 1.000000 0.000000 0.000000
vn -1.000000 0.000000 0.000000
vn -1.000000 0.000000 0.000000
vn -1.000000 0.000000 0.000000
vn -1.000000 0.000000 0.000000
vn 0.000000 1.000000 0.000000
vn 0.000000 1.000000 0.000000
vn 0.000000 1.000000 0.000000
vn 0.000000 1.000000 0.000000
vn 0.000000 0.000000 1.000000
vn 0.000000 0.000000 1.000000
vn 0.000000 0.000000 1.000000
vn 0.000000 0.000000 1.000000
vn -0.000989 0.000000 -1.000000
vn -0.000989 0.000000 -1.000000
vn -0.000989 0.000000 -1.000000
vn -0.000989 0.000000 -1.000000
vn 0.000000 1.000000 0.000000
vn 0.000000 1.000000 0.000000
vn 0.000000 1.000000 0.000000
vn 0.000000 1.000000 0.000000
s off
g UpperSeamCover2:UpperSeamCover
usemtl initialShadingGroup
f 29/1/1 30/2/2 31/3/3 32/4/4
f 3/63/5 4/62/6 6/5/7 5/6/8
f 5/6/9 6/5/10 8/7/11 7/8/12
f 2/64/13 8/7/14 6/5/15 4/62/16
f 7/8/17 1/9/18 3/63/19 5/6/20
f 13/10/21 14/11/22 15/12/23 16/13/24
f 4/62/25 3/63/26 12/57/27 11/60/28
f 2/64/29 4/62/30 14/11/31 13/10/32
f 4/62/33 11/60/34 15/12/35 14/11/36
f 11/60/37 10/61/38 16/13/39 15/12/40
f 10/61/41 11/60/42 19/55/43 18/59/44
f 11/60/45 12/57/46 20/56/47 19/55/48
f 12/57/49 9/58/50 17/14/51 20/56/52
f 25/15/53 26/16/54 27/17/55 28/18/56
f 19/55/57 20/56/58 24/52/59 23/19/60
f 46/20/61 45/21/62 47/22/63 48/23/64
f 18/59/65 19/55/66 26/16/67 25/15/68
f 19/55/69 23/19/70 27/17/71 26/16/72
f 23/19/73 22/54/74 28/18/75 27/17/76
f 22/54/77 23/19/78 31/3/79 30/2/80
f 23/19/81 24/52/82 32/4/83 31/3/84
f 24/52/85 21/53/86 29/1/87 32/4/88
f 20/56/89 17/14/90 33/24/91 34/49/92
f 21/53/93 24/52/94 36/50/95 35/51/96
f 24/52/97 20/56/98 34/49/99 36/50/100
f 62/25/101 61/26/102 63/27/103 64/28/104
f 41/29/105 42/30/106 43/31/107 44/32/108
f 36/50/109 34/49/110 38/45/111 40/47/112
f 35/51/113 36/50/114 42/30/115 41/29/116
f 36/50/117 40/47/118 43/31/119 42/30/120
f 40/47/121 39/48/122 44/32/123 43/31/124
f 38/45/125 37/46/126 45/21/127 46/20/128
f 39/48/129 40/47/130 48/23/131 47/22/132
f 40/47/133 38/45/134 46/20/135 48/23/136
f 34/49/137 33/24/138 49/33/139 50/43/140
f 37/46/141 38/45/142 52/42/143 51/44/144
f 38/45/145 34/49/146 50/43/147 52/42/148
f 57/34/149 58/35/150 59/36/151 60/37/152
f 52/42/153 50/43/154 54/39/155 56/38/156
f 51/44/157 52/42/158 58/35/159 57/34/160
f 52/42/161 56/38/162 59/36/163 58/35/164
f 56/38/165 55/41/166 60/37/167 59/36/168
f 54/39/169 53/40/170 61/26/171 62/25/172
f 55/41/173 56/38/174 64/28/175 63/27/176
f 56/38/177 54/39/178 62/25/179 64/28/180
f 50/43/181 49/33/182 9/58/183 12/57/184
f 53/40/185 54/39/186 3/63/187 1/9/188
f 54/39/189 50/43/190 12/57/191 3/63/192
