# This file uses centimeters as units for non-parametric coordinates.

mtllib WallTorch.mtl
g default
v -1.698059 -0.189373 -1.011171
v -1.061001 -0.189373 -1.648230
v -1.698059 0.512167 -1.011171
v -1.061001 0.512167 -1.648230
v -2.335115 0.512167 -1.648230
v -1.698059 0.512167 -2.285286
v -2.335115 -0.189373 -1.648230
v -1.698059 -0.189373 -2.285286
v -2.157280 -0.189373 -2.107450
v -2.157280 0.512167 -2.107450
v -1.238836 0.512167 -1.189007
v -2.157280 0.512167 -1.189007
v -1.238836 0.512167 -2.107450
v -1.238836 -0.189373 -2.107450
v -1.698059 -0.189373 -1.648230
v -2.157280 -0.189373 -1.189007
v -2.105867 0.573224 -2.056038
v -1.290249 0.573224 -2.056038
v -1.698055 0.573224 -2.213959
v -2.105867 0.573224 -1.240419
v -2.263788 0.573224 -1.648226
v -1.698053 0.573224 -1.082487
v -1.290249 0.573224 -1.240419
v -1.132317 0.573224 -1.648224
v -2.040136 0.573224 -1.990307
v -1.355978 0.573224 -1.990309
v -1.698053 0.573224 -2.122780
v -2.040138 0.573224 -1.306149
v -2.172609 0.573224 -1.648224
v -1.698053 0.573224 -1.173670
v -1.355976 0.573224 -1.306147
v -1.223499 0.573224 -1.648224
v -1.887447 0.281244 -1.837618
v -1.698059 0.281245 -1.648230
v -1.508663 0.281244 -1.837620
v -1.698055 0.281244 -1.910963
v -1.887449 0.281245 -1.458834
v -1.960793 0.281245 -1.648226
v -1.698051 0.281245 -1.385485
v -1.508665 0.281245 -1.458836
v -1.435320 0.281244 -1.648226
v -1.238836 0.161397 -1.189007
v -1.149916 -0.189373 -1.418615
v -1.468445 -0.189373 -1.418615
v -1.468445 -0.189373 -1.100086
v -1.353638 0.161396 -1.144545
v -1.194374 0.161397 -1.303808
v -1.140842 -0.012438 -1.091013
v -1.024363 -0.012440 -1.207493
v -1.011763 -0.408528 -1.220098
v -1.140846 -0.554338 -1.091017
v -1.269924 -0.408528 -0.961931
v -1.257322 -0.012440 -0.974533
v 0.000004 0.541900 0.000006
v 0.116484 0.541898 -0.116474
v 0.129086 0.145810 -0.129080
v 0.000000 0.000000 0.000000
v -0.129076 0.145810 0.129087
v -0.116476 0.541898 0.116486
vt 0.383454 0.009848
vt 0.456344 0.009766
vt 0.456379 0.040402
vt 0.383594 0.132397
vt 0.766193 0.201550
vt 0.708846 0.177175
vt 0.763204 0.155242
vt 0.529791 0.499876
vt 0.384011 0.500041
vt 0.383872 0.377493
vt 0.529651 0.377328
vt 0.754583 0.352329
vt 0.689276 0.500160
vt 0.632035 0.352321
vt 0.383733 0.254945
vt 0.529512 0.254779
vt 0.529930 0.622424
vt 0.530069 0.744972
vt 0.384289 0.745138
vt 0.384150 0.622590
vt 0.541437 0.557401
vt 0.623968 0.647992
vt 0.730778 0.231533
vt 0.530208 0.867521
vt 0.530278 0.928795
vt 0.457422 0.959515
vt 0.384428 0.867686
vt 0.654485 0.199106
vt 0.651497 0.152799
vt 0.686913 0.122816
vt 0.529373 0.132231
vt 0.837114 0.442919
vt 0.746517 0.647999
vt 0.779990 0.009792
vt 0.876255 0.109630
vt 0.855259 0.118100
vt 0.771134 0.030626
vt 0.876229 0.248319
vt 0.855395 0.239463
vt 0.776391 0.344584
vt 0.767919 0.323589
vt 0.637702 0.344558
vt 0.646557 0.323723
vt 0.541437 0.244720
vt 0.541463 0.106031
vt 0.562297 0.114886
vt 0.562429 0.236249
vt 0.641301 0.009766
vt 0.649770 0.030759
vt 0.834221 0.126588
vt 0.762018 0.052076
vt 0.833944 0.230346
vt 0.759430 0.302551
vt 0.655674 0.302274
vt 0.583746 0.124003
vt 0.583468 0.227760
vt 0.658258 0.051798
vt 0.733220 0.119826
vt 0.684470 0.234523
vt 0.541444 0.434853
vt 0.763192 0.532814
vt 0.791813 0.606734
vt 0.837112 0.504194
vt 0.457457 0.990152
vt 0.384568 0.990234
vt 0.529304 0.070957
vt 0.167893 0.083664
vt 0.190635 0.095685
vt 0.190765 0.143396
vt 0.147426 0.143001
vt 0.065129 0.009766
vt 0.102695 0.080021
vt 0.064387 0.135968
vt 0.009766 0.129000
vt 0.279289 0.079368
vt 0.318059 0.009767
vt 0.371684 0.130329
vt 0.316847 0.135780
vt 0.213420 0.083247
vt 0.234014 0.142246
vt 0.189113 0.559399
vt 0.149290 0.560400
vt 0.072237 0.538800
vt 0.018169 0.531163
vt 0.360765 0.532293
vt 0.306306 0.537680
vt 0.229041 0.558850
vn 0.707106 0.000011 0.707107
vn 0.707105 0.000011 0.707109
vn 0.932521 0.000004 0.361117
vn 0.932521 0.000003 0.361116
vn -0.000001 1.000000 -0.000004
vn 0.000001 1.000000 -0.000003
vn 0.000000 1.000000 -0.000007
vn -0.707107 0.000000 -0.707107
vn -0.707107 0.000000 -0.707107
vn -0.361122 0.000000 -0.932519
vn -0.361122 0.000000 -0.932519
vn 0.000000 -1.000000 0.000000
vn 0.000000 -1.000000 0.000000
vn 0.000000 -1.000000 0.000000
vn 0.707106 0.000000 -0.707108
vn 0.707106 0.000000 -0.707108
vn 0.361120 0.000000 -0.932519
vn 0.361120 0.000000 -0.932519
vn -0.932519 0.000000 0.361121
vn -0.707108 0.000000 0.707106
vn -0.707108 0.000000 0.707106
vn -0.932519 0.000000 0.361121
vn 0.000000 -1.000000 0.000000
vn 0.000000 -1.000000 0.000000
vn 0.000000 -1.000000 0.000000
vn -0.932519 0.000000 -0.361122
vn -0.707107 0.000000 -0.707107
vn -0.707107 0.000000 -0.707107
vn -0.932519 0.000000 -0.361122
vn 0.000000 1.000000 -0.000001
vn 0.000001 1.000000 -0.000003
vn -0.000001 1.000000 -0.000004
vn 0.361104 0.000001 0.932526
vn 0.361104 0.000001 0.932526
vn 0.361116 0.000006 0.932521
vn 0.361114 0.000005 0.932522
vn 0.000000 1.000000 -0.000002
vn 0.000002 1.000000 -0.000001
vn 0.000001 1.000000 -0.000003
vn 0.000004 1.000000 0.000000
vn 0.000001 1.000000 -0.000003
vn 0.000002 1.000000 -0.000001
vn 0.932519 0.000000 -0.361122
vn 0.707106 0.000000 -0.707108
vn 0.707106 0.000000 -0.707108
vn 0.932519 0.000000 -0.361122
vn 0.000000 -1.000000 0.000001
vn 0.000000 -1.000000 0.000000
vn 0.000000 -1.000000 0.000000
vn 0.000000 -1.000000 0.000000
vn 0.000000 -1.000000 0.000000
vn 0.000001 -1.000000 0.000000
vn -0.707108 0.000000 0.707106
vn -0.707108 0.000000 0.707106
vn -0.361122 0.000000 0.932519
vn -0.361122 0.000000 0.932519
vn 0.244208 0.736665 -0.630624
vn 0.244208 0.736665 -0.630624
vn 0.244208 0.736665 -0.630624
vn 0.244208 0.736665 -0.630624
vn -0.244205 0.736670 -0.630620
vn -0.244205 0.736670 -0.630620
vn -0.244205 0.736670 -0.630620
vn -0.244205 0.736670 -0.630620
vn -0.630620 0.736669 -0.244206
vn -0.630620 0.736669 -0.244206
vn -0.630620 0.736669 -0.244206
vn -0.630620 0.736669 -0.244206
vn -0.630624 0.736665 0.244209
vn -0.630624 0.736665 0.244209
vn -0.630624 0.736665 0.244209
vn -0.630624 0.736665 0.244209
vn 0.244231 0.736637 0.630648
vn 0.244231 0.736637 0.630648
vn 0.244231 0.736637 0.630648
vn 0.244231 0.736637 0.630648
vn -0.244223 0.736644 0.630643
vn -0.244223 0.736644 0.630643
vn -0.244223 0.736644 0.630643
vn -0.244223 0.736644 0.630643
vn 0.630649 0.736638 0.244226
vn 0.630649 0.736638 0.244226
vn 0.630649 0.736638 0.244226
vn 0.630649 0.736638 0.244226
vn 0.630639 0.736648 -0.244221
vn 0.630639 0.736648 -0.244221
vn 0.630639 0.736648 -0.244221
vn 0.630639 0.736648 -0.244221
vn 0.000000 1.000000 -0.000002
vn 0.000000 1.000000 -0.000002
vn 0.000000 1.000000 -0.000002
vn 0.000000 1.000000 -0.000002
vn 0.000000 1.000000 -0.000002
vn 0.000000 1.000000 -0.000002
vn 0.000000 1.000000 -0.000002
vn 0.000000 1.000000 -0.000002
vn 0.000000 1.000000 0.000002
vn 0.000000 1.000000 0.000002
vn 0.000000 1.000000 0.000002
vn 0.000000 1.000000 0.000002
vn 0.000000 1.000000 -0.000002
vn 0.000000 1.000000 -0.000002
vn 0.000000 1.000000 -0.000002
vn 0.000000 1.000000 -0.000002
vn 0.000000 1.000000 0.000000
vn 0.000000 1.000000 0.000000
vn 0.000000 1.000000 0.000000
vn 0.000000 1.000000 0.000000
vn 0.000000 1.000000 0.000002
vn 0.000000 1.000000 0.000002
vn 0.000000 1.000000 0.000002
vn 0.000000 1.000000 0.000002
vn 0.000000 1.000000 0.000002
vn 0.000000 1.000000 0.000002
vn 0.000000 1.000000 0.000002
vn 0.000000 1.000000 0.000002
vn 0.000000 1.000000 0.000002
vn 0.000000 1.000000 0.000002
vn 0.000000 1.000000 0.000002
vn 0.000000 1.000000 0.000002
vn -0.299114 0.560325 0.772378
vn -0.299114 0.560325 0.772378
vn -0.299114 0.560325 0.772378
vn -0.299114 0.560325 0.772378
vn 0.299111 0.560322 0.772381
vn 0.299111 0.560322 0.772381
vn 0.299111 0.560322 0.772381
vn 0.299111 0.560322 0.772381
vn 0.772381 0.560324 0.299106
vn 0.772381 0.560324 0.299106
vn 0.772381 0.560324 0.299106
vn 0.772381 0.560324 0.299106
vn 0.772378 0.560326 -0.299111
vn 0.772378 0.560326 -0.299111
vn 0.772378 0.560326 -0.299111
vn 0.772378 0.560326 -0.299111
vn -0.299130 0.560323 -0.772373
vn -0.299130 0.560323 -0.772373
vn -0.299130 0.560323 -0.772373
vn -0.299130 0.560323 -0.772373
vn 0.299120 0.560322 -0.772377
vn 0.299120 0.560322 -0.772377
vn 0.299120 0.560322 -0.772377
vn 0.299120 0.560322 -0.772377
vn -0.772367 0.560334 -0.299122
vn -0.772367 0.560335 -0.299122
vn -0.772367 0.560335 -0.299122
vn -0.772367 0.560335 -0.299122
vn -0.772378 0.560326 0.299111
vn -0.772378 0.560326 0.299111
vn -0.772378 0.560326 0.299111
vn -0.772378 0.560326 0.299111
vn 0.000003 1.000000 -0.000006
vn 0.000001 1.000000 -0.000003
vn 0.000004 1.000000 0.000000
vn 0.000000 1.000000 -0.000002
vn 0.000001 1.000000 -0.000003
vn 0.000000 1.000000 0.000000
vn 0.000000 1.000000 0.000000
vn 0.000001 1.000000 -0.000003
vn 0.000000 1.000000 -0.000001
vn 0.000000 1.000000 -0.000007
vn 0.000001 1.000000 -0.000003
vn 0.000003 1.000000 -0.000006
vn 0.000000 -1.000000 0.000000
vn 0.000000 -1.000000 0.000000
vn 0.000000 -1.000000 0.000000
vn 0.000001 -1.000000 0.000000
vn 0.000000 -1.000000 0.000000
vn 0.000001 -1.000000 0.000001
vn 0.000002 -1.000000 -0.000001
vn -0.000001 -1.000000 0.000002
vn 0.000001 -1.000000 0.000001
vn 0.000000 -1.000000 0.000000
vn 0.000000 -1.000000 0.000001
vn 0.000000 -1.000000 0.000000
vn 0.000000 -1.000000 0.000000
vn 0.000000 -1.000000 0.000000
vn 0.361114 0.000005 0.932522
vn 0.361116 0.000006 0.932521
vn 0.707105 0.000011 0.707109
vn 0.707106 0.000011 0.707107
vn 0.932521 0.000003 0.361116
vn 0.932521 0.000004 0.361117
vn 0.932524 0.000000 0.361108
vn 0.932524 0.000000 0.361108
vn 0.594512 0.689496 0.413703
vn 0.508274 0.695204 0.508280
vn 0.508274 0.695204 0.508280
vn 0.594512 0.689496 0.413703
vn 0.002965 -0.667940 -0.744210
vn 0.429131 -0.360148 -0.828336
vn 0.215063 -0.539792 -0.813863
vn 0.002965 -0.667940 -0.744210
vn -0.828333 -0.360156 0.429129
vn -0.744206 -0.667943 0.002973
vn -0.744206 -0.667943 0.002973
vn -0.813859 -0.539796 0.215068
vn -0.601320 0.162348 0.782341
vn -0.828333 -0.360156 0.429129
vn -0.813859 -0.539796 0.215068
vn -0.601320 0.162348 0.782341
vn 0.508274 0.695204 0.508280
vn 0.413693 0.689502 0.594513
vn 0.413693 0.689502 0.594513
vn 0.508274 0.695204 0.508280
vn 0.429131 -0.360148 -0.828336
vn 0.782344 0.162354 -0.601314
vn 0.782344 0.162354 -0.601314
vn 0.215063 -0.539792 -0.813863
vn -0.234334 0.943489 -0.234344
vn -0.234334 0.943489 -0.234344
vn -0.234334 0.943489 -0.234344
vn -0.234334 0.943489 -0.234344
vn 0.605306 -0.756118 -0.248780
vn 0.605306 -0.756118 -0.248780
vn 0.605306 -0.756118 -0.248780
vn 0.605306 -0.756118 -0.248780
vn -0.228082 -0.750758 0.619953
vn -0.228082 -0.750758 0.619953
vn -0.228082 -0.750758 0.619953
vn -0.228082 -0.750758 0.619953
vn -0.701770 0.044948 0.710984
vn -0.701770 0.044948 0.710984
vn -0.701770 0.044948 0.710984
vn -0.701770 0.044948 0.710984
vn -0.234349 0.943489 -0.234328
vn -0.234349 0.943489 -0.234328
vn -0.234349 0.943489 -0.234328
vn -0.234349 0.943489 -0.234328
vn 0.678963 0.044926 -0.732797
vn 0.678963 0.044926 -0.732797
vn 0.678963 0.044926 -0.732797
vn 0.678963 0.044926 -0.732797
s off
g WallTorch Assets_To_Be_Used
usemtl WallTorch_initialShadingGroup
f 11/1/1 42/2/2 47/3/3 4/4/4
f 33/5/5 34/6/6 36/7/7
f 9/8/8 10/9/9 6/10/10 8/11/11
f 14/12/12 15/13/13 8/14/14
f 13/15/15 14/16/16 8/11/17 6/10/18
f 7/17/19 16/18/20 12/19/21 5/20/22
f 7/21/23 15/13/24 16/22/25
f 5/20/26 10/9/27 9/8/28 7/17/29
f 38/23/30 34/6/31 33/5/32
f 1/24/33 45/25/34 46/26/35 3/27/36
f 39/28/37 40/29/38 34/6/39
f 41/30/40 34/6/41 40/29/42
f 2/31/43 14/16/44 13/15/45 4/4/46
f 2/32/47 15/13/48 14/12/49
f 16/22/50 15/13/51 1/33/52
f 12/19/53 16/18/54 1/24/55 3/27/56
f 13/34/57 6/35/58 19/36/59 18/37/60
f 6/35/61 10/38/62 17/39/63 19/36/64
f 10/38/65 5/40/66 21/41/67 17/39/68
f 5/40/69 12/42/70 20/43/71 21/41/72
f 3/44/73 11/45/74 23/46/75 22/47/76
f 12/42/77 3/44/78 22/47/79 20/43/80
f 11/45/81 4/48/82 24/49/83 23/46/84
f 4/48/85 13/34/86 18/37/87 24/49/88
f 18/37/89 19/36/90 27/50/91 26/51/92
f 19/36/93 17/39/94 25/52/95 27/50/96
f 17/39/97 21/41/98 29/53/99 25/52/100
f 21/41/101 20/43/102 28/54/103 29/53/104
f 22/47/105 23/46/106 31/55/107 30/56/108
f 20/43/109 22/47/110 30/56/111 28/54/112
f 23/46/113 24/49/114 32/57/115 31/55/116
f 24/49/117 18/37/118 26/51/119 32/57/120
f 26/51/121 27/50/122 36/7/123 35/58/124
f 27/50/125 25/52/126 33/5/127 36/7/128
f 25/52/129 29/53/130 38/23/131 33/5/132
f 29/53/133 28/54/134 37/59/135 38/23/136
f 30/56/137 31/55/138 40/29/139 39/28/140
f 28/54/141 30/56/142 39/28/143 37/59/144
f 31/55/145 32/57/146 41/30/147 40/29/148
f 32/57/149 26/51/150 35/58/151 41/30/152
f 35/58/153 34/6/154 41/30/155
f 39/28/156 34/6/157 37/59/158
f 37/59/159 34/6/160 38/23/161
f 36/7/162 34/6/163 35/58/164
f 7/21/165 9/60/166 15/13/167
f 1/33/168 15/13/169 44/61/170 45/62/171
f 43/63/172 44/61/173 15/13/174 2/32/175
f 8/14/176 15/13/177 9/60/178
f 3/27/179 46/26/180 42/64/181 11/65/182
f 4/4/183 47/3/184 43/66/185 2/31/186
f 47/67/187 42/68/188 48/69/189 49/70/190
f 44/71/191 43/72/192 50/73/193 51/74/194
f 45/75/195 44/76/196 51/77/197 52/78/198
f 46/79/199 45/75/200 52/78/201 53/80/202
f 42/68/203 46/79/204 53/80/205 48/69/206
f 43/72/207 47/67/208 49/70/209 50/73/210
f 49/70/211 48/69/212 54/81/213 55/82/214
f 51/74/215 50/73/216 56/83/217 57/84/218
f 52/78/219 51/77/220 57/85/221 58/86/222
f 53/80/223 52/78/224 58/86/225 59/87/226
f 48/69/227 53/80/228 59/87/229 54/81/230
f 50/73/231 49/70/232 55/82/233 56/83/234
