# This file uses centimeters as units for non-parametric coordinates.

mtllib RockProjectile.mtl
g default
v 0.330561 0.477317 0.015114
v 0.021004 0.529607 0.053650
v 0.103703 0.397532 -0.267334
v 0.485321 0.020804 -0.398651
v 0.520521 0.020076 0.236782
v 0.232294 0.395427 0.335947
v -0.233119 0.122048 0.312475
v -0.372282 0.143874 -0.040195
v -0.185371 -0.211521 -0.352299
v 0.236928 -0.410050 -0.048916
v 0.039344 -0.123220 0.481924
v -0.525223 -0.333673 0.192892
v 0.243700 0.438406 -0.196590
v 0.085526 0.494507 -0.101402
v 0.161067 0.538675 0.033489
v 0.186552 0.491211 -0.099043
v 0.491689 0.132557 -0.208933
v 0.298864 0.163118 -0.444901
v 0.378548 0.219455 -0.324263
v 0.492475 0.191892 0.108778
v 0.586253 -0.052696 -0.076605
v 0.538090 0.168393 -0.037394
v 0.319015 0.407475 0.212584
v 0.419560 0.196841 0.352564
v 0.416458 0.268851 0.241161
v 0.132274 0.463926 0.213242
v 0.227194 0.469631 0.154207
v -0.062190 0.305260 -0.202459
v -0.226337 0.386743 0.027796
v -0.062227 0.440986 -0.082537
v 0.276908 -0.125760 -0.480761
v -0.021537 0.130290 -0.358101
v 0.199308 0.048923 -0.481926
v 0.486997 -0.228541 0.127043
v 0.490181 -0.298290 -0.206676
v 0.575054 -0.206076 -0.042042
v 0.204696 0.112528 0.444796
v 0.386913 -0.001790 0.458525
v 0.356478 0.096925 0.434250
v -0.089283 0.396524 0.159763
v 0.055523 0.334756 0.324928
v -0.044023 0.377576 0.244478
v -0.412051 0.135765 0.135096
v -0.243048 0.329980 0.083794
v -0.351764 -0.026012 -0.166494
v -0.172947 0.151898 -0.230791
v -0.054840 -0.538675 -0.163733
v 0.239036 -0.406737 -0.297117
v 0.055633 -0.343693 0.334110
v 0.314063 -0.230887 0.282593
v -0.106548 0.025936 0.441191
v 0.013601 0.092347 0.419582
v -0.586253 -0.115896 0.068390
v -0.451917 -0.122600 0.284410
v -0.522320 -0.042860 0.133694
v -0.483408 -0.347881 -0.078138
v -0.543733 -0.174378 -0.052528
v -0.263829 -0.470577 0.084538
v -0.320988 -0.522122 -0.040257
v -0.309303 -0.293796 0.373039
v -0.221503 -0.385860 0.315830
v -0.347662 -0.186215 0.355387
vt 0.541201 0.874323
vt 0.571420 0.881041
vt 0.546546 0.914400
vt 0.538508 0.893697
vt 0.498567 0.911948
vt 0.517189 0.886912
vt 0.519657 0.863715
vt 0.630384 0.916672
vt 0.598898 0.937333
vt 0.548363 0.573037
vt 0.525479 0.593467
vt 0.478052 0.595504
vt 0.485675 0.572185
vt 0.408741 0.606754
vt 0.419104 0.575431
vt 0.635403 0.846817
vt 0.637309 0.880256
vt 0.627573 0.577143
vt 0.650156 0.618603
vt 0.594045 0.610104
vt 0.596573 0.573326
vt 0.583660 0.850205
vt 0.610955 0.833359
vt 0.574237 0.834981
vt 0.615296 0.809169
vt 0.650906 0.773271
vt 0.562087 0.859191
vt 0.549905 0.849564
vt 0.476207 0.832716
vt 0.488961 0.867463
vt 0.458168 0.876866
vt 0.429776 0.772469
vt 0.435384 0.648732
vt 0.478200 0.619091
vt 0.505085 0.622551
vt 0.467513 0.678829
vt 0.571596 0.636480
vt 0.597744 0.639862
vt 0.628555 0.676837
vt 0.574279 0.673928
vt 0.613460 0.773919
vt 0.606855 0.790408
vt 0.584977 0.795450
vt 0.571427 0.765677
vt 0.548335 0.826131
vt 0.525769 0.831018
vt 0.509855 0.835694
vt 0.509667 0.797027
vt 0.477582 0.820666
vt 0.465017 0.784154
vt 0.395872 0.658572
vt 0.420475 0.689343
vt 0.441406 0.725845
vt 0.539123 0.653066
vt 0.526010 0.685219
vt 0.611786 0.719468
vt 0.574116 0.731390
vt 0.556184 0.794816
vt 0.542641 0.785546
vt 0.496219 0.768682
vt 0.470942 0.764574
vt 0.468036 0.753784
vt 0.498720 0.745351
vt 0.468917 0.737474
vt 0.483192 0.721766
vt 0.509685 0.708355
vt 0.525250 0.717659
vt 0.537499 0.739969
vt 0.528034 0.754813
vt 0.516805 0.764741
vn 0.353327 0.935499 0.001132
vn 0.693557 0.714265 -0.093832
vn 0.674904 0.650387 -0.348570
vn 0.311981 0.906905 -0.283181
vn 0.215225 0.742517 -0.634308
vn -0.171616 0.644432 -0.745155
vn -0.303455 0.768022 -0.563965
vn 0.013226 0.870894 -0.491293
vn -0.242268 0.922568 -0.300291
vn -0.320391 0.940385 0.114130
vn 0.022874 0.995389 0.093153
vn -0.044193 0.956479 -0.288434
vn 0.764215 0.590741 -0.258843
vn 0.719887 0.597912 -0.352511
vn 0.875392 0.363197 -0.319024
vn 0.720821 -0.077278 -0.688800
vn 0.468480 0.286835 -0.835615
vn 0.681124 0.547945 -0.485620
vn -0.096158 0.544891 -0.832975
vn 0.294617 0.671935 -0.679488
vn 0.822865 0.568224 0.003921
vn 0.816652 0.566954 -0.107903
vn 0.937410 0.277083 0.210920
vn 0.895648 -0.113564 0.430020
vn 0.963896 -0.001189 0.266278
vn 0.956305 0.227103 0.184131
vn 0.946981 -0.012633 -0.321041
vn 0.922849 0.290127 -0.253330
vn 0.735525 0.636200 0.232923
vn 0.808301 0.552797 0.202645
vn 0.522318 0.738026 0.427202
vn 0.124623 0.605692 0.785879
vn 0.370522 0.475664 0.797783
vn 0.651434 0.610413 0.450588
vn 0.861827 0.288654 0.417053
vn 0.892566 0.368787 0.259464
vn 0.364568 0.874732 0.319272
vn -0.159869 0.871245 0.464084
vn 0.074869 0.916446 0.393092
vn -0.067236 0.820470 0.567722
vn 0.271412 0.893694 0.357276
vn -0.509619 0.817968 0.266865
vn -0.420290 0.856249 -0.300323
vn -0.511852 0.550685 -0.659359
vn -0.465956 0.671421 -0.576263
vn -0.598799 0.514171 -0.614058
vn -0.722269 0.522429 -0.453206
vn -0.655561 0.558381 -0.508380
vn -0.590740 0.529745 -0.608603
vn -0.375937 0.469702 -0.798782
vn -0.276259 0.447728 -0.850424
vn 0.488283 -0.345841 -0.801233
vn 0.286968 0.096498 -0.953068
vn -0.238366 -0.297840 -0.924377
vn -0.385610 -0.277003 -0.880099
vn -0.444647 0.138889 -0.884872
vn -0.346344 0.045186 -0.937019
vn 0.711202 -0.375339 -0.594401
vn 0.921606 -0.177789 -0.345014
vn 0.834746 -0.331706 0.439512
vn 0.934993 -0.162934 0.315024
vn 0.448056 -0.847578 0.284355
vn 0.352263 -0.912318 0.208776
vn 0.471472 -0.874499 0.113868
vn 0.505284 -0.843722 0.181165
vn 0.768164 -0.265511 0.582605
vn 0.790019 0.182394 0.585322
vn -0.001705 0.389238 0.921136
vn 0.230048 0.389412 0.891873
vn -0.001932 0.196941 0.980413
vn 0.071092 -0.331669 0.940713
vn 0.223257 -0.310675 0.923925
vn 0.031325 0.168246 0.985247
vn -0.209283 0.511157 0.833618
vn -0.260787 0.715424 0.648197
vn -0.431046 0.760660 0.485383
vn -0.360392 0.785545 0.503027
vn -0.528504 0.588899 0.611458
vn -0.506962 0.473817 0.720061
vn -0.412387 0.517809 0.749540
vn -0.512383 0.553811 0.656320
vn -0.499626 0.731042 0.464706
vn -0.810526 0.582696 -0.059264
vn -0.810240 0.585126 -0.033741
vn -0.600447 0.524120 0.603954
vn -0.538456 0.611692 0.579567
vn -0.528509 0.492366 -0.691559
vn -0.615598 0.149043 -0.773838
vn -0.576884 0.276680 -0.768540
vn -0.679387 0.436416 -0.589894
vn -0.618831 0.472822 -0.627285
vn 0.527105 -0.471534 -0.706977
vn 0.243690 -0.919275 0.309110
vn 0.402950 -0.915180 -0.008794
vn -0.253576 -0.549810 -0.795870
vn -0.136147 -0.532184 -0.835610
vn 0.697332 -0.475819 0.536027
vn 0.176282 -0.570691 0.802020
vn 0.317003 -0.580172 0.750273
vn 0.237746 -0.923598 0.300738
vn 0.398851 -0.842350 0.362443
vn -0.172245 0.375575 0.910645
vn -0.392296 0.398154 0.829203
vn -0.302979 0.470922 0.828515
vn -0.238756 0.085803 0.967282
vn -0.085502 0.267361 0.959795
vn -0.580888 0.386684 0.716271
vn -0.641399 0.455675 0.617226
vn -0.768221 0.473380 -0.430985
vn -0.810433 0.580962 -0.075384
vn -0.972236 -0.122240 0.199534
vn -0.737729 -0.561641 0.374586
vn -0.749661 0.005761 0.661797
vn -0.841872 0.115706 0.527127
vn -0.719245 0.409236 -0.561438
vn -0.531491 -0.306551 -0.789648
vn -0.637768 0.049860 -0.768613
vn -0.762943 -0.645493 0.035441
vn -0.934977 -0.325566 -0.140799
vn -0.394703 -0.559702 -0.728658
vn 0.174283 -0.929398 0.325337
vn 0.186275 -0.896211 0.402625
vn -0.469998 -0.832344 0.293778
vn -0.567500 -0.808405 0.156287
vn 0.165271 -0.948394 0.270618
vn -0.151728 -0.297277 0.942659
vn 0.014921 -0.544969 0.838323
vn -0.455730 -0.651627 0.606376
vn -0.326759 -0.827928 0.455812
vn -0.309870 -0.006160 0.950759
vn -0.497958 0.298376 0.814254
vn -0.618383 -0.112476 0.777786
s 1
g polySurface11 BoulderPile1 StartingAreaEmpty
usemtl initialShadingGroup
f 15/1/1 1/2/2 13/3/3 16/4/4
s 2
f 13/3/5 3/5/6 14/6/7 16/4/8
s 3
f 14/6/9 2/7/10 15/1/11 16/4/12
s 1
f 13/3/3 1/2/2 17/8/13 19/9/14
s 4
f 17/10/15 4/11/16 18/12/17 19/13/18
s 2
f 18/12/19 3/14/6 13/15/5 19/13/20
s 1
f 17/8/13 1/2/2 20/16/21 22/17/22
s 5
f 20/18/23 5/19/24 21/20/25 22/21/26
s 4
f 21/20/27 4/11/16 17/10/15 22/21/28
s 1
f 20/16/21 1/2/2 23/22/29 25/23/30
s 6
f 23/22/31 6/24/32 24/25/33 25/23/34
s 5
f 24/25/35 5/26/24 20/16/23 25/23/36
s 1
f 23/22/29 1/2/2 15/1/1 27/27/37
s 3
f 15/1/11 2/7/10 26/28/38 27/27/39
s 6
f 26/28/40 6/24/32 23/22/31 27/27/41
s 3
f 29/29/42 2/7/10 14/6/9 30/30/43
s 2
f 14/6/7 3/5/6 28/31/44 30/30/45
s 7
f 28/31/46 8/32/47 29/29/48 30/30/49
s 2
f 32/33/50 3/14/6 18/12/19 33/34/51
s 4
f 18/12/17 4/11/16 31/35/52 33/34/53
s 8
f 31/35/54 9/36/55 32/33/56 33/34/57
s 4
f 35/37/58 4/11/16 21/20/27 36/38/59
s 5
f 21/20/25 5/19/24 34/39/60 36/38/61
s 9
f 34/39/62 10/40/63 35/37/64 36/38/65
s 5
f 38/41/66 5/26/24 24/25/35 39/42/67
s 6
f 24/25/33 6/24/32 37/43/68 39/42/69
s 10
f 37/43/70 11/44/71 38/41/72 39/42/73
s 6
f 41/45/74 6/24/32 26/28/40 42/46/75
s 3
f 26/28/38 2/7/10 40/47/76 42/46/77
s 11
f 40/47/78 7/48/79 41/45/80 42/46/81
s 3
f 40/47/76 2/7/10 29/29/42 44/49/82
s 7
f 29/29/48 8/32/47 43/50/83 44/49/84
s 11
f 43/50/85 7/48/79 40/47/78 44/49/86
s 2
f 28/51/44 3/14/6 32/33/50 46/52/87
s 8
f 32/33/56 9/36/55 45/53/88 46/52/89
s 7
f 45/53/90 8/32/47 28/51/46 46/52/91
s 4
f 31/35/52 4/11/16 35/37/58 48/54/92
s 9
f 35/37/64 10/40/63 47/55/93 48/54/94
s 8
f 47/55/95 9/36/55 31/35/54 48/54/96
s 5
f 34/39/60 5/26/24 38/41/66 50/56/97
s 10
f 38/41/72 11/44/71 49/57/98 50/56/99
s 9
f 49/57/100 10/40/63 34/39/62 50/56/101
s 6
f 37/43/68 6/24/32 41/45/74 52/58/102
s 11
f 41/45/80 7/48/79 51/59/103 52/58/104
s 10
f 51/59/105 11/44/71 37/43/70 52/58/106
s 11
f 54/60/107 7/48/79 43/50/85 55/61/108
s 7
f 43/50/83 8/32/47 53/62/109 55/61/110
s 12
f 53/62/111 12/63/112 54/60/113 55/61/114
s 7
f 53/62/109 8/32/47 45/53/90 57/64/115
s 8
f 45/53/88 9/36/55 56/65/116 57/64/117
s 12
f 56/65/118 12/63/112 53/62/111 57/64/119
s 8
f 56/65/116 9/36/55 47/55/95 59/66/120
s 9
f 47/55/93 10/40/63 58/67/121 59/66/122
s 12
f 58/67/123 12/63/112 56/65/118 59/66/124
s 9
f 58/67/121 10/40/63 49/57/100 61/68/125
s 10
f 49/57/98 11/44/71 60/69/126 61/68/127
s 12
f 60/69/128 12/63/112 58/67/123 61/68/129
s 10
f 60/69/126 11/44/71 51/59/105 62/70/130
s 11
f 51/59/103 7/48/79 54/60/107 62/70/131
s 12
f 54/60/113 12/63/112 60/69/128 62/70/132
