# This file uses centimeters as units for non-parametric coordinates.

mtllib HammahHead.mtl
g default
v -0.733094 0.759222 0.071922
v -0.072221 0.726033 0.071922
v -0.431717 1.478159 0.039299
v -0.072221 1.726033 0.013552
v -0.431717 1.478159 -0.039299
v -0.072221 1.726033 -0.013552
v -0.733094 0.759222 -0.071922
v -0.072221 0.726033 -0.071922
v -0.467803 1.519447 0.000000
v -0.072221 1.787779 0.000000
v -0.072221 0.721984 0.000000
v -0.786399 0.759222 0.000000
v -0.391551 -1.059265 -0.124268
v -0.553737 -1.116461 0.000000
v -0.391551 -1.059265 0.124268
v 0.000004 -1.021216 0.175742
v 0.391558 -1.166511 0.124268
v 0.553745 -1.260972 0.000000
v 0.391559 -1.166511 -0.124268
v 0.000004 -1.021216 -0.175742
v -0.072222 -0.582366 -0.072225
v -0.102139 -0.582366 -0.000000
v -0.072222 -0.582366 0.072225
v 0.000004 -0.582366 0.102142
v 0.072229 -0.582366 0.072225
v 0.102146 -0.582366 -0.000000
v 0.072229 -0.582366 -0.072225
v 0.000004 -0.582366 -0.102142
v 0.000004 -1.116461 0.000000
v -0.158579 3.008587 -0.232197
v -0.224266 3.008587 0.000000
v -0.158579 3.008587 0.232197
v 0.000004 2.885852 0.232197
v 0.158587 3.008587 0.232197
v 0.224273 3.008587 0.000000
v 0.158586 3.008587 -0.232197
v 0.000004 2.885852 -0.232197
v -0.158579 3.539350 -0.328376
v -0.158579 3.539350 0.000000
v 0.000004 3.615556 0.000000
v -0.158579 3.539350 0.328376
v 0.000004 3.689344 0.328376
v 0.158587 3.539350 0.328376
v 0.158586 3.539350 0.000000
v 0.158586 3.539350 -0.328376
v 0.000004 3.689344 -0.328376
v -0.305699 2.702400 0.918357
v 0.000004 2.579666 1.042394
v 0.000004 3.544612 1.221151
v -0.305699 3.462798 1.075842
v 0.305707 2.702400 0.918356
v 0.305707 3.462798 1.075842
v 0.305707 2.702400 -0.918357
v 0.000004 2.579666 -1.042395
v 0.000004 3.544612 -1.221151
v 0.305707 3.462798 -1.075842
v -0.305699 2.702400 -0.918357
v -0.305699 3.462798 -1.075842
v -0.072221 0.597926 -0.072225
v -0.102138 0.597926 -0.000000
v -0.072222 0.597926 0.072225
v 0.000004 0.597926 0.102142
v 0.072229 0.597926 0.072225
v 0.102146 0.597926 0.000000
v 0.072229 0.597926 -0.072225
v 0.000004 0.597926 -0.102142
v -0.250954 2.757762 1.067148
v 0.000004 2.670556 1.170287
v 0.000004 3.429845 1.316175
v -0.252921 3.355731 1.191758
v 0.250962 2.757762 1.067148
v 0.252929 3.355731 1.191758
v 0.250962 2.757762 -1.067148
v 0.000004 2.670556 -1.170286
v 0.000004 3.429846 -1.316175
v 0.252929 3.355731 -1.191758
v -0.250954 2.757762 -1.067148
v -0.252921 3.355731 -1.191758
v -0.076198 0.708905 -0.079590
v 0.000004 0.703255 -0.108129
v 0.076204 0.708905 -0.079590
v 0.107768 0.708905 0.000000
v 0.076204 0.708905 0.079590
v 0.000004 0.703255 0.108129
v -0.076198 0.708905 0.079590
v -0.107760 0.708905 -0.000000
v -0.127488 0.597926 -0.158259
v -0.179173 0.597927 0.000003
v -0.223345 0.703255 0.000000
v -0.153595 0.703255 -0.137551
v -0.127491 0.597926 0.158261
v -0.153595 0.703255 0.137552
v 0.000004 0.597926 0.195888
v 0.000004 0.703255 0.201205
v 0.127501 0.597926 0.158256
v 0.153599 0.703255 0.137555
v 0.179186 0.597927 -0.000002
v 0.223352 0.703255 0.000001
v 0.127496 0.597926 -0.158259
v 0.153595 0.703255 -0.137555
v 0.000002 0.597926 -0.195890
v 0.000000 0.703255 -0.201207
vt 0.375000 0.000000
vt 0.625000 0.000000
vt 0.375000 0.250000
vt 0.625000 0.250000
vt 0.375000 0.500000
vt 0.625000 0.500000
vt 0.375000 0.750000
vt 0.625000 0.750000
vt 0.375000 1.000000
vt 0.625000 1.000000
vt 0.875000 0.000000
vt 0.875000 0.250000
vt 0.125000 0.000000
vt 0.125000 0.250000
vt 0.250000 0.250000
vt 0.375000 0.375000
vt 0.625000 0.375000
vt 0.750000 0.250000
vt 0.625000 0.875000
vt 0.750000 0.000000
vt 0.250000 0.000000
vt 0.375000 0.875000
vt 0.375000 0.312500
vt 0.406250 0.312500
vt 0.406250 0.688440
vt 0.375000 0.688440
vt 0.437500 0.312500
vt 0.437500 0.688440
vt 0.468750 0.312500
vt 0.468750 0.688440
vt 0.500000 0.312500
vt 0.500000 0.688440
vt 0.531250 0.312500
vt 0.531250 0.688440
vt 0.562500 0.312500
vt 0.562500 0.688440
vt 0.593750 0.312500
vt 0.593750 0.688440
vt 0.625000 0.312500
vt 0.625000 0.688440
vt 0.500000 0.000000
vt 0.610485 0.045765
vt 0.500000 0.150000
vt 0.389515 0.045765
vt 0.343750 0.156250
vt 0.389515 0.266735
vt 0.500000 0.312500
vt 0.610485 0.266735
vt 0.656250 0.156250
vt 0.610485 0.954235
vt 0.500000 1.000000
vt 0.500000 0.837500
vt 0.389515 0.954235
vt 0.343750 0.843750
vt 0.389515 0.733265
vt 0.500000 0.687500
vt 0.610485 0.733265
vt 0.656250 0.843750
vt 0.610485 0.954235
vt 0.500000 1.000000
vt 0.500000 1.000000
vt 0.610485 0.954235
vt 0.389515 0.954235
vt 0.389515 0.954235
vt 0.343750 0.843750
vt 0.343750 0.843750
vt 0.389515 0.733265
vt 0.389515 0.733265
vt 0.500000 0.687500
vt 0.500000 0.687500
vt 0.610485 0.733265
vt 0.610485 0.733265
vt 0.656250 0.843750
vt 0.656250 0.843750
vt 0.610485 0.954235
vt 0.500000 1.000000
vt 0.389515 0.954235
vt 0.389515 0.954235
vt 0.343750 0.843750
vt 0.343750 0.843750
vt 0.389515 0.954235
vt 0.389515 0.733265
vt 0.389515 0.733265
vt 0.389515 0.733265
vt 0.500000 0.687500
vt 0.610485 0.733265
vt 0.610485 0.733265
vt 0.656250 0.843750
vt 0.656250 0.843750
vt 0.610485 0.733265
vt 0.610485 0.954235
vt 0.610485 0.954235
vt 0.343750 0.843750
vt 0.343750 0.843750
vt 0.389515 0.954235
vt 0.389515 0.954235
vt 0.343750 0.843750
vt 0.389515 0.733265
vt 0.389515 0.733265
vt 0.656250 0.843750
vt 0.656250 0.843750
vt 0.610485 0.733265
vt 0.610485 0.733265
vt 0.656250 0.843750
vt 0.610485 0.954235
vt 0.610485 0.954235
vt 0.610485 0.954235
vt 0.500000 1.000000
vt 0.500000 1.000000
vt 0.610485 0.954235
vt 0.389515 0.954235
vt 0.389515 0.954235
vt 0.343750 0.843750
vt 0.343750 0.843750
vt 0.389515 0.733265
vt 0.389515 0.733265
vt 0.500000 0.687500
vt 0.500000 0.687500
vt 0.610485 0.733265
vt 0.610485 0.733265
vt 0.656250 0.843750
vt 0.656250 0.843750
vt 0.656250 0.843750
vt 0.610485 0.954235
vt 0.610485 0.733265
vt 0.500000 0.687500
vt 0.389515 0.733265
vt 0.343750 0.843750
vt 0.389515 0.954235
vt 0.500000 1.000000
vn 0.019791 0.052766 0.998411
vn 0.009070 0.047659 0.998823
vn 0.031304 0.058243 0.997812
vn -0.516464 0.856309 0.000000
vn -0.516464 0.856309 0.000000
vn -0.228948 0.379600 -0.896374
vn -0.228947 0.379600 -0.896374
vn 0.019791 0.052766 -0.998411
vn 0.009070 0.047659 -0.998823
vn 0.002230 0.044398 -0.999012
vn -0.051095 -0.997587 -0.047015
vn -0.051095 -0.997587 -0.047015
vn -0.051152 -0.998691 0.000000
vn -0.051152 -0.998691 0.000000
vn 1.000000 -0.000000 0.000000
vn 1.000000 -0.000000 0.000000
vn 1.000000 -0.000000 0.000000
vn 1.000000 -0.000000 0.000000
vn -0.685261 0.301838 -0.662806
vn -0.915156 0.403100 -0.000000
vn -0.915156 0.403100 -0.000000
vn -0.685261 0.301838 -0.662806
vn 0.031304 0.058243 -0.997812
vn 0.002230 0.044398 0.999012
vn -0.228947 0.379600 0.896374
vn -0.228948 0.379600 0.896374
vn 1.000000 0.000000 0.000000
vn 1.000000 0.000000 0.000000
vn -0.051095 -0.997587 0.047015
vn -0.051095 -0.997587 0.047015
vn -0.685261 0.301838 0.662806
vn -0.685261 0.301838 0.662806
vn -0.674856 0.540471 -0.502454
vn -0.674856 0.540471 -0.502454
vn -0.950849 0.309654 -0.000002
vn -0.543537 0.182537 -0.819297
vn -0.674856 0.540471 0.502454
vn -0.674856 0.540471 0.502454
vn -0.543536 0.182537 0.819297
vn -0.185105 0.196651 0.962842
vn -0.185105 0.196651 0.962842
vn 0.014746 0.111917 0.993608
vn 0.226642 0.188116 0.955639
vn 0.226642 0.188116 0.955639
vn 0.572728 0.173978 0.801071
vn 0.733763 0.468260 0.492264
vn 0.733763 0.468261 0.492264
vn 0.959940 0.280206 0.000001
vn 0.733764 0.468262 -0.492261
vn 0.733764 0.468262 -0.492261
vn 0.572728 0.173978 -0.801071
vn 0.226642 0.188116 -0.955639
vn 0.226642 0.188116 -0.955639
vn 0.014746 0.111917 -0.993608
vn -0.185105 0.196651 -0.962842
vn -0.185105 0.196651 -0.962842
vn 0.000000 -1.000000 -0.000000
vn 0.004463 -0.902974 -0.429673
vn -0.140347 -0.990102 -0.000001
vn 0.004463 -0.902974 0.429673
vn -0.113573 -0.873496 0.473399
vn -0.238126 -0.888392 0.392499
vn -0.252515 -0.967593 -0.000002
vn -0.238126 -0.888391 -0.392501
vn -0.113573 -0.873496 -0.473399
vn -0.485296 0.872687 -0.053901
vn -0.433131 0.901331 0.000000
vn -0.000000 1.000000 -0.000000
vn -0.485296 0.872687 0.053901
vn -0.000000 0.998656 0.051833
vn 0.485296 0.872687 0.053900
vn 0.433133 0.901330 -0.000001
vn 0.485297 0.872687 -0.053900
vn -0.000000 0.998656 -0.051833
vn -0.642595 -0.110658 -0.758173
vn -0.959590 -0.281402 -0.000001
vn -0.959590 -0.281402 -0.000012
vn -0.746682 -0.165846 -0.644174
vn -0.642581 -0.110636 0.758188
vn -0.746670 -0.165819 0.644196
vn 0.000003 0.028393 0.999597
vn 0.000003 0.028393 0.999597
vn 0.642597 -0.110650 0.758173
vn 0.746656 -0.165809 0.644214
vn 0.959602 -0.281362 -0.000021
vn 0.959602 -0.281362 -0.000007
vn 0.642592 -0.110632 -0.758180
vn 0.746658 -0.165795 -0.644216
vn -0.000004 0.028392 -0.999597
vn -0.000011 0.028392 -0.999597
vn -0.987208 -0.140705 -0.074982
vn -0.999733 -0.023110 0.000000
vn -0.991920 0.050848 -0.116231
vn -0.990717 0.040590 0.129743
vn -0.987208 -0.140705 0.074982
vn -0.990717 0.040590 -0.129743
vn -0.991920 0.050848 0.116231
vn -0.408795 -0.178946 0.894911
vn 0.000000 -0.196078 0.980588
vn 0.000000 -0.196078 0.980588
vn -0.408795 -0.178946 0.894911
vn 0.408795 -0.178946 0.894911
vn 0.408795 -0.178946 0.894911
vn 0.987208 -0.140705 0.074981
vn 0.999733 -0.023110 -0.000002
vn 0.991920 0.050849 0.116229
vn 0.990716 0.040590 -0.129744
vn 0.987208 -0.140704 -0.074981
vn 0.990716 0.040590 0.129744
vn 0.991920 0.050849 -0.116232
vn 0.408795 -0.178946 -0.894911
vn 0.000000 -0.196078 -0.980588
vn 0.000000 -0.196078 -0.980588
vn 0.408795 -0.178946 -0.894911
vn -0.408795 -0.178946 -0.894911
vn -0.408795 -0.178946 -0.894911
vn -0.000000 -0.631953 0.775007
vn -0.000000 -0.912119 -0.409925
vn -0.349255 -0.854681 -0.384111
vn -0.464630 0.882122 0.077332
vn -0.000000 0.996179 0.087331
vn -0.980817 0.037578 -0.191273
vn -0.980817 0.037578 -0.191273
vn 0.349255 -0.854681 -0.384111
vn 0.980817 0.037578 -0.191273
vn 0.980817 0.037578 -0.191273
vn 0.464630 0.882122 0.077332
vn 0.000000 -0.631953 -0.775006
vn 0.000000 -0.912119 0.409925
vn 0.349256 -0.854681 0.384111
vn 0.464630 0.882122 -0.077331
vn -0.000000 0.996179 -0.087330
vn 0.980817 0.037578 0.191274
vn 0.980817 0.037578 0.191274
vn -0.349255 -0.854681 0.384111
vn -0.980817 0.037578 0.191273
vn -0.980817 0.037578 0.191273
vn -0.464630 0.882122 -0.077332
vn -1.000000 0.000001 -0.000003
vn -0.707106 0.000000 -0.707108
vn -0.707106 0.000000 0.707108
vn -0.000000 -0.000000 1.000000
vn 0.707106 -0.000000 0.707108
vn 1.000000 -0.000000 -0.000000
vn 0.707106 -0.000000 -0.707108
vn 0.000000 0.000000 -1.000000
vn -0.842983 -0.317012 0.434607
vn 0.000000 -0.836066 0.548628
vn 0.000000 -0.836066 0.548628
vn -0.844781 -0.313428 0.433714
vn 0.000000 0.616965 0.786991
vn -0.845652 0.143702 0.514025
vn -0.854936 0.126147 0.503161
vn -0.000000 0.616965 0.786990
vn 0.842983 -0.317012 0.434606
vn 0.844782 -0.313428 0.433713
vn 0.845653 0.143703 0.514024
vn 0.854937 0.126147 0.503160
vn 0.842983 -0.317012 -0.434607
vn 0.000000 -0.836066 -0.548628
vn 0.000000 -0.836066 -0.548628
vn 0.844782 -0.313428 -0.433713
vn 0.000000 0.616966 -0.786989
vn 0.845653 0.143703 -0.514024
vn 0.854937 0.126147 -0.503159
vn 0.000000 0.616967 -0.786990
vn -0.842983 -0.317011 -0.434607
vn -0.844781 -0.313428 -0.433714
vn -0.845653 0.143702 -0.514024
vn -0.854937 0.126147 -0.503160
vn -0.000000 -0.064475 -0.997919
vn -0.726027 -0.065976 -0.684494
vn 0.726027 -0.065976 -0.684494
vn 0.998567 -0.053515 -0.000002
vn 0.726027 -0.065976 0.684494
vn -0.000000 -0.064475 0.997919
vn -0.726026 -0.065976 0.684495
vn -0.998567 -0.053515 0.000000
vn -0.000001 -1.000000 0.000002
vn -0.000003 -1.000000 0.000000
vn -0.000003 -1.000000 0.000000
vn -0.000000 -1.000000 0.000002
vn -0.051292 0.998684 -0.000000
vn -0.021430 0.999233 -0.032777
vn -0.027981 0.999133 -0.030838
vn -0.051292 0.998684 0.000000
vn -0.000001 -1.000000 -0.000001
vn -0.000001 -1.000000 -0.000000
vn -0.021430 0.999233 0.032776
vn -0.027980 0.999133 0.030837
vn -0.000000 -1.000000 -0.000000
vn 0.000000 -1.000000 -0.000000
vn -0.000000 0.999141 0.041448
vn -0.000000 0.999141 0.041448
vn 0.000001 -1.000000 -0.000001
vn 0.000001 -1.000000 -0.000001
vn 0.021430 0.999233 0.032776
vn 0.027980 0.999133 0.030838
vn 0.000003 -1.000000 0.000000
vn 0.000003 -1.000000 0.000000
vn 0.051293 0.998684 -0.000000
vn 0.051293 0.998684 0.000000
vn 0.000001 -1.000000 0.000001
vn 0.000000 -1.000000 0.000001
vn 0.021431 0.999233 -0.032776
vn 0.027980 0.999133 -0.030838
vn -0.000000 -1.000000 0.000001
vn 0.000000 -1.000000 0.000001
vn -0.000001 0.999141 -0.041448
vn -0.000000 0.999141 -0.041448
s 1
g pCube2
usemtl standardSurface7SG
f 3/3/1 2/2/2 4/4/3
s 2
f 9/16/4 10/17/5 6/6/6 5/5/7
s 3
f 5/5/8 8/8/9 7/7/10
s 4
f 7/7/11 8/8/12 11/19/13 12/22/14
s 5
f 10/18/15 11/20/16 8/11/17 6/12/18
s 6
f 7/13/19 12/21/20 9/15/21 5/14/22
s 3
f 5/5/8 6/6/23 8/8/9
s 1
f 1/1/24 2/2/2 3/3/1
s 2
f 3/3/25 4/4/26 10/17/5 9/16/4
s 5
f 2/2/27 11/20/16 10/18/15 4/4/28
s 4
f 12/22/14 11/19/13 2/10/29 1/9/30
s 6
f 9/15/21 12/21/20 1/1/31 3/3/32
s 7
usemtl standardSurface5SG
f 13/23/33 14/24/34 22/25/35 21/26/36
f 14/24/37 15/27/38 23/28/39 22/25/35
f 15/27/40 16/29/41 24/30/42 23/28/39
f 16/29/43 17/31/44 25/32/45 24/30/42
f 17/31/46 18/33/47 26/34/48 25/32/45
f 18/33/49 19/35/50 27/36/51 26/34/48
f 19/35/52 20/37/53 28/38/54 27/36/51
f 20/37/55 13/39/56 21/40/36 28/38/54
s 15
f 14/41/57 13/42/58 29/43/59
f 15/44/60 14/41/57 29/43/59
f 16/45/61 15/44/60 29/43/59
f 17/46/62 16/45/61 29/43/59
f 18/47/63 17/46/62 29/43/59
f 19/48/64 18/47/63 29/43/59
f 20/49/65 19/48/64 29/43/59
f 13/42/58 20/49/65 29/43/59
s 16
f 38/50/66 39/51/67 40/52/68
f 39/51/67 41/53/69 40/52/68
f 41/53/69 42/54/70 40/52/68
f 42/54/70 43/55/71 40/52/68
f 43/55/71 44/56/72 40/52/68
f 44/56/72 45/57/73 40/52/68
f 45/57/73 46/58/74 40/52/68
f 46/58/74 38/50/66 40/52/68
s 17
f 87/59/75 88/60/76 89/61/77 90/62/78
f 88/60/76 91/63/79 92/64/80 89/61/77
f 91/63/79 93/65/81 94/66/82 92/64/80
f 93/65/81 95/67/83 96/68/84 94/66/82
f 95/67/83 97/69/85 98/70/86 96/68/84
f 97/69/85 99/71/87 100/72/88 98/70/86
f 99/71/87 101/73/89 102/74/90 100/72/88
f 101/73/89 87/59/75 90/62/78 102/74/90
s 18
f 30/75/91 31/76/92 39/51/93 38/50/94
f 31/76/92 32/77/95 41/53/96 39/51/97
s 20
f 67/78/98 68/79/99 69/80/100 70/81/101
f 68/79/99 71/82/102 72/83/103 69/80/100
s 18
f 34/84/104 35/85/105 44/56/106 43/55/107
f 35/85/105 36/86/108 45/57/109 44/56/110
s 23
f 73/87/111 74/88/112 75/89/113 76/90/114
f 74/88/112 77/91/115 78/92/116 75/89/113
s 18
f 32/77/95 33/93/117 48/94/118 47/95/119
s 16
f 42/54/70 41/53/69 50/96/120 49/97/121
s 18
f 41/53/96 32/77/95 47/95/122 50/96/123
f 33/93/117 34/84/104 51/98/124 48/94/118
f 34/84/104 43/55/107 52/99/125 51/98/126
s 16
f 43/55/71 42/54/70 49/97/121 52/99/127
s 18
f 36/86/108 37/100/128 54/101/129 53/102/130
s 16
f 46/58/74 45/57/73 56/103/131 55/104/132
s 18
f 45/57/109 36/86/108 53/102/133 56/103/134
f 37/100/128 30/75/91 57/105/135 54/101/129
f 30/75/91 38/50/94 58/106/136 57/105/137
s 16
f 38/50/66 46/58/74 55/104/132 58/106/138
s 7
f 21/107/36 22/108/35 60/109/139 59/110/140
f 22/108/35 23/111/39 61/112/141 60/109/139
f 23/111/39 24/113/42 62/114/142 61/112/141
f 24/113/42 25/115/45 63/116/143 62/114/142
f 25/115/45 26/117/48 64/118/144 63/116/143
f 26/117/48 27/119/51 65/120/145 64/118/144
f 27/119/51 28/121/54 66/122/146 65/120/145
f 28/121/54 21/107/36 59/110/140 66/122/146
s 26
f 47/95/147 48/94/148 68/79/149 67/78/150
f 49/97/151 50/96/152 70/81/153 69/80/154
f 50/96/152 47/95/147 67/78/150 70/81/153
f 48/94/148 51/98/155 71/82/156 68/79/149
f 51/98/155 52/99/157 72/83/158 71/82/156
f 52/99/157 49/97/151 69/80/154 72/83/158
s 27
f 53/102/159 54/101/160 74/88/161 73/87/162
f 55/104/163 56/103/164 76/90/165 75/89/166
f 56/103/164 53/102/159 73/87/162 76/90/165
f 54/101/160 57/105/167 77/91/168 74/88/161
f 57/105/167 58/106/169 78/92/170 77/91/168
f 58/106/169 55/104/163 75/89/166 78/92/170
s 18
f 80/123/171 79/124/172 30/75/91 37/100/128
f 81/125/173 80/123/171 37/100/128 36/86/108
f 82/126/174 81/125/173 36/86/108 35/85/105
f 83/127/175 82/126/174 35/85/105 34/84/104
f 84/128/176 83/127/175 34/84/104 33/93/117
f 85/129/177 84/128/176 33/93/117 32/77/95
f 86/130/178 85/129/177 32/77/95 31/76/92
f 79/124/172 86/130/178 31/76/92 30/75/91
s 28
f 59/110/179 60/109/180 88/60/181 87/59/182
s 29
f 86/130/183 79/124/184 90/62/185 89/61/186
s 28
f 60/109/180 61/112/187 91/63/188 88/60/181
s 29
f 85/129/189 86/130/183 89/61/186 92/64/190
s 28
f 61/112/187 62/114/191 93/65/192 91/63/188
s 29
f 84/128/193 85/129/189 92/64/190 94/66/194
s 28
f 62/114/191 63/116/195 95/67/196 93/65/192
s 29
f 83/127/197 84/128/193 94/66/194 96/68/198
s 28
f 63/116/195 64/118/199 97/69/200 95/67/196
s 29
f 82/126/201 83/127/197 96/68/198 98/70/202
s 28
f 64/118/199 65/120/203 99/71/204 97/69/200
s 29
f 81/125/205 82/126/201 98/70/202 100/72/206
s 28
f 65/120/203 66/122/207 101/73/208 99/71/204
s 29
f 80/123/209 81/125/205 100/72/206 102/74/210
s 28
f 66/122/207 59/110/179 87/59/182 101/73/208
s 29
f 79/124/184 80/123/209 102/74/210 90/62/185
