# This file uses centimeters as units for non-parametric coordinates.

mtllib SwampLillyPad_1.mtl
g default
v 0.407534 -0.000000 -0.237113
v 0.242284 -0.000000 -0.419647
v 0.000000 -0.000000 -0.484567
v -0.242744 -0.000000 -0.408042
v -0.419647 -0.000000 -0.242283
v -0.484567 -0.000000 0.000000
v -0.406684 -0.000000 0.249731
v -0.243119 -0.000000 0.407288
v 0.000000 -0.000000 0.484567
v 0.242284 -0.000000 0.419647
v 0.419647 -0.000000 0.242283
v 0.484567 -0.000000 0.000000
v 0.445230 0.082717 -0.260418
v 0.242284 0.095510 -0.419647
v 0.000000 0.095510 -0.484567
v -0.254687 0.087839 -0.429233
v -0.419647 0.095510 -0.242283
v -0.484567 0.095510 0.000000
v -0.438453 0.086913 0.255251
v -0.243739 0.087720 0.435529
v 0.000000 0.095510 0.484567
v 0.242284 0.095510 0.419647
v 0.419647 0.095510 0.242283
v 0.484567 0.095510 0.000000
v 0.415879 0.108303 -0.235989
v 0.219300 0.095510 -0.379839
v 0.000000 0.095510 -0.438601
v -0.234282 0.103181 -0.391008
v -0.379839 0.095510 -0.219300
v -0.438601 0.095510 0.000000
v -0.402549 0.104107 0.232268
v -0.220757 0.103300 0.398897
v 0.000000 0.095510 0.438601
v 0.219300 0.095510 0.379839
v 0.379839 0.095510 0.219300
v 0.438601 0.095510 0.000000
v 0.382300 0.047198 -0.216797
v 0.219300 0.030021 -0.379839
v 0.000000 0.043742 0.000000
v 0.000000 0.030021 -0.438601
v -0.224701 0.038385 -0.372176
v -0.379839 0.030021 -0.219300
v -0.438601 0.030021 0.000000
v -0.374868 0.040761 0.229424
v -0.220438 0.039368 0.374226
v 0.000000 0.030021 0.438601
v 0.219300 0.030021 0.379839
v 0.379839 0.030021 0.219300
v 0.438601 0.030021 0.000000
v 0.000000 -0.000000 0.000000
v 0.135000 -0.000000 0.191839
v 0.127635 0.043742 0.179082
v 0.000000 0.036068 0.219300
v -0.109650 0.043742 0.189920
v -0.189920 0.036068 0.109650
v -0.219300 0.043742 0.000000
v -0.189920 0.036068 -0.109650
v -0.109650 0.043742 -0.189920
v 0.000000 0.043742 -0.219300
v 0.109651 0.036068 -0.189920
v 0.189919 0.043742 -0.109650
v 0.219300 0.036068 0.000000
v 0.179082 0.043742 0.127635
v 0.191838 -0.000000 0.135000
vt 0.184949 0.005297
vt 0.274968 0.005298
vt 0.364987 0.005299
vt 0.455005 0.005300
vt 0.545024 0.005301
vt 0.635043 0.005302
vt 0.725061 0.005303
vt 0.815080 0.005304
vt 0.905098 0.005305
vt 0.995117 0.005306
vt 0.978460 0.975938
vt 0.094931 0.005296
vt 0.564430 0.961002
vt 0.344242 0.960974
vt 0.153567 0.850855
vt 0.043497 0.660152
vt 0.043525 0.439963
vt 0.153643 0.249288
vt 0.344347 0.139218
vt 0.564535 0.139246
vt 0.755211 0.249365
vt 0.978521 0.628133
vt 0.865252 0.660257
vt 0.755134 0.850932
vt 0.803857 0.866684
vt 0.167842 0.060508
vt 0.249321 0.060505
vt 0.330801 0.060503
vt 0.412280 0.060501
vt 0.493760 0.060499
vt 0.575239 0.060497
vt 0.656719 0.060495
vt 0.738198 0.060492
vt 0.819678 0.060490
vt 0.962025 0.628130
vt 0.004883 0.060512
vt 0.086362 0.060510
vt 0.709723 0.803091
vt 0.249343 0.129888
vt 0.330823 0.129886
vt 0.412302 0.129884
vt 0.493781 0.129882
vt 0.575261 0.129880
vt 0.656740 0.129878
vt 0.738220 0.129876
vt 0.819699 0.129873
vt 0.961983 0.866614
vt 0.961983 0.866614
vt 0.086384 0.129893
vt 0.803905 0.976006
vt 0.888091 0.975970
vt 0.593167 0.430541
vt 0.499679 0.371089
vt 0.405697 0.371148
vt 0.324337 0.418190
vt 0.277397 0.499610
vt 0.277456 0.593592
vt 0.324498 0.674953
vt 0.405918 0.721892
vt 0.499900 0.721833
vt 0.581261 0.674791
vt 0.628201 0.593371
vt 0.882780 0.866650
vt 0.888091 0.975970
vt 0.803602 0.640251
vt 0.167864 0.129891
vt 0.546559 0.195687
vt 0.358596 0.195805
vt 0.195874 0.289890
vt 0.101995 0.452730
vt 0.102114 0.640693
vt 0.196198 0.803415
vt 0.359038 0.897294
vt 0.547001 0.897176
vt 0.623318 0.482688
vt 0.452799 0.546491
vt 0.882779 0.866650
vt 0.803484 0.452288
vt 0.004905 0.129895
vt 0.901179 0.129871
vt 0.709400 0.289566
vt 0.726605 0.822396
vt 0.553992 0.922025
vt 0.826278 0.649808
vt 0.962025 0.628130
vt 0.004883 0.050268
vt 0.726674 0.277894
vt 0.826303 0.450507
vt 0.901157 0.060488
vt 0.865281 0.440068
vt 0.554087 0.178221
vt 0.354785 0.178196
vt 0.182172 0.277824
vt 0.082499 0.450412
vt 0.082474 0.649713
vt 0.182103 0.822327
vt 0.354690 0.921999
vt 0.094902 0.050269
vt 0.184920 0.050270
vt 0.905069 0.050278
vt 0.815051 0.050277
vt 0.725032 0.050276
vt 0.635013 0.050275
vt 0.544995 0.050274
vt 0.454976 0.050273
vt 0.364957 0.050272
vt 0.274939 0.050271
vt 0.004912 0.005295
vt 0.978521 0.628133
vt 0.978460 0.975938
vt 0.995088 0.050279
vt 0.803905 0.976006
vt 0.803857 0.866684
vn 0.741335 0.000000 -0.671135
vn 0.708510 -0.107201 -0.697511
vn 0.591297 -0.358009 -0.722632
vn 0.534921 -0.445966 -0.717617
vn 0.258818 0.000000 -0.965926
vn 0.258818 0.000000 -0.965926
vn 0.258818 0.000000 -0.965926
vn 0.258818 0.000000 -0.965926
vn -0.300662 0.000000 -0.953731
vn -0.222322 -0.199581 -0.954327
vn -0.280298 -0.055424 -0.958312
vn -0.197928 -0.255232 -0.946404
vn -0.683749 0.000000 -0.729717
vn -0.698971 -0.057495 -0.712835
vn -0.724662 -0.195302 -0.660849
vn -0.730669 -0.252384 -0.634370
vn -0.965926 0.000000 -0.258818
vn -0.965926 0.000000 -0.258818
vn -0.965926 0.000000 -0.258818
vn -0.965926 0.000000 -0.258818
vn -0.895956 -0.345238 0.279417
vn -0.926684 -0.271524 0.259868
vn -0.976602 -0.074411 0.201769
vn -0.984070 0.000000 0.177781
vn -0.664620 -0.286755 0.689965
vn -0.660903 -0.243708 0.709798
vn -0.663495 -0.271824 0.697055
vn -0.659919 -0.234469 0.713815
vn -0.289429 -0.295186 0.910547
vn -0.219590 -0.066018 0.973356
vn -0.271161 -0.231104 0.934378
vn -0.197239 0.000000 0.980356
vn 0.258818 0.000000 0.965926
vn 0.258818 0.000000 0.965926
vn 0.258818 0.000000 0.965926
vn 0.258818 0.000000 0.965926
vn 0.965926 0.000000 0.258818
vn 0.965926 0.000000 0.258818
vn 0.965926 0.000000 0.258818
vn 0.965926 0.000000 0.258818
vn 0.951068 0.000000 -0.308982
vn 0.921923 -0.354201 -0.156840
vn 0.957462 -0.104194 -0.269090
vn 0.891698 -0.438257 -0.113162
vn -0.010897 0.999916 0.007023
vn -0.024922 0.998697 -0.044526
vn -0.010946 0.998910 -0.045387
vn -0.009297 0.999945 0.004803
vn 0.014823 0.998897 -0.044554
vn 0.030870 0.998746 -0.039426
vn -0.021090 0.999629 -0.017245
vn -0.021738 0.999695 -0.011700
vn -0.042266 0.999087 0.006297
vn -0.043524 0.999040 -0.004972
vn -0.024452 0.999464 -0.021782
vn -0.036421 0.999337 -0.000000
vn 0.006943 0.999571 -0.028441
vn -0.022056 0.999756 -0.000785
vn 0.026615 0.999457 0.019422
vn 0.009405 0.999814 0.016828
vn 0.027368 0.999074 0.033198
vn 0.018328 0.999044 0.039690
vn -0.003242 0.999110 0.042066
vn -0.040003 0.997191 0.063318
vn 0.025660 0.998670 0.044721
vn 0.033553 0.998917 0.032231
vn 0.042066 0.999110 -0.003242
vn 0.063318 0.997191 -0.040003
vn 0.377234 0.828301 -0.414260
vn 0.008243 0.996979 -0.077236
vn 0.341082 0.858822 -0.382214
vn -0.045684 0.998608 -0.026376
vn 0.000000 1.000000 0.000000
vn 0.000000 1.000000 0.000000
vn 0.000000 1.000000 0.000000
vn 0.000000 1.000000 0.000000
vn -0.098885 0.940619 -0.324743
vn -0.087318 0.950993 -0.296629
vn 0.014801 0.998885 -0.044837
vn 0.032725 0.999464 0.000000
vn -0.238800 0.938543 -0.249222
vn -0.048447 0.998786 -0.008866
vn -0.219123 0.949606 -0.224127
vn -0.017307 0.999401 0.029977
vn 0.000000 1.000000 0.000000
vn 0.000000 1.000000 0.000000
vn 0.000000 1.000000 0.000000
vn 0.000000 1.000000 0.000000
vn -0.377414 0.920717 0.099193
vn -0.345284 0.934425 0.087340
vn -0.048904 0.998609 -0.019692
vn 0.000000 0.999316 -0.036987
vn -0.246950 0.931225 0.268022
vn -0.246950 0.931225 0.268022
vn -0.246950 0.931225 0.268022
vn -0.246950 0.931225 0.268022
vn -0.097727 0.936427 0.336977
vn 0.016925 0.998742 0.047207
vn -0.085639 0.947890 0.306872
vn 0.035267 0.999378 0.000000
vn 0.000000 1.000000 0.000000
vn 0.000000 1.000000 0.000000
vn 0.000000 1.000000 0.000000
vn 0.000000 1.000000 0.000000
vn 0.000000 1.000000 0.000000
vn 0.000000 1.000000 0.000000
vn 0.000000 1.000000 0.000000
vn 0.000000 1.000000 0.000000
vn 0.588919 0.797967 -0.128155
vn 0.544799 0.830846 -0.113531
vn 0.068601 0.997062 0.034082
vn 0.000000 0.998534 0.054129
vn -0.530762 0.505359 0.680371
vn -0.688010 0.103006 0.718354
vn -0.565239 0.442490 0.696209
vn -0.707199 0.000000 0.707015
vn -0.258819 0.000000 0.965926
vn -0.258819 0.000000 0.965926
vn -0.258819 0.000000 0.965926
vn -0.258819 0.000000 0.965926
vn 0.199313 0.300545 0.932710
vn 0.213907 0.255066 0.942966
vn 0.269988 0.055731 0.961250
vn 0.283484 0.000000 0.958977
vn 0.723822 0.289103 0.626500
vn 0.711393 0.057470 0.700441
vn 0.724782 0.243398 0.644553
vn 0.701897 0.000000 0.712279
vn 0.965926 0.000000 0.258820
vn 0.965926 0.000000 0.258820
vn 0.965926 0.000000 0.258820
vn 0.965926 0.000000 0.258820
vn 0.902689 0.401419 -0.154967
vn 0.924324 0.338618 -0.175964
vn 0.965285 0.074119 -0.250462
vn 0.963514 0.000000 -0.267658
vn 0.650450 0.294450 -0.700153
vn 0.650450 0.294450 -0.700153
vn 0.650450 0.294450 -0.700153
vn 0.650450 0.294450 -0.700153
vn 0.177013 0.000000 -0.984209
vn 0.199169 0.070414 -0.977432
vn 0.262587 0.292919 -0.919373
vn 0.276420 0.347184 -0.896133
vn -0.258818 0.000000 -0.965926
vn -0.258818 0.000000 -0.965926
vn -0.258818 0.000000 -0.965926
vn -0.258818 0.000000 -0.965926
vn -0.965926 0.000000 -0.258820
vn -0.965926 0.000000 -0.258820
vn -0.965926 0.000000 -0.258820
vn -0.965926 0.000000 -0.258820
vn -0.856133 0.504955 0.109802
vn -0.887977 0.440400 0.132458
vn -0.967949 0.105725 0.227807
vn -0.967895 0.000000 0.251353
vn -0.499996 0.000000 0.866028
vn -0.499996 0.000000 0.866028
vn -0.499996 0.000000 0.866028
vn -0.499996 0.000000 0.866028
vn 0.866021 0.000000 -0.500008
vn 0.866021 0.000000 -0.500008
vn 0.866021 0.000000 -0.500008
vn 0.866021 0.000000 -0.500008
vn 0.905409 0.074706 -0.417917
vn 0.905409 0.074706 -0.417917
vn 0.871074 0.035700 -0.489853
vn 0.851301 0.016058 -0.524432
vn -0.417916 0.074704 0.905409
vn -0.417916 0.074704 0.905409
vn -0.524432 0.016061 0.851301
vn -0.489852 0.035701 0.871074
vn 0.816030 -0.015552 -0.577801
vn 0.816030 -0.015552 -0.577801
vn -0.000853 0.999999 0.001327
vn -0.577801 -0.015547 0.816029
vn -0.577801 -0.015547 0.816029
s 1
g SwampLillyPad_1 CompletedStuff
usemtl initialShadingGroup
f 2/2/1 14/107/2 1/1/3
f 1/1/3 14/107/2 13/99/4
s off
f 2/2/5 3/3/6 15/106/7 14/107/8
s 2
f 3/3/9 4/4/10 15/106/11
f 15/106/11 4/4/10 16/105/12
s 3
f 5/5/13 17/104/14 4/4/15
f 4/4/15 17/104/14 16/105/16
s off
f 5/5/17 6/6/18 18/103/19 17/104/20
s 4
f 7/7/21 19/102/22 6/6/23
f 6/6/23 19/102/22 18/103/24
s 5
f 7/7/25 8/8/26 19/102/27
f 19/102/27 8/8/26 20/101/28
s 6
f 8/8/29 9/9/30 20/101/31
f 20/101/31 9/9/30 21/100/32
s off
f 9/9/33 10/10/34 22/111/35 21/100/36
f 11/108/37 12/12/38 24/98/39 23/86/40
s 7
f 12/12/41 1/1/42 24/98/43
f 24/98/43 1/1/42 13/99/44
s 8
f 37/38/45 38/74/46 60/60/47 61/61/48
f 38/74/46 40/73/49 60/60/47
f 60/60/47 40/73/49 59/59/50
f 40/73/49 41/72/51 58/58/52 59/59/50
f 41/72/51 42/71/53 57/57/54 58/58/52
f 42/71/53 43/70/55 57/57/54
f 57/57/54 43/70/55 56/56/56
f 44/69/57 55/55/58 43/70/55
f 43/70/55 55/55/58 56/56/56
f 44/69/57 45/68/59 55/55/58
f 55/55/58 45/68/59 54/54/60
f 45/68/59 46/67/61 53/53/62 54/54/60
f 46/67/61 47/81/63 53/53/62
f 53/53/62 47/81/63 52/52/64
f 49/65/65 62/62/66 48/78/67
f 48/78/67 62/62/66 63/75/68
f 49/65/65 37/38/45 61/61/48 62/62/66
s 10
f 13/13/69 14/14/70 25/83/71
f 25/83/71 14/14/70 26/97/72
s off
f 14/14/73 15/15/74 27/96/75 26/97/76
s 11
f 16/16/77 28/95/78 15/15/79
f 15/15/79 28/95/78 27/96/80
s 12
f 16/16/81 17/17/82 28/95/83
f 28/95/83 17/17/82 29/94/84
s off
f 17/17/85 18/18/86 30/93/87 29/94/88
s 13
f 19/19/89 31/92/90 18/18/91
f 18/18/91 31/92/90 30/93/92
s off
f 19/19/93 20/20/94 32/91/95 31/92/96
s 14
f 20/20/97 21/21/98 32/91/99
f 32/91/99 21/21/98 33/87/100
s off
f 21/21/101 22/90/102 34/88/103 33/87/104
f 23/23/105 24/24/106 36/82/107 35/84/108
s 15
f 13/13/109 25/83/110 24/24/111
f 24/24/111 25/83/110 36/82/112
s 16
f 25/26/113 26/27/114 37/66/115
f 37/66/115 26/27/114 38/39/116
s off
f 26/27/117 27/28/118 40/40/119 38/39/120
s 17
f 28/29/121 41/41/122 27/28/123
f 27/28/123 41/41/122 40/40/124
s 18
f 28/29/125 29/30/126 41/41/127
f 41/41/127 29/30/126 42/42/128
s off
f 29/30/129 30/31/130 43/43/131 42/42/132
s 19
f 31/32/133 44/44/134 30/31/135
f 30/31/135 44/44/134 43/43/136
s off
f 31/32/137 32/33/138 45/45/139 44/44/140
s 20
f 33/34/141 46/46/142 32/33/143
f 32/33/143 46/46/142 45/45/144
s off
f 33/34/145 34/89/146 47/80/147 46/46/148
f 35/36/149 36/37/150 49/49/151 48/79/152
s 21
f 25/26/153 37/66/154 36/37/155
f 36/37/155 37/66/154 49/49/156
s off
f 11/11/157 23/109/158 35/85/159 48/48/160
f 22/22/161 10/110/162 47/47/163 34/35/164
s 22
f 47/47/165 10/110/166 51/51/167 52/77/168
s 23
f 11/11/169 48/48/170 63/63/171 64/64/172
s 22
f 52/77/168 51/51/167 50/50/173 39/113/174
s 8
f 53/53/62 52/52/64 39/76/175
f 54/54/60 53/53/62 39/76/175
f 55/55/58 54/54/60 39/76/175
f 56/56/56 55/55/58 39/76/175
f 57/57/54 56/56/56 39/76/175
f 58/58/52 57/57/54 39/76/175
f 59/59/50 58/58/52 39/76/175
f 60/60/47 59/59/50 39/76/175
f 61/61/48 60/60/47 39/76/175
f 62/62/66 61/61/48 39/76/175
f 63/75/68 62/62/66 39/76/175
s 23
f 64/64/172 63/63/171 39/25/176 50/112/177
