# This file uses centimeters as units for non-parametric coordinates.

mtllib SwampStonePillar_2.mtl
g default
v -0.500000 0.000000 0.500000
v 0.500000 0.470048 0.500000
v -0.500000 0.470048 -0.500000
v 0.500000 0.470048 -0.500000
v -0.500000 0.000000 -0.500000
v 0.500000 0.000000 -0.500000
v 0.431095 0.525267 0.431096
v 0.431095 0.525267 -0.431095
v -0.431095 0.525267 -0.431095
v 0.462209 0.876336 0.462209
v 0.462209 0.876336 -0.462209
v -0.462209 0.876336 -0.462209
v 0.518409 0.957775 0.518409
v 0.518409 0.957775 -0.518409
v -0.518409 0.957775 -0.518409
v 0.506825 1.297037 0.506826
v 0.506825 1.297037 -0.506825
v -0.506825 1.297037 -0.506825
v -0.343290 1.335291 0.343291
v 0.343290 1.335291 0.343291
v 0.343290 1.335291 -0.343291
v -0.343290 1.335291 -0.343291
v -0.343290 1.570540 0.343291
v 0.343290 1.570540 0.343291
v 0.343290 1.570540 -0.343291
v -0.343290 1.570540 -0.343291
v -0.458054 1.633739 0.458054
v 0.458054 1.633739 0.458054
v -0.458054 1.633739 -0.458054
v -0.458054 2.108980 0.458054
v 0.458054 2.108980 0.458054
v -0.458054 2.108980 -0.458054
v -0.420936 2.183515 0.420937
v 0.420936 2.183515 0.420937
v -0.420936 2.183515 -0.420937
v -0.420936 2.438933 0.420937
v 0.420936 2.438933 0.420937
v 0.420936 2.438933 -0.420937
v -0.420936 2.438933 -0.420937
v -0.554457 2.561326 0.554458
v 0.554457 2.561326 0.554458
v 0.554457 2.561326 -0.554458
v 0.554457 2.971009 -0.554458
v -0.292741 0.470048 0.500000
v -0.500000 0.261963 0.500000
v -0.431095 0.525267 0.314823
v -0.309688 0.525267 0.431096
v -0.462209 0.876336 0.450847
v -0.462235 0.957775 0.518409
v -0.518409 0.957775 0.432599
v -0.515212 1.051414 0.515212
v -0.405498 1.297037 0.506826
v -0.506825 1.297037 0.063463
v -0.410672 1.319529 0.410672
v -0.511732 1.153321 0.511733
v 0.326435 0.000000 0.500000
v 0.500000 0.000000 0.216604
v 0.420936 2.326077 -0.420937
v 0.420936 2.183515 -0.210104
v 0.458054 2.108980 -0.159317
v 0.458054 1.633739 -0.082061
v 0.207667 2.108980 -0.458054
v 0.286858 2.183515 -0.420937
v 0.458054 1.739655 -0.050315
v 0.168777 1.772951 -0.458054
v -0.473881 2.487466 -0.473882
v -0.323036 2.561326 -0.554458
v -0.554457 2.561326 -0.321437
v 0.069805 2.971009 -0.554458
v -0.554457 2.890956 0.074121
v -0.554457 2.818303 0.554458
v -0.489255 2.971009 0.554458
v -0.554457 2.971009 0.471781
v 0.554457 2.705607 0.554458
v 0.554457 2.890956 0.056757
v 0.296390 2.971009 0.554458
vt 0.004883 0.264459
vt 0.634097 0.255106
vt 0.133133 0.365189
vt 0.868856 0.630550
vt 0.135812 0.251421
vt 0.118888 0.378051
vt 0.618626 0.247211
vt 0.860635 0.615250
vt 0.140871 0.380739
vt 0.533546 0.250455
vt 0.862076 0.530120
vt 0.136764 0.465781
vt 0.512820 0.256855
vt 0.867958 0.509241
vt 0.130231 0.486466
vt 0.430674 0.255554
vt 0.864614 0.427153
vt 0.131003 0.568619
vt 0.227604 0.590049
vt 0.409883 0.236948
vt 0.845496 0.406831
vt 0.149474 0.589529
vt 0.352912 0.158828
vt 0.352023 0.026786
vt 0.526740 0.269137
vt 0.149095 0.646482
vt 0.332793 0.145773
vt 0.331796 0.013899
vt 0.752431 0.332034
vt 0.217737 0.145797
vt 0.216744 0.014882
vt 0.753836 0.216987
vt 0.199206 0.150025
vt 0.198248 0.019264
vt 0.139237 0.800125
vt 0.234627 0.862597
vt 0.136414 0.019792
vt 0.854838 0.137845
vt 0.759041 0.136675
vt 0.249600 0.895998
vt 0.104092 0.261044
vt 0.104063 0.131071
vt 0.993883 0.246809
vt 0.634412 0.164894
vt 0.248086 0.317504
vt 0.332160 0.122468
vt 0.618920 0.162911
vt 0.240666 0.466472
vt 0.512796 0.145259
vt 0.238452 0.487186
vt 0.490122 0.139235
vt 0.430652 0.151733
vt 0.195899 0.569050
vt 0.418430 0.151147
vt 0.465448 0.139636
vt 0.747964 0.235751
vt 0.037340 0.378199
vt 0.854504 0.165166
vt 0.198862 0.091073
vt 0.655138 0.306672
vt 0.332321 0.075361
vt 0.659271 0.262507
vt 0.676875 0.273221
vt 0.564876 0.307919
vt 0.578467 0.252089
vt 0.132713 0.875124
vt 0.770588 0.103514
vt 0.149927 0.895335
vt 0.938731 0.246806
vt 0.867694 0.172692
vt 0.249186 0.958211
vt 0.875135 0.114699
vt 0.239532 0.995117
vt 0.068056 0.005181
vt 0.993888 0.174604
vt 0.964541 0.114732
vt 0.235039 0.800762
vt 0.239386 0.782258
vt 0.240151 0.667204
vt 0.227225 0.647002
vt 0.004883 0.004883
vt 0.247142 0.534592
vt 0.004883 0.004883
vt 0.409866 0.158816
vt 0.533959 0.145250
vt 0.334680 0.141431
vt 0.004883 0.026378
vt 0.014284 0.004883
vt 0.349508 0.146337
vt 0.684871 0.141484
vt 0.249579 0.254101
vt 0.748292 0.141705
vt 0.633041 0.006551
vt 0.263253 0.119261
vt 0.069162 0.261051
vt 0.004902 0.231697
vt 0.102985 0.004883
vt 0.137389 0.245842
vt 0.199226 0.245829
vt 0.217760 0.250049
vt 0.332815 0.250025
vt 0.352929 0.236960
vt 0.408975 0.026299
vt 0.429602 0.007512
vt 0.511734 0.005492
vt 0.532516 0.011710
vt 0.617610 0.014524
vt 0.004883 0.142292
vt 0.041851 0.134864
vt 0.104066 0.134851
vt 0.137369 0.150038
vt 0.005054 0.358506
vt 0.266618 0.081593
vt 0.747808 0.119373
vt 0.118681 0.264252
vt 0.871664 0.744314
vt 0.023668 0.062200
vt 0.771721 0.068137
vt 0.004883 0.131919
vt 0.838826 0.199491
vt 0.712631 0.285285
vt 0.829589 0.217912
vt 0.824170 0.299205
vt 0.844091 0.349895
vt 0.137232 0.115593
vt 0.870438 0.104733
vt 0.409643 0.104428
vt 0.430588 0.122860
vt 0.512742 0.123476
vt 0.533414 0.116904
vt 0.618449 0.112637
vt 0.634014 0.120345
vt 0.874645 0.004883
vt 0.866970 0.123469
vt 0.194409 0.975436
vt 0.405919 0.343604
vt 0.871650 0.005556
vt 0.309128 0.293929
vt 0.816501 0.004883
vt 0.753178 0.123398
vt 0.138825 0.861960
vt 0.758286 0.198507
vt 0.135136 0.781564
vt 0.135902 0.666511
vt 0.765983 0.351822
vt 0.767388 0.408759
vt 0.749297 0.429999
vt 0.750006 0.512152
vt 0.756911 0.532716
vt 0.762549 0.617670
vt 0.755092 0.633358
vt 0.757900 0.747122
vt 0.005958 0.047513
vt 0.247905 0.141889
vt 0.225753 0.381304
vt 0.016168 0.029355
vt 0.247702 0.509921
vt 0.399755 0.122474
vt 0.004883 0.004883
vt 0.235329 0.581535
vt 0.004883 0.004883
vt 0.747111 0.037827
vt 0.378753 0.119222
vt 0.874655 0.042590
vt 0.886538 0.006340
vt 0.315755 0.257148
vt 0.405935 0.240944
vt 0.293951 0.272292
vt 0.803183 0.004883
vt 0.736506 0.005040
vt 0.539516 0.302680
vt 0.352691 0.104915
vt 0.306649 0.071967
vt 0.217345 0.085135
vt 0.673847 0.301492
vt 0.164554 0.115359
vn 0.813402 -0.300348 0.498165
vn 0.813402 -0.300348 0.498165
vn 0.813402 -0.300348 0.498165
vn 0.000000 0.000000 1.000000
vn 0.000000 0.000000 1.000000
vn 0.000000 0.000000 1.000000
vn 0.000000 0.000000 1.000000
vn 0.000000 0.000000 1.000000
vn 0.000000 0.000000 1.000000
vn 0.000000 0.000000 1.000000
vn 0.000000 0.000000 1.000000
vn 0.000000 0.000000 1.000000
vn 0.000000 0.000000 -1.000000
vn 0.000000 0.000000 -1.000000
vn 0.000000 0.000000 -1.000000
vn 0.000000 0.000000 -1.000000
vn 0.000000 -1.000000 0.000000
vn 0.000000 -1.000000 0.000000
vn 0.000000 -1.000000 0.000000
vn 0.000000 -1.000000 0.000000
vn 0.000000 -1.000000 0.000000
vn 0.000000 -1.000000 0.000000
vn 0.000000 -1.000000 0.000000
vn 0.000000 -1.000000 0.000000
vn 0.000000 -1.000000 0.000000
vn -1.000000 0.000000 0.000000
vn -1.000000 0.000000 0.000000
vn -1.000000 0.000000 0.000000
vn -1.000000 0.000000 0.000000
vn -1.000000 0.000000 0.000000
vn -1.000000 0.000000 0.000000
vn -0.954311 0.292548 0.060875
vn -0.954311 0.292548 0.060875
vn -0.954311 0.292548 0.060875
vn 0.625356 0.780340 0.000000
vn 0.625356 0.780340 0.000000
vn 0.625356 0.780340 0.000000
vn 0.625356 0.780340 0.000000
vn 0.000000 0.780338 -0.625358
vn 0.000000 0.780338 -0.625358
vn 0.000000 0.780338 -0.625358
vn 0.000000 0.780338 -0.625358
vn -0.625356 0.780340 0.000000
vn -0.625356 0.780340 0.000000
vn -0.625356 0.780340 0.000000
vn -0.012267 -0.061480 0.998033
vn -0.012267 -0.061480 0.998033
vn -0.012267 -0.061480 0.998033
vn 0.000000 -0.088280 0.996096
vn 0.000000 -0.088280 0.996096
vn 0.000000 -0.088280 0.996096
vn 0.996096 -0.088279 0.000000
vn 0.996096 -0.088279 0.000000
vn 0.996096 -0.088279 0.000000
vn 0.996096 -0.088279 0.000000
vn 0.000000 -0.088280 -0.996096
vn 0.000000 -0.088280 -0.996096
vn 0.000000 -0.088280 -0.996096
vn 0.000000 -0.088280 -0.996096
vn 0.823046 -0.567974 0.000000
vn 0.823046 -0.567974 0.000000
vn 0.823046 -0.567974 0.000000
vn 0.823046 -0.567974 0.000000
vn 0.000000 -0.567974 -0.823047
vn 0.000000 -0.567974 -0.823047
vn 0.000000 -0.567974 -0.823047
vn 0.000000 -0.567974 -0.823047
vn -0.823046 -0.567975 0.000000
vn -0.823046 -0.567975 0.000000
vn -0.823046 -0.567975 0.000000
vn -0.823046 -0.567975 0.000000
vn 0.999418 0.034123 0.000000
vn 0.999418 0.034123 0.000000
vn 0.999418 0.034123 0.000000
vn 0.999418 0.034123 0.000000
vn 0.000000 0.034124 -0.999418
vn 0.000000 0.034124 -0.999418
vn 0.000000 0.034124 -0.999418
vn 0.000000 0.034124 -0.999418
vn -0.999418 0.034123 0.000000
vn -0.999418 0.034123 0.000000
vn -0.999418 0.034123 0.000000
vn -0.999418 0.034123 0.000000
vn -0.999418 0.034123 0.000000
vn -0.999418 0.034123 0.000000
vn -0.999418 0.034123 0.000001
vn -0.999418 0.034123 0.000001
vn -0.999418 0.034123 0.000001
vn -0.999418 0.034124 0.000001
vn -0.999418 0.034124 0.000001
vn -0.999418 0.034124 0.000001
vn 0.227772 0.973714 0.000000
vn 0.227772 0.973714 0.000000
vn 0.227772 0.973714 0.000000
vn 0.227772 0.973714 0.000000
vn 0.000000 0.973714 -0.227773
vn 0.000000 0.973714 -0.227773
vn 0.000000 0.973714 -0.227773
vn 0.000000 0.973714 -0.227773
vn -0.227772 0.973715 0.000000
vn -0.227772 0.973715 0.000000
vn -0.227772 0.973715 0.000000
vn -0.227772 0.973714 0.000001
vn -0.227772 0.973714 0.000001
vn -0.227773 0.973714 0.000001
vn -0.227772 0.973714 0.000000
vn -0.227772 0.973714 0.000000
vn -0.227772 0.973714 0.000000
vn 0.000000 0.000000 1.000000
vn 0.000000 0.000000 1.000000
vn 0.000000 0.000000 1.000000
vn 0.000000 0.000000 1.000000
vn 1.000000 0.000000 0.000000
vn 1.000000 0.000000 0.000000
vn 1.000000 0.000000 0.000000
vn 1.000000 0.000000 0.000000
vn 0.000000 0.000000 -1.000000
vn 0.000000 0.000000 -1.000000
vn 0.000000 0.000000 -1.000000
vn 0.000000 0.000000 -1.000000
vn -1.000000 0.000000 0.000000
vn -1.000000 0.000000 0.000000
vn -1.000000 0.000000 0.000000
vn -1.000000 0.000000 0.000000
vn 0.000000 -0.875962 0.482380
vn 0.000000 -0.875962 0.482380
vn 0.000000 -0.875962 0.482380
vn 0.000000 -0.875962 0.482380
vn -0.482381 -0.875962 0.000000
vn -0.482381 -0.875962 0.000000
vn -0.482381 -0.875962 0.000000
vn -0.482381 -0.875962 0.000000
vn 0.000000 0.000000 1.000000
vn 0.000000 0.000000 1.000000
vn 0.000000 0.000000 1.000000
vn 0.000000 0.000000 1.000000
vn -1.000000 0.000000 0.000000
vn -1.000000 0.000000 0.000000
vn -1.000000 0.000000 0.000000
vn -1.000000 0.000000 0.000000
vn 0.000000 0.445772 0.895146
vn 0.000000 0.445772 0.895146
vn 0.000000 0.445772 0.895146
vn 0.000000 0.445772 0.895146
vn -0.895144 0.445777 0.000000
vn -0.895144 0.445777 0.000000
vn -0.895144 0.445777 0.000000
vn -0.895144 0.445777 0.000000
vn 0.000000 0.000000 1.000000
vn 0.000000 0.000000 1.000000
vn 0.000000 0.000000 1.000000
vn 0.000000 0.000000 1.000000
vn 0.000000 -0.737159 0.675719
vn 0.000000 -0.737159 0.675719
vn 0.000000 -0.737159 0.675719
vn 0.000000 -0.737159 0.675719
vn 0.675720 -0.737158 0.000000
vn 0.675720 -0.737158 0.000000
vn 0.675720 -0.737158 0.000000
vn 0.675720 -0.737158 0.000000
vn 0.000000 -0.737159 -0.675720
vn 0.000000 -0.737159 -0.675720
vn 0.000000 -0.737159 -0.675720
vn 0.000000 -0.737159 -0.675720
vn 0.000000 -0.737159 -0.675720
vn 0.000000 -0.737159 -0.675720
vn 0.000000 -0.737161 -0.675717
vn 0.000000 -0.737161 -0.675717
vn 0.000000 -0.737161 -0.675717
vn -0.675720 -0.737158 0.000000
vn -0.675720 -0.737158 0.000000
vn -0.675720 -0.737158 0.000000
vn -0.675721 -0.737157 0.000001
vn -0.675721 -0.737157 0.000001
vn -0.675721 -0.737157 0.000001
vn -0.675719 -0.737160 0.000000
vn -0.675719 -0.737160 0.000000
vn -0.675719 -0.737160 0.000000
vn 0.000000 0.000000 1.000000
vn 0.000000 0.000000 1.000000
vn 0.000000 0.000000 1.000000
vn 0.000000 0.000000 1.000000
vn 0.000000 0.000000 1.000000
vn 0.000000 0.000000 1.000000
vn 0.000000 0.000000 1.000000
vn 0.000000 0.000000 1.000000
vn 0.000000 0.000000 1.000000
vn 0.000000 0.000000 1.000000
vn 0.000000 0.000000 1.000000
vn 0.000000 0.000000 1.000000
vn 1.000000 0.000000 0.000000
vn 1.000000 0.000000 0.000000
vn 1.000000 0.000000 0.000000
vn 1.000000 -0.000000 0.000000
vn 1.000000 -0.000000 0.000000
vn 1.000000 -0.000000 0.000000
vn 1.000000 0.000000 0.000000
vn 1.000000 0.000000 0.000000
vn 1.000000 0.000000 0.000000
vn 0.000000 0.000000 -1.000000
vn 0.000000 0.000000 -1.000000
vn 0.000000 0.000000 -1.000000
vn 0.000000 0.000000 -1.000000
vn 0.000000 0.780338 0.625358
vn 0.000000 0.780338 0.625358
vn 0.000000 0.780338 0.625358
vn 0.000000 0.780338 0.625358
vn -0.009459 -0.638464 0.769594
vn -0.009459 -0.638464 0.769594
vn -0.009459 -0.638464 0.769594
vn 0.000000 -0.567974 0.823046
vn 0.000000 -0.567974 0.823046
vn 0.000000 -0.567974 0.823046
vn 0.000000 0.034124 0.999418
vn 0.000000 0.034124 0.999418
vn 0.000000 0.034124 0.999418
vn -0.000000 0.034125 0.999418
vn -0.000000 0.034125 0.999418
vn -0.000000 0.034125 0.999418
vn -0.000000 0.034124 0.999418
vn -0.000000 0.034124 0.999418
vn -0.000000 0.034124 0.999418
vn 0.000000 0.034124 0.999418
vn 0.000000 0.034124 0.999418
vn 0.000000 0.034124 0.999418
vn -0.996096 -0.088279 0.000000
vn -0.996096 -0.088279 0.000000
vn -0.996096 -0.088279 0.000000
vn -0.996096 -0.088279 0.000000
vn 0.000000 0.973715 0.227772
vn 0.000000 0.973715 0.227772
vn 0.000000 0.973715 0.227772
vn -0.000000 0.973714 0.227773
vn -0.000000 0.973714 0.227773
vn -0.000000 0.973714 0.227773
vn 0.000000 0.973714 0.227773
vn 0.000000 0.973714 0.227773
vn 0.000000 0.973714 0.227773
vn 1.000000 0.000000 0.000000
vn 1.000000 0.000000 0.000000
vn 1.000000 0.000000 0.000000
vn 1.000000 0.000000 0.000000
vn 1.000000 0.000000 0.000000
vn 1.000000 0.000000 0.000000
vn 1.000000 0.000000 0.000000
vn 1.000000 0.000000 0.000000
vn 1.000000 0.000000 0.000000
vn 1.000000 0.000000 0.000000
vn 1.000000 0.000000 0.000000
vn 1.000000 0.000000 0.000000
vn 1.000000 0.000000 0.000000
vn 0.895144 0.445777 0.000000
vn 0.895144 0.445777 0.000000
vn 0.895144 0.445777 0.000000
vn 0.895144 0.445777 0.000000
vn 1.000000 -0.000004 0.000000
vn 1.000000 -0.000004 0.000000
vn 1.000000 -0.000004 0.000000
vn 1.000000 0.000000 0.000001
vn 1.000000 0.000000 0.000001
vn 1.000000 0.000000 0.000001
vn 1.000000 0.000001 0.000000
vn 1.000000 0.000001 0.000000
vn 1.000000 0.000001 0.000000
vn 0.482381 -0.875962 0.000000
vn 0.482381 -0.875962 0.000000
vn 0.482381 -0.875962 0.000000
vn 0.482381 -0.875962 0.000000
vn 0.000000 -0.875961 -0.482382
vn 0.000000 -0.875961 -0.482382
vn 0.000000 -0.875961 -0.482382
vn 0.094999 -0.427750 -0.898891
vn 0.094999 -0.427750 -0.898891
vn 0.094999 -0.427750 -0.898891
vn 0.000000 0.000000 -1.000000
vn 0.000000 0.000000 -1.000000
vn 0.000000 0.000000 -1.000000
vn 0.000000 -0.000000 -1.000000
vn 0.000000 -0.000000 -1.000000
vn 0.000000 -0.000000 -1.000000
vn 0.000000 0.445773 -0.895146
vn 0.000000 0.445773 -0.895146
vn 0.000000 0.445773 -0.895146
vn 0.000000 0.445773 -0.895146
vn 0.000000 0.000000 -1.000000
vn 0.000000 0.000000 -1.000000
vn 0.000000 0.000000 -1.000000
vn 0.000000 0.000000 -1.000000
vn 0.000000 0.000000 -1.000000
vn 0.000000 0.000000 -1.000000
vn 0.000000 0.000000 -1.000000
vn 0.000000 0.000000 -1.000000
vn 0.000000 0.000000 -1.000000
vn -1.000000 -0.000000 0.000000
vn -1.000000 -0.000000 0.000000
vn -1.000000 -0.000000 0.000000
vn -1.000000 0.000000 0.000000
vn -1.000000 0.000000 0.000000
vn -1.000000 0.000000 0.000000
vn -1.000000 0.000000 0.000000
vn -1.000000 0.000000 0.000000
vn -1.000000 0.000000 0.000000
vn 0.000000 0.991532 0.129864
vn 0.000000 0.991532 0.129864
vn 0.000000 0.991532 0.129864
vn 0.002009 0.991734 0.128297
vn 0.002009 0.991734 0.128297
vn 0.002009 0.991734 0.128297
vn -0.002506 0.987103 -0.160070
vn -0.002506 0.987103 -0.160070
vn -0.002506 0.987103 -0.160070
vn 0.000000 0.986395 -0.164392
vn 0.000000 0.986395 -0.164392
vn 0.000000 0.986395 -0.164392
vn 0.242758 0.951008 -0.191446
vn 0.242758 0.951008 -0.191446
vn 0.242758 0.951008 -0.191446
vn -1.000000 0.000000 0.000000
vn -1.000000 0.000000 0.000000
vn -1.000000 0.000000 0.000000
vn -1.000000 0.000000 0.000000
vn -0.594096 0.601458 -0.534133
vn -0.594096 0.601458 -0.534133
vn -0.594096 0.601458 -0.534133
vn -0.594096 0.601458 -0.534133
vn 0.796934 -0.170990 -0.579360
vn 0.796934 -0.170990 -0.579360
vn 0.796934 -0.170990 -0.579360
vn 0.763406 -0.088352 -0.639848
vn 0.763406 -0.088352 -0.639848
vn 0.763405 -0.088352 -0.639848
vn 0.896397 0.127259 -0.424592
vn 0.896397 0.127259 -0.424592
vn 0.896397 0.127259 -0.424592
vn 0.771155 0.371886 -0.516741
vn 0.771155 0.371886 -0.516741
vn 0.771155 0.371886 -0.516741
vn 0.842568 0.054491 -0.535827
vn 0.842568 0.054491 -0.535827
vn 0.842568 0.054491 -0.535827
vn 0.687025 -0.443190 -0.575830
vn 0.687025 -0.443190 -0.575830
vn 0.687025 -0.443190 -0.575830
vn -0.788054 0.588672 0.180103
vn -0.788054 0.588672 0.180103
vn -0.788054 0.588672 0.180103
vn -0.788054 0.588672 0.180103
vn -0.654628 -0.322858 0.683539
vn -0.654628 -0.322858 0.683539
vn -0.654628 -0.322858 0.683539
vn -0.569585 0.567325 0.594740
vn -0.569585 0.567325 0.594740
vn -0.569585 0.567325 0.594740
vn -0.569585 0.567325 0.594740
vn -0.761645 -0.413882 0.498597
vn -0.761645 -0.413882 0.498597
vn -0.761645 -0.413882 0.498597
vn -0.761645 -0.413882 0.498597
vn -0.586638 0.562517 -0.582607
vn -0.586638 0.562517 -0.582607
vn -0.586638 0.562517 -0.582607
vn 0.693940 0.674760 0.251288
vn 0.693940 0.674760 0.251288
vn 0.693940 0.674760 0.251288
vn -0.744479 0.317876 0.587117
vn -0.744479 0.317876 0.587117
vn -0.744479 0.317876 0.587117
vn 0.660974 -0.621632 -0.420341
vn 0.660974 -0.621632 -0.420341
vn 0.660974 -0.621632 -0.420341
s off
g SwampStonePillar_2 CompletedStuff
usemtl initialShadingGroup
f 57/113/1 2/163/2 56/94/3
f 2/2/4 44/44/5 56/56/6
f 44/44/7 45/90/8 56/56/9
f 1/92/10 56/56/11 45/90/12
f 3/151/13 4/4/14 6/116/15 5/152/16
f 5/115/17 6/6/18 1/1/19
f 6/6/20 57/57/21 1/1/22
f 57/57/23 56/112/24 1/1/25
f 1/91/26 45/45/27 5/5/28
f 5/5/29 45/45/30 3/3/31
f 45/45/32 46/155/33 3/3/34
f 2/93/35 4/132/36 8/131/37 7/107/38
f 4/4/39 3/151/40 9/150/41 8/8/42
f 3/3/43 46/155/44 9/9/45
f 48/85/46 47/47/47 10/10/48
f 10/10/49 47/47/50 7/7/51
f 7/107/52 8/131/53 11/130/54 10/106/55
f 8/8/56 9/150/57 12/149/58 11/11/59
f 10/106/60 11/130/61 14/129/62 13/105/63
f 11/11/64 12/149/65 15/148/66 14/14/67
f 12/12/68 48/48/69 50/50/70 15/15/71
f 13/105/72 14/129/73 17/128/74 16/104/75
f 14/14/76 15/148/77 18/147/78 17/17/79
f 15/15/80 50/50/81 18/18/82
f 18/18/83 50/50/84 53/53/85
f 50/50/86 51/157/87 53/53/88
f 51/157/89 55/82/90 53/53/91
f 16/104/92 17/128/93 21/127/94 20/103/95
f 17/17/96 18/147/97 22/146/98 21/21/99
f 18/18/100 53/53/101 22/22/102
f 54/160/103 19/19/104 53/53/105
f 53/53/106 19/19/107 22/22/108
f 19/84/109 20/20/110 24/102/111 23/23/112
f 20/103/113 21/127/114 25/172/115 24/24/116
f 21/21/117 22/146/118 26/145/119 25/124/120
f 22/22/121 19/19/122 23/80/123 26/26/124
f 23/23/125 24/102/126 28/101/127 27/27/128
f 26/26/129 23/80/130 27/79/131 29/144/132
f 27/27/133 28/101/134 31/100/135 30/30/136
f 29/144/137 27/79/138 30/78/139 32/143/140
f 30/30/141 31/100/142 34/99/143 33/33/144
f 32/143/145 30/78/146 33/77/147 35/35/148
f 33/33/149 34/99/150 37/98/151 36/111/152
f 36/111/153 37/98/154 41/41/155 40/110/156
f 37/37/157 38/125/158 42/42/159 41/97/160
f 42/126/161 38/38/162 67/67/163
f 67/67/164 38/38/165 66/140/166
f 38/38/167 39/39/168 66/140/169
f 40/40/170 68/68/171 36/36/172
f 68/68/173 66/66/174 36/36/175
f 39/141/176 36/36/177 66/66/178
f 40/110/179 41/41/180 71/109/181
f 41/41/182 74/95/183 71/109/184
f 74/95/185 76/96/186 71/109/187
f 76/96/188 72/108/189 71/109/190
f 41/97/191 42/42/192 74/74/193
f 74/74/194 42/42/195 75/117/196
f 42/42/197 43/119/198 75/117/199
f 42/126/200 67/67/201 69/139/202 43/137/203
f 47/47/204 44/44/205 2/2/206 7/7/207
f 48/85/208 10/10/209 49/49/210
f 49/49/211 10/10/212 13/13/213
f 13/13/214 16/16/215 49/49/216
f 49/49/217 16/16/218 51/51/219
f 51/51/220 16/16/221 55/55/222
f 16/16/223 52/52/224 55/55/225
f 9/9/226 46/155/227 48/48/228 12/12/229
f 16/16/230 20/20/231 52/52/232
f 52/52/233 20/20/234 54/54/235
f 54/54/236 20/20/237 19/84/238
f 57/162/239 6/114/240 4/132/241 2/93/242
f 34/34/243 59/59/244 37/37/245
f 59/59/246 58/176/247 37/37/248
f 58/176/249 38/125/250 37/37/251
f 31/31/252 60/174/253 59/59/254 34/34/255
f 61/61/256 64/173/257 28/28/258
f 28/28/259 64/173/260 31/31/261
f 64/173/262 60/174/263 31/31/264
f 24/24/265 25/172/266 61/61/267 28/28/268
f 25/124/269 26/145/270 29/29/271
f 25/124/272 29/29/273 65/123/274
f 29/29/275 32/32/276 65/123/277
f 62/122/278 65/123/279 32/32/280
f 63/120/281 62/122/282 32/32/283 35/142/284
f 35/142/285 39/39/286 63/120/287
f 63/120/288 39/39/289 58/58/290
f 58/58/291 39/39/292 38/38/293
f 68/68/294 40/40/295 70/135/296
f 40/40/297 71/71/298 70/135/299
f 70/135/300 71/71/301 73/73/302
f 43/43/303 69/69/304 75/75/305
f 69/69/306 70/70/307 75/75/308
f 75/75/309 70/70/310 76/76/311
f 76/76/312 70/70/313 72/72/314
f 73/134/315 72/72/316 70/70/317
f 33/77/318 36/36/319 39/141/320 35/35/321
f 69/136/322 67/138/323 68/166/324 70/167/325
f 64/64/326 65/65/327 60/60/328
f 60/60/329 65/65/330 62/62/331
f 61/171/332 25/25/333 64/64/334
f 64/64/335 25/25/336 65/65/337
f 59/175/338 60/60/339 63/63/340
f 63/63/341 60/60/342 62/62/343
f 53/159/344 55/161/345 52/81/346 54/83/347
f 47/86/348 48/154/349 46/46/350
f 46/46/351 45/158/352 44/89/353 47/86/354
f 50/156/355 48/153/356 49/87/357 51/88/358
f 68/166/359 67/138/360 66/168/361
f 75/170/362 76/169/363 74/118/364
f 72/133/365 73/165/366 71/164/367
f 59/175/368 63/63/369 58/121/370
