# This file uses centimeters as units for non-parametric coordinates.

mtllib SwampStoneSmall_2.mtl
g default
v -0.155559 0.000000 0.061808
v 0.110334 0.000000 0.064646
v -0.081296 0.182626 0.009325
v 0.077113 0.298318 0.029493
v -0.083266 0.160112 -0.099846
v 0.077880 0.219866 -0.085867
v -0.158254 0.000000 -0.176006
v 0.110334 0.000000 -0.163143
v -0.010017 0.000000 0.176008
v -0.010017 0.020106 -0.146702
v 0.011864 0.189289 -0.118776
v 0.018152 0.275406 0.086304
v -0.071804 0.188852 -0.040831
v 0.038582 0.260841 -0.032484
v 0.124568 0.248279 -0.042881
v 0.188563 0.000000 -0.069664
v -0.039396 0.045430 -0.040981
v -0.188563 0.000000 -0.075043
v -0.123870 0.060163 0.031256
v -0.010017 0.149083 0.146090
v 0.110334 0.196096 0.066261
v 0.188563 0.150768 -0.059814
v 0.110595 0.102939 -0.153559
v -0.010017 0.097073 -0.146702
v -0.158254 0.059714 -0.176006
v -0.188563 0.080514 -0.067387
vt 0.248027 0.695552
vt 0.807310 0.004883
vt 0.331140 0.475240
vt 0.292766 0.311731
vt 0.466632 0.437647
vt 0.399484 0.269024
vt 0.652235 0.555364
vt 0.541103 0.079439
vt 0.004883 0.463929
vt 0.697888 0.267182
vt 0.460521 0.323669
vt 0.257051 0.365199
vt 0.390342 0.451981
vt 0.362703 0.333046
vt 0.332947 0.251258
vt 0.315237 0.004883
vt 0.815441 0.218814
vt 0.501971 0.684022
vt 0.289075 0.617648
vt 0.143818 0.415311
vt 0.206383 0.261570
vt 0.321167 0.143773
vt 0.479272 0.160166
vt 0.559461 0.316696
vt 0.594978 0.523820
vt 0.461543 0.593737
vt 0.891724 0.382634
vt 0.995099 0.254701
vt 0.628470 0.029981
vt 0.041071 0.142666
vt 0.652193 0.286581
vt 0.596599 0.167708
vt 0.995117 0.039505
vt 0.776980 0.425392
vn -0.343399 0.316967 0.884086
vn 0.528285 0.135504 0.838185
vn -0.353490 0.477539 0.804364
vn 0.531750 0.434324 0.727052
vn -0.306956 0.800337 -0.515013
vn -0.331554 0.843942 -0.421704
vn 0.017505 0.809034 -0.587501
vn -0.003459 0.792031 -0.610471
vn 0.011243 0.224373 -0.974438
vn -0.039421 0.409525 -0.911447
vn -0.041801 0.224835 -0.973500
vn 0.169588 0.528870 -0.831587
vn -0.183588 -0.982048 0.043327
vn -0.003909 -0.999840 -0.017445
vn -0.098902 -0.977128 0.188254
vn -0.161933 -0.973174 0.163432
vn 0.854255 0.519729 0.011406
vn 0.982889 0.126025 0.134340
vn 0.481268 0.499251 -0.720506
vn 0.724472 0.153035 -0.672102
vn -0.869072 0.388987 -0.305618
vn -0.868847 0.494546 0.023008
vn -0.742171 0.670200 -0.003676
vn -0.632373 0.720698 -0.284075
vn 0.199309 -0.968333 0.150357
vn 0.289687 -0.957089 0.007895
vn -0.085940 0.528090 -0.844829
vn 0.157554 0.141460 -0.977326
vn -0.474648 0.834872 -0.278745
vn -0.338186 0.870273 -0.358128
vn -0.725395 0.366981 0.582346
vn -0.776496 0.384715 0.499048
vn -0.567589 0.799720 -0.195677
vn -0.573274 0.808913 -0.130447
vn -0.315255 0.886080 -0.339817
vn 0.871841 0.095724 0.480343
vn 0.870106 0.390797 0.300323
vn -0.015647 -0.979081 -0.202868
vn -0.188401 -0.970515 -0.150352
vn 0.222975 -0.959513 -0.172094
vn -0.774235 0.475099 0.418141
vn -0.942685 0.302490 -0.140868
vn -0.499858 0.586792 0.637038
vn -0.013266 0.244775 0.969489
vn 0.614459 0.066577 0.786135
vn 0.855723 -0.017094 0.517153
vn 0.996356 0.010009 0.084702
vn 0.760781 0.048793 -0.647172
vn 0.096761 0.016700 -0.995168
vn -0.119616 0.092342 -0.988517
vn 0.193934 0.000000 -0.981015
vn -0.960111 0.015244 -0.279204
vn -0.997135 0.074072 -0.015315
vn -0.822099 0.533707 0.198265
s 1
g SwampSmallStone_2 CompletedStuff
usemtl initialShadingGroup
f 20/20/1 21/21/2 12/12/3
f 12/12/3 21/21/2 4/4/4
s 2
f 11/11/5 14/14/6 15/15/7 6/6/8
s 3
f 24/24/9 11/11/10 23/23/11
f 23/23/11 11/11/10 6/6/12
s 4
f 16/29/13 17/17/14 10/10/15 8/32/16
s 5
f 15/15/17 22/22/18 6/6/19
f 6/6/19 22/22/18 23/23/20
s 6
f 25/25/21 26/26/22 13/13/23 5/5/24
s 4
f 10/10/15 17/17/14 7/34/25
f 7/34/25 17/17/14 18/27/26
s 3
f 11/11/10 24/24/9 5/5/27
f 5/5/27 24/24/9 25/25/28
s 2
f 14/14/6 11/11/5 13/13/29
f 13/13/29 11/11/5 5/5/30
s 1
f 19/19/31 20/20/1 12/12/3 3/3/32
s 2
f 12/12/33 14/14/6 3/3/34
f 3/3/34 14/14/6 13/13/29
f 15/15/7 14/14/6 4/4/35
f 4/4/35 14/14/6 12/12/33
s 5
f 22/22/18 15/15/17 21/21/36
f 21/21/36 15/15/17 4/4/37
s 4
f 9/33/38 17/17/14 2/2/39
f 2/2/39 17/17/14 16/29/13
f 18/27/26 17/17/14 1/28/40
f 1/28/40 17/17/14 9/33/38
s 6
f 26/26/22 19/19/41 13/13/23
f 13/13/23 19/19/41 3/3/42
s 1
f 1/1/43 9/9/44 19/19/31
f 19/19/31 9/9/44 20/20/1
f 21/21/2 20/20/1 2/30/45
f 2/30/45 20/20/1 9/9/44
s 5
f 2/30/46 16/16/47 22/22/18 21/21/36
f 23/23/20 22/22/18 16/16/47 8/8/48
s 3
f 24/24/9 23/23/11 10/31/49
f 10/31/49 23/23/11 8/8/50
f 25/25/28 24/24/9 10/31/49 7/7/51
s 6
f 7/7/52 18/18/53 26/26/22 25/25/21
f 26/26/22 18/18/53 19/19/41
f 19/19/41 18/18/53 1/1/54
