# This file uses centimeters as units for non-parametric coordinates.

mtllib SwampPlank_1.mtl
g default
v -1.959261 0.000000 0.241613
v 1.959261 0.000000 0.241613
v -1.959261 0.107736 0.241613
v 1.959261 0.107736 0.241613
v -1.959261 0.107736 -0.241613
v 1.959261 0.107736 -0.241613
v -1.959261 0.000000 -0.241613
v 1.959261 0.000000 -0.241613
v 0.000000 0.000000 0.288029
v 0.000000 0.000000 -0.247790
v 0.000000 0.107736 -0.247790
v 0.000000 0.107736 0.288029
v -2.000000 0.107736 0.000000
v 0.000000 0.122914 0.000000
v 2.000000 0.107736 0.000000
v 2.000000 0.000000 0.000000
v 0.000000 -0.015178 0.000000
v -2.000000 0.000000 0.000000
v -1.800000 0.000000 0.288029
v -1.800000 -0.015178 0.000000
v -1.800000 0.000000 -0.288029
v -1.800000 0.107736 -0.288029
v -1.800000 0.122914 -0.000000
v -1.800000 0.107736 0.288029
v 1.800000 0.000000 0.288029
v 1.800000 -0.015178 -0.000000
v 1.800000 0.000000 -0.288029
v 1.800000 0.107736 -0.288029
v 1.800000 0.122914 0.000000
v 1.800000 0.107736 0.288029
v -1.986484 0.053868 0.266238
v -1.825011 0.053868 0.317384
v 0.000000 0.053868 0.317384
v 1.825011 0.053868 0.317384
v 1.986484 0.053868 0.266238
v 2.027790 0.053868 0.000000
v 1.986484 0.053868 -0.266238
v 1.825011 0.053868 -0.317384
v 0.000000 0.053868 -0.277145
v -1.825011 0.053868 -0.317384
v -1.986484 0.053868 -0.266238
v -2.027790 0.053868 0.000000
v -0.720000 -0.015178 0.000000
v -0.793028 0.000000 0.330408
v -0.803032 0.053868 0.359764
v -0.793028 0.107736 0.330408
v -0.720000 0.122914 0.000000
v -0.720000 0.107736 -0.233025
v -0.730004 0.053868 -0.262380
v -0.720000 0.000000 -0.233025
v -0.648000 -0.015178 0.000000
v -0.648000 0.000000 0.288028
v -0.657004 0.053868 0.317384
v -0.648000 0.107736 0.288028
v -0.648000 0.122914 -0.000000
v -0.579266 0.107736 -0.267802
v -0.588270 0.053868 -0.297157
v -0.579266 0.000000 -0.267802
v -1.979630 0.107736 0.120807
v -1.800000 0.115325 0.144014
v -0.720000 0.115325 0.144014
v -0.648000 0.115325 0.144014
v 0.000000 0.115325 0.144014
v 1.800000 0.115325 0.144014
v 1.944059 0.107736 0.120807
v 1.971566 0.053868 0.133119
v 1.944059 0.000000 0.120807
v 1.800000 -0.007589 0.144014
v 0.000000 -0.007589 0.144014
v -0.648000 -0.007589 0.144014
v -0.720000 -0.007589 0.144014
v -1.800000 -0.007589 0.144014
v -1.979630 0.000000 0.120807
v -2.007137 0.053868 0.133119
v -1.965372 0.107736 0.205371
v -1.800000 0.110013 0.244824
v -0.720000 0.110013 0.244824
v -0.648000 0.110013 0.244824
v 0.000000 0.110013 0.244824
v 1.800000 0.110013 0.244824
v 1.965372 0.107736 0.205371
v 1.992680 0.053868 0.226302
v 1.965372 0.000000 0.205371
v 1.800000 -0.002277 0.244824
v 0.000000 -0.002277 0.244824
v -0.648000 -0.002277 0.244824
v -0.720000 -0.002277 0.244824
v -1.800000 -0.002277 0.244824
v -1.965372 0.000000 0.205371
v -1.992680 0.053868 0.226302
v 0.578615 0.000000 0.288029
v 0.131201 0.000000 -0.247790
v 0.127899 0.107736 -0.247790
v 0.575314 0.107736 0.288029
v 0.351141 0.122914 -0.000000
v 0.355373 -0.015178 0.000000
v 0.599765 0.053868 0.317384
v 0.106750 0.053868 -0.277145
v 0.463227 0.115325 0.144014
v 0.466994 -0.007589 0.144014
v 0.541688 0.110013 0.244824
v 0.545129 -0.002277 0.244824
v 0.488221 -0.015178 0.000000
v 0.290397 0.053868 -0.231256
v 0.591624 -0.007589 0.144014
v 0.664007 -0.002277 0.244824
v 0.730141 -0.000000 0.245547
v 0.313733 0.000000 -0.201900
v 0.309342 0.107736 -0.201900
v 0.725750 0.107736 0.245547
v 0.482592 0.122914 -0.000000
v 0.749086 0.053868 0.274903
v 0.586614 0.115325 0.144014
v 0.659430 0.110013 0.244824
vt 0.271483 0.386880
vt 0.988051 0.352519
vt 0.014913 0.184256
vt 0.985274 0.184280
vt 0.009657 0.317980
vt 0.984753 0.303952
vt 0.015081 0.016380
vt 0.984749 0.016386
vt 0.014911 0.136065
vt 0.985276 0.136058
vt 0.135093 0.387169
vt 0.135074 0.418377
vt 0.149242 0.386858
vt 0.149259 0.417801
vt 0.499007 0.353207
vt 0.499889 0.148410
vt 0.500099 0.015600
vt 0.500096 0.304739
vt 0.499892 0.171930
vt 0.210289 0.417094
vt 0.004883 0.244112
vt 0.500016 0.243305
vt 0.995117 0.244168
vt 0.073622 0.417344
vt 0.995117 0.076170
vt 0.073640 0.388127
vt 0.500016 0.077035
vt 0.210272 0.387496
vt 0.004883 0.076209
vt 0.499003 0.383614
vt 0.010833 0.417818
vt 0.988094 0.383962
vt 0.498772 0.318808
vt 0.988139 0.317854
vt 0.498748 0.349298
vt 0.988184 0.349322
vt 0.010852 0.387574
vt 0.009601 0.352681
vt 0.009597 0.384028
vt 0.271500 0.417641
vt 0.009635 0.349442
vt 0.015078 0.303941
vt 0.051640 0.352956
vt 0.054325 0.147644
vt 0.054499 0.076261
vt 0.054540 0.004883
vt 0.051902 0.348820
vt 0.051923 0.318660
vt 0.054537 0.315440
vt 0.054499 0.244062
vt 0.054328 0.172679
vt 0.051636 0.383762
vt 0.945830 0.353194
vt 0.945899 0.147752
vt 0.945503 0.076384
vt 0.945268 0.005016
vt 0.945860 0.348699
vt 0.945817 0.318597
vt 0.945272 0.315325
vt 0.945504 0.243956
vt 0.945895 0.172588
vt 0.945870 0.383402
vt 0.276495 0.402258
vt 0.004883 0.368354
vt 0.046412 0.368359
vt 0.499001 0.368410
vt 0.951418 0.368291
vt 0.992829 0.368234
vt 0.004883 0.402692
vt 0.074222 0.402735
vt 0.992927 0.333581
vt 0.140223 0.402776
vt 0.951549 0.333641
vt 0.498551 0.334053
vt 0.046280 0.333736
vt 0.144192 0.402332
vt 0.004883 0.333707
vt 0.210424 0.402295
vt 0.321794 0.076722
vt 0.301695 0.353288
vt 0.303564 0.158567
vt 0.298769 0.368387
vt 0.303567 0.161764
vt 0.301692 0.383487
vt 0.321794 0.243610
vt 0.319039 0.318703
vt 0.321894 0.301420
vt 0.316888 0.333925
vt 0.321896 0.018912
vt 0.319018 0.349150
vt 0.339616 0.076754
vt 0.338650 0.353221
vt 0.339486 0.148146
vt 0.335788 0.368392
vt 0.339489 0.172186
vt 0.338646 0.383563
vt 0.339616 0.243579
vt 0.354969 0.318814
vt 0.356744 0.309942
vt 0.353142 0.333950
vt 0.356747 0.010392
vt 0.354947 0.349089
vt 0.241099 0.417556
vt 0.009900 0.214177
vt 0.054406 0.208372
vt 0.321730 0.207913
vt 0.339553 0.207883
vt 0.499962 0.207619
vt 0.945700 0.208276
vt 0.981404 0.214172
vt 0.040821 0.418383
vt 0.038777 0.402713
vt 0.981405 0.106166
vt 0.040840 0.387047
vt 0.945701 0.112064
vt 0.499960 0.112721
vt 0.339552 0.112450
vt 0.321729 0.112420
vt 0.054405 0.111950
vt 0.241081 0.386999
vt 0.009899 0.106143
vt 0.243173 0.402276
vt 0.262393 0.417598
vt 0.013413 0.193231
vt 0.054350 0.183387
vt 0.321684 0.182924
vt 0.339508 0.182895
vt 0.499915 0.182638
vt 0.945830 0.183297
vt 0.986746 0.193258
vt 0.020154 0.416878
vt 0.014803 0.402698
vt 0.986749 0.127080
vt 0.020172 0.388526
vt 0.945833 0.137043
vt 0.499912 0.137702
vt 0.339506 0.137437
vt 0.321682 0.137408
vt 0.054348 0.136936
vt 0.262376 0.386933
vt 0.013411 0.127090
vt 0.266487 0.402263
vt 0.642414 0.353173
vt 0.643123 0.148423
vt 0.532552 0.015675
vt 0.531706 0.348571
vt 0.530926 0.319523
vt 0.531733 0.304667
vt 0.642307 0.171921
vt 0.641579 0.383670
vt 0.586946 0.243206
vt 0.587994 0.077138
vt 0.646929 0.368413
vt 0.524777 0.334065
vt 0.614674 0.207557
vt 0.615606 0.112787
vt 0.634045 0.182613
vt 0.634896 0.137730
vt 0.620883 0.077161
vt 0.571358 0.334154
vt 0.646494 0.112856
vt 0.664434 0.137849
vt 0.681678 0.353338
vt 0.680812 0.138392
vt 0.577690 0.027080
vt 0.577401 0.349454
vt 0.576292 0.318860
vt 0.576602 0.293265
vt 0.679724 0.181953
vt 0.680594 0.383845
vt 0.619490 0.243183
vt 0.685858 0.368588
vt 0.645253 0.207490
vt 0.663300 0.182497
vn -0.007188 0.473967 0.880514
vn 0.024839 -0.000202 0.999691
vn 0.291018 -0.000000 0.956718
vn 0.247287 0.527216 0.812953
vn 0.003106 0.998301 -0.058190
vn 0.005128 0.999778 -0.020441
vn 0.052656 0.998550 -0.011169
vn 0.046337 0.998408 -0.032175
vn 0.291018 0.000000 -0.956718
vn -0.005855 -0.000657 -0.999983
vn -0.028907 0.480928 -0.876283
vn 0.247287 0.527216 -0.812953
vn 0.052656 -0.998550 -0.011169
vn 0.005145 -0.999778 -0.020448
vn 0.003116 -0.998302 -0.058175
vn 0.046337 -0.998408 -0.032175
vn 0.874234 0.483621 0.042737
vn 0.999563 0.000000 0.029546
vn 0.987200 0.000000 -0.159485
vn 0.868446 0.475518 -0.140300
vn -0.987200 0.000000 -0.159485
vn -0.998553 0.000000 -0.053773
vn -0.878086 0.476161 -0.047286
vn -0.868447 0.475517 -0.140300
vn -0.006504 -0.999827 -0.017440
vn -0.004458 -0.998480 -0.054941
vn 0.000394 -0.998287 -0.058508
vn 0.000324 -0.999808 -0.019569
vn 0.010192 0.472655 -0.881188
vn 0.020459 -0.000000 -0.999791
vn -0.015444 -0.000000 -0.999881
vn 0.016396 0.474622 -0.880037
vn -0.004457 0.998480 -0.054941
vn -0.006504 0.999827 -0.017440
vn 0.000324 0.999808 -0.019569
vn 0.000394 0.998287 -0.058508
vn -0.058576 0.492610 0.868277
vn -0.091532 -0.000000 0.995802
vn -0.009516 -0.000000 0.999955
vn 0.009338 0.480757 0.876804
vn -0.006596 0.998729 0.049978
vn 0.000000 0.998615 0.052622
vn 0.005896 0.998696 0.050710
vn 0.058184 0.997624 0.036880
vn 0.875045 0.452648 0.171484
vn 0.991466 0.000000 0.130369
vn 0.058184 -0.997625 0.036880
vn 0.005918 -0.998696 0.050703
vn -0.000000 -0.998615 0.052622
vn -0.006596 -0.998729 0.049978
vn -0.987201 0.000000 0.159484
vn -0.870508 0.471633 0.140632
vn -0.051751 -0.998615 -0.009439
vn -0.053557 -0.998029 0.032719
vn -0.046337 -0.998408 -0.032175
vn -0.247287 0.527216 -0.812953
vn -0.291018 -0.000000 -0.956718
vn -0.051751 0.998615 -0.009439
vn -0.046337 0.998408 -0.032175
vn -0.053557 0.998029 0.032719
vn -0.291018 0.000000 0.956718
vn -0.247287 0.527216 0.812953
vn 0.000000 -0.998615 0.052622
vn -0.001157 -0.999272 -0.038126
vn 0.000708 -0.997927 -0.064350
vn -0.007377 0.011053 -0.999912
vn -0.030968 0.471752 -0.881188
vn 0.000700 0.998239 -0.059314
vn 0.000411 0.999911 -0.013359
vn 0.002994 0.999992 -0.002768
vn 0.001327 0.998011 -0.063030
vn 0.000000 0.998615 0.052622
vn 0.000000 0.998615 0.052622
vn -0.000000 0.478512 0.878081
vn -0.000000 -0.000363 1.000000
vn 0.076899 -0.003462 0.997033
vn 0.036640 0.490672 0.870574
vn -0.247287 -0.527216 0.812953
vn -0.058576 -0.492610 0.868277
vn 0.009338 -0.480757 0.876804
vn -0.010113 0.007233 0.999923
vn 0.011136 -0.480872 0.876720
vn -0.007198 -0.474958 0.879979
vn 0.247287 -0.527216 0.812953
vn 0.875045 -0.452648 0.171483
vn 0.874234 -0.483621 0.042737
vn 0.868447 -0.475517 -0.140300
vn -0.028920 -0.482391 -0.875479
vn 0.247287 -0.527216 -0.812953
vn 0.024977 -0.476752 -0.878683
vn 0.028548 -0.000635 -0.999592
vn 0.117373 0.002585 -0.993085
vn 0.162965 -0.415404 -0.894920
vn 0.016396 -0.474622 -0.880037
vn 0.010192 -0.472655 -0.881188
vn -0.247287 -0.527216 -0.812953
vn -0.868447 -0.475517 -0.140300
vn -0.878086 -0.476161 -0.047286
vn -0.870508 -0.471633 0.140632
vn 0.000000 -0.998615 0.052622
vn -0.000668 -0.999874 -0.015851
vn 0.036921 -0.473155 0.880205
vn 0.065128 -0.000000 0.997877
vn 0.036921 0.473155 0.880205
vn 0.000000 0.998615 0.052622
vn -0.000668 0.999874 -0.015851
vn -0.000042 0.998262 -0.058938
vn -0.013532 0.482074 -0.876026
vn -0.026143 0.000000 -0.999658
vn -0.013532 -0.482074 -0.876026
vn -0.000042 -0.998262 -0.058938
vn 0.000000 -0.998615 0.052622
vn 0.000409 -0.999910 -0.013377
vn -0.000000 -0.478512 0.878081
vn 0.025037 0.476748 -0.878684
vn 0.000697 -0.998239 -0.059322
vn -0.030528 0.999054 0.030977
vn -0.003118 0.999016 0.044251
vn 0.000267 0.998855 0.047840
vn 0.000451 0.998654 0.051872
vn -0.000000 0.998615 0.052622
vn 0.000336 0.998580 0.053275
vn 0.003204 0.998353 0.057274
vn 0.031446 0.999175 0.025715
vn 0.898154 0.418283 -0.135494
vn 0.997138 0.000000 -0.075603
vn 0.898154 -0.418283 -0.135494
vn 0.031446 -0.999175 0.025715
vn 0.003215 -0.998354 0.057259
vn 0.000522 -0.998550 0.053823
vn -0.000000 -0.998615 0.052622
vn 0.000451 -0.998654 0.051872
vn 0.000267 -0.998855 0.047840
vn -0.003118 -0.999016 0.044251
vn -0.030528 -0.999054 0.030978
vn -0.863109 -0.485387 0.139437
vn -0.987200 -0.000000 0.159485
vn -0.863109 0.485387 0.139437
vn -0.014888 0.999445 0.029786
vn -0.001689 0.999401 0.034576
vn -0.000513 0.999386 0.035042
vn 0.001610 0.998751 0.049946
vn -0.000000 0.998615 0.052622
vn 0.001059 0.995738 0.092226
vn 0.000520 0.998551 0.053803
vn -0.001818 0.994399 0.105677
vn 0.014888 0.999445 0.029786
vn 0.987200 0.000000 0.159487
vn 0.858719 0.493311 0.138730
vn 0.858719 -0.493311 0.138730
vn 0.001062 -0.995742 0.092181
vn 0.014888 -0.999445 0.029786
vn -0.000000 -0.998614 0.052622
vn 0.000334 -0.998580 0.053281
vn 0.003146 -0.998264 0.058821
vn 0.001610 -0.998751 0.049946
vn -0.000513 -0.999386 0.035042
vn -0.001689 -0.999401 0.034576
vn -0.014888 -0.999445 0.029786
vn -0.987200 0.000000 0.159487
vn -0.858719 -0.493311 0.138730
vn -0.858719 0.493311 0.138730
vn 0.002967 -0.999992 -0.002800
vn 0.000000 -0.998615 0.052622
vn 0.001306 -0.998012 -0.063012
vn 0.160398 0.425625 -0.890570
vn -0.001152 0.999270 -0.038176
vn 0.000698 0.997929 -0.064320
vn -0.000000 0.998615 0.052622
vn 0.014536 0.483311 0.875328
vn 0.038397 -0.489139 0.871360
vn -0.032505 -0.472753 -0.880595
vn 0.003170 0.998266 0.058775
vn -0.001826 -0.994398 0.105683
s 1
g SwampPlank_1 CompletedStuff
usemtl initialShadingGroup
f 30/62/1 34/67/2 35/68/3 4/32/4
s 2
f 28/59/5 29/60/6 15/23/7 6/6/8
s 3
f 37/71/9 38/73/10 28/58/11 6/34/12
s 4
f 16/25/13 26/55/14 27/56/15 8/8/16
s 5
f 15/24/17 36/70/18 37/72/19 6/12/20
s 6
f 41/76/21 42/78/22 13/20/23 5/14/24
s 4
f 20/45/25 21/46/26 50/89/27 43/79/28
s 3
f 48/86/29 49/88/30 40/75/31 22/48/32
s 2
f 22/49/33 23/50/34 47/85/35 48/87/36
s 1
f 24/52/37 32/65/38 45/82/39 46/84/40
s 2
f 23/50/34 60/105/41 61/106/42 47/85/35
f 15/23/7 29/60/6 64/109/43 65/110/44
s 5
f 65/111/45 66/112/46 36/70/18 15/24/17
s 4
f 67/113/47 68/115/48 26/55/14 16/25/13
f 71/118/49 72/119/50 20/45/25 43/79/28
s 6
f 13/20/23 42/78/22 74/122/51 59/103/52
s 4
f 18/29/53 20/45/25 72/119/50 73/121/54
f 7/7/55 21/46/26 20/45/25 18/29/53
s 3
f 5/5/56 22/48/32 40/75/31 41/77/57
s 2
f 13/21/58 23/50/34 22/49/33 5/42/59
f 59/104/60 60/105/41 23/50/34 13/21/58
s 1
f 31/64/61 32/65/38 24/52/37 3/39/62
s 4
f 68/115/48 105/161/63 103/159/64 26/55/14
f 27/56/15 26/55/14 103/159/64 108/165/65
s 3
f 38/73/10 104/160/66 109/167/67 28/58/11
s 2
f 11/18/68 14/22/69 95/151/70 93/148/71
f 63/108/72 99/155/73 95/151/70 14/22/69
s 1
f 12/30/74 33/66/75 97/153/76 94/150/77
f 1/38/78 19/43/79 32/65/38 31/64/61
f 44/80/80 45/82/39 32/65/38 19/43/79
f 34/67/2 112/172/81 107/163/82 25/53/83
f 35/68/3 34/67/2 25/53/83 2/2/84
s 5
f 66/112/46 67/114/85 16/26/86 36/70/18
f 37/72/19 36/70/18 16/26/86 8/11/87
s 3
f 27/57/88 38/73/10 37/71/9 8/36/89
f 10/35/90 39/74/91 98/154/92 92/146/93
f 21/47/94 40/75/31 49/88/30 50/90/95
f 41/77/57 40/75/31 21/47/94 7/41/96
s 6
f 7/13/97 18/28/98 42/78/22 41/76/21
f 73/120/99 74/122/51 42/78/22 18/28/98
s 4
f 70/117/100 71/118/49 43/79/28 51/91/101
s 1
f 52/92/102 53/94/103 45/82/39 44/80/80
f 46/84/40 45/82/39 53/94/103 54/96/104
s 2
f 47/85/35 61/106/42 62/107/105 55/97/106
f 48/87/36 47/85/35 55/97/106 56/99/107
s 3
f 56/98/108 57/100/109 49/88/30 48/86/29
f 50/90/95 49/88/30 57/100/109 58/102/110
s 4
f 43/79/28 50/89/27 58/101/111 51/91/101
f 69/116/112 70/117/100 51/91/101 17/27/113
s 1
f 33/66/75 53/94/103 52/92/102 9/15/114
f 54/96/104 53/94/103 33/66/75 12/30/74
s 2
f 55/97/106 62/107/105 63/108/72 14/22/69
f 56/99/107 55/97/106 14/22/69 11/18/68
s 3
f 39/74/91 57/100/109 56/98/108 11/33/115
f 58/102/110 57/100/109 39/74/91 10/35/90
s 4
f 51/91/101 58/101/111 10/17/116 17/27/113
s 2
f 75/124/117 76/125/118 60/105/41 59/104/60
f 61/106/42 60/105/41 76/125/118 77/126/119
f 62/107/105 61/106/42 77/126/119 78/127/120
f 63/108/72 62/107/105 78/127/120 79/128/121
f 79/128/121 101/157/122 99/155/73 63/108/72
f 65/110/44 64/109/43 80/129/123 81/130/124
s 5
f 81/131/125 82/132/126 66/112/46 65/111/45
f 82/132/126 83/134/127 67/114/85 66/112/46
s 4
f 83/133/128 84/135/129 68/115/48 67/113/47
f 84/135/129 106/162/130 105/161/63 68/115/48
f 85/136/131 86/137/132 70/117/100 69/116/112
f 86/137/132 87/138/133 71/118/49 70/117/100
f 87/138/133 88/139/134 72/119/50 71/118/49
f 73/121/54 72/119/50 88/139/134 89/141/135
s 6
f 89/140/136 90/142/137 74/122/51 73/120/99
f 59/103/52 74/122/51 90/142/137 75/123/138
s 2
f 3/3/139 24/51/140 76/125/118 75/124/117
f 77/126/119 76/125/118 24/51/140 46/83/141
f 78/127/120 77/126/119 46/83/141 54/95/142
f 79/128/121 78/127/120 54/95/142 12/19/143
f 30/61/144 80/129/123 114/174/145 110/169/146
f 81/130/124 80/129/123 30/61/144 4/4/147
s 5
f 35/69/148 82/132/126 81/131/125 4/31/149
f 2/37/150 83/134/127 82/132/126 35/69/148
s 4
f 25/54/151 84/135/129 83/133/128 2/10/152
f 9/16/153 85/136/131 102/158/154 91/144/155
f 52/93/156 86/137/132 85/136/131 9/16/153
f 44/81/157 87/138/133 86/137/132 52/93/156
f 19/44/158 88/139/134 87/138/133 44/81/157
f 89/141/135 88/139/134 19/44/158 1/9/159
s 6
f 31/63/160 90/142/137 89/140/136 1/1/161
f 75/123/138 90/142/137 31/63/160 3/40/162
s 4
f 96/152/163 100/156/164 69/116/112 17/27/113
f 92/145/165 96/152/163 17/27/113 10/17/116
s 3
f 93/147/166 98/154/92 39/74/91 11/33/115
s 2
f 93/148/71 95/151/70 111/171/167 109/168/168
f 95/151/70 99/155/73 113/173/169 111/171/167
s 1
f 94/150/77 97/153/76 112/172/81 110/170/170
f 91/143/171 97/153/76 33/66/75 9/15/114
s 3
f 92/146/93 98/154/92 104/160/66 108/166/172
s 2
f 99/155/73 101/157/122 114/174/145 113/173/169
s 4
f 100/156/164 102/158/154 85/136/131 69/116/112
s 2
f 94/149/173 101/157/122 79/128/121 12/19/143
s 4
f 91/144/155 102/158/154 106/162/130 107/164/174
f 103/159/64 105/161/63 100/156/164 96/152/163
f 108/165/65 103/159/64 96/152/163 92/145/165
s 3
f 109/167/67 104/160/66 98/154/92 93/147/166
s 1
f 107/163/82 112/172/81 97/153/76 91/143/171
s 4
f 105/161/63 106/162/130 102/158/154 100/156/164
s 2
f 110/169/146 114/174/145 101/157/122 94/149/173
f 109/168/168 111/171/167 29/60/6 28/59/5
f 111/171/167 113/173/169 64/109/43 29/60/6
s 1
f 110/170/170 112/172/81 34/67/2 30/62/1
s 3
f 108/166/172 104/160/66 38/73/10 27/57/88
s 2
f 113/173/169 114/174/145 80/129/123 64/109/43
s 4
f 107/164/174 106/162/130 84/135/129 25/54/151
