# This file uses centimeters as units for non-parametric coordinates.

mtllib Ground Slash RP Mesh.mtl
g default
v -1.000002 0.000000 -0.099177
v 0.008476 0.000000 -1.234150
v -1.000000 0.614444 -0.672376
v 0.012456 0.614444 -1.813949
v -1.000000 1.228889 -1.136405
v 0.015676 1.228889 -2.283205
v -0.999999 1.843333 -1.477808
v 0.018046 1.843333 -2.628381
v -0.999998 2.457778 -1.686649
v 0.019496 2.457778 -2.839543
v -0.999998 3.072221 -1.756973
v 0.019983 3.072221 -2.910608
v -0.999998 3.686667 -1.686700
v 0.019495 3.686667 -2.839529
v -0.999999 4.301111 -1.477832
v 0.018046 4.301111 -2.628387
v -1.000000 4.915555 -1.136458
v 0.015677 4.915555 -2.283226
v -1.000001 5.530000 -0.672341
v 0.012456 5.530000 -1.813942
v -1.000002 6.144444 -0.099164
v 0.008476 6.144444 -1.234128
v 1.000002 0.000000 -0.160196
v 1.000000 0.614444 -0.741092
v 0.999999 1.228889 -1.211235
v 0.999999 1.843333 -1.557065
v 0.999998 2.457778 -1.768624
v 0.999997 3.072221 -1.839822
v 0.999998 3.686667 -1.768608
v 0.999999 4.301111 -1.557071
v 0.999999 4.915555 -1.211255
v 1.000001 5.530000 -0.741085
v 1.000003 6.144444 -0.160176
vt 0.000000 0.000000
vt 0.000000 0.116443
vt 0.989238 0.116443
vt 0.989238 0.000000
vt 0.000000 0.223046
vt 0.989238 0.223046
vt 0.000000 0.320719
vt 0.989238 0.320719
vt 0.000000 0.411547
vt 0.989238 0.411547
vt 0.000000 0.501214
vt 0.989238 0.501214
vt 0.000000 0.590218
vt 0.989238 0.590218
vt 0.000000 0.680553
vt 0.989238 0.680553
vt 0.000000 0.777791
vt 0.989238 0.777791
vt 0.000000 0.884025
vt 0.989238 0.884025
vt 0.000000 1.000000
vt 0.989238 1.000000
vt 0.000000 0.116443
vt 0.000000 0.000000
vt 0.000000 0.223046
vt 0.000000 0.320719
vt 0.000000 0.411547
vt 0.000000 0.501214
vt 0.000000 0.590218
vt 0.000000 0.680553
vt 0.000000 0.777791
vt 0.000000 0.884025
vt 0.000000 1.000000
vn -0.635465 -0.527219 -0.564114
vn -0.647196 -0.501421 -0.574207
vn -0.026461 -0.634921 -0.772124
vn -0.026964 -0.685128 -0.727923
vn -0.681965 -0.412226 -0.604147
vn -0.031222 -0.534795 -0.844405
vn -0.715160 -0.296648 -0.632887
vn -0.035688 -0.394270 -0.918301
vn -0.739881 -0.156206 -0.654352
vn -0.039023 -0.211472 -0.976605
vn -0.749140 -0.000012 -0.662412
vn -0.040274 -0.000002 -0.999189
vn -0.739870 0.156202 -0.654364
vn -0.039006 0.211465 -0.976607
vn -0.715153 0.296642 -0.632898
vn -0.035672 0.394255 -0.918308
vn -0.681954 0.412251 -0.604142
vn -0.031215 0.534799 -0.844402
vn -0.647193 0.501434 -0.574201
vn -0.026461 0.634944 -0.772105
vn -0.635469 0.527215 -0.564113
vn -0.026967 0.685131 -0.727921
vn 0.630719 -0.514545 -0.580893
vn 0.618556 -0.540585 -0.570225
vn 0.666944 -0.424041 -0.612679
vn 0.701743 -0.305916 -0.643407
vn 0.727813 -0.161404 -0.666511
vn 0.737619 0.000009 -0.675217
vn 0.727814 0.161398 -0.666512
vn 0.701747 0.305898 -0.643410
vn 0.666941 0.424051 -0.612675
vn 0.630713 0.514558 -0.580887
vn 0.618552 0.540593 -0.570222
s 1
g GroundSlash_RP
usemtl initialShadingGroup
f 1/1/1 3/2/2 4/3/3 2/4/4
f 3/2/2 5/5/5 6/6/6 4/3/3
f 5/5/5 7/7/7 8/8/8 6/6/6
f 7/7/7 9/9/9 10/10/10 8/8/8
f 9/9/9 11/11/11 12/12/12 10/10/10
f 11/11/11 13/13/13 14/14/14 12/12/12
f 13/13/13 15/15/15 16/16/16 14/14/14
f 15/15/15 17/17/17 18/18/18 16/16/16
f 17/17/17 19/19/19 20/20/20 18/18/18
f 19/19/19 21/21/21 22/22/22 20/20/20
f 4/3/3 24/23/23 23/24/24 2/4/4
f 6/6/6 25/25/25 24/23/23 4/3/3
f 8/8/8 26/26/26 25/25/25 6/6/6
f 10/10/10 27/27/27 26/26/26 8/8/8
f 12/12/12 28/28/28 27/27/27 10/10/10
f 14/14/14 29/29/29 28/28/28 12/12/12
f 16/16/16 30/30/30 29/29/29 14/14/14
f 18/18/18 31/31/31 30/30/30 16/16/16
f 20/20/20 32/32/32 31/31/31 18/18/18
f 22/22/22 33/33/33 32/32/32 20/20/20
