# This file uses centimeters as units for non-parametric coordinates.

mtllib Door.mtl
g default
v 1.000000 0.951057 -0.309017
v 1.000000 0.809018 -0.587786
v 1.000000 0.587786 -0.809017
v 1.000000 0.309017 -0.951057
v 1.000000 0.000000 -1.000000
v 1.000000 -0.000000 1.000000
v 1.000000 0.309017 0.951057
v 1.000000 0.587785 0.809017
v 1.000000 0.809017 0.587785
v 1.000000 0.951057 0.309017
v 1.000000 1.000000 0.000000
v 1.000000 -2.000000 -1.000000
v 0.581938 -2.000000 -1.000000
v 1.000000 -2.000000 1.000000
v 0.581938 -2.000000 1.000000
v 1.000000 1.474972 -0.427462
v 1.000000 1.307715 -0.813081
v 0.581938 1.307715 -0.813081
v 0.581938 1.474972 -0.427462
v 1.000000 1.047207 -1.119110
v 0.581938 1.047207 -1.119110
v 1.000000 0.718947 -1.315593
v 0.581938 0.718947 -1.315593
v 1.000000 0.355069 -1.383296
v 0.581938 0.355069 -1.383296
v 1.000000 0.355069 1.383296
v 1.000000 0.718947 1.315592
v 0.581938 0.718947 1.315592
v 0.581938 0.355069 1.383296
v 1.000000 1.047207 1.119110
v 0.581938 1.047207 1.119110
v 1.000000 1.307714 0.813081
v 0.581938 1.307714 0.813081
v 1.000000 1.474971 0.427462
v 0.581938 1.474971 0.427462
v 1.000000 1.532604 0.000000
v 0.581938 1.532604 0.000000
v 1.000000 -2.000000 -1.383296
v 0.581938 -2.000000 -1.383296
v 0.581938 -2.000000 1.383296
v 1.000000 -2.000000 1.383296
v 1.246963 0.951057 -0.309017
v 1.246963 0.809018 -0.587786
v 1.246963 0.587786 -0.809017
v 1.246963 0.309017 -0.951057
v 1.246963 0.000000 -1.000000
v 1.246963 -0.000000 1.000000
v 1.246963 0.309017 0.951057
v 1.246963 0.587785 0.809017
v 1.246963 0.809017 0.587785
v 1.246963 0.951057 0.309017
v 1.246963 1.000000 0.000000
v 1.246963 -2.000000 -1.000000
v 1.246963 -2.000000 1.000000
v 1.123494 1.307715 -0.813081
v 1.246963 1.201766 -0.747064
v 1.246963 1.354895 -0.394019
v 1.123494 1.474972 -0.427462
v 1.123494 1.047207 -1.119110
v 1.246963 0.966360 -1.023605
v 1.123494 0.718947 -1.315593
v 1.246963 0.674562 -1.198263
v 1.123494 0.355069 -1.383296
v 1.246963 0.343681 -1.259827
v 1.123494 0.718947 1.315592
v 1.246963 0.674562 1.198263
v 1.246963 0.343680 1.259827
v 1.123494 0.355069 1.383296
v 1.123494 1.047207 1.119110
v 1.246963 0.966360 1.023604
v 1.123494 1.307714 0.813081
v 1.246963 1.201766 0.747064
v 1.123494 1.474971 0.427462
v 1.246963 1.354893 0.394018
v 1.123494 1.532604 0.000000
v 1.246963 1.408018 -0.000000
v 1.246963 -2.000000 -1.259827
v 1.123494 -2.000000 -1.383296
v 1.246963 -2.000000 1.259827
v 1.123494 -2.000000 1.383296
vt 0.057361 0.550965
vt 0.065524 0.602966
vt 0.010405 0.614530
vt 0.000993 0.553509
vt 0.080257 0.650967
vt 0.028384 0.671464
vt 0.101503 0.694017
vt 0.053860 0.722038
vt 0.127700 0.732827
vt 0.084412 0.766588
vt 0.132786 0.267481
vt 0.107498 0.305651
vt 0.062340 0.272355
vt 0.089342 0.229892
vt 0.086645 0.347582
vt 0.038315 0.319520
vt 0.071023 0.394166
vt 0.019316 0.372485
vt 0.060892 0.444759
vt 0.006417 0.430216
vt 0.056256 0.497739
vt 0.000000 0.491081
vt 0.328821 0.951683
vt 0.307018 1.000000
vt 0.309315 0.000000
vt 0.329134 0.046008
vt 0.389245 0.924272
vt 0.374143 0.996413
vt 0.369075 0.003544
vt 0.389250 0.073074
vt 0.190658 0.541013
vt 0.197473 0.584285
vt 0.164512 0.592015
vt 0.157115 0.546214
vt 0.209174 0.626143
vt 0.177094 0.636579
vt 0.225008 0.665115
vt 0.194459 0.678873
vt 0.245676 0.700091
vt 0.217951 0.717334
vt 0.252914 0.294057
vt 0.230794 0.328488
vt 0.198815 0.318554
vt 0.221649 0.278817
vt 0.213889 0.367728
vt 0.181307 0.361705
vt 0.200961 0.409684
vt 0.167728 0.406835
vt 0.192476 0.453015
vt 0.158868 0.453152
vt 0.189286 0.497046
vt 0.155829 0.499949
vt 0.362864 0.911648
vt 0.330455 0.938186
vt 0.340000 0.922600
vt 0.363207 0.089869
vt 0.343359 0.073846
vt 0.332896 0.058734
vt 0.082030 0.599460
vt 0.105774 0.594468
vt 0.118063 0.636263
vt 0.095782 0.644920
vt 0.074507 0.550243
vt 0.099002 0.548670
vt 0.073223 0.499012
vt 0.097230 0.499986
vt 0.135934 0.673357
vt 0.115663 0.685716
vt 0.160817 0.706581
vt 0.141797 0.722447
vt 0.121099 0.314640
vt 0.140693 0.327468
vt 0.122837 0.364648
vt 0.101425 0.354903
vt 0.145712 0.278056
vt 0.164578 0.292928
vt 0.109817 0.406308
vt 0.086861 0.399558
vt 0.101412 0.451962
vt 0.077489 0.448105
vn -0.000000 0.963813 -0.266579
vn -0.000000 0.850484 -0.526000
vn -0.000000 0.850484 -0.526000
vn -0.000000 0.963813 -0.266579
vn -0.000000 0.649191 -0.760625
vn -0.000000 0.649191 -0.760625
vn -0.000000 0.356601 -0.934257
vn -0.000000 0.356601 -0.934257
vn -0.000000 0.024893 -0.999690
vn -0.000000 0.024893 -0.999690
vn -0.000000 0.024893 0.999690
vn -0.000000 0.356602 0.934257
vn -0.000000 0.356602 0.934257
vn -0.000000 0.024893 0.999690
vn -0.000000 0.649192 0.760625
vn -0.000000 0.649192 0.760625
vn -0.000000 0.850485 0.526000
vn -0.000000 0.850485 0.526000
vn -0.000000 0.963813 0.266580
vn -0.000000 0.963813 0.266580
vn -0.000000 1.000000 0.000001
vn -0.000000 1.000000 0.000001
vn 0.000000 -0.190339 -0.981718
vn 0.000000 -0.160640 -0.987013
vn 0.000000 -0.160640 0.987013
vn -0.000000 -0.190339 0.981719
vn 0.000000 -0.447671 0.894198
vn 0.000000 -1.000000 0.000001
vn 0.000000 -1.000000 -0.000001
vn -0.000000 -0.447671 -0.894198
vn 0.000000 -0.951057 0.309016
vn 0.000000 -0.809017 0.587785
vn 0.897133 -0.357392 0.259661
vn 0.901273 -0.412047 0.133882
vn 0.000000 -0.587785 0.809017
vn 0.882245 -0.276723 0.380877
vn 0.000000 -0.309017 0.951057
vn 0.841660 -0.166871 0.513577
vn 0.000000 -0.021192 0.999775
vn 0.856776 -0.010928 0.515573
vn 0.000000 -0.021192 -0.999775
vn 0.000000 -0.309017 -0.951057
vn 0.841660 -0.166871 -0.513578
vn 0.856776 -0.010928 -0.515573
vn 0.000000 -0.587785 -0.809017
vn 0.882245 -0.276724 -0.380877
vn 0.000000 -0.809017 -0.587785
vn 0.897133 -0.357393 -0.259661
vn 0.000000 -0.951057 -0.309017
vn 0.901273 -0.412048 -0.133882
vn 0.000000 -1.000000 -0.000001
vn 0.901898 -0.431948 -0.000000
vn 0.747453 -0.115286 0.654235
vn 0.437979 -0.197124 -0.877107
vn 0.937152 -0.143205 -0.318179
vn 0.747453 -0.115287 -0.654235
vn 0.937152 -0.143205 0.318179
vn 0.437979 -0.197124 0.877107
vn 0.430042 0.767929 -0.474710
vn 0.961902 0.232586 -0.143699
vn 0.960931 0.179822 -0.210417
vn 0.428200 0.586869 -0.687190
vn 0.431321 0.869576 -0.240415
vn 0.961354 0.265368 -0.073334
vn 0.431766 0.901986 0.000001
vn 0.960952 0.276717 0.000000
vn 0.955719 0.104676 -0.275035
vn 0.427979 0.321913 -0.844516
vn 0.902810 0.010304 -0.429917
vn 0.438745 0.021961 -0.898343
vn 0.427978 0.321913 0.844516
vn 0.955719 0.104676 0.275035
vn 0.960931 0.179823 0.210417
vn 0.428200 0.586869 0.687189
vn 0.438745 0.021961 0.898343
vn 0.902810 0.010304 0.429917
vn 0.961902 0.232586 0.143698
vn 0.430042 0.767929 0.474710
vn 0.961354 0.265368 0.073334
vn 0.431321 0.869576 0.240416
s 1
g polySurface1 pCylinder1
usemtl initialShadingGroup
f 16/1/1 17/2/2 18/3/3 19/4/4
f 17/2/2 20/5/5 21/6/6 18/3/3
f 20/5/5 22/7/7 23/8/8 21/6/6
f 22/7/7 24/9/9 25/10/10 23/8/8
f 26/11/11 27/12/12 28/13/13 29/14/14
f 27/12/12 30/15/15 31/16/16 28/13/13
f 30/15/15 32/17/17 33/18/18 31/16/16
f 32/17/17 34/19/19 35/20/20 33/18/18
f 34/19/19 36/21/21 37/22/22 35/20/20
f 36/21/21 16/1/1 19/4/4 37/22/22
f 25/10/10 24/9/9 38/23/23 39/24/24
f 26/11/11 29/14/14 40/25/25 41/26/26
f 12/27/27 13/28/28 39/24/24 38/23/23
f 15/29/29 14/30/30 41/26/26 40/25/25
f 1/31/31 2/32/32 43/33/33 42/34/34
f 2/32/32 3/35/35 44/36/36 43/33/33
f 3/35/35 4/37/37 45/38/38 44/36/36
f 4/37/37 5/39/39 46/40/40 45/38/38
f 6/41/41 7/42/42 48/43/43 47/44/44
f 7/42/42 8/45/45 49/46/46 48/43/43
f 8/45/45 9/47/47 50/48/48 49/46/46
f 9/47/47 10/49/49 51/50/50 50/48/48
f 10/49/49 11/51/51 52/52/52 51/50/50
f 11/51/51 1/31/31 42/34/34 52/52/52
f 5/39/39 12/27/27 53/53/53 46/40/40
f 12/27/27 38/23/23 78/54/54 77/55/55 53/53/53
f 14/30/30 6/41/41 47/44/44 54/56/56
f 41/26/26 14/30/30 54/56/56 79/57/57 80/58/58
f 55/59/59 56/60/60 60/61/61 59/62/62
f 56/60/60 55/59/59 58/63/63 57/64/64
f 57/64/64 58/63/63 75/65/65 76/66/66
f 59/62/62 60/61/61 62/67/67 61/68/68
f 61/68/68 62/67/67 64/69/69 63/70/70
f 63/70/70 64/69/69 77/55/55 78/54/54
f 65/71/71 66/72/72 70/73/73 69/74/74
f 66/72/72 65/71/71 68/75/75 67/76/76
f 67/76/76 68/75/75 80/58/58 79/57/57
f 69/74/74 70/73/73 72/77/77 71/78/78
f 71/78/78 72/77/77 74/79/79 73/80/80
f 73/80/80 74/79/79 76/66/66 75/65/65
f 42/34/34 43/33/33 56/60/60 57/64/64
f 43/33/33 44/36/36 60/61/61 56/60/60
f 44/36/36 45/38/38 62/67/67 60/61/61
f 45/38/38 46/40/40 64/69/69 62/67/67
f 47/44/44 48/43/43 66/72/72 67/76/76
f 48/43/43 49/46/46 70/73/73 66/72/72
f 49/46/46 50/48/48 72/77/77 70/73/73
f 50/48/48 51/50/50 74/79/79 72/77/77
f 51/50/50 52/52/52 76/66/66 74/79/79
f 52/52/52 42/34/34 57/64/64 76/66/66
f 46/40/40 53/53/53 77/55/55 64/69/69
f 54/56/56 47/44/44 67/76/76 79/57/57
f 17/2/2 16/1/1 58/63/63 55/59/59
f 20/5/5 17/2/2 55/59/59 59/62/62
f 22/7/7 20/5/5 59/62/62 61/68/68
f 24/9/9 22/7/7 61/68/68 63/70/70
f 27/12/12 26/11/11 68/75/75 65/71/71
f 30/15/15 27/12/12 65/71/71 69/74/74
f 32/17/17 30/15/15 69/74/74 71/78/78
f 34/19/19 32/17/17 71/78/78 73/80/80
f 36/21/21 34/19/19 73/80/80 75/65/65
f 16/1/1 36/21/21 75/65/65 58/63/63
f 38/23/23 24/9/9 63/70/70 78/54/54
f 26/11/11 41/26/26 80/58/58 68/75/75
g default
v 1.000000 0.000000 0.000000
v 1.000000 -2.000000 0.000000
v 1.000000 0.951057 -0.309017
v 1.000000 0.809018 -0.587786
v 1.000000 1.000000 0.000000
v 1.000000 0.951057 0.309017
v 1.000000 0.809017 0.587785
v 1.000000 0.587785 0.809017
v 1.000000 0.309017 0.951057
v 1.000000 -0.000000 1.000000
v 1.000000 -2.000000 1.000000
v 1.000000 0.000000 -1.000000
v 1.000000 -2.000000 -1.000000
v 1.000000 0.309017 -0.951057
v 1.000000 0.587786 -0.809017
vt 0.559075 0.928542
vt 0.462359 0.980529
vt 0.348640 0.651556
vt 0.633902 0.849826
vt 0.679757 0.752768
vt 0.692746 0.647273
vt 0.016285 0.762354
vt 0.000000 0.655895
vt 0.065922 0.859073
vt 0.144317 0.935904
vt 0.243594 0.984620
vt 0.353443 1.000000
vt 0.339660 0.000044
vt 0.668978 0.000000
vt 0.006193 0.000088
vn 1.000000 0.000000 0.000000
vn 1.000000 0.000000 0.000000
vn 1.000000 -0.000000 0.000000
vn 1.000000 0.000000 0.000000
vn 1.000000 0.000000 0.000000
vn 1.000000 -0.000000 0.000000
vn 1.000000 0.000000 0.000000
vn 1.000000 -0.000000 0.000000
vn 1.000000 0.000000 0.000000
vn 1.000000 0.000000 0.000000
vn 1.000000 0.000000 0.000000
vn 1.000000 0.000000 0.000000
vn 1.000000 -0.000000 0.000000
vn 1.000000 -0.000000 0.000000
vn 1.000000 -0.000000 0.000000
s 1
g pCylinder1 polySurface2
usemtl initialShadingGroup
f 84/81/81 83/82/82 81/83/83
f 95/84/84 84/81/81 81/83/83
f 94/85/85 95/84/84 81/83/83
f 92/86/86 94/85/85 81/83/83
f 89/87/87 90/88/88 81/83/83
f 88/89/89 89/87/87 81/83/83
f 87/90/90 88/89/89 81/83/83
f 86/91/91 87/90/90 81/83/83
f 85/92/92 86/91/91 81/83/83
f 83/82/82 85/92/92 81/83/83
f 92/86/86 81/83/83 82/93/93 93/94/94
f 81/83/83 90/88/88 91/95/95 82/93/93
