# This file uses centimeters as units for non-parametric coordinates.

mtllib SpellCircle.mtl
g default
v 0.951057 -0.117390 -0.309017
v 0.809018 -0.117390 -0.587786
v 0.587786 -0.117390 -0.809017
v 0.309017 -0.117390 -0.951057
v 0.000000 -0.117390 -1.000000
v -0.309017 -0.117390 -0.951057
v -0.587785 -0.117390 -0.809017
v -0.809017 -0.117390 -0.587785
v -0.951057 -0.117390 -0.309017
v -1.000000 -0.117390 0.000000
v -0.951057 -0.117390 0.309017
v -0.809017 -0.117390 0.587785
v -0.587785 -0.117390 0.809017
v -0.309017 -0.117390 0.951057
v -0.000000 -0.117390 1.000000
v 0.309017 -0.117390 0.951057
v 0.587785 -0.117390 0.809017
v 0.809017 -0.117390 0.587785
v 0.951057 -0.117390 0.309017
v 1.000000 -0.117390 0.000000
v 0.951057 0.117390 -0.309017
v 0.809018 0.117390 -0.587786
v 0.587786 0.117390 -0.809017
v 0.309017 0.117390 -0.951057
v 0.000000 0.117390 -1.000000
v -0.309017 0.117390 -0.951057
v -0.587785 0.117390 -0.809017
v -0.809017 0.117390 -0.587785
v -0.951057 0.117390 -0.309017
v -1.000000 0.117390 0.000000
v -0.951057 0.117390 0.309017
v -0.809017 0.117390 0.587785
v -0.587785 0.117390 0.809017
v -0.309017 0.117390 0.951057
v -0.000000 0.117390 1.000000
v 0.309017 0.117390 0.951057
v 0.587785 0.117390 0.809017
v 0.809017 0.117390 0.587785
v 0.951057 0.117390 0.309017
v 1.000000 0.117390 0.000000
vt 0.000000 0.001527
vt 0.049976 0.001451
vt 0.099951 0.001374
vt 0.149927 0.001298
vt 0.199902 0.001222
vt 0.249878 0.001145
vt 0.299854 0.001069
vt 0.349829 0.000993
vt 0.399805 0.000916
vt 0.449780 0.000840
vt 0.499756 0.000764
vt 0.549732 0.000687
vt 0.599707 0.000611
vt 0.649683 0.000535
vt 0.699658 0.000458
vt 0.749634 0.000382
vt 0.799609 0.000305
vt 0.849585 0.000229
vt 0.899561 0.000153
vt 0.949536 0.000076
vt 0.999512 0.000000
vt 0.000488 0.320994
vt 0.050464 0.320917
vt 0.100439 0.320841
vt 0.150415 0.320765
vt 0.200391 0.320688
vt 0.250366 0.320612
vt 0.300342 0.320535
vt 0.350317 0.320459
vt 0.400293 0.320383
vt 0.450268 0.320307
vt 0.500244 0.320230
vt 0.550220 0.320154
vt 0.600195 0.320077
vt 0.650171 0.320001
vt 0.700146 0.319925
vt 0.750122 0.319848
vt 0.800098 0.319772
vt 0.850073 0.319696
vt 0.900049 0.319619
vt 0.950024 0.319543
vt 1.000000 0.319467
vn 0.951057 0.000000 -0.309016
vn 0.809017 0.000000 -0.587785
vn 0.809017 0.000000 -0.587785
vn 0.951057 0.000000 -0.309016
vn 0.587785 0.000000 -0.809017
vn 0.587785 0.000000 -0.809017
vn 0.309017 0.000000 -0.951057
vn 0.309017 0.000000 -0.951057
vn -0.000000 0.000000 -1.000000
vn -0.000000 0.000000 -1.000000
vn -0.309017 0.000000 -0.951056
vn -0.309017 0.000000 -0.951056
vn -0.587785 0.000000 -0.809017
vn -0.587785 0.000000 -0.809017
vn -0.809017 0.000000 -0.587785
vn -0.809017 0.000000 -0.587785
vn -0.951057 0.000000 -0.309017
vn -0.951057 0.000000 -0.309017
vn -1.000000 0.000000 0.000000
vn -1.000000 0.000000 0.000000
vn -0.951057 0.000000 0.309017
vn -0.951057 0.000000 0.309017
vn -0.809017 0.000000 0.587785
vn -0.809017 0.000000 0.587785
vn -0.587785 0.000000 0.809017
vn -0.587785 0.000000 0.809017
vn -0.309017 0.000000 0.951057
vn -0.309017 0.000000 0.951057
vn 0.000000 0.000000 1.000000
vn 0.000000 0.000000 1.000000
vn 0.309017 0.000000 0.951057
vn 0.309017 0.000000 0.951057
vn 0.587785 0.000000 0.809017
vn 0.587785 0.000000 0.809017
vn 0.809017 0.000000 0.587785
vn 0.809017 0.000000 0.587785
vn 0.951057 0.000000 0.309017
vn 0.951057 0.000000 0.309017
vn 1.000000 0.000000 0.000001
vn 1.000000 0.000000 0.000001
s 1
g pCylinder1
usemtl initialShadingGroup
f 1/1/1 2/2/2 22/23/3 21/22/4
f 2/2/2 3/3/5 23/24/6 22/23/3
f 3/3/5 4/4/7 24/25/8 23/24/6
f 4/4/7 5/5/9 25/26/10 24/25/8
f 5/5/9 6/6/11 26/27/12 25/26/10
f 6/6/11 7/7/13 27/28/14 26/27/12
f 7/7/13 8/8/15 28/29/16 27/28/14
f 8/8/15 9/9/17 29/30/18 28/29/16
f 9/9/17 10/10/19 30/31/20 29/30/18
f 10/10/19 11/11/21 31/32/22 30/31/20
f 11/11/21 12/12/23 32/33/24 31/32/22
f 12/12/23 13/13/25 33/34/26 32/33/24
f 13/13/25 14/14/27 34/35/28 33/34/26
f 14/14/27 15/15/29 35/36/30 34/35/28
f 15/15/29 16/16/31 36/37/32 35/36/30
f 16/16/31 17/17/33 37/38/34 36/37/32
f 17/17/33 18/18/35 38/39/36 37/38/34
f 18/18/35 19/19/37 39/40/38 38/39/36
f 19/19/37 20/20/39 40/41/40 39/40/38
f 20/20/39 1/21/1 21/42/4 40/41/40
