# This file uses centimeters as units for non-parametric coordinates.

mtllib SwampStonePillar_1.mtl
g default
v -0.481976 0.000000 0.500000
v 0.518024 0.000000 0.500000
v -0.481976 0.470048 0.500000
v 0.518024 0.470048 0.500000
v -0.481976 0.470048 -0.500000
v 0.518024 0.470048 -0.500000
v -0.481976 0.000000 -0.500000
v 0.518024 0.000000 -0.500000
v -0.413071 0.525267 0.431096
v 0.449119 0.525267 0.431096
v 0.449119 0.525267 -0.431095
v -0.413071 0.525267 -0.431095
v -0.444185 0.876336 0.462209
v 0.480233 0.876336 0.462209
v 0.480233 0.876336 -0.462209
v -0.444185 0.876336 -0.462209
v -0.500385 0.957775 0.518409
v 0.536433 0.957775 0.518409
v 0.536433 0.957775 -0.518409
v -0.500385 0.957775 -0.518409
v -0.488801 1.297037 0.506826
v 0.524849 1.297037 0.506826
v 0.524849 1.297037 -0.506825
v -0.488801 1.297037 -0.506825
v -0.325266 1.335291 0.343291
v 0.361314 1.335291 0.343291
v 0.361314 1.335291 -0.343291
v -0.325266 1.335291 -0.343291
v -0.325266 1.570540 0.343291
v 0.361314 1.570540 0.343291
v 0.361314 1.570540 -0.343291
v -0.325266 1.570540 -0.343291
v -0.440030 1.633739 0.458054
v 0.476078 1.633739 0.458054
v 0.476078 1.633739 -0.458054
v -0.440030 1.633739 -0.458054
v -0.440030 2.108980 0.458054
v -0.440030 2.108980 -0.458054
v -0.402912 2.183515 0.420937
v -0.402912 2.183515 -0.420937
v -0.402912 2.438933 0.420937
v -0.402912 2.438933 -0.420937
v -0.536433 2.561326 0.554458
v -0.536433 2.561326 -0.554458
v -0.536433 2.971009 0.554458
v -0.536433 2.971009 -0.554458
v -0.216818 2.971009 0.554458
v -0.216818 2.971009 -0.554458
v 0.188558 2.561326 0.554458
v 0.248639 2.438933 0.420937
v 0.340765 2.183515 0.420937
v 0.400847 2.108980 0.458054
v 0.136487 2.732117 0.554458
v 0.215383 2.561326 -0.554458
v 0.243604 2.438933 -0.420937
v 0.346904 2.183515 -0.420937
v 0.403777 2.108980 -0.458054
v 0.154017 2.732142 -0.554458
v -0.536433 2.971009 0.332675
v -0.216818 2.971009 0.360776
v 0.139993 2.732122 0.453862
v 0.193923 2.561326 0.332675
v 0.247632 2.438933 0.183520
v 0.341993 2.183515 0.250366
v 0.401433 2.108980 0.281498
v 0.476078 1.633739 0.274833
v 0.373984 2.106654 0.054967
v 0.258245 2.150296 0.050512
v 0.043293 2.438933 0.050512
v -0.149335 2.628763 0.306061
v -0.311668 2.902363 0.306061
v 0.476078 1.633739 -0.304148
v 0.403285 2.108980 -0.304148
v 0.345872 2.183515 -0.279502
v 0.210876 2.561326 -0.214352
v 0.151072 2.732138 -0.368160
v -0.216818 2.971009 -0.448043
v -0.536433 2.971009 -0.368160
v -0.311668 2.902363 -0.324691
v -0.144433 2.665284 -0.324691
v -0.011896 2.561326 -0.324691
v -0.066824 2.561326 0.306061
vt 0.465453 0.147515
vt 0.229487 0.261727
vt 0.465471 0.260252
vt 0.676107 0.033964
vt 0.352734 0.260270
vt 0.676772 0.147124
vt 0.342156 0.148921
vt 0.789933 0.146460
vt 0.457705 0.275608
vt 0.660741 0.041852
vt 0.661314 0.139417
vt 0.360504 0.275623
vt 0.461226 0.359881
vt 0.576129 0.038833
vt 0.576744 0.143432
vt 0.357010 0.359898
vt 0.467565 0.380415
vt 0.555480 0.032598
vt 0.556169 0.149910
vt 0.350677 0.380433
vt 0.466272 0.461795
vt 0.473804 0.034409
vt 0.474473 0.149063
vt 0.351996 0.461813
vt 0.447839 0.482391
vt 0.453243 0.053045
vt 0.453693 0.130671
vt 0.370435 0.482403
vt 0.447847 0.538814
vt 0.396624 0.053508
vt 0.397041 0.130877
vt 0.370444 0.538826
vt 0.460789 0.558740
vt 0.376801 0.040733
vt 0.377289 0.143925
vt 0.357509 0.558756
vt 0.460806 0.672723
vt 0.357527 0.672739
vt 0.456625 0.691084
vt 0.361714 0.691098
vt 0.456634 0.752344
vt 0.361724 0.752359
vt 0.793282 0.643819
vt 0.658778 0.878048
vt 0.008628 0.018467
vt 0.346691 0.883610
vt 0.830263 0.741726
vt 0.756687 0.915020
vt 0.157153 0.012081
vt 0.184688 0.033120
vt 0.244655 0.042770
vt 0.262960 0.040039
vt 0.869538 0.684047
vt 0.152041 0.171984
vt 0.182427 0.152542
vt 0.244917 0.143130
vt 0.263518 0.145780
vt 0.698999 0.956276
vt 0.018693 0.043197
vt 0.046079 0.026908
vt 0.114152 0.016077
vt 0.154142 0.037287
vt 0.181048 0.060214
vt 0.242919 0.062067
vt 0.262250 0.060140
vt 0.376652 0.061411
vt 0.261251 0.086531
vt 0.244246 0.087298
vt 0.169940 0.087556
vt 0.118667 0.056632
vt 0.049550 0.046480
vt 0.376992 0.126507
vt 0.262855 0.128326
vt 0.243608 0.127116
vt 0.151433 0.133160
vt 0.108569 0.152738
vt 0.040146 0.145385
vt 0.014719 0.122777
vt 0.046492 0.121941
vt 0.104693 0.117655
vt 0.131212 0.120417
vt 0.136680 0.058163
vt 0.808015 0.610686
vt 0.807423 0.549429
vt 0.803061 0.531110
vt 0.801958 0.417133
vt 0.814703 0.397080
vt 0.814157 0.340660
vt 0.795523 0.320246
vt 0.793430 0.238882
vt 0.799567 0.218288
vt 0.802259 0.133983
vt 0.794343 0.118705
vt 0.471692 0.785331
vt 0.367694 0.883606
vt 0.757032 0.878989
vt 0.004883 0.142017
vt 0.446704 0.883594
vt 0.657966 0.962802
vt 0.106658 0.173240
vt 0.036759 0.156800
vt 0.897854 0.530193
vt 0.905233 0.416134
vt 0.891259 0.548618
vt 0.881466 0.609976
vt 0.875012 0.643029
vt 0.114791 0.004883
vt 0.043354 0.005696
vt 0.794232 0.742074
vt 0.471708 0.883590
vt 0.346676 0.785350
vt 0.625646 0.892784
vt 0.564388 0.892198
vt 0.546069 0.887837
vt 0.432092 0.886746
vt 0.412040 0.899493
vt 0.355620 0.898952
vt 0.335204 0.880320
vt 0.253841 0.878235
vt 0.233246 0.884373
vt 0.148942 0.887074
vt 0.133663 0.879159
vt 0.020931 0.878080
vt 0.352716 0.147533
vt 0.793253 0.005973
vt 0.229419 0.148990
vt 0.342224 0.261658
vt 0.905985 0.004883
vt 0.354879 0.976352
vt 0.891557 0.339911
vt 0.892103 0.396331
vt 0.334110 0.994591
vt 0.909794 0.319140
vt 0.252721 0.995117
vt 0.910312 0.237752
vt 0.232249 0.988585
vt 0.903778 0.217280
vt 0.148012 0.984271
vt 0.899456 0.133043
vt 0.132584 0.991891
vt 0.907075 0.117615
vt 0.019852 0.990812
vt 0.789268 0.033299
vt 0.545158 0.982962
vt 0.431103 0.990021
vt 0.563579 0.976726
vt 0.624948 0.965667
vt 0.411299 0.976892
vn 0.000000 0.000000 1.000000
vn 0.000000 0.000000 1.000000
vn 0.000000 0.000000 1.000000
vn 0.000000 0.000000 1.000000
vn 0.000000 0.000000 -1.000000
vn 0.000000 0.000000 -1.000000
vn 0.000000 0.000000 -1.000000
vn 0.000000 0.000000 -1.000000
vn 0.000000 0.780338 0.625358
vn 0.000000 0.780338 0.625358
vn 0.000000 0.780338 0.625358
vn 0.000000 0.780338 0.625358
vn 0.000000 0.780338 -0.625358
vn 0.000000 0.780338 -0.625358
vn 0.000000 0.780338 -0.625358
vn 0.000000 0.780338 -0.625358
vn 0.000000 -0.088280 0.996096
vn 0.000000 -0.088280 0.996096
vn 0.000000 -0.088280 0.996096
vn 0.000000 -0.088280 0.996096
vn 0.000000 -0.088280 -0.996096
vn 0.000000 -0.088280 -0.996096
vn 0.000000 -0.088280 -0.996096
vn 0.000000 -0.088280 -0.996096
vn 0.000000 -0.567974 0.823046
vn 0.000000 -0.567974 0.823046
vn 0.000000 -0.567974 0.823047
vn 0.000000 -0.567974 0.823047
vn 0.000000 -0.567974 -0.823047
vn 0.000000 -0.567974 -0.823047
vn 0.000000 -0.567974 -0.823047
vn 0.000000 -0.567974 -0.823047
vn 0.000000 0.034124 0.999418
vn 0.000000 0.034124 0.999418
vn 0.000000 0.034124 0.999418
vn 0.000000 0.034124 0.999418
vn 0.000000 0.034124 -0.999418
vn 0.000000 0.034124 -0.999418
vn 0.000000 0.034124 -0.999418
vn 0.000000 0.034124 -0.999418
vn 0.000000 0.973714 0.227773
vn 0.000000 0.973714 0.227773
vn 0.000000 0.973714 0.227773
vn 0.000000 0.973714 0.227773
vn 0.000000 0.973714 -0.227773
vn 0.000000 0.973714 -0.227773
vn 0.000000 0.973714 -0.227773
vn 0.000000 0.973714 -0.227773
vn 0.000000 0.000000 1.000000
vn 0.000000 0.000000 1.000000
vn 0.000000 0.000000 1.000000
vn 0.000000 0.000000 1.000000
vn 0.000000 0.000000 -1.000000
vn 0.000000 0.000000 -1.000000
vn 0.000000 0.000000 -1.000000
vn 0.000000 0.000000 -1.000000
vn 0.000000 -0.875962 0.482380
vn 0.000000 -0.875962 0.482380
vn 0.000000 -0.875962 0.482380
vn 0.000000 -0.875962 0.482380
vn 0.000000 -0.875962 -0.482380
vn 0.000000 -0.875962 -0.482380
vn 0.000000 -0.875962 -0.482380
vn 0.000000 -0.875962 -0.482380
vn 0.000000 0.000000 -1.000000
vn 0.000000 0.000000 -1.000000
vn 0.000000 0.000000 -1.000000
vn 0.000000 0.000000 -1.000000
vn 0.000000 0.445772 -0.895146
vn 0.000000 0.445772 -0.895146
vn 0.000000 0.445772 -0.895146
vn 0.000000 0.445772 -0.895146
vn 0.000000 0.000000 -1.000000
vn 0.000000 0.000000 -1.000000
vn 0.000000 0.000000 -1.000000
vn 0.000000 0.000000 -1.000000
vn 0.000000 -0.737159 -0.675719
vn 0.000000 -0.737159 -0.675719
vn 0.000000 -0.737159 -0.675719
vn 0.000000 -0.737159 -0.675719
vn 0.000000 0.000001 -1.000000
vn 0.000000 -0.000000 -1.000000
vn 0.000000 0.000000 -1.000000
vn 0.000000 -0.000000 -1.000000
vn 0.000000 0.000000 -1.000000
vn 0.000000 0.000000 1.000000
vn 0.000000 0.000000 1.000000
vn 0.000000 0.000000 1.000000
vn 0.000000 0.000000 1.000000
vn 0.000000 0.000000 1.000000
vn 0.000000 -0.737160 0.675719
vn 0.000000 -0.737160 0.675719
vn 0.000000 -0.737160 0.675719
vn 0.000000 -0.737160 0.675719
vn 0.000000 0.000000 1.000000
vn 0.000000 0.000000 1.000000
vn 0.000000 0.000000 1.000000
vn 0.000000 0.000000 1.000000
vn 0.000000 0.445773 0.895146
vn 0.000000 0.445773 0.895146
vn 0.000000 0.445773 0.895146
vn 0.000000 0.445773 0.895146
vn 0.000000 0.000000 1.000000
vn 0.000000 0.000000 1.000000
vn 0.000000 0.000000 1.000000
vn 0.000000 0.000000 1.000000
vn 0.629809 0.770584 -0.097677
vn 0.629810 0.770584 -0.097677
vn 0.629809 0.770584 -0.097677
vn -1.000000 0.000000 0.000000
vn -1.000000 0.000000 0.000000
vn -1.000000 0.000000 0.000000
vn 0.000000 1.000000 0.000000
vn 0.000000 1.000000 0.000000
vn 0.000000 1.000000 0.000000
vn 0.000000 1.000000 0.000000
vn 0.557615 0.830073 0.006657
vn 0.557615 0.830073 0.006657
vn 0.557615 0.830073 0.006657
vn 0.557615 0.830073 0.006657
vn 0.957347 0.287736 0.026348
vn 0.957347 0.287736 0.026348
vn 0.957347 0.287736 0.026348
vn 0.957347 0.287736 0.026348
vn 0.910554 0.413299 0.008641
vn 0.910554 0.413299 0.008641
vn 0.910554 0.413299 0.008641
vn 0.910554 0.413299 0.008641
vn 0.939341 0.342984 0.000508
vn 0.939341 0.342984 0.000508
vn 0.939341 0.342984 0.000508
vn 0.939341 0.342984 0.000508
vn 0.779272 0.626672 0.004072
vn 0.779272 0.626672 0.004072
vn 0.779272 0.626672 0.004072
vn 0.779272 0.626672 0.004072
vn 0.987796 0.155748 0.001609
vn 0.987796 0.155748 0.001609
vn 0.987796 0.155748 0.001609
vn 0.987796 0.155748 0.001609
vn 0.482381 -0.875961 0.000000
vn 0.482381 -0.875962 0.000000
vn 0.482381 -0.875962 0.000000
vn 0.985195 0.150902 0.081362
vn 0.985195 0.150902 0.081362
vn 0.985195 0.150902 0.081362
vn 0.340667 0.922148 0.183276
vn 0.411829 0.895060 0.171070
vn 0.720505 0.686601 0.097223
vn 0.801258 0.594301 0.069226
vn 0.919957 0.281699 0.272627
vn 0.919957 0.281699 0.272627
vn 0.919957 0.281699 0.272627
vn 0.112267 0.143129 0.983316
vn -0.103764 0.337128 0.935723
vn -0.240103 0.448211 0.861080
vn -0.371877 0.545874 0.750819
vn 0.125356 0.088427 0.988163
vn 0.207633 0.329202 0.921149
vn 0.263134 0.505461 0.821748
vn 0.318342 0.702972 0.635995
vn 0.140386 0.815348 0.561693
vn 0.140386 0.815348 0.561693
vn 0.140386 0.815348 0.561693
vn 0.482381 -0.875962 0.000000
vn 0.482381 -0.875962 0.000000
vn 0.482381 -0.875962 0.000000
vn 0.988547 0.150904 0.001581
vn 0.988547 0.150904 0.001581
vn 0.988547 0.150904 0.001581
vn 0.988547 0.150904 0.001581
vn 0.794420 0.607355 0.004098
vn 0.794420 0.607355 0.004098
vn 0.794420 0.607355 0.004098
vn 0.794420 0.607355 0.004098
vn 0.937159 0.344445 -0.055601
vn 0.932937 0.359093 -0.026095
vn 0.936095 0.348532 -0.047450
vn 0.927032 0.374921 0.006758
vn 0.971186 0.237975 0.012869
vn 0.971186 0.237975 0.012869
vn 0.971186 0.237975 0.012869
vn 0.940487 0.339570 0.013316
vn 0.940486 0.339570 0.013316
vn 0.940486 0.339570 0.013316
vn 0.940487 0.339570 0.013316
vn 0.542617 0.839963 0.005469
vn 0.542617 0.839963 0.005469
vn 0.542617 0.839963 0.005469
vn 0.542617 0.839963 0.005469
vn 0.000000 1.000000 0.000000
vn 0.000000 1.000000 0.000000
vn 0.000000 1.000000 0.000000
vn 0.000000 1.000000 0.000000
vn -1.000000 0.000000 0.000000
vn -1.000000 0.000000 0.000000
vn -1.000000 0.000000 0.000000
vn 1.000000 0.000000 0.000000
vn 1.000000 0.000000 0.000000
vn 1.000000 0.000000 0.000000
vn 1.000000 0.000000 0.000000
vn 0.000000 -1.000000 0.000000
vn 0.000000 -1.000000 0.000000
vn 0.000000 -1.000000 0.000000
vn 0.000000 -1.000000 0.000000
vn -1.000000 0.000000 0.000000
vn -1.000000 0.000000 0.000000
vn -1.000000 0.000000 0.000000
vn -1.000000 0.000000 0.000000
vn -0.625356 0.780340 0.000000
vn -0.625356 0.780340 0.000000
vn -0.625356 0.780340 0.000000
vn -0.625356 0.780340 0.000000
vn -0.996096 -0.088279 0.000000
vn -0.996096 -0.088279 0.000000
vn -0.996096 -0.088279 0.000000
vn -0.996096 -0.088279 0.000000
vn -0.823046 -0.567975 0.000000
vn -0.823046 -0.567975 0.000000
vn -0.823046 -0.567975 0.000000
vn -0.823046 -0.567975 0.000000
vn -0.999418 0.034123 0.000000
vn -0.999418 0.034123 0.000000
vn -0.999418 0.034123 0.000000
vn -0.999418 0.034123 0.000000
vn -0.227772 0.973715 0.000000
vn -0.227772 0.973714 0.000000
vn -0.227772 0.973714 0.000000
vn -0.227772 0.973715 0.000000
vn -1.000000 0.000000 0.000000
vn -1.000000 0.000000 0.000000
vn -1.000000 0.000000 0.000000
vn -1.000000 0.000000 0.000000
vn -0.482381 -0.875962 0.000000
vn -0.482381 -0.875962 0.000000
vn -0.482381 -0.875962 0.000000
vn -0.482381 -0.875962 0.000000
vn -1.000000 0.000000 0.000000
vn -1.000000 0.000000 0.000000
vn -1.000000 0.000000 0.000000
vn -1.000000 0.000000 0.000000
vn -0.895144 0.445777 0.000000
vn -0.895144 0.445777 0.000000
vn -0.895144 0.445777 0.000000
vn -0.895144 0.445777 0.000000
vn -0.675720 -0.737158 0.000000
vn -0.675720 -0.737158 0.000000
vn -0.675720 -0.737158 0.000000
vn -0.675720 -0.737158 0.000000
vn -1.000000 0.000000 0.000000
vn -1.000000 0.000000 0.000000
vn -1.000000 0.000000 0.000000
vn -1.000000 0.000000 0.000000
vn 0.292094 0.956390 0.000000
vn 0.292094 0.956390 0.000000
vn 0.292094 0.956390 0.000000
vn 0.292094 0.956390 0.000000
vn 0.859451 0.509934 0.036205
vn 0.831109 0.555993 0.011378
vn 0.849226 0.527341 0.026951
vn 0.817153 0.576420 0.000000
vn 0.730922 0.680968 0.045109
vn 0.723305 0.688458 0.053438
vn 0.691370 0.717268 0.086797
vn 0.608849 0.776223 0.163650
vn -0.162209 0.930824 0.327498
vn -0.162209 0.930824 0.327498
vn -0.162209 0.930824 0.327498
vn 0.631343 0.470170 0.616722
vn 0.631343 0.470170 0.616722
vn 0.631343 0.470170 0.616722
vn 0.977482 0.211020 0.000000
vn 0.977482 0.211020 0.000000
vn 0.977482 0.211020 0.000000
vn 0.482381 -0.875961 0.000000
vn 0.482381 -0.875961 0.000000
vn 0.482381 -0.875962 0.000000
vn 0.482381 -0.875962 0.000000
vn 1.000000 0.000000 0.000000
vn 1.000000 0.000000 0.000000
vn 1.000000 0.000000 0.000000
vn 1.000000 0.000000 0.000000
vn 0.227772 0.973714 0.000000
vn 0.227772 0.973715 0.000000
vn 0.227772 0.973715 0.000000
vn 0.227772 0.973714 0.000000
vn 0.999418 0.034123 0.000000
vn 0.999418 0.034123 0.000000
vn 0.999418 0.034123 0.000000
vn 0.999418 0.034123 0.000000
vn 0.823046 -0.567974 0.000000
vn 0.823046 -0.567974 0.000000
vn 0.823046 -0.567974 0.000000
vn 0.823046 -0.567974 0.000000
vn 0.996096 -0.088279 0.000000
vn 0.996096 -0.088279 0.000000
vn 0.996096 -0.088279 0.000000
vn 0.996096 -0.088279 0.000000
vn 0.625356 0.780340 0.000000
vn 0.625356 0.780340 0.000000
vn 0.625356 0.780340 0.000000
vn 0.625356 0.780340 0.000000
vn 0.072663 0.558323 -0.826435
vn 0.072663 0.558323 -0.826435
vn 0.072663 0.558323 -0.826435
vn 0.373390 0.205181 -0.904699
vn 0.377748 0.221717 -0.898970
vn 0.376557 0.217158 -0.900582
vn 0.378489 0.224567 -0.897951
vn 0.179189 0.606314 -0.774774
vn 0.177085 0.590689 -0.787228
vn 0.169671 0.537696 -0.825890
vn 0.100767 0.123290 -0.987241
vn 0.339011 0.783465 -0.520821
vn 0.138283 0.879520 -0.455327
vn 0.139819 0.878975 -0.455911
vn 0.042522 0.908095 -0.416600
vn 0.885976 0.220554 -0.407924
vn 0.736160 0.305395 -0.603989
vn 0.640265 0.340779 -0.688426
vn 0.505412 0.376388 -0.776460
vn 0.798175 0.593588 -0.102812
vn 0.459781 0.849465 -0.258862
vn 0.679354 0.713941 -0.169606
vn 0.347154 0.890691 -0.293518
vn 0.980442 0.155683 -0.120400
vn 0.980442 0.155683 -0.120400
vn 0.980442 0.155683 -0.120400
vn -1.000000 0.000000 0.000000
vn -1.000000 0.000000 0.000000
vn -1.000000 0.000000 0.000000
vn -1.000000 0.000000 0.000000
s off
g SwampStonePillar_1 CompletedStuff
usemtl initialShadingGroup
f 1/125/1 2/128/2 4/141/3 3/93/4
f 5/122/5 6/140/6 8/142/7 7/123/8
f 3/93/9 4/141/10 10/139/11 9/92/12
f 6/140/13 5/122/14 12/121/15 11/138/16
f 9/92/17 10/139/18 14/137/19 13/91/20
f 11/138/21 12/121/22 16/120/23 15/136/24
f 13/91/25 14/137/26 18/135/27 17/90/28
f 15/136/29 16/120/30 20/119/31 19/134/32
f 17/90/33 18/135/34 22/133/35 21/89/36
f 19/134/37 20/119/38 24/118/39 23/132/40
f 21/89/41 22/133/42 26/130/43 25/88/44
f 23/132/45 24/118/46 28/117/47 27/129/48
f 25/88/49 26/130/50 30/131/51 29/87/52
f 27/129/53 28/117/54 32/116/55 31/148/56
f 29/87/57 30/131/58 34/103/59 33/86/60
f 31/148/61 32/116/62 36/115/63 35/145/64
f 35/145/65 36/115/66 38/114/67 57/144/68
f 56/146/69 57/144/70 38/114/71 40/113/72
f 55/147/73 56/146/74 40/113/75 42/112/76
f 54/99/77 55/147/78 42/112/79 44/44/80
s 1
f 54/99/81 44/44/82 58/58/83
f 58/58/83 44/44/82 48/48/84
f 48/48/84 44/44/82 46/96/85
s 2
f 49/106/86 53/53/87 43/43/88
f 53/53/87 47/47/89 43/43/88
f 43/43/88 47/47/89 45/109/90
s off
f 41/83/91 50/105/92 49/106/93 43/43/94
f 39/84/95 51/104/96 50/105/97 41/83/98
f 37/85/99 52/102/100 51/104/101 39/84/102
f 33/86/103 34/103/104 52/102/105 37/85/106
f 70/70/107 82/82/108 69/69/109
f 59/98/110 43/94/111 45/110/112
f 45/45/113 47/108/114 60/60/115 59/59/116
f 47/108/117 53/107/118 61/61/119 60/60/120
f 53/107/121 49/49/122 62/62/123 61/61/124
f 49/49/125 50/50/126 63/63/127 62/62/128
f 50/50/129 51/51/130 64/64/131 63/63/132
f 51/51/133 52/52/134 65/65/135 64/64/136
f 52/52/137 34/34/138 66/66/139 65/65/140
f 30/30/141 66/66/142 34/34/143
f 67/67/144 72/72/145 73/73/146
s 3
f 68/68/147 67/67/148 74/74/149
f 74/74/149 67/67/148 73/73/150
s off
f 75/75/151 68/68/152 74/74/153
s 4
f 80/80/154 81/81/155 76/76/156
f 76/76/156 81/81/155 75/75/157
s 5
f 80/80/158 76/76/159 79/79/160
f 79/79/160 76/76/159 77/77/161
s off
f 78/78/162 79/79/163 77/77/164
f 72/72/165 31/31/166 35/35/167
f 73/73/168 72/72/169 35/35/170 57/57/171
f 74/74/172 73/73/173 57/57/174 56/56/175
s 6
f 75/75/176 74/74/177 55/55/178
f 55/55/178 74/74/177 56/56/179
s off
f 75/75/180 55/55/181 54/54/182
f 76/76/183 75/75/184 54/54/185 58/100/186
f 77/77/187 76/76/188 58/100/189 48/101/190
f 78/78/191 77/77/192 48/101/193 46/97/194
f 44/111/195 78/95/196 46/46/197
f 4/4/198 2/143/199 8/8/200 6/6/201
f 7/7/202 8/127/203 2/2/204 1/126/205
f 5/5/206 7/124/207 1/1/208 3/3/209
f 12/12/210 5/5/211 3/3/212 9/9/213
f 16/16/214 12/12/215 9/9/216 13/13/217
f 20/20/218 16/16/219 13/13/220 17/17/221
f 24/24/222 20/20/223 17/17/224 21/21/225
f 28/28/226 24/24/227 21/21/228 25/25/229
f 32/32/230 28/28/231 25/25/232 29/29/233
f 36/36/234 32/32/235 29/29/236 33/33/237
f 38/38/238 36/36/239 33/33/240 37/37/241
f 40/40/242 38/38/243 37/37/244 39/39/245
f 44/111/246 42/42/247 41/41/248 43/94/249
f 78/95/250 44/111/251 43/94/252 59/98/253
f 59/59/254 71/71/255 79/79/256 78/78/257
s 7
f 70/70/258 80/80/259 71/71/260
f 71/71/260 80/80/259 79/79/261
s 8
f 70/70/262 69/69/263 80/80/264
f 80/80/264 69/69/263 81/81/265
s off
f 69/69/266 75/75/267 81/81/268
f 69/69/269 68/68/270 75/75/271
f 67/67/272 66/66/273 72/72/274
f 66/66/275 30/30/276 31/31/277 72/72/278
f 30/30/279 26/26/280 27/27/281 31/31/282
f 26/26/283 22/22/284 23/23/285 27/27/286
f 22/22/287 18/18/288 19/19/289 23/23/290
f 18/18/291 14/14/292 15/15/293 19/19/294
f 14/14/295 10/10/296 11/11/297 15/15/298
f 10/10/299 4/4/300 6/6/301 11/11/302
f 59/59/303 60/60/304 71/71/305
s 9
f 60/60/306 61/61/307 71/71/308
f 71/71/308 61/61/307 70/70/309
s 10
f 61/61/310 62/62/311 70/70/312
f 70/70/312 62/62/311 82/82/313
s 11
f 63/63/314 69/69/315 62/62/316
f 62/62/316 69/69/315 82/82/317
s 12
f 64/64/318 68/68/319 63/63/320
f 63/63/320 68/68/319 69/69/321
s 13
f 65/65/322 67/67/323 64/64/324
f 64/64/324 67/67/323 68/68/325
s off
f 65/65/326 66/66/327 67/67/328
f 39/39/329 41/41/330 42/42/331 40/40/332
