# This file uses centimeters as units for non-parametric coordinates.

mtllib SwampPlank_2.mtl
g default
v -1.959261 0.000000 0.321760
v 1.959261 0.000000 0.241613
v -1.959261 0.107736 0.321760
v 1.959261 0.107736 0.241613
v -1.959261 0.107736 -0.241613
v 1.959261 0.107736 -0.328615
v -1.959261 0.000000 -0.241613
v 1.959261 0.000000 -0.328615
v 0.870338 0.000000 0.203485
v 0.000000 0.000000 -0.288029
v 0.000000 0.107736 -0.288029
v 0.870338 0.107736 0.203485
v -2.000000 0.107736 0.080147
v 0.000000 0.122914 0.000000
v 2.000000 0.107736 0.000000
v 2.000000 0.000000 0.000000
v 0.000000 -0.015178 0.000000
v -2.000000 0.000000 0.080147
v -1.800000 0.000000 0.368176
v -1.800000 -0.015178 0.080147
v -1.800000 0.000000 -0.288029
v -1.800000 0.107736 -0.288029
v -1.800000 0.122914 0.080146
v -1.800000 0.107736 0.368176
v 1.800000 0.000000 0.288029
v 1.800000 -0.015178 -0.000000
v 1.800000 0.000000 -0.375031
v 1.800000 0.107736 -0.375031
v 1.800000 0.122914 0.000000
v 1.800000 0.107736 0.288029
v -1.986484 0.053868 0.346385
v -1.825011 0.053868 0.397531
v 0.870338 0.053868 0.232841
v 1.825011 0.053868 0.317384
v 1.986484 0.053868 0.266238
v 2.027790 0.053868 0.000000
v 1.986484 0.053868 -0.353240
v 1.825011 0.053868 -0.404387
v 0.000000 0.053868 -0.317384
v -1.825011 0.053868 -0.317384
v -1.986484 0.053868 -0.266238
v -2.027790 0.053868 0.080147
v -0.720000 -0.015178 0.000000
v -0.720000 0.000000 0.288029
v -0.730004 0.053868 0.317384
v -0.720000 0.107736 0.288029
v -0.720000 0.122914 0.000000
v -0.720000 0.107736 -0.288029
v -0.730004 0.053868 -0.317384
v -0.720000 0.000000 -0.288029
v -0.504000 -0.015178 0.000000
v -0.504000 0.000000 0.288029
v -0.511003 0.053868 0.317384
v -0.504000 0.107736 0.288029
v -0.504000 0.122914 0.000000
v -0.455119 0.107736 -0.147256
v -0.458687 0.053868 -0.176611
v -0.455119 0.000000 -0.147256
v -0.403200 -0.015178 0.000000
v -0.403200 0.000000 0.288029
v -0.408802 0.053868 0.317384
v -0.403200 0.107736 0.288029
v -0.403200 0.122914 0.000000
v -0.161280 -0.015178 0.000000
v -0.161280 0.000000 0.288029
v -0.163521 0.053868 0.317384
v -0.161280 0.107736 0.288029
v -0.161280 0.122914 0.000000
v -0.161280 0.107736 -0.288029
v -0.163521 0.053868 -0.317384
v -0.161280 0.000000 -0.288029
vt 0.150399 0.405899
vt 0.979678 0.335738
vt 0.013509 0.184519
vt 0.973674 0.181151
vt 0.009578 0.371522
vt 0.977048 0.320848
vt 0.016759 0.015585
vt 0.977045 0.017238
vt 0.013511 0.153608
vt 0.973676 0.156935
vt 0.752327 0.150408
vt 0.752349 0.180770
vt 0.010135 0.405918
vt 0.010115 0.436296
vt 0.709625 0.336657
vt 0.707186 0.141272
vt 0.496950 0.015516
vt 0.496954 0.322591
vt 0.707184 0.196826
vt 0.089950 0.435885
vt 0.004883 0.243951
vt 0.495246 0.251951
vt 0.985124 0.240102
vt 0.670852 0.180377
vt 0.985124 0.097984
vt 0.670830 0.150921
vt 0.495245 0.086156
vt 0.089969 0.406433
vt 0.004883 0.094176
vt 0.709667 0.366747
vt 0.610425 0.180992
vt 0.979722 0.366911
vt 0.506214 0.371982
vt 0.990396 0.371429
vt 0.506216 0.402121
vt 0.990399 0.402607
vt 0.610402 0.150394
vt 0.012173 0.337100
vt 0.012216 0.368255
vt 0.150379 0.436499
vt 0.009580 0.402650
vt 0.016762 0.322542
vt 0.054066 0.337745
vt 0.052257 0.165944
vt 0.053983 0.095323
vt 0.056040 0.005090
vt 0.051395 0.402246
vt 0.051393 0.371921
vt 0.056044 0.333035
vt 0.053983 0.242802
vt 0.052254 0.172181
vt 0.054107 0.367494
vt 0.937770 0.336553
vt 0.934389 0.167411
vt 0.936025 0.096789
vt 0.938307 0.004883
vt 0.948446 0.401976
vt 0.948444 0.372066
vt 0.938311 0.333205
vt 0.936025 0.241299
vt 0.934386 0.170676
vt 0.937811 0.366214
vt 0.155383 0.421202
vt 0.007471 0.352684
vt 0.048381 0.352627
vt 0.709655 0.351702
vt 0.943540 0.351375
vt 0.984431 0.351318
vt 0.605420 0.165697
vt 0.670906 0.165649
vt 0.995117 0.387018
vt 0.757595 0.165585
vt 0.954100 0.387020
vt 0.506497 0.387052
vt 0.045976 0.387084
vt 0.004883 0.421103
vt 0.004883 0.387087
vt 0.089898 0.421159
vt 0.318909 0.081938
vt 0.319107 0.337278
vt 0.317235 0.152583
vt 0.316342 0.352252
vt 0.317233 0.185532
vt 0.319149 0.367219
vt 0.318910 0.256176
vt 0.317204 0.372330
vt 0.320560 0.326813
vt 0.313634 0.387065
vt 0.320556 0.011301
vt 0.317207 0.401800
vt 0.371810 0.083201
vt 0.371964 0.337133
vt 0.370128 0.153837
vt 0.370259 0.352177
vt 0.370126 0.184275
vt 0.372006 0.367215
vt 0.371810 0.254911
vt 0.387960 0.372093
vt 0.384647 0.290876
vt 0.387098 0.387060
vt 0.384645 0.047236
vt 0.387962 0.402026
vt 0.396497 0.083790
vt 0.396681 0.337076
vt 0.394812 0.154425
vt 0.395318 0.352142
vt 0.394809 0.183687
vt 0.396723 0.367203
vt 0.396497 0.254321
vt 0.455746 0.085202
vt 0.456194 0.337064
vt 0.454052 0.155837
vt 0.455289 0.352058
vt 0.454049 0.182271
vt 0.456236 0.367049
vt 0.455746 0.252907
vt 0.465960 0.372372
vt 0.457462 0.323546
vt 0.467115 0.387054
vt 0.457457 0.014563
vt 0.465962 0.401737
vn -0.043729 0.472491 0.880250
vn -0.006489 -0.000000 0.999979
vn 0.291018 -0.000000 0.956718
vn 0.247287 0.527216 0.812953
vn 0.002685 0.999029 -0.043976
vn 0.003634 0.999973 -0.006455
vn 0.045762 0.998952 -0.000421
vn 0.045313 0.998681 -0.024165
vn 0.291018 0.000000 -0.956717
vn -0.005549 0.000000 -0.999985
vn -0.024847 0.475167 -0.879545
vn 0.247287 0.527216 -0.812953
vn 0.045762 -0.998952 -0.000421
vn 0.003634 -0.999973 -0.006455
vn 0.002685 -0.999029 -0.043976
vn 0.045313 -0.998681 -0.024165
vn 0.879104 0.476629 0.000736
vn 1.000000 -0.000000 -0.000780
vn 0.992839 -0.000000 -0.119464
vn 0.875693 0.471233 -0.105368
vn -0.992545 0.000000 -0.121879
vn -1.000000 0.000000 -0.000741
vn -0.878970 0.476877 0.000700
vn -0.875287 0.471508 -0.107481
vn -0.005539 -0.999983 0.002000
vn -0.007154 -0.999027 -0.043530
vn 0.000327 -0.998836 -0.048226
vn 0.002030 -0.999995 -0.002443
vn 0.116983 0.463823 -0.878170
vn 0.076476 -0.000000 -0.997071
vn -0.055603 -0.000000 -0.998453
vn -0.024216 0.484716 -0.874336
vn -0.007154 0.999027 -0.043530
vn -0.005539 0.999983 0.002000
vn 0.002030 0.999995 -0.002443
vn 0.000327 0.998836 -0.048226
vn 0.035139 0.469675 0.882140
vn 0.002850 0.000000 0.999996
vn 0.063433 0.000000 0.997986
vn 0.052023 0.464775 0.883899
vn -0.001886 0.998734 0.050272
vn 0.003279 0.998609 0.052622
vn 0.003512 0.998105 0.061436
vn 0.046337 0.998408 0.032175
vn 0.987200 0.000000 0.159485
vn 0.868447 0.475517 0.140300
vn 0.003512 -0.998105 0.061436
vn 0.046337 -0.998408 0.032175
vn -0.001886 -0.998734 0.050273
vn 0.003279 -0.998609 0.052622
vn -0.987200 0.000000 0.159485
vn -0.868446 0.475518 0.140300
vn -0.045803 -0.998950 -0.000401
vn -0.046337 -0.998408 0.032175
vn -0.045375 -0.998666 -0.024649
vn -0.247287 0.527216 -0.812953
vn -0.291018 -0.000000 -0.956718
vn -0.045803 0.998950 -0.000401
vn -0.045375 0.998666 -0.024649
vn -0.046336 0.998408 0.032175
vn -0.291018 0.000000 0.956718
vn -0.247287 0.527216 0.812953
vn -0.001717 -0.997905 0.064669
vn 0.000437 -0.999950 -0.009997
vn -0.001028 -0.998931 -0.046217
vn -0.044063 0.000000 -0.999029
vn -0.038772 0.471197 -0.881175
vn -0.001028 0.998931 -0.046217
vn 0.000437 0.999950 -0.009997
vn -0.001717 0.997905 0.064670
vn 0.000105 0.471140 0.882059
vn -0.000085 -0.000000 1.000000
vn -0.247287 -0.527216 0.812953
vn 0.035139 -0.469675 0.882140
vn 0.052023 -0.464775 0.883899
vn 0.000105 -0.471140 0.882059
vn -0.043729 -0.472491 0.880250
vn 0.247287 -0.527216 0.812953
vn 0.868447 -0.475517 0.140300
vn 0.879104 -0.476630 0.000736
vn 0.875692 -0.471233 -0.105368
vn -0.024847 -0.475167 -0.879545
vn 0.247287 -0.527216 -0.812953
vn -0.038772 -0.471197 -0.881175
vn -0.024216 -0.484716 -0.874336
vn 0.116983 -0.463823 -0.878170
vn -0.247287 -0.527216 -0.812953
vn -0.875287 -0.471508 -0.107481
vn -0.878970 -0.476877 0.000700
vn -0.868447 -0.475517 0.140300
vn 0.007924 -0.999968 -0.001181
vn 0.000000 -0.998615 0.052622
vn 0.000000 -0.478512 0.878081
vn 0.000000 0.000000 1.000000
vn 0.000000 0.478512 0.878081
vn 0.000000 0.998615 0.052622
vn 0.007924 0.999968 -0.001181
vn 0.000320 0.997667 -0.068275
vn -0.020277 0.467524 -0.883748
vn 0.017007 0.000000 -0.999855
vn -0.020277 -0.467524 -0.883748
vn 0.000320 -0.997667 -0.068275
vn -0.007307 -0.999972 -0.001903
vn 0.000000 -0.998615 0.052622
vn 0.000000 -0.478512 0.878081
vn 0.000000 -0.000000 1.000000
vn 0.000000 0.478512 0.878081
vn 0.000000 0.998615 0.052622
vn -0.007307 0.999972 -0.001903
vn -0.001250 -0.999834 0.018198
vn 0.002686 -0.998531 0.054122
vn 0.058861 -0.476738 0.877073
vn 0.065167 -0.000000 0.997874
vn 0.058861 0.476738 0.877073
vn 0.002686 0.998531 0.054122
vn -0.001250 0.999834 0.018198
vn -0.008530 0.998176 -0.059763
vn -0.266372 0.472258 -0.840249
vn -0.285330 0.000000 -0.958429
vn -0.266372 -0.472258 -0.840249
vn -0.008530 -0.998176 -0.059764
s 1
g SwampPlank_2 CompletedStuff
usemtl initialShadingGroup
f 30/62/1 34/67/2 35/68/3 4/32/4
s 2
f 28/59/5 29/60/6 15/23/7 6/6/8
s 3
f 37/71/9 38/73/10 28/58/11 6/34/12
s 4
f 16/25/13 26/55/14 27/56/15 8/8/16
s 5
f 15/24/17 36/70/18 37/72/19 6/12/20
s 6
f 41/76/21 42/78/22 13/20/23 5/14/24
s 4
f 20/45/25 21/46/26 50/89/27 43/79/28
s 3
f 48/86/29 49/88/30 40/75/31 22/48/32
s 2
f 22/49/33 23/50/34 47/85/35 48/87/36
s 1
f 24/52/37 32/65/38 45/82/39 46/84/40
s 2
f 23/50/34 24/51/41 46/83/42 47/85/35
f 15/23/7 29/60/6 30/61/43 4/4/44
s 5
f 35/69/45 36/70/18 15/24/17 4/31/46
s 4
f 25/54/47 26/55/14 16/25/13 2/10/48
f 19/44/49 20/45/25 43/79/28 44/81/50
s 6
f 13/20/23 42/78/22 31/63/51 3/40/52
s 4
f 18/29/53 20/45/25 19/44/49 1/9/54
f 7/7/55 21/46/26 20/45/25 18/29/53
s 3
f 5/5/56 22/48/32 40/75/31 41/77/57
s 2
f 13/21/58 23/50/34 22/49/33 5/42/59
f 3/3/60 24/51/41 23/50/34 13/21/58
s 1
f 31/64/61 32/65/38 24/52/37 3/39/62
s 4
f 9/16/63 17/27/64 26/55/14 25/54/47
f 27/56/15 26/55/14 17/27/64 10/17/65
s 3
f 38/73/10 39/74/66 11/33/67 28/58/11
s 2
f 11/18/68 14/22/69 29/60/6 28/59/5
f 30/61/43 29/60/6 14/22/69 12/19/70
s 1
f 12/30/71 33/66/72 34/67/2 30/62/1
f 1/38/73 19/43/74 32/65/38 31/64/61
f 44/80/75 45/82/39 32/65/38 19/43/74
f 34/67/2 33/66/72 9/15/76 25/53/77
f 35/68/3 34/67/2 25/53/77 2/2/78
s 5
f 2/37/79 16/26/80 36/70/18 35/69/45
f 37/72/19 36/70/18 16/26/80 8/11/81
s 3
f 27/57/82 38/73/10 37/71/9 8/36/83
f 10/35/84 39/74/66 38/73/10 27/57/82
f 21/47/85 40/75/31 49/88/30 50/90/86
f 41/77/57 40/75/31 21/47/85 7/41/87
s 6
f 7/13/88 18/28/89 42/78/22 41/76/21
f 31/63/51 42/78/22 18/28/89 1/1/90
s 4
f 44/81/50 43/79/28 51/91/91 52/93/92
s 1
f 52/92/93 53/94/94 45/82/39 44/80/75
f 46/84/40 45/82/39 53/94/94 54/96/95
s 2
f 47/85/35 46/83/42 54/95/96 55/97/97
f 48/87/36 47/85/35 55/97/97 56/99/98
s 3
f 56/98/99 57/100/100 49/88/30 48/86/29
f 50/90/86 49/88/30 57/100/100 58/102/101
s 4
f 43/79/28 50/89/27 58/101/102 51/91/91
f 52/93/92 51/91/91 59/103/103 60/105/104
s 1
f 60/104/105 61/106/106 53/94/94 52/92/93
f 54/96/95 53/94/94 61/106/106 62/108/107
s 2
f 55/97/97 54/95/96 62/107/108 63/109/109
f 56/99/98 55/97/97 63/109/109
s 4
f 51/91/91 58/101/102 59/103/103
f 60/105/104 59/103/103 64/110/110 65/112/111
s 1
f 65/111/112 66/113/113 61/106/106 60/104/105
f 62/108/107 61/106/106 66/113/113 67/115/114
s 2
f 63/109/109 62/107/108 67/114/115 68/116/116
f 56/99/98 63/109/109 68/116/116 69/118/117
s 3
f 69/117/118 70/119/119 57/100/100 56/98/99
f 58/102/101 57/100/100 70/119/119 71/121/120
s 4
f 59/103/103 58/101/102 71/120/121 64/110/110
f 65/112/111 64/110/110 17/27/64 9/16/63
s 1
f 33/66/72 66/113/113 65/111/112 9/15/76
f 67/115/114 66/113/113 33/66/72 12/30/71
s 2
f 68/116/116 67/114/115 12/19/70 14/22/69
f 69/118/117 68/116/116 14/22/69 11/18/68
s 3
f 39/74/66 70/119/119 69/117/118 11/33/67
f 71/121/120 70/119/119 39/74/66 10/35/84
s 4
f 64/110/110 71/120/121 10/17/65 17/27/64
