# This file uses centimeters as units for non-parametric coordinates.

mtllib SwampStoneSmall_1.mtl
g default
v -0.171522 0.000000 0.120478
v 0.122256 0.000000 0.123316
v -0.091087 0.110449 0.043087
v 0.085043 0.152674 0.071012
v -0.099229 0.117520 -0.125635
v 0.091582 0.117520 -0.121132
v -0.174218 0.000000 -0.173159
v 0.122256 0.000000 -0.173159
v -0.025981 0.000000 0.234678
v -0.025981 0.000000 -0.234676
v -0.001898 0.117520 -0.160082
v 0.002605 0.150977 0.143696
v -0.081264 0.150330 -0.018097
v 0.032689 0.173000 -0.044621
v 0.133136 0.152674 -0.024139
v 0.174218 0.000000 -0.024921
v -0.025981 0.000000 -0.024921
v -0.122297 0.000000 -0.024921
v -0.139833 0.032493 0.087109
v -0.025981 0.076337 0.204760
v 0.122256 0.076337 0.123316
v 0.174218 0.076337 -0.024921
v 0.122256 0.059714 -0.173159
v -0.025981 0.059714 -0.234676
v -0.174218 0.059714 -0.173159
v -0.122297 0.076337 -0.024921
vt 0.451781 0.586222
vt 0.511791 0.669325
vt 0.386314 0.415412
vt 0.177399 0.359268
vt 0.429507 0.226343
vt 0.226400 0.163928
vt 0.581299 0.151625
vt 0.170911 0.018562
vt 0.194319 0.634372
vt 0.113219 0.830027
vt 0.335798 0.156432
vt 0.233882 0.450295
vt 0.382847 0.334293
vt 0.275138 0.274193
vt 0.172437 0.257450
vt 0.004883 0.192848
vt 0.345852 0.832197
vt 0.556137 0.384778
vt 0.439874 0.516161
vt 0.226510 0.552197
vt 0.083307 0.407094
vt 0.086201 0.224634
vt 0.198196 0.077285
vt 0.386439 0.063129
vt 0.525186 0.179488
vt 0.471211 0.358837
vt 0.344856 0.939019
vt 0.505604 0.995117
vt 0.347923 0.610163
vt 0.007106 0.435165
vt 0.403661 0.004883
vt 0.182980 0.666258
vt 0.633766 0.834883
vt 0.179913 0.995069
vn -0.091072 0.718958 0.689062
vn -0.142248 0.577027 0.804242
vn 0.513499 0.349996 0.783468
vn 0.461393 0.549429 0.696594
vn -0.054927 0.926509 -0.372241
vn -0.037260 0.988462 -0.146813
vn 0.180517 0.975067 -0.129067
vn 0.228427 0.863253 -0.450129
vn 0.351161 0.402008 -0.845621
vn -0.023687 0.447652 -0.893894
vn 0.041834 0.776926 -0.628200
vn 0.266923 0.718566 -0.642195
vn 0.000000 -1.000000 0.000000
vn 0.000000 -1.000000 0.000000
vn 0.000000 -1.000000 0.000000
vn 0.000000 -1.000000 0.000000
vn 0.822933 0.567491 0.027111
vn 0.958124 0.286323 0.004254
vn 0.905103 0.209332 -0.370093
vn 0.735445 0.549486 -0.396467
vn -0.940326 0.206666 0.270326
vn -0.910724 0.393664 0.124940
vn -0.796566 0.596226 0.099984
vn -0.765107 0.638172 0.085715
vn 0.000000 -1.000000 0.000000
vn 0.000000 -1.000000 0.000000
vn -0.222382 0.791652 -0.569064
vn -0.342766 0.413933 -0.843310
vn -0.289743 0.956499 -0.034029
vn -0.192313 0.927095 -0.321731
vn -0.650450 0.576388 0.494663
vn -0.674638 0.618906 0.402267
vn -0.343060 0.923030 0.174140
vn -0.173711 0.972351 0.156073
vn 0.132579 0.984703 0.113063
vn 0.912065 0.227893 0.340886
vn 0.792178 0.516144 0.325653
vn 0.000000 -1.000000 0.000000
vn 0.000000 -1.000000 0.000000
vn 0.000000 -1.000000 0.000000
vn -0.947305 0.288046 -0.140153
vn -0.841199 0.526833 0.121786
vn -0.615650 0.522372 0.590002
vn 0.019731 0.411684 0.911113
vn 0.537972 0.162108 0.827229
vn 0.943703 0.000000 0.330795
vn 0.999796 0.000000 0.020177
vn 0.943703 0.000000 -0.330795
vn 0.000000 0.000000 -1.000000
vn 0.383300 0.000000 -0.923624
vn -0.383300 0.000000 -0.923624
vn -0.943784 0.000000 0.330562
vn -0.988657 0.087650 0.121963
vn -0.953962 0.213048 -0.211110
s 1
g SwampSmallStone_1 CompletedStuff
usemtl initialShadingGroup
f 12/12/1 20/20/2 21/21/3 4/4/4
s 2
f 11/11/5 14/14/6 15/15/7 6/6/8
s 3
f 23/23/9 24/24/10 11/11/11 6/6/12
s 4
f 16/29/13 17/17/14 10/10/15 8/32/16
s 5
f 15/15/17 22/22/18 23/23/19 6/6/20
s 6
f 25/25/21 26/26/22 13/13/23 5/5/24
s 4
f 7/34/25 10/10/15 17/17/14 18/27/26
s 3
f 5/5/27 11/11/11 24/24/10 25/25/28
s 2
f 13/13/29 14/14/6 11/11/5 5/5/30
s 1
f 19/19/31 20/20/2 12/12/1 3/3/32
s 2
f 3/3/33 12/12/34 14/14/6 13/13/29
f 15/15/7 14/14/6 12/12/34 4/4/35
s 5
f 21/21/36 22/22/18 15/15/17 4/4/37
s 4
f 9/33/38 17/17/14 16/29/13 2/2/39
f 18/27/26 17/17/14 9/33/38 1/28/40
s 6
f 13/13/23 26/26/22 19/19/41 3/3/42
s 1
f 1/1/43 9/9/44 20/20/2 19/19/31
f 21/21/3 20/20/2 9/9/44 2/30/45
s 5
f 2/30/46 16/16/47 22/22/18 21/21/36
f 23/23/19 22/22/18 16/16/47 8/8/48
s 3
f 10/31/49 24/24/10 23/23/9 8/8/50
f 25/25/28 24/24/10 10/31/49 7/7/51
s 6
f 7/7/52 18/18/53 26/26/22 25/25/21
f 19/19/41 26/26/22 18/18/53 1/1/54
