# This file uses centimeters as units for non-parametric coordinates.

mtllib GroundSlashSlab.mtl
g default
v 2.111118 1.598680 -1.665865
v -1.170300 3.417358 1.555857
v -1.292469 3.265739 -1.561150
v -1.065840 0.010275 -1.392765
v 2.115242 2.799232 -1.629971
v -1.401152 0.175559 1.668560
v 2.110924 0.199468 -0.263804
v 2.114388 3.125366 1.602930
v -1.402414 0.160540 -0.414572
v 2.115967 0.759356 1.584822
v -1.402750 3.156570 1.113293
v 1.854439 3.142410 -1.848213
v 1.946484 0.007234 1.149460
v -1.244247 1.349039 1.862179
v 1.814342 0.009709 -1.652483
v 0.830913 0.124921 1.854935
v -1.260378 2.892517 1.863735
v 1.874653 3.417374 1.648052
v 0.254142 1.935905 1.823318
v 1.856731 3.333839 -1.774124
v -1.266533 0.314308 -1.860970
v -1.118156 3.414597 -1.591944
v -1.401924 3.242149 -0.604887
v -1.211147 0.008440 0.904020
v 0.823646 0.750575 -1.861187
v 0.096711 0.118329 -1.765831
v -0.647063 3.203125 1.857384
v 2.115612 3.199451 -1.379070
v 1.852173 3.268547 1.853207
v 1.996174 0.178752 -1.633341
v 1.901047 0.413015 -1.861782
v 1.312191 0.145329 -1.843292
v -1.062214 0.203120 1.860363
v 0.802190 3.416901 -1.701096
v 1.926044 3.415161 -1.408520
v 1.965717 0.127387 1.709808
v 1.806984 0.745116 1.853275
v -0.281893 3.416214 1.683802
v -0.071602 0.027521 1.475107
v -1.403061 2.904663 1.594145
v -1.153263 0.040541 1.648712
v -1.405006 2.873657 -1.624762
v -1.287865 2.558975 -1.836174
v 2.060291 3.316025 -0.110089
v -0.317863 3.269493 -1.860363
v -0.641381 0.007781 -1.588142
v -0.119954 0.192641 1.863495
v -1.179670 3.184166 -1.862499
v 1.632744 0.169332 1.833519
v 0.547034 3.194946 1.856392
v 0.837087 3.140919 -1.862114
v 2.086140 0.262562 1.697218
v -1.403084 0.218904 -1.596672
v -1.321714 0.095901 -1.373596
vt 0.529928 0.405987
vt 0.573416 0.411388
vt 0.570019 0.502599
vt 0.612274 0.115865
vt 0.511332 0.013975
vt 0.604110 0.008178
vt 0.377480 0.407717
vt 0.481803 0.293326
vt 0.487936 0.358254
vt 0.489168 0.515693
vt 0.496229 0.406581
vt 0.635984 0.395960
vt 0.736376 0.353449
vt 0.680608 0.401067
vt 0.501549 0.393905
vt 0.494797 0.274711
vt 0.571938 0.399155
vt 0.471362 0.275889
vt 0.371822 0.361959
vt 0.367195 0.281246
vt 0.613820 0.270902
vt 0.612136 0.386911
vt 0.529635 0.270233
vt 0.490239 0.108530
vt 0.490045 0.190140
vt 0.548747 0.211910
vt 0.561620 0.259419
vt 0.721622 0.280107
vt 0.622326 0.385629
vt 0.628941 0.275084
vt 0.533749 0.145761
vt 0.569350 0.143130
vt 0.495311 0.021102
vt 0.481165 0.057994
vt 0.486357 0.000123
vt 0.538730 0.004838
vt 0.535092 0.129314
vt 0.724776 0.415704
vt 0.620179 0.406743
vt 0.619424 0.338455
vt 0.741644 0.276689
vt 0.751066 0.299637
vt 0.743366 0.409270
vt 0.411745 0.268375
vt 0.470966 0.264315
vt 0.733897 0.406220
vt 0.541186 0.525848
vt 0.748671 0.277064
vt 0.606646 0.164389
vt 0.617740 0.144702
vt 0.612626 0.261066
vt 0.622190 0.261412
vt 0.612188 0.402134
vt 0.382782 0.418605
vt 0.469249 0.408213
vt 0.485132 0.021212
vt 0.493695 0.393496
vt 0.479516 0.397738
vt 0.359391 0.311589
vt 0.484694 0.141333
vt 0.495029 0.136976
vt 0.498811 0.146279
vt 0.588184 0.526142
vt 0.611215 0.516441
vt 0.584606 0.000000
vt 0.491636 0.250097
vt 0.515509 0.260426
vt 0.608010 0.533855
vt 0.599367 0.143062
vt 0.612507 0.139343
vt 0.491150 0.430172
vt 0.612156 0.410307
vt 0.371163 0.399598
vt 0.481535 0.011380
vn -0.005013 0.154963 -0.987908
vn 0.005664 0.053923 -0.998529
vn -0.003786 -0.014022 -0.999895
vn 0.101872 -0.994628 0.018376
vn -0.007525 -0.998416 -0.055764
vn 0.043213 -0.998275 -0.039757
vn -0.997785 -0.024871 -0.061702
vn -0.993871 0.110016 0.010775
vn -0.985278 0.170942 -0.002664
vn -0.003786 -0.014022 -0.999895
vn -0.127464 -0.048838 -0.990640
vn -0.040578 0.057713 -0.997508
vn 0.979104 0.009977 -0.203118
vn 0.989114 -0.146327 -0.015525
vn 0.989430 -0.019850 -0.143647
vn -0.039407 0.998492 -0.038222
vn -0.097340 0.992886 0.068570
vn 0.001982 0.997814 -0.066056
vn -0.994960 0.029343 0.095885
vn -0.991643 -0.128967 -0.003513
vn -0.996528 -0.046465 0.069089
vn 0.066390 0.997111 0.036919
vn 0.059092 0.998109 -0.016938
vn -0.000750 0.997851 0.065515
vn -0.007525 -0.998416 -0.055764
vn 0.101872 -0.994628 0.018376
vn -0.071260 -0.997446 0.004944
vn -0.132605 0.001015 0.991168
vn 0.006365 -0.005208 0.999966
vn 0.009535 0.146063 0.989229
vn 0.999843 -0.006882 0.016361
vn 0.997432 0.067940 -0.022677
vn 0.992159 0.054573 0.112435
vn 0.010258 -0.172897 0.984887
vn 0.010523 -0.429577 0.902969
vn 0.006365 -0.005208 0.999966
vn -0.120048 -0.988711 -0.089666
vn -0.071260 -0.997446 0.004944
vn -0.991643 -0.128967 -0.003513
vn -0.127464 -0.048838 -0.990640
vn 0.007856 -0.426850 -0.904288
vn -0.007525 -0.998416 -0.055764
vn 0.999843 -0.006882 0.016361
vn 0.989114 -0.146327 -0.015525
vn 0.979104 0.009977 -0.203118
vn 0.101872 -0.994628 0.018376
vn 0.010523 -0.429577 0.902969
vn -0.000578 -0.992602 0.121411
vn -0.993871 0.110016 0.010775
vn -0.097340 0.992886 0.068570
vn -0.985278 0.170942 -0.002664
vn 0.009535 0.146063 0.989229
vn 0.066390 0.997111 0.036919
vn -0.000750 0.997851 0.065515
vn 0.191520 -0.047729 -0.980328
vn 0.123545 0.035627 -0.991699
vn 0.979104 0.009977 -0.203118
vn 0.059092 0.998109 -0.016938
vn 0.066390 0.997111 0.036919
vn 0.761042 0.648627 0.009884
vn 0.989114 -0.146327 -0.015525
vn 0.938607 -0.146471 0.312352
vn 0.101872 -0.994628 0.018376
vn 0.043213 -0.998275 -0.039757
vn 0.989114 -0.146327 -0.015525
vn 0.101872 -0.994628 0.018376
vn -0.996528 -0.046465 0.069089
vn -0.132605 0.001015 0.991168
vn -0.423485 0.087338 0.901683
vn 0.010258 -0.172897 0.984887
vn -0.000578 -0.992602 0.121411
vn 0.010523 -0.429577 0.902969
vn 0.043213 -0.998275 -0.039757
vn 0.971232 -0.197838 -0.132546
vn 0.989114 -0.146327 -0.015525
vn -0.127464 -0.048838 -0.990640
vn -0.003786 -0.014022 -0.999895
vn 0.007856 -0.426850 -0.904288
vn 0.101872 -0.994628 0.018376
vn 0.938607 -0.146471 0.312352
vn 0.313173 -0.737915 0.597833
vn 0.111531 -0.001363 0.993760
vn 0.938607 -0.146471 0.312352
vn 0.144841 0.086510 0.985666
vn -0.994960 0.029343 0.095885
vn -0.423485 0.087338 0.901683
vn -0.097340 0.992886 0.068570
vn -0.994960 0.029343 0.095885
vn -0.996528 -0.046465 0.069089
vn -0.423485 0.087338 0.901683
vn 0.066390 0.997111 0.036919
vn 0.992159 0.054573 0.112435
vn 0.761042 0.648627 0.009884
vn 0.938607 -0.146471 0.312352
vn 0.992159 0.054573 0.112435
vn 0.144841 0.086510 0.985666
vn 0.066390 0.997111 0.036919
vn 0.144841 0.086510 0.985666
vn 0.992159 0.054573 0.112435
vn 0.009535 0.146063 0.989229
vn 0.144841 0.086510 0.985666
vn 0.066390 0.997111 0.036919
vn 0.123545 0.035627 -0.991699
vn 0.264860 0.786190 -0.558350
vn 0.979104 0.009977 -0.203118
vn 0.001982 0.997814 -0.066056
vn 0.005664 0.053923 -0.998529
vn -0.005013 0.154963 -0.987908
vn -0.127464 -0.048838 -0.990640
vn -0.997785 -0.024871 -0.061702
vn -0.736316 0.005319 -0.676617
vn -0.127464 -0.048838 -0.990640
vn -0.120048 -0.988711 -0.089666
vn -0.524669 -0.845965 -0.095213
vn -0.097340 0.992886 0.068570
vn -0.039407 0.998492 -0.038222
vn -0.985278 0.170942 -0.002664
vn -0.039407 0.998492 -0.038222
vn 0.001982 0.997814 -0.066056
vn -0.005013 0.154963 -0.987908
vn -0.863914 0.478272 -0.157826
vn -0.985278 0.170942 -0.002664
vn -0.039407 0.998492 -0.038222
vn -0.997785 -0.024871 -0.061702
vn -0.985278 0.170942 -0.002664
vn -0.996967 0.029097 -0.072179
vn -0.071260 -0.997446 0.004944
vn -0.996528 -0.046465 0.069089
vn -0.991643 -0.128967 -0.003513
vn -0.996528 -0.046465 0.069089
vn -0.098708 -0.976662 0.190756
vn -0.126578 -0.167115 0.977778
vn -0.003786 -0.014022 -0.999895
vn -0.012843 -0.376734 -0.926232
vn 0.007856 -0.426850 -0.904288
vn -0.003786 -0.014022 -0.999895
vn 0.005664 0.053923 -0.998529
vn 0.191520 -0.047729 -0.980328
vn -0.007525 -0.998416 -0.055764
vn 0.007856 -0.426850 -0.904288
vn 0.043213 -0.998275 -0.039757
vn 0.007856 -0.426850 -0.904288
vn -0.012843 -0.376734 -0.926232
vn 0.043213 -0.998275 -0.039757
vn -0.423485 0.087338 0.901683
vn -0.132605 0.001015 0.991168
vn -0.022057 0.122220 0.992258
vn -0.423485 0.087338 0.901683
vn -0.022057 0.122220 0.992258
vn -0.097340 0.992886 0.068570
vn 0.997432 0.067940 -0.022677
vn 0.979104 0.009977 -0.203118
vn 0.264860 0.786190 -0.558350
vn 0.999843 -0.006882 0.016361
vn 0.979104 0.009977 -0.203118
vn 0.997432 0.067940 -0.022677
vn 0.006365 -0.005208 0.999966
vn 0.144841 0.086510 0.985666
vn 0.009535 0.146063 0.989229
vn 0.006365 -0.005208 0.999966
vn 0.111531 -0.001363 0.993760
vn 0.144841 0.086510 0.985666
vn 0.989114 -0.146327 -0.015525
vn 0.971232 -0.197838 -0.132546
vn 0.989430 -0.019850 -0.143647
vn 0.989430 -0.019850 -0.143647
vn 0.191520 -0.047729 -0.980328
vn 0.979104 0.009977 -0.203118
vn 0.043213 -0.998275 -0.039757
vn 0.191520 -0.047729 -0.980328
vn 0.971232 -0.197838 -0.132546
vn 0.989430 -0.019850 -0.143647
vn 0.971232 -0.197838 -0.132546
vn 0.191520 -0.047729 -0.980328
vn -0.012843 -0.376734 -0.926232
vn 0.191520 -0.047729 -0.980328
vn 0.043213 -0.998275 -0.039757
vn -0.003786 -0.014022 -0.999895
vn 0.191520 -0.047729 -0.980328
vn -0.012843 -0.376734 -0.926232
vn -0.996528 -0.046465 0.069089
vn -0.126578 -0.167115 0.977778
vn -0.132605 0.001015 0.991168
vn -0.132605 0.001015 0.991168
vn 0.010258 -0.172897 0.984887
vn 0.006365 -0.005208 0.999966
vn 0.001982 0.997814 -0.066056
vn 0.264860 0.786190 -0.558350
vn 0.005664 0.053923 -0.998529
vn 0.001982 0.997814 -0.066056
vn -0.097340 0.992886 0.068570
vn 0.059092 0.998109 -0.016938
vn 0.997432 0.067940 -0.022677
vn 0.264860 0.786190 -0.558350
vn 0.059092 0.998109 -0.016938
vn 0.001982 0.997814 -0.066056
vn 0.059092 0.998109 -0.016938
vn 0.264860 0.786190 -0.558350
vn 0.010523 -0.429577 0.902969
vn 0.101872 -0.994628 0.018376
vn 0.094227 -0.661226 0.744245
vn 0.010523 -0.429577 0.902969
vn 0.111531 -0.001363 0.993760
vn 0.006365 -0.005208 0.999966
vn 0.010523 -0.429577 0.902969
vn 0.094227 -0.661226 0.744245
vn 0.111531 -0.001363 0.993760
vn 0.313173 -0.737915 0.597833
vn 0.938607 -0.146471 0.312352
vn 0.111531 -0.001363 0.993760
vn 0.059092 0.998109 -0.016938
vn -0.097340 0.992886 0.068570
vn -0.000750 0.997851 0.065515
vn -0.000750 0.997851 0.065515
vn -0.097340 0.992886 0.068570
vn -0.022057 0.122220 0.992258
vn -0.098708 -0.976662 0.190756
vn -0.000578 -0.992602 0.121411
vn 0.010258 -0.172897 0.984887
vn 0.101872 -0.994628 0.018376
vn -0.000578 -0.992602 0.121411
vn -0.071260 -0.997446 0.004944
vn -0.994960 0.029343 0.095885
vn -0.993871 0.110016 0.010775
vn -0.991643 -0.128967 -0.003513
vn -0.994960 0.029343 0.095885
vn -0.097340 0.992886 0.068570
vn -0.993871 0.110016 0.010775
vn -0.071260 -0.997446 0.004944
vn -0.000578 -0.992602 0.121411
vn -0.098708 -0.976662 0.190756
vn -0.996528 -0.046465 0.069089
vn -0.071260 -0.997446 0.004944
vn -0.098708 -0.976662 0.190756
vn -0.996967 0.029097 -0.072179
vn -0.985278 0.170942 -0.002664
vn -0.863914 0.478272 -0.157826
vn -0.736316 0.005319 -0.676617
vn -0.997785 -0.024871 -0.061702
vn -0.996967 0.029097 -0.072179
vn -0.736316 0.005319 -0.676617
vn -0.996967 0.029097 -0.072179
vn -0.040578 0.057713 -0.997508
vn -0.736316 0.005319 -0.676617
vn -0.040578 0.057713 -0.997508
vn -0.127464 -0.048838 -0.990640
vn 0.761042 0.648627 0.009884
vn 0.997432 0.067940 -0.022677
vn 0.059092 0.998109 -0.016938
vn 0.992159 0.054573 0.112435
vn 0.997432 0.067940 -0.022677
vn 0.761042 0.648627 0.009884
vn -0.040578 0.057713 -0.997508
vn -0.996967 0.029097 -0.072179
vn -0.863914 0.478272 -0.157826
vn -0.863914 0.478272 -0.157826
vn -0.039407 0.998492 -0.038222
vn -0.040578 0.057713 -0.997508
vn -0.127464 -0.048838 -0.990640
vn -0.007525 -0.998416 -0.055764
vn -0.120048 -0.988711 -0.089666
vn -0.120048 -0.988711 -0.089666
vn -0.007525 -0.998416 -0.055764
vn -0.071260 -0.997446 0.004944
vn -0.126578 -0.167115 0.977778
vn 0.010258 -0.172897 0.984887
vn -0.132605 0.001015 0.991168
vn -0.098708 -0.976662 0.190756
vn 0.010258 -0.172897 0.984887
vn -0.126578 -0.167115 0.977778
vn -0.039407 0.998492 -0.038222
vn -0.005013 0.154963 -0.987908
vn -0.040578 0.057713 -0.997508
vn -0.040578 0.057713 -0.997508
vn -0.005013 0.154963 -0.987908
vn -0.003786 -0.014022 -0.999895
vn 0.094227 -0.661226 0.744245
vn 0.313173 -0.737915 0.597833
vn 0.111531 -0.001363 0.993760
vn 0.101872 -0.994628 0.018376
vn 0.313173 -0.737915 0.597833
vn 0.094227 -0.661226 0.744245
vn -0.132605 0.001015 0.991168
vn 0.009535 0.146063 0.989229
vn -0.022057 0.122220 0.992258
vn 0.009535 0.146063 0.989229
vn -0.000750 0.997851 0.065515
vn -0.022057 0.122220 0.992258
vn 0.264860 0.786190 -0.558350
vn 0.123545 0.035627 -0.991699
vn 0.005664 0.053923 -0.998529
vn 0.005664 0.053923 -0.998529
vn 0.123545 0.035627 -0.991699
vn 0.191520 -0.047729 -0.980328
vn 0.938607 -0.146471 0.312352
vn 0.999843 -0.006882 0.016361
vn 0.992159 0.054573 0.112435
vn 0.938607 -0.146471 0.312352
vn 0.989114 -0.146327 -0.015525
vn 0.999843 -0.006882 0.016361
vn -0.997785 -0.024871 -0.061702
vn -0.991643 -0.128967 -0.003513
vn -0.993871 0.110016 0.010775
vn -0.524669 -0.845965 -0.095213
vn -0.120048 -0.988711 -0.089666
vn -0.991643 -0.128967 -0.003513
vn -0.524669 -0.845965 -0.095213
vn -0.991643 -0.128967 -0.003513
vn -0.997785 -0.024871 -0.061702
vn -0.127464 -0.048838 -0.990640
vn -0.524669 -0.845965 -0.095213
vn -0.997785 -0.024871 -0.061702
s off
g GroundSlashSlab
usemtl initialShadingGroup
f 45/1/1 51/2/2 25/3/3
f 13/4/4 46/5/5 15/6/6
f 53/7/7 11/8/8 23/9/9
f 25/3/10 21/10/11 48/11/12
f 5/12/13 7/13/14 1/14/15
f 22/15/16 2/16/17 34/17/18
f 40/18/19 9/19/20 6/20/21
f 18/21/22 35/22/23 38/23/24
f 46/5/25 13/4/26 24/24/27
f 14/25/28 19/26/29 50/27/30
f 10/28/31 28/29/32 8/30/33
f 47/31/34 16/32/35 19/26/36
f 4/33/37 24/24/38 9/34/39
f 21/35/40 26/36/41 46/5/42
f 10/28/43 7/13/44 5/12/45
f 13/4/46 16/32/47 39/37/48
f 11/8/49 2/16/50 23/9/51
f 50/27/52 18/21/53 38/23/54
f 31/38/55 12/39/56 5/12/57
f 35/22/58 18/21/59 44/40/60
f 7/13/61 52/41/62 13/42/63
f 15/43/64 7/13/65 13/42/66
f 6/20/67 14/44/68 17/45/69
f 47/31/70 39/37/71 16/32/72
f 15/43/73 30/46/74 7/13/75
f 21/10/76 25/3/77 26/47/78
f 13/42/79 52/41/80 36/48/81
f 37/49/82 52/50/83 29/51/84
f 40/18/85 17/45/86 2/16/87
f 40/18/88 6/20/89 17/45/90
f 18/21/91 8/30/92 44/40/93
f 52/41/94 8/30/95 29/52/96
f 18/21/97 29/52/98 8/30/99
f 50/27/100 29/51/101 18/21/102
f 12/39/103 20/53/104 5/12/105
f 34/17/106 51/2/107 45/1/108
f 21/54/109 53/7/110 43/55/111
f 21/35/112 4/33/113 54/56/114
f 2/16/115 22/15/116 23/9/117
f 22/15/118 34/17/119 45/1/120
f 3/57/121 23/9/122 22/15/123
f 53/7/124 23/9/125 42/58/126
f 24/59/127 6/20/128 9/19/129
f 6/60/130 41/61/131 33/62/132
f 25/3/133 32/63/134 26/47/135
f 25/3/136 51/2/137 31/64/138
f 46/5/139 26/36/140 15/6/141
f 26/36/142 32/65/143 15/6/144
f 17/66/145 14/25/146 27/67/147
f 17/66/148 27/67/149 2/16/150
f 28/29/151 5/12/152 20/53/153
f 10/28/154 5/12/155 28/29/156
f 19/26/157 29/51/158 50/27/159
f 19/26/160 37/49/161 29/51/162
f 7/13/163 30/46/164 1/14/165
f 1/14/166 31/38/167 5/12/168
f 15/43/169 31/38/170 30/46/171
f 1/14/172 30/46/173 31/38/174
f 32/63/175 31/64/176 15/68/177
f 25/3/178 31/64/179 32/63/180
f 6/60/181 33/62/182 14/25/183
f 14/25/184 47/31/185 19/26/186
f 34/17/187 20/53/188 51/2/189
f 34/17/190 2/16/191 35/22/192
f 28/29/193 20/53/194 35/22/195
f 34/17/196 35/22/197 20/53/198
f 16/32/199 13/4/200 49/69/201
f 16/32/202 37/49/203 19/26/204
f 16/32/205 49/69/206 37/49/207
f 36/70/208 52/50/209 37/49/210
f 35/22/211 2/16/212 38/23/213
f 38/23/214 2/16/215 27/67/216
f 41/61/217 39/37/218 47/31/219
f 13/4/220 39/37/221 24/24/222
f 40/18/223 11/8/224 9/19/225
f 40/18/226 2/16/227 11/8/228
f 24/24/229 39/37/230 41/61/231
f 6/60/232 24/24/233 41/61/234
f 42/58/235 23/9/236 3/57/237
f 43/55/238 53/7/239 42/58/240
f 43/55/241 42/58/242 48/11/243
f 43/71/244 48/11/245 21/10/246
f 44/40/247 28/29/248 35/22/249
f 8/30/250 28/29/251 44/40/252
f 48/11/253 42/58/254 3/57/255
f 3/57/256 22/15/257 48/11/258
f 21/35/259 46/5/260 4/33/261
f 4/33/262 46/5/263 24/24/264
f 33/62/265 47/31/266 14/25/267
f 41/61/268 47/31/269 33/62/270
f 22/15/271 45/1/272 48/11/273
f 48/11/274 45/1/275 25/3/276
f 49/69/277 36/70/278 37/49/279
f 13/4/280 36/70/281 49/69/282
f 14/25/283 50/27/284 27/67/285
f 50/27/286 38/23/287 27/67/288
f 20/53/289 12/72/290 51/2/291
f 51/2/292 12/72/293 31/64/294
f 52/41/295 10/28/296 8/30/297
f 52/41/298 7/13/299 10/28/300
f 53/7/301 9/19/302 11/8/303
f 54/56/304 4/33/305 9/34/306
f 54/73/307 9/19/308 53/7/309
f 21/35/310 54/56/311 53/74/312
